P2
100 100
255
203 203 203 203 203 201 201 200 201 200 200 201 200 198 200 200 200 200 200 198 200 198 198 198 198 198 198 198 197 197 197 197 197 197 197 198 203 210 194 164 156 158 168 177 191 201 200 197 195 195 200 203 207 194 155 128 107 98 102 119 147 189 204 200 195 194 194 192 194 192 192 192 192 194 192 194 192 191 194 204 213 224 234 245 255 255 255 255 255 255 255 255 255 255 255 255 255 255 255 255 
203 203 201 201 203 201 201 201 201 200 201 200 200 198 200 198 198 200 198 200 198 198 200 198 198 198 198 198 198 198 197 198 198 197 207 230 200 149 96 77 81 89 102 117 144 162 180 198 200 203 209 159 93 60 71 90 104 113 113 111 102 89 107 162 201 198 194 194 194 192 192 192 192 192 192 192 192 192 192 200 210 221 234 255 255 255 255 255 255 255 255 255 255 255 255 255 255 255 255 255 
203 201 203 203 203 203 201 201 201 200 201 200 201 200 200 198 200 200 200 200 200 198 198 198 198 198 198 198 198 198 197 197 200 234 213 152 111 87 69 75 77 80 81 83 81 96 137 168 192 185 92 59 86 120 132 135 132 134 132 134 135 134 137 125 128 183 198 195 194 192 194 192 192 192 192 192 192 192 192 197 206 230 255 255 255 255 255 255 255 255 255 255 255 255 255 255 255 255 255 255 
203 203 203 203 203 203 201 201 201 201 201 200 201 200 200 200 198 200 200 200 200 200 200 200 200 200 198 198 198 198 197 207 240 177 153 141 123 96 87 87 89 93 101 96 96 95 87 104 167 75 68 116 134 134 137 137 140 129 120 117 119 129 144 147 146 137 170 200 195 194 194 194 192 192 192 192 194 192 192 200 228 255 255 255 255 255 255 255 255 255 255 255 255 255 255 255 255 255 255 255 
204 203 203 203 203 203 201 203 203 201 201 201 201 200 198 200 200 200 200 200 200 200 200 200 198 200 201 201 201 198 209 234 188 179 165 111 66 33 24 24 26 27 35 47 72 101 107 98 99 84 117 131 137 135 111 87 72 71 74 78 77 75 72 84 113 147 153 170 198 197 195 195 194 194 194 192 194 195 209 233 255 255 248 236 236 242 249 255 255 255 255 255 255 255 255 255 255 255 255 255 
204 204 203 203 204 203 201 201 201 201 201 201 201 200 200 200 200 200 200 200 198 200 200 201 203 203 195 185 182 192 231 209 186 122 66 48 41 32 33 36 38 38 36 35 32 30 53 96 107 83 120 129 105 74 71 77 78 78 80 80 80 83 80 81 77 80 111 156 179 197 195 197 198 198 197 197 201 218 234 237 222 210 212 219 227 236 245 255 255 255 255 255 255 255 255 255 255 255 255 255 
204 204 203 203 203 203 201 203 201 203 203 201 201 201 201 200 200 200 200 200 201 206 213 207 182 164 161 156 140 200 218 170 98 80 63 53 42 35 41 42 42 42 44 42 42 38 35 30 72 83 111 78 69 78 78 77 80 81 80 83 83 80 80 81 80 81 84 92 144 152 141 149 155 165 180 203 225 228 218 204 195 197 206 213 221 230 239 248 252 255 255 255 255 255 255 255 255 255 255 255 
204 204 204 203 204 203 203 203 201 203 203 203 201 201 201 201 201 201 201 213 234 222 186 153 155 176 185 185 198 227 164 104 95 80 59 51 48 44 47 47 47 50 48 48 45 45 42 39 30 57 62 68 74 77 77 83 86 87 87 86 86 87 87 87 86 86 89 90 93 140 159 161 164 156 158 161 170 191 206 204 200 198 201 207 215 222 230 237 245 251 255 255 255 255 255 255 255 255 255 255 
204 204 204 204 204 204 203 203 203 203 201 201 200 201 201 201 201 204 228 195 147 111 90 92 92 92 111 140 222 174 131 107 92 84 63 53 45 41 42 41 42 44 44 45 48 50 50 48 38 18 42 68 77 83 81 81 65 57 50 45 44 50 57 66 81 96 99 95 96 95 146 95 71 77 77 71 63 72 104 176 218 210 203 203 209 215 222 230 236 243 248 255 255 255 255 255 255 255 255 255 
204 204 204 204 204 204 204 204 203 203 201 203 203 201 201 203 206 218 177 155 137 108 104 107 102 105 102 98 204 152 128 110 101 92 68 56 42 41 44 47 50 50 50 48 44 44 50 42 48 21 41 71 80 71 45 32 32 35 38 38 38 38 38 36 33 50 74 96 102 101 108 96 75 77 74 72 75 80 86 89 144 218 213 204 203 207 215 222 228 234 240 255 255 255 255 255 255 255 255 255 
204 204 204 203 204 203 204 203 203 203 203 203 203 203 201 206 213 195 170 159 140 120 120 123 122 120 113 117 173 156 144 125 113 90 77 63 51 47 48 50 54 53 53 54 51 50 48 47 45 27 45 65 38 27 33 38 41 41 44 44 44 42 44 42 42 42 38 47 86 108 110 99 68 75 75 77 81 89 99 108 108 116 198 212 201 200 207 215 221 227 234 255 245 246 249 252 255 255 255 255 
206 204 204 204 206 204 204 203 203 203 203 203 203 201 209 221 213 170 117 75 47 36 41 50 65 86 108 122 176 173 161 128 111 93 77 62 51 51 53 56 56 54 57 57 56 56 53 53 44 32 38 21 29 36 38 41 44 47 47 47 47 45 45 45 47 45 44 44 42 68 110 113 75 105 134 150 158 165 174 173 159 132 102 183 206 197 200 206 210 219 239 237 231 236 239 242 248 248 255 255 
206 206 204 204 204 204 204 204 203 204 203 203 203 206 230 185 111 78 68 59 47 47 48 50 51 50 35 117 195 176 150 123 107 93 77 63 56 56 56 57 57 57 59 63 62 62 59 59 53 42 9 21 36 39 41 44 45 47 50 50 48 48 48 47 48 50 50 48 48 44 57 114 113 135 149 153 156 161 171 179 185 185 167 113 180 200 195 206 222 239 252 248 243 233 230 233 236 237 245 255 
206 206 204 204 206 206 204 204 204 203 203 203 204 231 168 116 96 83 72 60 51 54 56 56 59 57 33 122 207 174 150 123 107 93 78 63 57 57 57 59 59 59 59 63 63 62 62 60 60 42 5 26 38 44 44 48 50 53 53 51 51 51 51 51 51 51 51 54 53 51 45 57 111 129 146 153 156 161 165 171 176 174 176 171 138 209 227 230 228 234 249 255 255 255 255 237 227 227 233 255 
204 206 206 206 206 204 204 204 204 204 203 203 225 182 138 119 96 86 75 65 59 57 60 60 63 57 30 101 203 185 158 131 111 98 80 60 51 51 62 72 74 74 72 71 65 57 59 60 62 45 5 27 38 41 42 45 45 48 47 48 47 47 47 47 47 50 54 53 57 56 53 32 80 129 149 158 161 164 167 170 171 170 170 168 186 195 234 231 230 237 255 255 255 255 255 248 230 215 224 255 
207 206 206 206 204 204 204 204 204 204 203 209 219 167 138 125 101 93 84 66 54 54 57 57 62 63 36 101 222 194 171 143 114 93 84 84 96 110 114 120 120 116 114 117 123 120 107 84 60 45 5 23 35 42 50 54 54 54 53 53 53 53 53 54 54 53 51 53 59 59 57 50 47 134 138 126 119 119 123 134 152 171 171 177 198 197 219 233 230 246 255 255 255 255 255 249 234 209 212 246 
206 206 206 206 204 204 204 204 204 204 201 233 206 177 147 135 113 98 84 72 62 65 65 63 59 56 42 92 245 209 180 147 146 159 144 117 108 111 111 113 114 111 111 113 116 122 126 129 126 81 8 21 44 50 53 53 56 56 57 54 54 51 54 57 56 57 60 59 56 57 63 59 44 65 72 81 89 89 92 90 89 90 116 177 204 200 204 231 231 246 255 255 255 255 255 245 230 219 201 233 
207 206 206 206 206 206 206 204 203 200 203 249 203 183 156 129 116 95 84 74 68 66 69 66 69 68 45 63 255 216 201 210 197 171 141 110 102 108 107 110 111 110 113 113 114 117 119 123 126 125 30 26 44 50 51 54 57 57 59 57 57 54 56 59 59 60 60 62 62 60 57 62 51 56 75 90 95 96 95 98 98 101 113 129 146 194 206 221 231 236 255 255 255 255 255 234 230 228 209 227 
206 206 206 206 204 204 204 203 200 219 255 239 204 177 155 122 110 93 83 74 71 72 72 72 74 71 45 36 255 252 245 213 188 162 143 111 105 110 108 108 110 113 113 113 113 117 117 119 122 122 35 27 44 50 53 56 59 60 62 59 57 56 56 60 59 60 60 60 62 62 63 59 54 53 66 95 98 99 99 102 105 105 138 141 140 126 182 212 233 231 240 255 255 255 239 230 230 230 227 222 
207 207 207 206 206 204 203 197 233 255 255 227 198 171 156 122 111 98 86 77 72 77 77 77 75 72 48 20 255 255 240 209 188 161 144 110 105 110 108 110 111 110 113 113 114 117 117 119 119 120 39 27 45 51 54 57 60 62 60 59 57 57 59 60 60 59 60 62 62 62 62 65 51 57 90 98 102 104 102 102 107 110 144 143 149 146 135 188 222 234 231 230 233 230 230 228 228 230 231 219 
207 207 206 206 206 201 194 254 255 255 251 225 198 173 162 138 119 102 87 77 75 77 77 75 75 72 51 44 230 255 237 206 186 159 146 114 105 111 108 107 108 105 104 107 108 110 113 114 116 117 44 27 44 48 53 54 54 54 53 54 53 53 56 57 60 62 62 63 63 63 60 63 59 59 90 93 96 101 105 110 110 108 144 147 149 149 146 141 207 219 231 231 230 231 230 228 228 230 227 215 
207 207 207 206 203 194 255 255 255 255 239 239 206 188 177 153 126 104 81 80 95 105 114 117 120 114 90 60 182 255 237 204 185 162 147 116 101 95 101 119 132 137 140 138 140 140 129 113 101 102 48 26 38 56 68 74 81 87 89 86 78 75 72 66 54 53 60 62 65 63 66 59 59 21 32 41 41 41 41 48 68 89 138 149 150 150 153 149 170 221 219 231 231 230 228 228 230 230 221 213 
209 207 207 204 195 255 255 255 255 245 251 254 222 204 188 156 135 135 141 143 135 134 135 134 132 131 117 63 129 255 240 203 183 159 134 132 144 170 185 188 188 186 189 189 192 195 200 200 186 152 66 47 80 92 95 98 99 104 104 99 96 98 102 104 104 92 72 56 60 65 65 65 59 18 38 47 48 47 47 45 45 45 81 122 146 162 188 213 207 240 230 224 233 233 230 230 230 230 215 212 
207 206 206 198 255 255 255 255 171 240 255 255 234 210 194 198 197 174 150 135 134 129 135 132 131 128 119 66 86 255 239 207 204 222 227 209 183 183 183 183 185 183 185 185 186 191 191 194 200 206 131 68 83 93 95 93 98 104 105 101 98 98 102 104 107 105 107 111 87 59 63 66 59 21 44 51 50 48 51 50 50 50 72 102 158 207 224 225 224 233 237 228 231 237 231 230 230 230 209 210 
207 206 201 225 255 255 234 207 123 255 255 255 236 234 240 215 191 168 146 131 131 131 135 134 131 128 122 71 75 206 255 255 255 246 224 210 179 180 183 183 185 183 185 185 185 189 189 192 194 201 129 63 83 93 93 96 96 99 99 96 98 99 96 101 104 108 108 113 119 117 86 62 54 24 47 51 50 53 51 51 51 51 63 126 194 194 201 224 228 222 213 209 155 215 236 233 231 230 203 209 
209 206 201 255 255 246 233 188 110 255 255 255 255 251 236 212 188 167 143 132 129 131 134 131 131 128 125 80 69 207 255 255 255 245 222 210 180 182 185 183 186 185 186 186 188 188 189 191 192 201 137 62 81 90 93 93 95 99 101 99 99 101 101 102 104 107 107 110 114 120 125 111 53 32 50 51 51 51 51 53 53 54 54 156 195 195 197 203 230 228 218 219 188 137 216 237 230 209 201 209 
207 201 248 255 255 242 230 174 111 255 255 255 255 248 237 215 186 165 144 134 129 129 129 128 123 119 116 89 128 213 255 255 255 243 224 209 180 182 183 182 185 185 183 186 188 186 189 191 194 201 144 62 78 89 95 96 95 99 99 102 101 102 101 105 104 104 108 107 114 116 125 131 104 38 44 47 50 53 53 56 54 54 75 162 171 195 197 197 212 231 218 221 219 144 147 234 209 197 201 207 
206 204 255 255 251 245 225 168 113 255 255 255 255 249 234 218 185 170 149 131 122 116 122 144 164 176 197 189 143 182 255 255 255 240 224 210 183 183 182 183 186 186 186 189 191 192 192 194 195 203 155 60 74 84 89 89 90 93 95 96 96 99 99 102 104 105 111 113 114 116 123 128 117 50 53 53 51 50 48 50 56 57 63 162 164 170 194 200 197 228 218 221 215 147 134 153 204 200 201 207 
201 246 255 255 249 210 158 83 56 255 255 255 255 249 231 225 189 167 144 128 152 185 207 206 204 203 206 204 137 161 255 255 255 245 227 212 186 183 185 188 185 177 170 167 165 164 162 165 168 177 146 69 101 120 131 135 138 138 132 123 114 102 93 90 96 104 107 113 116 117 119 126 108 44 53 54 54 56 57 56 50 51 54 153 165 164 168 189 189 204 237 236 213 138 101 93 201 201 201 207 
200 255 255 231 186 165 141 83 57 255 255 255 255 252 236 222 189 194 215 231 207 203 203 201 201 200 203 206 143 158 255 255 255 249 231 218 185 162 150 138 134 138 141 144 143 143 144 144 146 147 114 117 150 162 167 170 171 174 177 177 177 182 182 164 144 119 96 108 111 119 122 126 104 44 54 56 56 56 56 57 57 60 54 126 162 165 167 168 167 168 231 233 209 183 149 98 152 204 203 207 
219 255 236 204 183 165 146 86 54 255 255 255 255 255 234 245 255 255 236 219 200 197 198 201 203 201 201 207 158 153 225 255 255 245 209 174 149 141 143 144 144 143 144 144 144 146 146 147 147 146 120 113 141 155 161 167 168 170 171 173 173 173 173 176 179 188 183 149 116 108 116 126 87 42 56 57 57 57 59 59 56 57 59 69 140 162 167 170 167 162 231 212 177 180 188 170 110 204 204 207 
248 254 230 212 191 176 156 90 50 255 255 255 255 251 255 255 255 248 231 216 198 200 198 203 203 201 203 209 179 147 168 255 246 215 195 174 155 143 146 144 146 144 146 144 146 147 147 147 147 147 123 113 143 155 162 167 170 171 170 171 171 171 173 173 176 179 186 191 197 180 141 117 66 45 54 57 59 57 59 57 59 59 59 59 63 129 165 171 170 164 203 173 174 180 186 189 162 180 204 209 
255 254 243 222 209 191 170 108 51 252 255 255 255 255 255 255 255 251 233 215 198 198 200 203 203 204 206 209 194 104 113 255 252 222 201 179 159 143 144 146 146 146 146 146 146 147 147 149 147 147 128 114 146 155 161 165 168 167 168 168 170 170 171 173 177 179 183 185 189 194 201 192 59 42 54 57 59 60 60 59 60 57 59 60 59 63 83 77 81 77 177 176 179 182 186 189 192 173 206 209 
255 255 255 234 222 200 174 119 65 204 255 255 255 255 255 255 255 255 230 212 198 198 201 206 209 194 177 161 150 77 113 207 255 228 204 180 162 147 144 146 146 146 144 144 146 147 146 147 147 144 126 116 147 156 162 167 170 168 168 171 171 171 171 171 174 177 183 185 188 191 198 209 83 92 81 66 53 59 59 60 60 57 59 59 60 65 66 63 62 63 110 128 155 186 189 191 191 185 204 209 
255 255 255 239 219 192 174 125 71 153 255 255 255 255 255 255 255 255 233 216 201 203 206 185 162 156 161 162 162 90 107 153 255 231 210 180 167 144 143 144 144 143 144 146 146 147 146 146 146 141 126 126 150 159 165 167 170 170 168 170 173 171 171 174 177 179 180 185 189 191 197 195 71 96 99 104 102 80 57 59 59 59 59 59 60 63 65 66 59 72 105 110 111 119 167 198 195 192 203 209 
255 255 255 240 219 185 159 129 81 84 255 255 255 255 255 255 255 255 237 224 192 168 156 159 164 164 165 165 165 110 98 123 252 239 213 191 167 144 143 140 140 137 140 140 140 138 131 131 137 144 147 95 116 128 137 138 147 161 167 171 176 174 176 174 179 180 183 185 188 191 192 173 74 93 95 98 98 98 99 89 66 56 59 62 63 62 65 66 63 80 105 108 114 117 117 143 200 198 203 210 
255 255 255 236 210 182 161 137 92 54 255 255 255 255 255 255 255 255 239 189 159 159 161 162 164 164 164 165 165 134 87 120 185 249 215 189 162 143 134 129 123 141 156 168 180 200 215 230 236 237 225 83 110 120 126 131 132 125 122 125 134 141 150 168 180 183 186 189 191 191 194 146 83 95 96 96 96 95 98 102 102 92 65 59 62 63 66 65 65 90 105 105 113 117 122 123 144 204 204 210 
255 255 255 231 210 183 162 141 105 63 239 255 255 255 255 255 255 252 216 188 170 158 159 159 161 164 162 162 164 156 77 117 126 240 213 180 156 152 165 194 219 222 219 219 219 221 222 224 225 231 227 81 111 120 128 132 137 135 137 137 137 134 135 131 132 152 171 192 192 194 198 123 87 92 93 95 98 99 99 98 99 102 105 83 60 65 66 66 65 101 108 108 114 117 120 126 125 167 207 212 
255 255 255 233 213 188 164 146 122 107 171 255 255 255 255 255 255 246 225 194 170 158 161 159 161 161 159 161 162 162 81 101 132 225 255 255 251 233 216 213 207 210 213 213 216 219 221 222 224 228 227 75 110 120 123 132 137 135 135 137 135 134 135 141 141 141 140 138 147 164 183 101 86 90 93 96 96 98 99 96 98 99 104 107 98 62 65 66 62 60 87 113 117 122 122 123 125 126 207 212 
255 255 255 239 219 197 174 183 194 141 108 255 255 255 255 255 255 255 231 203 173 159 161 159 156 159 158 156 152 156 150 195 213 246 255 255 240 230 216 210 212 213 215 213 215 218 219 221 224 228 230 75 108 119 128 134 137 137 137 137 132 134 134 138 143 146 144 146 144 140 125 120 92 81 90 95 96 98 98 96 98 120 122 107 114 99 62 66 53 45 45 54 96 123 126 123 125 123 179 213 
255 255 252 248 228 212 225 215 200 153 113 242 255 255 255 255 255 255 233 213 177 161 156 158 155 153 147 158 204 242 212 189 207 224 255 255 239 233 219 209 213 213 213 215 218 218 216 219 224 227 230 72 107 122 129 132 132 134 135 134 135 135 135 141 143 146 146 147 146 141 125 162 173 153 107 86 93 95 96 119 153 158 159 158 131 120 90 62 47 48 48 51 50 80 125 128 125 123 165 215 
255 255 225 255 237 245 237 215 201 173 119 153 255 255 255 255 255 255 245 215 186 158 152 153 144 150 201 236 233 234 228 177 206 212 255 255 246 236 228 209 210 213 215 215 216 219 216 219 222 227 230 72 105 119 129 132 134 134 132 132 132 134 135 141 144 146 146 149 146 140 129 164 167 171 179 153 101 87 95 152 156 158 159 161 159 122 128 66 42 47 51 54 53 53 74 128 126 123 167 215 
255 255 249 252 255 252 245 221 203 185 132 108 255 255 255 255 255 255 252 219 194 159 143 141 188 233 231 230 230 231 236 180 203 209 255 255 243 233 234 209 210 213 215 213 215 218 215 218 221 225 228 68 98 110 123 125 128 131 129 132 131 134 135 140 143 144 144 147 146 137 134 159 164 168 171 176 180 147 114 150 155 158 161 162 167 137 125 86 41 47 53 54 56 56 54 81 129 126 171 216 
255 255 255 255 255 255 246 227 206 188 144 128 222 255 255 255 255 255 254 219 194 170 197 231 231 227 227 228 228 230 234 197 197 209 255 255 243 230 240 212 212 210 213 215 215 212 209 212 216 222 224 143 161 162 153 143 128 120 120 123 125 129 132 138 143 141 143 146 144 129 138 162 164 168 168 170 173 176 197 197 179 171 162 165 168 128 123 71 44 50 53 54 56 59 57 56 104 128 183 215 
255 255 255 255 255 255 248 233 206 183 200 201 188 255 255 255 255 255 249 233 255 255 246 227 227 225 225 227 228 230 231 212 188 209 230 255 248 227 245 215 203 203 206 206 209 213 218 222 224 230 233 158 186 198 201 206 210 206 191 177 167 153 132 128 135 138 140 144 143 125 152 162 165 167 167 168 170 198 218 246 240 200 195 176 167 123 119 39 38 48 56 54 56 59 60 60 63 126 198 215 
255 255 255 255 255 255 251 236 215 240 246 212 185 255 255 255 255 255 255 255 255 255 243 224 225 225 224 227 227 228 231 231 176 204 204 255 255 218 242 210 206 212 213 213 213 216 218 218 224 228 231 152 182 194 198 201 203 206 207 210 213 216 224 210 179 146 129 134 131 122 159 164 168 167 168 167 180 209 212 218 245 252 207 188 126 120 95 36 47 47 48 57 59 59 60 62 56 110 213 213 
255 255 255 255 255 255 252 242 255 255 239 224 191 201 255 255 255 255 255 255 255 255 239 230 225 227 225 225 227 230 231 231 174 200 204 243 255 225 245 224 209 209 212 213 213 218 216 218 221 228 233 152 182 192 194 198 203 204 206 206 209 212 216 221 228 231 228 215 192 128 153 167 170 168 167 168 204 207 209 210 219 230 233 173 134 119 60 42 47 50 51 48 60 60 60 63 59 105 216 213 
255 255 255 255 255 255 251 255 255 255 240 225 200 183 255 255 255 255 255 255 255 255 251 224 224 227 225 224 228 225 222 233 204 198 210 212 255 228 239 233 209 207 209 212 212 215 216 216 219 227 234 152 183 191 189 198 200 201 204 206 207 209 215 221 224 227 230 237 242 125 116 135 165 171 168 168 206 209 209 212 218 221 224 225 143 111 35 45 47 50 51 51 51 63 62 62 57 126 215 213 
255 255 255 255 255 255 255 255 255 255 248 222 210 189 218 255 255 255 255 255 255 255 255 228 224 225 227 225 218 224 231 233 222 189 210 207 242 234 236 242 204 207 209 212 212 216 216 218 219 225 233 149 180 191 189 198 200 201 204 206 207 207 215 219 221 225 228 236 225 107 123 129 126 149 171 173 198 209 209 213 219 219 222 228 200 72 39 47 48 50 50 53 51 59 65 63 56 156 215 213 
255 255 255 255 255 255 255 255 255 255 255 236 209 192 135 255 255 255 255 255 255 255 255 234 222 224 221 218 224 228 230 231 236 182 207 209 216 236 243 249 204 204 206 209 212 213 213 215 218 224 231 152 180 186 191 194 197 198 200 203 206 209 213 221 221 224 225 236 189 110 126 132 117 128 132 162 192 209 209 213 218 219 222 227 210 45 39 45 48 50 51 54 54 56 65 63 56 174 213 212 
255 255 255 255 255 255 255 255 255 255 255 242 215 158 143 224 255 255 255 255 255 255 255 249 213 216 224 228 225 228 228 230 236 191 203 209 209 225 234 255 203 201 206 206 209 212 213 215 218 222 231 149 180 191 194 194 198 197 201 201 206 209 212 221 219 222 227 237 155 116 131 131 129 131 129 126 143 194 210 216 219 219 221 206 170 80 51 44 48 51 51 53 56 57 56 65 60 176 213 213 
255 255 255 255 255 255 255 255 255 255 255 248 207 177 152 138 255 255 255 255 255 255 255 255 224 224 227 227 227 224 228 230 233 204 194 209 210 212 218 255 206 200 201 200 206 210 209 207 212 219 228 155 177 185 186 185 192 197 201 201 206 212 209 219 219 222 228 236 119 120 131 129 129 129 132 131 129 126 174 210 210 210 194 198 114 87 99 66 45 50 51 51 53 57 56 65 59 143 215 213 
255 255 255 255 255 255 255 255 255 255 255 243 219 188 158 147 213 255 255 255 255 255 255 255 243 221 225 224 227 224 227 228 231 222 182 207 207 207 206 255 210 195 194 198 201 203 213 216 219 225 236 159 180 188 192 200 200 198 200 198 201 207 206 218 219 222 230 215 101 122 125 126 129 132 131 129 131 131 131 155 186 186 192 183 77 89 101 107 65 48 51 51 54 57 57 63 54 132 216 213 
255 255 255 255 255 255 255 255 255 255 255 248 228 200 171 152 134 255 255 255 255 255 255 255 255 230 222 222 227 228 224 225 230 234 179 201 204 201 197 236 218 195 200 203 206 210 215 216 219 225 234 158 183 192 195 204 204 204 207 207 209 215 210 215 213 218 227 173 99 117 122 125 126 132 129 128 129 132 137 132 161 191 195 131 80 93 99 102 105 57 50 53 54 54 59 66 54 137 215 213 
255 255 255 255 255 255 255 255 255 255 255 251 240 212 179 158 146 213 255 255 255 255 255 255 255 236 221 222 224 227 222 225 227 224 188 200 209 207 203 216 234 200 201 203 206 209 215 216 216 222 231 159 185 194 200 204 206 207 207 209 206 213 215 218 224 228 233 179 135 113 117 122 129 129 129 128 129 134 137 135 132 167 195 83 90 96 99 99 104 99 50 53 54 54 60 62 54 146 216 213 
255 255 255 252 255 255 255 255 255 255 255 251 249 231 197 159 146 141 255 255 255 255 255 255 255 255 225 216 221 225 225 216 221 233 213 194 207 207 206 207 246 201 203 201 203 206 213 215 216 222 230 162 186 194 197 203 204 207 204 210 206 213 218 218 224 230 236 180 210 186 123 117 126 128 128 128 128 134 137 135 135 134 128 80 93 96 96 95 99 108 84 51 53 56 65 54 53 164 215 213 
255 255 255 255 255 255 255 255 255 255 255 251 252 243 207 177 146 216 255 255 255 255 255 255 255 255 231 215 221 222 216 222 227 230 233 180 206 207 203 204 252 200 200 200 203 206 212 216 216 221 227 162 186 192 197 203 204 206 203 209 207 209 218 218 222 228 215 186 203 210 215 162 120 122 126 128 129 134 134 134 135 131 141 89 92 95 98 99 98 107 111 59 50 59 60 54 47 191 212 213 
255 255 255 255 240 255 255 255 255 255 255 255 245 249 230 191 225 231 221 255 255 255 255 255 255 255 255 215 209 215 225 224 225 228 231 189 204 209 206 203 255 197 200 200 200 201 207 215 215 219 227 161 182 192 197 201 203 206 203 207 209 204 216 218 221 228 198 195 204 206 209 216 198 134 119 125 129 132 132 134 132 137 168 165 95 95 98 98 104 104 108 95 48 60 50 54 50 216 212 213 
255 255 255 255 254 255 255 255 255 255 255 255 245 239 233 255 255 227 222 255 255 255 255 255 255 255 255 224 218 222 222 225 224 227 230 201 198 207 206 201 255 198 197 198 195 197 206 213 212 216 222 153 179 191 195 200 200 207 204 206 209 203 215 218 222 228 185 200 203 204 207 213 213 221 179 122 125 131 132 132 126 153 168 173 164 92 93 98 102 101 105 114 50 51 50 53 81 219 209 213 
225 255 255 255 255 242 255 255 255 255 255 255 245 227 255 255 255 242 222 216 255 255 255 255 255 255 255 251 216 219 222 224 224 225 228 215 189 204 206 198 251 200 197 200 198 195 198 201 197 201 215 150 162 173 177 186 198 203 204 203 207 204 212 216 221 224 182 200 203 206 206 209 210 215 221 210 135 125 132 129 131 162 168 170 177 150 89 99 102 102 104 114 69 83 50 50 129 213 209 213 
201 255 255 255 255 255 237 255 255 255 255 255 249 251 255 255 255 255 228 219 249 255 255 255 255 255 255 255 234 216 219 222 224 222 225 230 179 201 203 198 240 213 188 180 179 177 182 210 215 216 227 162 180 191 195 192 188 186 192 183 192 207 210 216 222 203 194 200 201 203 207 206 209 212 213 219 225 135 125 125 149 165 167 168 173 182 123 96 101 104 107 113 102 125 44 45 186 210 209 213 
206 252 255 255 255 255 251 249 255 255 255 255 255 255 255 255 255 255 249 224 218 255 255 255 255 255 255 255 249 228 216 216 221 219 222 225 170 182 188 183 210 224 192 200 197 192 192 212 212 216 227 161 177 191 194 195 204 203 210 197 203 200 197 203 209 180 194 201 203 203 212 219 231 228 218 216 227 230 149 132 165 167 167 168 171 177 185 102 96 105 108 114 116 132 62 59 222 209 209 213 
207 221 255 255 255 255 255 225 255 255 255 255 255 255 255 255 255 255 255 240 216 237 255 255 255 255 255 255 255 249 219 213 218 219 213 206 201 186 200 197 207 245 192 200 195 192 189 212 213 216 227 159 177 191 194 195 207 203 207 197 198 212 212 218 224 179 185 192 213 225 228 233 234 236 236 239 239 234 230 134 170 168 165 168 171 179 182 161 93 107 111 107 113 128 74 117 215 206 207 213 
210 204 255 255 255 255 255 237 255 255 255 255 255 255 255 255 255 255 255 255 230 219 255 255 255 255 255 255 255 252 239 213 215 200 206 222 218 176 200 200 201 254 197 203 198 192 188 209 212 215 225 159 177 191 176 198 206 204 206 198 195 210 215 221 215 185 198 203 215 230 230 233 234 231 237 242 245 248 173 111 150 170 168 168 174 176 176 186 122 104 113 107 111 123 74 179 210 204 207 212 
210 206 243 255 255 255 255 255 255 255 255 255 255 255 255 255 255 255 255 255 254 233 230 255 255 255 255 255 255 255 252 218 191 210 216 221 225 182 197 203 197 255 200 201 201 191 186 201 212 215 227 161 180 189 192 200 206 204 200 201 197 210 218 222 198 192 200 222 227 218 224 233 231 233 236 243 246 249 131 119 119 161 171 173 174 173 176 186 153 116 173 105 111 120 98 218 206 204 207 213 
210 209 207 255 255 255 255 255 255 255 255 255 255 255 255 255 255 255 255 255 255 251 221 255 255 255 255 255 255 252 255 249 219 212 218 218 224 192 191 200 198 255 200 200 200 194 186 195 215 215 225 170 183 188 197 203 203 209 198 203 200 207 218 227 191 195 213 228 231 230 228 219 230 233 237 242 249 204 158 122 122 126 170 171 171 171 176 185 144 167 203 107 114 116 162 212 204 204 207 213 
212 210 207 242 255 255 255 255 255 255 255 255 255 255 255 255 255 255 255 255 255 255 242 218 255 255 255 255 255 255 255 255 242 209 216 218 222 210 182 198 197 251 206 203 203 197 186 191 215 212 224 171 183 189 195 204 204 210 195 201 203 210 218 225 180 200 227 227 228 234 233 231 221 228 240 242 243 164 168 143 125 125 143 173 170 170 177 183 159 185 203 122 110 123 209 209 204 204 207 213 
213 212 210 207 255 255 255 255 255 255 255 255 255 255 255 255 255 255 255 255 255 255 255 228 255 255 255 255 255 252 252 255 255 225 212 216 219 222 177 200 200 236 218 201 203 198 185 182 207 207 215 168 177 188 188 204 206 207 191 197 204 212 219 206 188 203 227 230 231 234 233 231 233 227 234 246 197 164 168 147 126 128 125 161 170 174 182 182 174 186 201 129 104 176 210 204 204 204 207 213 
212 212 212 209 228 255 255 255 255 255 255 255 255 255 255 255 255 255 255 255 255 255 255 245 218 255 255 255 255 243 251 254 255 248 204 215 219 222 189 195 197 210 236 192 198 189 177 177 209 209 216 173 182 189 189 206 201 200 185 188 207 212 219 189 197 203 225 228 234 234 233 230 233 240 234 230 158 167 170 140 125 126 123 123 170 180 183 170 180 189 198 126 122 213 206 204 203 204 207 215 
212 212 212 212 206 246 255 255 255 255 255 255 254 255 255 255 255 255 255 255 255 255 255 255 227 255 255 255 255 240 245 252 255 255 224 213 215 219 197 185 192 191 251 198 203 195 180 176 204 210 216 168 182 189 195 209 204 201 189 186 203 213 215 182 200 198 222 228 236 231 231 231 236 240 243 228 162 165 171 129 123 123 125 119 150 186 152 149 188 192 198 117 186 209 203 203 204 204 207 213 
213 212 213 213 209 207 255 255 255 255 255 255 255 255 255 255 255 255 255 255 255 255 255 255 255 240 255 255 255 255 225 245 255 255 254 201 212 210 215 180 195 192 248 198 201 197 182 176 197 210 212 165 185 188 197 206 206 197 192 188 204 213 210 185 195 198 215 236 236 233 230 233 240 243 240 230 221 162 165 122 123 122 120 120 147 173 119 144 191 189 195 143 212 204 203 203 203 204 207 213 
213 212 213 212 212 207 212 255 255 255 255 255 255 255 254 255 255 255 255 255 255 255 255 255 255 251 255 255 255 255 236 233 254 255 255 209 206 212 216 185 194 192 243 201 200 197 182 174 188 207 210 167 186 188 195 204 204 189 191 191 203 212 194 195 198 198 204 233 234 233 231 236 240 246 228 231 236 200 146 119 120 120 117 122 156 126 126 138 192 189 179 204 207 206 204 203 204 206 207 213 
212 212 213 213 213 210 204 240 255 255 255 255 255 255 255 255 255 255 255 255 255 255 255 255 255 255 239 255 255 255 254 207 243 255 255 252 198 209 215 186 189 194 245 198 198 198 185 174 183 206 209 165 182 186 197 204 200 183 189 189 203 212 183 195 198 200 207 213 228 230 231 239 243 237 228 231 236 227 126 114 119 116 117 122 128 126 128 134 194 191 204 207 206 204 203 203 204 204 207 215 
213 213 213 212 213 213 209 201 255 255 255 255 255 255 255 255 255 255 255 255 255 255 255 255 255 255 249 255 255 255 255 215 204 255 255 255 201 206 210 198 185 192 237 209 197 197 185 173 177 203 209 164 180 182 203 200 197 180 186 189 206 204 174 197 198 201 210 206 206 222 233 242 246 227 231 233 218 212 200 108 113 113 119 131 122 128 128 137 194 200 206 206 204 204 203 204 204 204 209 215 
213 213 212 213 213 213 212 207 204 255 255 255 255 255 255 255 255 255 255 255 255 255 255 255 255 255 255 243 255 255 255 224 198 236 255 255 243 198 207 210 174 192 219 221 197 195 185 174 174 204 215 170 188 188 206 201 194 180 179 191 206 191 189 194 194 204 210 204 203 206 224 236 228 224 225 218 207 210 218 155 104 111 155 197 119 126 128 144 195 207 206 206 204 204 204 204 204 204 209 215 
215 213 213 213 213 213 212 210 206 215 255 255 255 255 255 255 255 255 255 255 255 255 255 255 255 255 255 255 255 255 255 255 203 197 255 255 255 194 203 209 179 189 200 236 198 203 195 186 180 194 152 95 135 186 213 212 200 188 179 197 203 179 191 194 195 207 206 203 204 203 216 218 201 209 210 207 209 209 218 201 98 129 230 221 116 123 123 155 207 207 206 204 204 203 204 204 204 204 209 215 
215 213 213 213 213 213 212 212 210 204 224 255 255 255 255 255 255 255 255 255 255 255 255 255 255 255 255 255 255 255 255 255 206 198 225 255 255 234 195 204 191 194 198 252 200 146 99 56 32 29 32 36 36 33 44 59 84 125 170 212 210 174 192 191 198 206 203 198 200 209 221 209 203 209 210 210 209 215 212 216 132 210 231 228 111 122 119 195 209 206 204 204 203 204 203 204 204 204 209 215 
215 215 215 215 213 213 212 213 212 210 204 231 255 255 255 255 255 255 255 255 255 255 255 255 255 255 255 255 255 255 255 255 245 200 192 249 255 255 194 210 188 119 113 126 30 35 35 27 27 39 39 45 45 48 50 45 39 38 30 69 105 129 203 197 206 206 203 203 198 213 219 201 207 206 210 212 215 212 207 215 194 222 230 231 111 114 170 212 206 204 204 206 204 204 204 204 204 204 207 215 
213 215 215 213 215 213 212 210 212 212 210 204 236 255 255 255 255 255 255 255 255 255 255 255 255 255 255 255 255 255 255 255 255 198 195 216 255 255 237 141 42 39 33 95 39 44 42 32 29 38 39 44 47 51 51 50 44 47 39 47 39 30 98 206 236 237 225 218 219 222 204 207 207 207 209 215 215 206 210 216 218 222 230 222 105 149 213 207 206 204 204 204 204 204 204 204 204 206 207 215 
215 213 213 215 213 212 213 212 212 212 212 210 203 236 255 255 255 255 255 255 255 255 255 255 255 255 255 255 255 255 252 255 255 231 200 192 255 255 209 47 39 42 39 93 38 45 42 32 27 33 36 45 44 51 51 48 42 45 44 51 56 77 105 137 221 255 255 255 254 242 213 209 209 209 210 216 210 206 219 209 218 222 233 195 134 210 209 206 206 204 204 204 203 204 206 204 204 204 209 215 
215 215 215 215 215 213 212 212 212 213 212 210 209 201 240 255 255 255 255 255 255 255 255 255 255 255 255 255 255 255 255 255 255 255 206 168 102 174 227 104 48 42 38 96 38 44 44 33 26 30 36 44 44 51 51 45 42 41 66 95 113 116 138 158 168 216 255 255 255 255 249 230 210 212 213 210 206 216 216 212 221 225 231 180 204 209 206 206 204 204 204 204 204 204 204 204 204 206 207 215 
216 213 213 213 213 213 212 212 213 212 212 212 212 209 200 255 255 255 255 255 255 255 255 255 255 255 255 255 255 255 255 255 255 255 135 35 36 146 219 198 51 33 42 68 62 42 44 35 26 29 33 45 45 51 50 41 41 50 105 108 113 128 156 179 197 210 227 255 255 255 255 251 221 216 210 203 216 218 218 212 222 227 222 201 209 207 206 206 204 204 203 206 204 203 203 204 204 204 209 215 
215 215 215 215 213 213 212 212 213 212 210 210 210 210 207 200 255 255 255 255 255 255 255 255 255 255 255 255 255 255 255 255 251 234 183 38 42 75 195 248 96 39 39 44 72 39 41 33 26 27 35 48 48 53 48 36 39 84 108 111 111 138 167 191 216 237 249 251 255 255 255 255 245 213 206 209 221 221 219 215 224 225 207 206 206 206 204 206 206 204 204 206 204 203 204 204 203 206 207 215 
213 216 215 215 215 215 212 212 212 213 212 212 210 210 210 206 210 255 255 255 255 255 255 255 255 255 255 246 255 255 255 255 150 179 255 72 42 41 158 221 183 56 35 35 78 38 39 33 29 29 32 39 45 53 42 39 54 102 107 113 114 144 170 197 225 252 255 255 243 255 255 255 246 221 207 219 222 221 221 216 222 207 206 206 206 204 206 204 206 206 204 204 204 203 204 204 204 204 209 216 
215 215 215 215 213 215 213 213 213 213 212 212 210 212 209 209 203 225 255 255 255 255 255 255 255 255 255 255 254 255 255 150 129 122 255 182 36 41 101 191 249 87 35 41 81 35 24 12 6 5 3 12 3 6 9 21 81 99 110 116 114 143 168 195 222 249 255 255 239 237 255 255 243 228 222 219 222 224 222 219 207 204 206 204 206 206 206 206 206 206 206 204 204 204 204 206 204 204 209 213 
216 215 215 215 215 213 213 213 212 212 212 212 210 212 210 210 209 201 254 255 255 255 255 255 255 255 255 255 255 255 255 191 129 131 182 255 59 38 60 173 216 177 56 35 57 3 2 2 2 2 2 12 2 3 2 36 69 72 93 102 117 137 161 185 209 231 248 242 224 194 255 255 236 239 237 221 224 224 219 207 204 206 206 206 206 206 204 206 206 206 204 204 206 204 203 204 204 204 209 216 
216 215 215 215 215 213 213 213 213 212 212 212 212 212 210 209 210 209 200 255 255 255 255 255 255 255 237 255 248 255 204 251 167 141 116 255 168 30 39 155 206 222 44 15 38 2 0 2 2 2 2 12 3 3 8 66 69 71 83 71 89 126 150 171 189 207 222 216 203 179 218 251 237 243 245 228 225 221 206 207 206 206 206 206 206 206 206 206 206 206 204 204 204 204 204 206 206 206 209 215 
216 215 215 215 215 215 213 215 213 212 213 213 213 210 212 212 210 212 207 203 255 255 255 255 255 255 255 200 255 108 135 236 255 141 132 174 255 45 35 110 125 155 105 24 44 2 2 2 2 3 3 14 3 3 12 71 69 69 81 72 72 80 126 155 170 191 194 191 179 162 146 231 245 242 245 233 224 207 206 206 206 206 204 206 206 206 206 206 206 206 204 204 206 206 204 206 204 204 209 215 
216 216 215 215 215 215 215 213 213 213 213 213 213 212 212 212 212 210 210 206 204 255 255 255 255 255 255 200 212 186 42 162 255 248 132 120 255 135 9 48 98 132 164 27 47 9 2 2 2 3 3 15 2 2 3 68 69 77 75 72 72 71 77 114 147 167 164 159 153 141 113 189 246 245 246 228 207 206 207 204 206 206 206 206 207 206 206 206 206 206 204 206 206 204 204 204 204 206 209 215 
216 216 216 215 215 215 215 215 213 213 213 213 213 212 212 213 212 212 212 210 207 203 255 255 255 255 255 192 192 200 134 48 198 255 236 126 144 188 12 42 81 110 156 89 26 36 0 2 2 2 2 12 2 2 2 56 71 83 71 72 72 72 71 74 116 134 135 134 128 111 110 222 246 243 246 209 207 206 206 207 206 207 207 206 204 204 206 206 206 206 206 206 204 204 204 204 204 206 209 216 
216 216 215 215 216 215 215 215 213 213 212 213 213 212 212 213 212 212 212 210 210 206 200 252 255 255 255 213 239 164 245 77 77 228 255 207 72 179 81 15 89 95 140 147 21 42 0 2 2 3 2 12 2 3 3 45 69 81 72 72 72 72 71 75 86 101 113 114 107 110 114 213 246 246 240 206 207 206 206 204 206 206 206 204 204 204 206 204 206 206 206 206 206 204 204 206 206 206 209 215 
216 216 215 215 215 215 213 215 213 213 212 213 213 213 212 212 212 212 210 210 210 209 209 203 228 255 255 255 255 239 233 240 42 122 255 242 155 90 173 18 66 108 107 149 78 39 2 2 2 3 3 11 3 3 3 33 71 80 72 72 72 71 72 90 72 84 114 108 104 119 104 218 251 246 231 207 206 207 206 204 206 206 206 206 204 204 206 206 206 206 206 206 206 204 203 206 206 206 209 215 
216 215 216 215 215 215 215 213 213 213 213 213 213 213 213 212 212 213 210 210 210 212 212 210 203 210 255 255 255 249 249 236 210 36 179 207 215 123 152 66 57 92 107 137 131 45 2 5 21 114 83 69 174 194 147 38 78 72 72 71 72 71 78 83 77 74 98 104 114 111 110 243 249 245 225 207 207 207 206 206 206 206 207 206 206 206 206 206 206 206 206 206 206 206 206 206 206 206 209 216 
216 216 216 216 215 215 215 215 213 213 213 213 213 213 213 213 212 212 212 210 210 210 212 210 209 204 198 255 255 236 255 249 248 158 33 191 188 210 102 149 51 87 111 114 135 98 86 138 86 111 15 24 171 248 246 204 90 72 72 72 72 71 89 75 75 74 80 117 116 113 228 254 245 243 218 206 206 206 206 206 206 206 207 206 206 207 206 206 206 206 206 206 206 204 204 204 204 204 209 216 
216 215 216 216 215 215 215 213 215 213 213 213 213 213 212 212 210 213 212 210 212 210 212 210 212 210 207 201 233 255 243 255 245 255 77 92 231 161 203 134 66 89 110 116 153 144 35 12 2 2 3 3 3 44 81 35 54 138 89 74 72 80 80 75 74 77 75 120 108 189 255 246 245 230 207 207 206 206 206 206 207 207 206 206 206 206 206 206 206 206 206 206 204 204 204 204 206 206 209 215 
216 216 216 215 216 215 215 215 215 213 213 213 213 213 212 213 212 212 210 210 213 210 212 212 212 212 210 209 204 216 255 251 255 213 221 44 194 203 162 183 93 95 135 173 99 114 38 2 3 2 3 5 3 2 2 2 5 44 159 107 71 87 75 74 77 74 84 110 146 254 248 243 224 206 206 207 207 207 206 207 206 206 206 206 206 206 206 204 204 206 206 206 206 206 204 204 206 206 210 216 
216 215 218 216 215 216 215 215 213 213 213 213 213 213 213 213 212 212 212 212 212 212 212 212 212 212 210 212 209 207 207 255 255 239 182 192 84 245 168 186 168 108 126 75 50 102 135 3 2 2 5 6 2 2 0 3 6 5 24 167 152 114 80 74 77 83 80 152 255 251 245 219 206 207 206 207 207 206 207 206 207 206 206 206 206 207 206 206 206 206 206 204 204 206 204 206 206 206 209 216 
216 216 216 216 216 215 215 213 215 213 213 213 213 213 213 213 213 212 212 212 212 212 213 212 210 210 212 212 210 212 209 206 233 236 210 197 143 174 224 162 144 60 41 69 51 95 200 12 2 2 5 5 8 3 2 5 5 5 68 159 255 227 174 108 80 77 150 255 251 242 215 207 206 207 207 207 207 207 206 207 207 207 206 206 206 206 206 207 206 204 206 206 204 204 204 206 206 206 210 216 
216 216 216 215 215 216 215 215 215 215 215 213 213 213 213 213 212 213 212 212 212 212 212 210 212 212 212 212 212 212 212 209 209 216 216 213 203 125 237 206 126 117 29 33 69 84 195 80 2 3 6 5 3 5 3 6 3 23 146 255 255 255 206 152 57 134 248 239 231 210 207 207 206 207 207 207 207 207 206 207 207 207 206 206 206 206 204 206 204 206 204 206 204 206 204 204 204 206 209 216 
216 218 216 216 216 216 215 215 215 215 215 213 212 213 213 213 212 212 212 213 212 212 213 213 212 212 212 212 212 212 212 212 212 210 215 215 212 209 221 218 86 144 137 2 56 77 158 149 2 3 6 5 3 2 6 8 3 77 252 255 243 255 206 141 126 228 218 212 209 207 207 207 206 207 206 207 207 207 206 206 207 207 206 206 206 204 206 206 206 204 206 206 206 204 206 206 204 206 209 216 
