P2
99 99
255
95 95 95 95 95 94 94 93 94 93 93 94 93 92 93 93 93 93 93 92 93 92 92 92 92 92 92 92 92 92 92 92 92 92 92 92 95 98 90 76 73 74 78 83 89 94 93 92 91 91 93 95 97 90 72 59 50 46 48 55 69 88 95 93 91 90 90 90 90 90 90 90 90 90 90 90 90 89 90 95 99 104 109 114 122 137 155 169 169 162 155 153 161 165 162 165 171 169 169 
95 95 94 94 95 94 94 94 94 93 94 93 93 92 93 92 92 93 92 93 92 92 93 92 92 92 92 92 92 92 92 92 92 92 97 107 93 69 45 36 38 41 48 55 67 76 84 92 93 95 97 74 43 28 33 42 48 53 53 52 48 41 50 76 94 92 90 90 90 90 90 90 90 90 90 90 90 90 90 93 98 103 109 122 141 158 163 156 146 142 144 154 159 155 158 165 169 165 169 
95 94 95 95 95 95 94 94 94 93 94 93 94 93 93 92 93 93 93 93 93 92 92 92 92 92 92 92 92 92 92 92 93 109 99 71 52 41 32 35 36 37 38 39 38 45 64 78 90 86 43 27 40 56 62 63 62 62 62 62 63 62 64 58 59 85 92 91 90 90 90 90 90 90 90 90 90 90 90 92 96 107 125 143 151 147 137 132 132 136 146 150 148 151 155 169 163 161 168 
95 95 95 95 95 95 94 94 94 94 94 93 94 93 93 93 92 93 93 93 93 93 93 93 93 93 92 92 92 92 92 97 112 83 71 66 57 45 41 41 41 43 47 45 45 44 41 48 78 35 31 54 62 62 64 64 65 60 56 55 55 60 67 69 68 64 79 93 91 90 90 90 90 90 90 90 90 90 90 93 106 125 137 136 127 120 120 125 128 137 141 140 144 147 158 165 155 158 165 
95 95 95 95 95 95 94 95 95 94 94 94 94 93 92 93 93 93 93 93 93 93 93 93 92 93 94 94 94 92 97 109 88 83 77 52 31 15 11 11 12 13 16 22 34 47 50 46 46 39 55 61 64 63 52 41 34 33 34 36 36 35 34 39 53 69 71 79 92 92 91 91 90 90 90 90 90 91 97 109 120 122 115 110 110 113 116 121 128 132 132 136 139 144 161 153 150 155 160 
95 95 95 95 95 95 94 94 94 94 94 94 94 93 93 93 93 93 93 93 92 93 93 94 95 95 91 86 85 90 108 97 87 57 31 22 19 15 15 17 18 18 17 16 15 14 25 45 50 39 56 60 49 34 33 36 36 36 37 37 37 39 37 38 36 37 52 73 83 92 91 92 92 92 92 92 94 102 109 111 104 98 99 102 106 110 114 119 122 125 129 132 134 147 153 142 144 152 152 
95 95 95 95 95 95 94 95 94 95 95 94 94 94 94 93 93 93 93 93 94 96 99 97 85 76 75 73 65 93 102 79 46 37 29 25 20 16 19 20 20 20 20 20 20 18 16 14 34 39 52 36 32 36 36 36 37 38 37 39 39 37 37 38 37 38 39 43 67 71 66 69 72 77 84 95 105 106 102 95 91 92 96 99 103 107 111 115 118 121 124 127 132 149 139 137 139 148 145 
95 95 95 95 95 95 95 95 94 95 95 95 94 94 94 94 94 94 94 99 109 104 87 71 72 82 86 86 92 106 76 48 44 37 27 24 22 20 22 22 22 23 22 22 21 21 20 18 14 27 29 31 34 36 36 39 40 41 41 40 40 41 41 41 40 40 41 42 43 65 74 75 76 73 74 75 79 89 96 95 93 92 94 97 100 104 107 111 114 117 120 122 135 139 130 132 134 141 139 
95 95 95 95 95 95 95 95 95 95 94 94 93 94 94 94 94 95 106 91 69 52 42 43 43 43 52 65 104 81 61 50 43 39 29 25 21 19 20 19 20 20 20 21 22 23 23 22 18 8 20 31 36 39 38 38 30 27 23 21 20 23 27 31 38 45 46 44 45 44 68 44 33 36 36 33 29 34 48 82 102 98 95 95 97 100 104 107 110 113 115 120 134 126 125 127 130 134 134 
95 95 95 95 95 95 95 95 95 95 94 95 95 94 94 95 96 102 83 72 64 50 48 50 48 49 48 46 95 71 59 51 47 43 31 26 20 19 20 22 23 23 23 22 20 20 23 20 22 10 19 33 37 33 21 15 15 16 18 18 18 18 18 17 15 23 34 45 48 47 50 45 35 36 34 34 35 37 40 41 67 102 99 95 95 97 100 104 106 109 112 121 125 119 121 122 126 127 129 
95 95 95 95 95 95 95 95 95 95 95 95 95 95 94 96 99 91 79 74 65 56 56 57 57 56 53 55 81 73 67 58 53 42 36 29 24 22 22 23 25 25 25 25 24 23 22 22 21 13 21 30 18 13 15 18 19 19 20 20 20 20 20 20 20 20 18 22 40 50 51 46 31 35 35 36 38 41 46 50 50 54 92 99 94 93 97 100 103 106 109 119 114 115 116 118 120 121 124 
96 95 95 95 96 95 95 95 95 95 95 95 95 94 97 103 99 79 55 35 22 17 19 23 30 40 50 57 82 81 75 59 52 43 36 29 24 24 25 26 26 25 27 27 26 26 25 25 20 15 18 10 13 17 18 19 20 22 22 22 22 21 21 21 22 21 20 20 20 31 51 53 35 49 62 70 74 77 81 81 74 62 48 85 96 92 93 96 98 102 111 111 108 110 111 113 115 115 119 
96 96 95 95 95 95 95 95 95 95 95 95 95 96 107 86 52 36 31 27 22 22 22 23 24 23 16 55 91 82 70 57 50 43 36 29 26 26 26 27 27 27 27 29 29 29 27 27 25 20 4 10 17 18 19 20 21 22 23 23 22 22 22 22 22 23 23 22 22 20 27 53 53 63 69 71 73 75 80 83 86 86 78 53 84 93 91 96 104 111 118 115 113 109 107 109 110 111 114 
96 96 95 95 96 96 95 95 95 95 95 95 95 108 78 54 45 39 34 28 24 25 26 26 27 27 15 57 97 81 70 57 50 43 36 29 27 27 27 27 27 27 27 29 29 29 29 28 28 20 2 12 18 20 20 22 23 25 25 24 24 24 24 24 24 24 24 25 25 24 21 27 52 60 68 71 73 75 77 80 82 81 82 80 64 97 106 107 106 109 116 125 130 128 119 111 106 106 109 
95 96 96 96 96 95 95 95 95 95 95 95 105 85 64 55 45 40 35 30 27 27 28 28 29 27 14 47 95 86 74 61 52 46 37 28 24 24 29 34 34 34 34 33 30 27 27 28 29 21 2 13 18 19 20 21 21 22 22 22 22 22 22 22 22 23 25 25 27 26 25 15 37 60 69 74 75 76 78 79 80 79 79 78 87 91 109 108 107 111 125 140 146 141 129 115 107 100 104 
97 96 96 96 95 95 95 95 95 95 95 97 102 78 64 58 47 43 39 31 25 25 27 27 29 29 17 47 104 90 80 67 53 43 39 39 45 51 53 56 56 54 53 55 57 56 50 39 28 21 2 11 16 20 23 25 25 25 25 25 25 25 25 25 25 25 24 25 27 27 27 23 22 62 64 59 55 55 57 62 71 80 80 83 92 92 102 109 107 115 134 152 162 152 134 116 109 97 99 
96 96 96 96 95 95 95 95 95 95 94 109 96 83 69 63 53 46 39 34 29 30 30 29 27 26 20 43 114 97 84 69 68 74 67 55 50 52 52 53 53 52 52 53 54 57 59 60 59 38 4 10 20 23 25 25 26 26 27 25 25 24 25 27 26 27 28 27 26 27 29 27 20 30 34 38 41 41 43 42 41 42 54 83 95 93 95 108 108 115 134 151 162 151 132 114 107 102 94 
97 96 96 96 96 96 96 95 95 93 95 116 95 85 73 60 54 44 39 34 31 31 32 31 32 31 21 29 123 101 94 98 92 80 66 51 48 50 50 51 52 51 53 53 53 55 55 57 59 58 14 12 20 23 24 25 27 27 27 27 27 25 26 27 27 28 28 29 29 28 27 29 24 26 35 42 44 45 44 46 46 47 53 60 68 90 96 103 108 110 125 139 144 138 124 109 107 106 97 
96 96 96 96 95 95 95 95 93 102 128 111 95 83 72 57 51 43 39 34 33 34 34 34 34 33 21 17 122 118 114 99 88 76 67 52 49 51 50 50 51 53 53 53 53 55 55 55 57 57 16 13 20 23 25 26 27 28 29 27 27 26 26 28 27 28 28 28 29 29 29 27 25 25 31 44 46 46 46 48 49 49 64 66 65 59 85 99 109 108 112 120 124 120 111 107 107 107 106 
97 97 97 96 96 95 95 92 109 133 126 106 92 80 73 57 52 46 40 36 34 36 36 36 35 34 22 9 123 127 112 97 88 75 67 51 49 51 50 51 52 51 53 53 53 55 55 55 55 56 18 13 21 24 25 27 28 29 28 27 27 27 27 28 28 27 28 29 29 29 29 30 24 27 42 46 48 48 48 48 50 51 67 67 69 68 63 88 104 109 108 107 109 107 107 106 106 107 108 
97 97 96 96 96 94 90 118 144 137 117 105 92 81 76 64 55 48 41 36 35 36 36 35 35 34 24 20 107 127 111 96 87 74 68 53 49 52 50 50 50 49 48 50 50 51 53 53 54 55 20 13 20 22 25 25 25 25 25 25 25 25 26 27 28 29 29 29 29 29 28 29 27 27 42 43 45 47 49 51 51 50 67 69 69 69 68 66 97 102 108 108 107 108 107 106 106 107 106 
97 97 97 96 95 90 130 154 144 122 111 111 96 88 83 71 59 48 38 37 44 49 53 55 56 53 42 28 85 127 111 95 86 76 69 54 47 44 47 55 62 64 65 64 65 65 60 53 47 48 22 12 18 26 31 34 38 41 41 40 36 35 34 31 25 25 28 29 30 29 31 27 27 10 15 19 19 19 19 22 31 41 64 69 70 70 71 69 79 103 102 108 108 107 106 106 107 107 103 
97 97 97 95 91 128 159 153 129 114 117 118 104 95 88 73 63 63 66 67 63 62 63 62 62 61 55 29 60 128 112 95 85 74 62 62 67 79 86 88 88 87 88 88 90 91 93 93 87 71 31 22 37 43 44 46 46 48 48 46 45 46 48 48 48 43 34 26 28 30 30 30 27 8 18 22 22 22 22 21 21 21 38 57 68 76 88 99 97 112 107 104 109 109 107 107 107 107 100 
97 96 96 92 120 162 141 120 80 112 129 127 109 98 90 92 92 81 70 63 62 60 63 62 61 59 55 31 40 123 111 97 95 104 106 97 85 85 85 85 86 85 86 86 87 89 89 90 93 96 61 31 39 43 44 43 46 48 49 47 46 46 48 48 50 49 50 52 41 27 29 31 27 10 20 24 23 22 24 23 23 23 34 48 74 97 104 105 104 109 111 106 108 111 108 107 107 107 97 
97 96 94 105 150 119 109 97 57 122 139 132 110 109 112 100 89 78 68 61 61 61 63 62 61 59 57 33 35 96 122 131 125 115 104 98 83 84 85 85 86 85 86 86 86 88 88 90 90 94 60 29 39 43 43 45 45 46 46 45 46 46 45 47 48 50 50 53 55 55 40 29 25 11 22 24 23 25 24 24 24 24 29 59 90 90 94 104 106 104 99 97 72 100 110 109 108 107 95 
97 96 94 137 124 115 109 88 51 137 146 131 122 117 110 99 88 78 67 62 60 61 62 61 61 59 58 37 32 97 153 135 122 114 104 98 84 85 86 85 87 86 87 87 88 88 88 89 90 94 64 29 38 42 43 43 44 46 47 46 46 47 47 48 48 50 50 51 53 56 58 52 25 15 23 24 24 24 24 25 25 25 25 73 91 91 92 95 107 106 102 102 88 64 101 111 107 97 94 
97 94 115 136 119 113 107 81 52 147 146 140 125 115 111 100 87 77 67 62 60 60 60 59 57 55 54 41 59 99 154 134 122 113 104 97 84 85 85 85 86 86 85 87 88 87 88 89 90 94 67 29 36 41 44 45 44 46 46 48 47 48 47 49 48 48 50 50 53 54 58 61 48 18 20 22 23 25 25 26 25 25 35 76 80 91 92 92 99 108 102 103 102 67 69 109 97 92 94 
96 95 137 130 117 114 105 78 53 154 148 141 126 116 109 102 86 79 69 61 57 54 57 67 76 82 92 88 67 85 159 137 124 112 104 98 85 85 85 85 87 87 87 88 89 90 90 90 91 95 72 28 34 39 41 41 42 43 44 45 45 46 46 48 48 49 52 53 53 54 57 59 55 23 25 25 24 23 22 23 26 27 29 76 76 79 90 93 92 106 102 103 100 69 62 71 95 93 94 
94 115 137 124 116 98 74 39 26 155 149 139 127 116 108 105 88 78 67 59 71 86 97 96 95 95 96 95 64 75 153 139 126 114 106 99 87 85 86 88 86 83 79 78 77 76 76 77 78 83 68 32 47 56 61 63 64 64 62 57 53 48 43 42 45 48 50 53 54 55 55 59 50 20 25 25 25 26 27 26 23 24 25 71 77 76 78 88 88 95 111 110 99 64 47 43 94 94 94 
93 134 130 108 87 77 66 39 27 154 148 139 129 118 110 104 88 90 100 108 97 95 95 94 94 93 95 96 67 74 128 144 128 116 108 102 86 76 70 64 62 64 66 67 67 67 67 67 68 69 53 55 70 76 78 79 80 81 83 83 83 85 85 76 67 55 45 50 52 55 57 59 48 20 25 26 26 26 26 27 27 28 25 59 76 77 78 78 78 78 108 109 97 85 69 46 71 95 95 
102 134 110 95 85 77 68 40 25 147 146 137 129 119 109 114 126 120 110 102 93 92 92 94 95 94 94 97 74 71 105 148 130 114 97 81 69 66 67 67 67 67 67 67 67 68 68 69 69 68 56 53 66 72 75 78 78 79 80 81 81 81 81 82 83 88 85 69 54 50 54 59 41 20 26 27 27 27 27 27 26 27 27 32 65 76 78 79 78 76 108 99 83 84 88 79 51 95 95 
115 118 107 99 89 82 73 42 23 136 145 137 127 117 136 140 131 115 108 101 92 93 92 95 95 94 95 97 83 69 78 142 115 100 91 81 72 67 68 67 68 67 68 67 68 69 69 69 69 69 57 53 67 72 76 78 79 80 79 80 80 80 81 81 82 83 87 89 92 84 66 55 31 21 25 27 27 27 27 27 27 27 27 27 29 60 77 80 79 76 95 81 81 84 87 88 76 84 95 
122 118 113 104 97 89 79 50 24 118 145 135 127 149 145 140 132 117 109 100 92 92 93 95 95 95 96 97 90 48 53 120 118 104 94 83 74 67 67 68 68 68 68 68 68 69 69 69 69 69 59 53 68 72 75 77 78 78 78 78 79 79 80 81 83 83 85 86 88 90 94 90 27 20 25 27 27 28 28 27 28 27 27 28 27 29 39 36 38 36 83 82 83 85 87 88 90 81 96 
126 127 120 109 104 93 81 55 30 95 144 138 154 155 147 141 133 119 107 99 92 92 94 96 97 90 83 75 70 36 53 97 124 106 95 84 76 69 67 68 68 68 67 67 68 69 68 69 69 67 59 54 69 73 76 78 79 78 78 80 80 80 80 80 81 83 85 86 88 89 92 97 39 43 38 31 25 27 27 28 28 27 27 27 28 30 31 29 29 29 51 59 72 87 88 89 89 86 95 
132 134 125 111 102 90 81 58 33 71 143 158 162 158 151 144 134 122 109 101 94 95 96 86 76 73 75 76 76 42 50 71 128 108 98 84 78 67 67 67 67 67 67 68 68 69 68 68 68 66 59 59 70 74 77 78 79 79 78 79 81 80 80 81 83 83 84 86 88 89 92 91 33 45 46 48 48 37 27 27 27 27 27 27 28 29 30 31 27 34 49 51 52 55 78 92 91 90 95 
141 139 125 112 102 86 74 60 38 39 150 170 166 161 153 144 134 125 111 104 90 78 73 74 76 76 77 77 77 51 46 57 118 111 99 89 78 67 67 65 65 64 65 65 65 64 61 61 64 67 69 44 54 59 64 64 69 75 78 80 82 81 82 81 83 84 85 86 88 89 90 81 34 43 44 46 46 46 46 41 31 26 27 29 29 29 30 31 29 37 49 50 53 55 55 67 93 92 95 
146 137 124 110 98 85 75 64 43 25 141 170 167 163 153 146 139 129 111 88 74 74 75 76 76 76 76 77 77 62 41 56 86 116 100 88 76 67 62 60 57 66 73 78 84 93 100 107 110 111 105 39 51 56 59 61 62 58 57 58 62 66 70 78 84 85 87 88 89 89 90 68 39 44 45 45 45 44 46 48 48 43 30 27 29 29 31 30 30 42 49 49 53 55 57 57 67 95 95 
147 137 122 108 98 85 76 66 49 29 111 170 168 164 156 148 136 118 101 88 79 74 74 74 75 76 76 76 76 73 36 55 59 112 99 84 73 71 77 90 102 104 102 102 102 103 104 104 105 108 106 38 52 56 59 62 64 63 64 64 64 62 63 61 62 71 80 90 90 90 92 57 41 43 43 44 46 46 46 46 46 48 49 39 28 30 31 31 30 47 50 50 53 55 56 59 58 78 97 
145 135 121 109 99 88 76 68 57 50 80 170 169 165 158 143 125 115 105 90 79 74 75 74 75 75 74 75 76 76 38 47 62 105 128 123 117 109 101 99 97 98 99 99 101 102 103 104 104 106 106 35 51 56 57 62 64 63 63 64 63 62 63 66 66 66 65 64 69 76 85 47 40 42 43 45 45 46 46 45 46 46 48 50 46 29 30 31 29 28 41 53 55 57 57 57 58 59 97 
145 134 122 111 102 92 81 85 90 66 50 155 169 164 154 139 129 120 108 95 81 74 75 74 73 74 74 73 71 73 70 91 99 115 135 126 112 107 101 98 99 99 100 99 100 102 102 103 104 106 107 35 50 55 59 62 64 64 64 64 62 62 62 64 67 68 67 68 67 65 58 56 43 38 42 44 45 46 46 45 46 56 57 50 53 46 29 31 25 21 21 25 45 57 59 57 58 57 83 
141 133 118 115 106 99 105 100 93 71 53 113 169 159 152 145 132 123 109 99 83 75 73 74 72 71 69 74 95 113 99 88 97 104 139 123 111 109 102 97 99 99 99 100 102 102 101 102 104 106 107 34 50 57 60 62 62 62 63 62 63 63 63 66 67 68 68 69 68 66 58 76 81 71 50 40 43 44 45 55 71 74 74 74 61 56 42 29 22 22 22 24 23 37 58 59 58 57 77 
138 137 105 119 111 114 111 100 94 81 55 71 164 153 153 148 136 125 114 100 87 74 71 71 67 70 94 110 109 109 106 83 96 99 141 126 115 110 106 97 98 99 100 100 101 102 101 102 104 106 107 34 49 55 60 62 62 62 62 62 62 62 63 66 67 68 68 69 68 65 60 76 78 80 83 71 47 41 44 71 73 74 74 75 74 57 59 31 20 22 24 25 25 25 34 59 59 57 78 
135 141 116 118 120 118 114 103 95 86 62 50 134 152 154 151 137 127 118 102 90 74 67 66 88 109 108 107 107 108 110 84 95 97 134 127 113 109 109 97 98 99 100 99 100 102 100 102 103 105 106 31 46 51 57 58 59 61 60 62 61 62 63 65 67 67 67 69 68 64 62 74 76 78 80 82 84 69 53 70 72 74 75 76 78 64 58 40 19 22 25 25 26 26 25 38 60 59 80 
133 137 123 126 125 121 115 106 96 88 67 59 104 152 153 150 137 127 118 102 90 79 92 108 108 106 106 106 106 107 109 92 92 97 126 130 113 107 112 99 99 98 99 100 100 99 97 99 101 104 104 67 75 76 71 67 59 56 56 57 58 60 62 64 67 66 67 68 67 60 64 76 76 78 78 79 81 82 92 92 83 80 76 77 78 59 57 33 20 23 25 25 26 27 27 26 48 59 85 
133 134 130 130 127 122 115 109 96 85 93 94 88 147 153 148 138 126 116 109 120 127 115 106 106 105 105 106 106 107 108 99 88 97 107 132 115 106 114 100 95 95 96 96 97 99 102 104 104 107 109 74 87 92 94 96 98 96 89 83 78 71 62 59 63 64 65 67 67 58 71 76 77 78 78 78 79 92 102 115 112 93 91 82 78 57 55 18 18 22 26 25 26 27 28 28 29 59 92 
134 134 138 133 126 122 117 110 100 112 115 99 86 121 151 147 137 125 130 148 139 125 113 104 105 105 104 106 106 106 108 108 82 95 95 131 121 102 113 98 96 99 99 99 99 101 102 102 104 106 108 71 85 90 92 94 95 96 97 98 99 101 104 98 83 68 60 62 61 57 74 76 78 78 78 78 84 97 99 102 114 118 97 88 59 56 44 17 22 22 22 27 27 27 28 29 26 51 99 
135 136 141 135 128 122 118 113 131 125 111 104 89 94 150 144 137 150 155 151 140 131 111 107 105 106 105 105 106 107 108 108 81 93 95 113 127 105 114 104 97 97 99 99 99 102 101 102 103 106 109 71 85 90 90 92 95 95 96 96 97 99 101 103 106 108 106 100 90 59 71 78 79 78 78 78 95 97 97 98 102 107 109 81 62 55 28 20 22 23 24 22 28 28 28 29 27 49 101 
142 136 139 137 130 121 117 140 139 126 112 105 93 85 130 145 162 162 158 149 148 134 117 104 104 106 105 104 106 105 104 109 95 92 98 99 126 106 111 109 97 97 97 99 99 100 101 101 102 106 109 71 85 89 88 92 93 94 95 96 97 97 100 103 104 106 107 111 113 58 54 63 77 80 78 78 96 97 97 99 102 103 104 105 67 52 16 21 22 23 24 24 24 29 29 29 27 59 100 
151 138 138 139 131 120 139 148 140 130 115 104 98 88 102 165 167 164 159 150 153 139 122 106 104 105 106 105 102 104 108 109 104 88 98 97 113 109 110 113 95 97 97 99 99 101 101 102 102 105 109 69 84 89 88 92 93 94 95 96 97 97 100 102 103 105 106 110 105 50 57 60 59 69 80 81 92 97 97 99 102 102 104 106 93 34 18 22 22 23 23 25 24 27 30 29 26 73 100 
151 137 134 138 131 142 150 144 141 134 120 110 97 90 63 154 169 167 160 153 155 144 130 109 104 104 103 102 104 106 107 108 110 85 97 97 101 110 113 116 95 95 96 97 99 99 99 100 102 104 108 71 84 87 89 90 92 92 93 95 96 97 99 103 103 104 105 110 88 51 59 62 55 59 62 76 90 97 97 99 102 102 104 106 98 21 18 21 22 23 24 25 25 26 30 29 26 81 99 
144 137 133 134 143 158 150 144 141 133 125 113 100 74 67 104 169 168 163 158 152 151 135 116 99 101 104 106 105 106 106 107 110 89 95 97 97 105 109 120 95 94 96 96 97 99 99 100 102 104 108 69 84 89 90 90 92 92 94 94 96 97 99 103 102 104 106 111 72 54 61 61 60 61 60 59 67 90 98 101 102 102 103 96 79 37 24 20 22 24 24 25 26 27 26 30 28 82 99 
146 134 133 130 162 158 152 143 139 134 127 115 97 83 71 64 156 169 167 158 155 154 139 123 104 104 106 106 106 104 106 107 109 95 90 97 98 99 102 125 96 93 94 93 96 98 97 97 99 102 106 72 83 86 87 86 90 92 94 94 96 99 97 102 102 104 106 110 55 56 61 60 60 60 62 61 60 59 81 98 98 98 90 92 53 41 46 31 21 23 24 24 25 27 26 30 27 67 100 
144 134 130 137 164 159 153 145 139 137 127 113 102 88 74 69 99 169 167 161 158 156 148 133 113 103 105 104 106 104 106 106 108 104 85 97 97 97 96 122 98 91 90 92 94 95 99 101 102 105 110 74 84 88 90 93 93 92 93 92 94 97 96 102 102 104 107 100 47 57 58 59 60 62 61 60 61 61 61 72 87 87 90 85 36 41 47 50 30 22 24 24 25 27 27 29 25 62 101 
141 137 124 144 160 160 153 146 140 134 123 115 106 93 80 71 62 154 167 165 161 158 151 134 120 107 104 104 106 106 104 105 107 109 83 94 95 94 92 110 102 91 93 95 96 98 100 101 102 105 109 74 85 90 91 95 95 95 97 97 97 100 98 100 99 102 106 81 46 55 57 58 59 62 60 59 60 62 64 62 75 89 91 61 37 43 46 48 49 27 23 25 25 25 27 31 25 64 100 
138 136 119 136 160 158 155 144 141 131 119 117 112 99 83 74 68 99 169 169 161 159 152 140 131 110 103 104 104 106 104 105 106 104 88 93 97 97 95 101 109 93 94 95 96 97 100 101 101 104 108 74 86 90 93 95 96 97 97 97 96 99 100 102 104 106 109 83 63 53 55 57 60 60 60 59 60 62 64 63 62 78 91 39 42 45 46 46 48 46 23 25 25 25 28 29 25 68 101 
136 133 121 118 159 157 155 146 137 130 122 117 116 108 92 74 68 66 155 169 164 158 153 151 127 119 105 101 103 105 105 101 103 109 99 90 97 97 96 97 115 94 95 94 95 96 99 100 101 104 107 76 87 90 92 95 95 97 95 98 96 99 102 102 104 107 110 84 98 87 57 55 59 59 59 59 59 62 64 63 63 62 59 37 43 45 45 44 46 50 39 24 25 26 30 25 25 76 100 
135 132 125 122 136 157 153 146 137 130 124 117 118 113 97 83 68 101 122 169 168 158 158 151 134 127 108 100 103 104 101 104 106 107 109 84 96 97 95 95 118 93 93 93 95 96 99 101 101 103 106 76 87 90 92 95 95 96 95 97 97 97 102 102 104 106 100 87 95 98 100 76 56 57 59 59 60 62 62 62 63 61 66 41 43 44 46 46 46 50 52 27 23 27 28 25 22 89 99 
132 134 133 127 112 155 153 144 143 134 126 119 114 116 107 89 105 108 103 155 169 162 158 150 146 124 119 100 97 100 105 104 105 106 108 88 95 97 96 95 120 92 93 93 93 94 97 100 100 102 106 75 85 90 92 94 95 96 95 97 97 95 101 102 103 106 92 91 95 96 97 101 92 62 55 58 60 62 62 62 62 64 78 77 44 44 46 46 48 48 50 44 22 28 23 25 23 101 99 
120 139 135 131 118 125 153 146 148 140 126 122 114 111 109 127 121 106 104 120 170 167 156 154 150 129 123 104 102 104 104 105 104 106 107 94 92 97 96 94 120 92 92 92 91 92 96 99 99 101 104 71 83 89 91 93 93 97 95 96 97 95 100 102 104 106 86 93 95 95 97 99 99 103 83 57 58 61 62 62 59 71 78 81 76 43 43 46 48 47 49 53 23 24 23 25 38 102 97 
105 141 137 134 127 113 142 148 151 148 133 121 114 106 125 147 130 113 104 101 152 168 158 157 151 144 122 117 101 102 104 104 104 105 106 100 88 95 96 92 117 93 92 93 92 91 92 94 92 94 100 70 76 81 83 87 92 95 95 95 97 95 99 101 103 104 85 93 95 96 96 97 98 100 103 98 63 58 62 60 61 76 78 79 83 70 41 46 48 48 48 53 32 39 23 23 60 99 97 
94 135 137 136 134 126 111 146 149 148 141 124 116 117 144 146 140 121 106 102 116 169 165 158 154 144 126 120 109 101 102 104 104 104 105 107 83 94 95 92 112 99 88 84 83 83 85 98 100 101 106 76 84 89 91 90 88 87 90 85 90 97 98 101 104 95 90 93 94 95 97 96 97 99 99 102 105 63 58 58 69 77 78 78 81 85 57 45 47 48 50 53 48 58 20 21 87 98 97 
96 118 137 137 137 131 117 116 147 144 144 132 127 150 141 140 144 135 116 104 102 144 169 161 155 145 133 122 116 106 101 101 103 102 104 105 79 85 88 85 98 104 90 93 92 90 90 99 99 101 106 75 83 89 90 91 95 95 98 92 95 93 92 95 97 84 90 94 95 95 99 102 108 106 102 101 106 107 69 62 77 78 78 78 80 83 86 48 45 49 50 53 54 62 29 27 104 97 97 
97 103 137 135 139 133 122 105 132 142 140 140 156 148 146 139 139 141 128 112 101 111 168 165 153 147 135 126 121 116 102 99 102 102 99 96 94 87 93 92 97 114 90 93 91 90 88 99 99 101 106 74 83 89 90 91 97 95 97 92 92 99 99 102 104 83 86 90 99 105 106 109 109 110 110 111 111 109 107 62 79 78 77 78 80 83 85 75 43 50 52 50 53 59 34 55 100 96 97 
98 95 131 133 135 134 124 111 135 140 137 156 165 152 144 142 139 137 137 120 107 102 141 168 158 150 140 127 122 118 111 99 100 93 96 104 102 82 93 93 94 118 92 95 92 90 88 97 99 100 105 74 83 89 82 92 96 95 96 92 91 98 100 103 100 86 92 95 100 107 107 109 109 108 111 113 114 115 81 52 70 79 78 78 81 82 82 87 57 48 53 50 52 57 34 83 98 95 97 
98 96 113 134 133 134 127 126 144 136 136 165 168 160 147 144 138 137 138 133 118 109 107 166 163 154 144 128 121 122 118 102 89 98 101 103 105 85 92 95 92 122 93 94 94 89 87 94 99 100 106 75 84 88 90 93 96 95 93 94 92 98 102 104 92 90 93 104 106 102 104 109 108 109 110 113 115 116 61 55 55 75 80 81 81 81 82 87 71 54 81 49 52 56 46 102 96 95 97 
98 97 97 132 132 132 126 145 151 132 136 167 167 167 155 144 141 137 136 137 125 117 103 134 167 158 147 132 124 118 120 116 102 99 102 102 104 90 89 93 92 122 93 93 93 90 87 91 100 100 105 79 85 88 92 95 95 97 92 95 93 97 102 106 89 91 99 106 108 107 106 102 107 109 111 113 116 95 74 57 57 59 79 80 80 80 82 86 67 78 95 50 53 54 76 99 95 95 97 
99 98 97 113 130 131 125 158 155 146 125 161 167 167 165 150 144 139 135 135 133 122 113 102 162 162 153 138 122 119 120 122 113 97 101 102 104 98 85 92 92 117 96 95 95 92 87 89 100 99 104 80 85 88 91 95 95 98 91 94 95 98 102 105 84 93 106 106 106 109 109 108 103 106 112 113 113 76 78 67 58 58 67 81 79 79 83 85 74 86 95 57 51 57 97 97 95 95 97 
99 99 98 97 127 127 127 160 157 152 143 139 167 167 167 160 146 140 137 134 134 130 120 106 130 166 159 146 129 118 118 120 119 105 99 101 102 104 83 93 93 110 102 94 95 92 86 85 97 97 100 78 83 88 88 95 96 97 89 92 95 99 102 96 88 95 106 107 108 109 109 108 109 106 109 115 92 76 78 69 59 59 58 75 79 81 85 85 81 87 94 60 48 82 98 95 95 95 97 
99 99 99 97 106 127 131 158 158 153 148 129 134 167 167 165 155 144 137 136 133 132 124 114 102 162 162 154 134 113 117 118 124 115 95 100 102 104 88 91 92 98 110 90 92 88 83 83 97 97 101 81 85 88 88 96 94 93 86 88 97 99 102 88 92 95 105 106 109 109 109 107 109 112 109 107 74 78 79 65 58 59 57 57 79 84 85 79 84 88 92 59 57 99 96 95 95 95 97 
99 99 99 99 96 115 131 159 156 155 148 137 118 152 167 165 162 151 140 135 132 130 130 120 106 130 163 155 141 112 114 118 123 122 104 99 100 102 92 86 90 89 117 92 95 91 84 82 95 98 101 78 85 88 91 97 95 94 88 87 95 99 100 85 93 92 104 106 110 108 108 108 110 112 113 106 76 77 80 60 57 57 58 55 70 87 71 69 88 90 92 55 87 97 95 95 95 95 97 
99 99 99 99 97 97 120 159 155 155 148 144 132 121 161 167 165 158 148 139 133 129 128 122 119 112 154 155 147 127 105 114 122 128 118 94 99 98 100 84 91 90 115 92 94 92 85 82 92 98 99 77 86 88 92 96 96 92 90 88 95 99 98 86 91 92 100 110 110 109 107 109 112 113 112 107 103 76 77 57 57 57 56 56 69 81 55 67 89 88 91 67 99 95 95 95 95 95 97 
99 99 99 99 99 97 99 149 155 153 148 146 141 128 118 163 167 163 153 146 138 132 125 127 125 117 125 157 150 135 110 109 118 132 129 97 96 99 101 86 90 90 113 94 93 92 85 81 88 97 98 78 87 88 91 95 95 88 89 89 95 99 90 91 92 92 95 109 109 109 108 110 112 115 106 108 110 93 68 55 56 56 55 57 73 59 59 64 90 88 83 95 97 96 95 95 95 96 97 
99 99 99 99 99 98 95 112 154 152 146 146 146 138 122 125 167 165 159 150 144 137 131 127 130 122 111 146 151 148 118 97 113 127 134 118 92 97 100 87 88 90 114 92 92 92 86 81 85 96 97 77 85 87 92 95 93 85 88 88 95 99 85 91 92 93 97 99 106 107 108 111 113 111 106 108 110 106 59 53 55 54 55 57 59 59 59 62 90 89 95 97 96 95 95 95 95 95 97 
99 99 99 99 99 99 97 94 127 151 146 145 144 144 135 123 155 168 162 152 147 146 137 131 128 127 116 119 155 149 130 100 95 120 137 131 94 96 98 92 86 90 111 97 92 92 86 81 83 95 97 76 84 85 95 93 92 84 87 88 96 95 81 92 92 94 98 96 96 104 109 113 115 106 108 109 102 99 93 50 53 53 55 61 57 59 59 64 90 93 96 96 95 95 95 95 95 95 97 
99 99 99 99 99 99 99 97 95 141 146 146 143 141 138 146 153 158 165 153 146 151 146 131 127 131 124 113 144 151 151 104 92 110 129 133 113 92 97 98 81 90 102 103 92 91 86 81 81 95 100 79 88 88 96 94 90 84 83 89 96 89 88 90 90 95 98 95 95 96 104 110 106 104 105 102 97 98 102 72 48 52 72 92 55 59 59 67 91 97 96 96 95 95 95 95 95 95 97 
100 99 99 99 99 99 99 98 96 100 144 145 144 141 137 154 159 149 164 161 151 146 147 141 130 127 131 121 120 156 151 122 95 92 121 139 132 90 95 97 83 88 93 110 92 95 91 87 84 90 71 44 63 87 99 99 93 88 83 92 95 83 89 90 91 97 96 95 95 95 101 102 94 97 98 97 97 97 102 94 46 60 107 103 54 57 57 72 97 97 96 95 95 95 95 95 95 95 97 
100 99 99 99 99 99 99 99 98 95 104 146 143 141 134 160 164 153 150 165 158 145 146 148 137 128 127 129 119 138 149 148 96 92 105 130 137 109 91 95 89 90 92 118 93 68 46 26 15 13 15 17 17 15 20 27 39 58 79 99 98 81 90 89 92 96 95 92 93 97 103 97 95 97 98 98 97 100 99 101 62 98 108 106 52 57 55 91 97 96 95 95 95 95 95 95 95 95 97 
100 100 100 100 99 99 99 99 99 98 95 108 143 142 138 165 166 163 153 155 168 149 137 144 153 132 130 128 127 119 149 150 114 93 90 116 145 137 90 98 88 55 53 59 14 16 16 13 13 18 18 21 21 22 23 21 18 18 14 32 49 60 95 92 96 96 95 95 92 99 102 94 97 96 98 99 100 99 97 100 90 104 107 108 52 53 79 99 96 95 95 96 95 95 95 95 95 95 97 
99 100 100 99 100 99 99 98 99 99 98 95 110 142 141 165 165 163 160 155 158 164 139 130 150 155 127 128 130 122 130 149 144 92 91 101 131 148 111 66 20 18 15 44 18 20 20 15 13 18 18 20 22 24 24 23 20 22 18 22 18 14 46 96 110 111 105 102 102 104 95 97 97 97 97 100 100 96 98 101 102 104 107 104 49 69 99 97 96 95 95 95 95 95 95 95 95 96 97 
100 99 99 100 99 99 99 99 99 99 99 98 95 110 144 165 165 163 162 158 155 162 156 135 129 158 153 127 126 130 118 145 151 108 93 90 123 141 97 22 18 20 18 43 18 21 20 15 13 15 17 21 20 24 24 22 20 21 20 24 26 36 49 64 103 124 121 119 118 113 99 97 97 97 98 101 98 96 102 97 102 104 109 91 62 98 97 96 96 95 95 95 95 95 96 95 95 95 97 
100 100 100 100 100 99 99 99 99 99 99 98 97 94 112 163 166 165 162 160 162 160 167 144 131 130 163 146 127 125 127 125 152 142 96 78 48 81 106 48 22 20 18 45 18 20 20 15 12 14 17 20 20 24 24 21 20 19 31 44 53 54 64 74 78 101 129 130 130 122 116 107 98 99 99 98 96 101 101 99 103 105 108 84 95 97 96 96 95 95 95 95 95 95 95 95 95 96 97 
101 99 99 99 99 99 99 99 99 99 99 99 99 97 93 126 165 167 163 158 161 163 167 168 132 127 134 163 133 127 126 121 146 160 63 16 17 68 102 92 24 15 20 31 29 20 20 16 12 13 15 21 21 24 23 19 19 23 49 50 53 59 73 83 92 98 106 135 137 127 122 117 103 101 98 95 101 102 102 99 104 106 104 94 97 97 96 96 95 95 95 96 95 95 95 95 95 95 97 
100 100 100 100 99 99 99 99 99 99 98 98 98 98 97 93 130 163 165 161 160 163 167 168 165 126 120 140 163 125 125 130 117 109 85 18 20 35 91 115 45 18 18 20 34 18 19 15 12 13 16 22 22 25 22 17 18 39 50 52 52 64 78 89 101 111 116 117 133 134 126 119 114 99 96 97 103 103 102 100 104 105 97 96 96 96 95 96 96 95 95 96 95 95 95 95 95 96 97 
99 101 100 100 100 100 99 99 99 99 99 99 98 98 98 96 98 140 164 162 163 162 165 166 163 155 123 115 148 160 125 126 70 83 126 34 20 19 74 103 85 26 16 16 36 18 18 15 13 13 15 18 21 25 20 18 25 48 50 53 53 67 79 92 105 118 127 124 113 135 128 122 115 103 97 102 104 103 103 101 104 97 96 96 96 95 96 95 96 96 95 95 95 95 95 95 95 95 97 
100 100 100 100 99 100 99 99 99 99 99 99 98 99 97 97 95 105 152 162 164 164 163 164 162 140 141 120 118 158 156 70 60 57 127 85 17 19 47 89 116 41 16 19 38 16 11 6 3 2 1 6 1 3 4 10 38 46 51 54 53 67 78 91 104 116 125 125 111 111 131 122 113 106 104 102 104 104 104 102 97 95 96 95 96 96 96 96 96 96 96 95 95 95 95 96 95 95 97 
101 100 100 100 100 99 99 99 99 99 99 99 98 99 98 98 97 94 118 155 161 165 165 163 163 155 125 125 119 137 146 89 60 61 85 132 27 18 28 81 101 83 26 16 27 1 1 1 1 1 1 6 1 1 1 17 32 34 43 48 55 64 75 86 97 108 115 113 104 90 121 120 110 111 111 103 104 104 102 97 95 96 96 96 96 96 95 96 96 96 95 95 96 95 95 95 95 95 97 
101 100 100 100 100 99 99 99 99 99 99 99 99 99 98 97 98 97 93 130 151 160 166 165 164 164 111 137 115 120 95 117 78 66 54 122 78 14 18 72 96 104 20 7 18 1 0 1 1 1 1 6 1 1 4 31 32 33 39 33 41 59 70 80 88 97 104 101 95 83 102 117 111 113 114 106 105 103 96 97 96 96 96 96 96 96 96 96 96 96 95 95 95 95 95 96 96 96 97 
101 100 100 100 100 100 99 100 99 99 99 99 99 98 99 99 98 99 97 95 137 149 159 164 165 165 133 93 146 50 63 110 120 66 62 81 128 21 16 51 58 72 49 11 20 1 1 1 1 1 1 6 1 1 6 33 32 32 38 34 34 37 59 72 79 89 90 89 83 76 68 108 114 113 114 109 104 97 96 96 96 96 95 96 96 96 96 96 96 96 95 95 96 96 95 96 95 95 97 
101 101 100 100 100 100 100 99 99 99 99 99 99 99 99 99 99 98 98 96 95 135 148 152 160 166 141 93 99 87 20 76 121 115 62 56 120 63 4 22 46 62 76 13 22 4 1 1 1 1 1 7 1 1 1 31 32 36 35 34 34 33 36 53 69 78 76 74 71 66 53 88 115 114 115 106 97 96 97 95 96 96 96 96 97 96 96 96 96 96 95 96 96 95 95 95 95 96 97 
101 101 101 100 100 100 100 100 99 99 99 99 99 99 99 99 99 99 99 98 97 95 131 148 151 161 155 90 90 93 62 22 92 125 110 59 67 88 6 20 38 51 73 41 12 17 0 1 1 1 1 6 1 1 1 26 33 39 33 34 34 34 33 34 54 62 63 62 59 52 51 104 115 113 115 97 97 96 96 97 96 97 97 96 95 95 96 96 96 96 96 96 95 95 95 95 95 96 97 
101 101 100 100 101 100 100 100 99 99 99 99 99 99 99 99 99 99 99 98 98 96 93 118 150 155 155 99 111 76 114 36 36 106 126 97 34 83 38 7 41 44 65 69 10 20 0 1 1 1 1 6 1 1 1 21 32 38 34 34 34 34 33 35 40 47 53 53 50 51 53 99 115 115 112 96 97 96 96 95 96 96 96 95 95 95 96 95 96 96 96 96 96 95 95 96 96 96 97 
101 101 100 100 100 100 99 100 99 99 99 99 99 99 99 99 99 99 98 98 98 97 97 95 106 153 155 160 155 111 109 112 20 57 121 113 72 42 81 8 31 50 50 69 36 18 1 1 1 1 1 5 1 1 1 15 33 37 34 34 34 33 34 42 34 39 53 50 48 55 48 102 117 115 108 97 96 97 96 95 96 96 96 96 95 95 96 96 96 96 96 96 96 95 95 96 96 96 97 
101 100 101 100 100 100 100 99 99 99 99 99 99 99 99 99 99 99 98 98 98 99 99 98 95 98 144 156 159 116 116 110 98 17 83 97 100 57 71 31 27 43 50 64 61 21 1 2 10 53 39 32 81 90 69 18 36 34 34 33 34 33 36 39 36 34 46 48 53 52 51 113 116 114 105 97 97 97 96 96 96 96 97 96 96 96 96 96 96 96 96 96 96 96 96 96 96 96 97 
101 101 101 101 100 100 100 100 99 99 99 99 99 99 99 99 99 99 99 98 98 98 99 98 97 95 92 124 153 110 119 116 115 74 15 89 88 98 48 69 24 41 52 53 63 46 40 64 40 52 7 11 80 115 115 95 42 34 34 34 34 33 41 35 35 34 37 55 54 53 106 118 114 113 102 96 96 96 96 96 96 96 97 96 96 97 96 96 96 96 96 96 96 95 95 95 95 95 97 
101 100 101 101 100 100 100 99 100 99 99 99 99 99 99 99 98 99 99 98 99 98 99 98 99 98 97 94 109 131 113 119 114 121 36 43 108 75 95 62 31 41 51 54 71 67 16 6 1 1 1 1 1 20 38 16 25 64 41 34 34 37 37 35 34 36 35 56 50 88 120 115 114 107 97 97 96 96 96 96 97 97 96 96 96 96 96 96 96 96 96 96 95 95 95 95 96 96 97 
101 101 101 100 101 100 100 100 100 99 99 99 99 99 99 99 99 99 98 98 99 98 99 99 99 99 98 97 95 101 130 117 121 99 103 20 90 95 76 85 43 44 63 81 46 53 18 1 1 1 1 2 1 1 1 1 2 20 74 50 33 41 35 34 36 34 39 51 68 118 115 113 104 96 96 97 97 97 96 97 96 96 96 96 96 96 96 95 95 96 96 96 96 96 95 95 96 96 98 
101 100 102 101 100 101 100 100 99 99 99 99 99 99 99 99 99 99 99 99 99 99 99 99 99 99 98 99 97 97 97 120 124 111 85 90 39 114 78 87 78 50 59 35 23 48 63 1 1 1 2 3 1 1 0 1 3 2 11 78 71 53 37 34 36 39 37 71 119 117 114 102 96 97 96 97 97 96 97 96 97 96 96 96 96 97 96 96 96 96 96 95 95 96 95 96 96 96 97 
101 101 101 101 101 100 100 99 100 99 99 99 99 99 99 99 99 99 99 99 99 99 99 99 98 98 99 99 98 99 97 96 109 110 98 92 67 81 104 76 67 28 19 32 24 44 93 6 1 1 2 2 4 1 1 2 2 2 31 74 125 106 81 50 37 36 70 120 117 113 100 97 96 97 97 97 97 97 96 97 97 97 96 96 96 96 96 97 96 95 96 96 95 95 95 96 96 96 98 
101 101 101 100 100 101 100 100 100 100 100 99 99 99 99 99 99 99 99 99 99 99 99 98 99 99 99 99 99 99 99 97 97 101 101 99 95 58 111 96 59 55 13 15 32 39 91 37 1 1 3 2 1 2 1 3 1 11 68 121 120 124 96 71 27 62 115 111 108 98 97 97 96 97 97 97 97 97 96 97 97 97 96 96 96 96 95 96 95 96 95 96 95 96 95 95 95 96 97 
