P2
100 100
255
135 135 135 135 135 134 134 133 134 133 133 134 133 132 133 133 133 
133 133 132 133 132 132 132 132 132 132 132 131 131 131 131 131 
131 131 132 135 140 129 109 104 105 112 118 127 134 133 131 130 
130 133 135 138 129 103 85 71 65 68 79 98 126 136 133 130 
129 129 128 129 128 128 128 128 129 128 129 128 127 129 136 142 
149 156 163 174 195 222 241 241 231 221 219 230 236 232 235 244 
241 242 244 135 135 134 134 135 134 134 134 134 133 134 133 133 132 133 132 132 
133 132 133 132 132 133 132 132 132 132 132 132 132 131 132 132 
131 138 153 133 99 64 51 54 59 68 78 96 108 120 132 133 
135 139 106 62 40 47 60 69 75 75 74 68 59 71 108 134 
132 129 129 129 128 128 128 128 128 128 128 128 128 128 133 140 
147 156 174 201 226 233 223 208 203 205 220 227 222 226 236 242 
235 242 245 135 134 135 135 135 135 134 134 134 133 134 133 134 133 133 132 133 
133 133 133 133 132 132 132 132 132 132 132 132 132 131 131 133 
156 142 101 74 58 46 50 51 53 54 55 54 64 91 112 128 
123 61 39 57 80 88 90 88 89 88 89 90 89 91 83 85 
122 132 130 129 128 129 128 128 128 128 128 128 128 128 131 137 
153 178 204 216 210 195 188 189 194 208 214 211 215 222 241 233 
230 240 243 135 135 135 135 135 135 134 134 134 134 134 133 134 133 133 133 132 
133 133 133 133 133 133 133 133 133 132 132 132 132 131 138 160 
118 102 94 82 64 58 58 59 62 67 64 64 63 58 69 111 
50 45 77 89 89 91 91 93 86 80 78 79 86 96 98 97 
91 113 133 130 129 129 129 128 128 128 128 129 128 128 133 152 
179 196 194 181 172 172 178 183 195 201 200 205 210 226 235 221 
225 236 241 136 135 135 135 135 135 134 135 135 134 134 134 134 133 132 133 133 
133 133 133 133 133 133 133 132 133 134 134 134 132 139 156 125 
119 110 74 44 22 16 16 17 18 23 31 48 67 71 65 66 
56 78 87 91 90 74 58 48 47 49 52 51 50 48 56 75 
98 102 113 132 131 130 130 129 129 129 128 129 130 139 155 171 
174 165 157 157 161 166 173 183 188 189 194 198 206 230 218 214 
222 228 239 136 136 135 135 136 135 134 134 134 134 134 134 134 133 133 133 133 
133 133 133 132 133 133 134 135 135 130 123 121 128 154 139 124 
81 44 32 27 21 22 24 25 25 24 23 21 20 35 64 71 
55 80 86 70 49 47 51 52 52 53 53 53 55 53 54 51 
53 74 104 119 131 130 131 132 132 131 131 134 145 156 158 148 
140 141 146 151 157 163 170 175 178 184 188 192 210 219 203 205 
217 217 235 136 136 135 135 135 135 134 135 134 135 135 134 134 134 134 133 133 
133 133 133 134 137 142 138 121 109 107 104 93 133 145 113 65 
53 42 35 28 23 27 28 28 28 29 28 28 25 23 20 48 
55 74 52 46 52 52 51 53 54 53 55 55 53 53 54 53 
54 56 61 96 101 94 99 103 110 120 135 150 152 145 136 130 
131 137 142 147 153 159 165 168 173 177 182 189 213 198 195 198 
211 207 231 136 136 136 135 136 135 135 135 134 135 135 135 134 134 134 134 134 
134 134 142 156 148 124 102 103 117 123 123 132 151 109 69 63 
53 39 34 32 29 31 31 31 33 32 32 30 30 28 26 20 
38 41 45 49 51 51 55 57 58 58 57 57 58 58 58 57 
57 59 60 62 93 106 107 109 104 105 107 113 127 137 136 133 
132 134 138 143 148 153 158 163 167 171 175 193 198 186 189 192 
201 198 225 136 136 136 136 136 136 135 135 135 135 134 134 133 134 134 134 134 
136 152 130 98 74 60 61 61 61 74 93 148 116 87 71 61 
56 42 35 30 27 28 27 28 29 29 30 32 33 33 32 25 
12 28 45 51 55 54 54 43 38 33 30 29 33 38 44 54 
64 66 63 64 63 97 63 47 51 51 47 42 48 69 117 145 
140 135 135 139 143 148 153 157 162 165 172 192 180 179 181 186 
191 191 219 136 136 136 136 136 136 136 136 135 135 134 135 135 134 134 135 137 
145 118 103 91 72 69 71 68 70 68 65 136 101 85 73 67 
61 45 37 28 27 29 31 33 33 33 32 29 29 33 28 32 
14 27 47 53 47 30 21 21 23 25 25 25 25 25 24 22 
33 49 64 68 67 72 64 50 51 49 48 50 53 57 59 96 
145 142 136 135 138 143 148 152 156 160 173 179 170 173 175 180 
182 184 213 136 136 136 135 136 135 136 135 135 135 135 135 135 135 134 137 142 
130 113 106 93 80 80 82 81 80 75 78 115 104 96 83 75 
60 51 42 34 31 32 33 36 35 35 36 34 33 32 31 30 
18 30 43 25 18 22 25 27 27 29 29 29 28 29 28 28 
28 25 31 57 72 73 66 45 50 50 51 54 59 66 72 72 
77 132 141 134 133 138 143 147 151 156 170 163 164 166 168 172 
173 177 206 137 136 136 136 137 136 136 135 135 135 135 135 135 134 139 147 142 
113 78 50 31 24 27 33 43 57 72 81 117 115 107 85 74 
62 51 41 34 34 35 37 37 36 38 38 37 37 35 35 29 
21 25 14 19 24 25 27 29 31 31 31 31 30 30 30 31 
30 29 29 28 45 73 75 50 70 89 100 105 110 116 115 106 
88 68 122 137 131 133 137 140 146 159 158 154 157 159 161 165 
165 170 198 137 137 136 136 136 136 136 136 135 136 135 135 135 137 153 123 74 
52 45 39 31 31 32 33 34 33 23 78 130 117 100 82 71 
62 51 42 37 37 37 38 38 38 39 42 41 41 39 39 35 
28 6 14 24 26 27 29 30 31 33 33 32 32 32 31 32 
33 33 32 32 29 38 76 75 90 99 102 104 107 114 119 123 
123 111 75 120 133 130 137 148 159 168 165 162 155 153 155 157 
158 163 190 137 137 136 136 137 137 136 136 136 135 135 135 136 154 112 77 64 
55 48 40 34 36 37 37 39 38 22 81 138 116 100 82 71 
62 52 42 38 38 38 39 39 39 39 42 42 41 41 40 40 
28 3 17 25 29 29 32 33 35 35 34 34 34 34 34 34 
34 34 36 35 34 30 38 74 86 97 102 104 107 110 114 117 
116 117 114 92 139 151 153 152 156 166 179 186 183 170 158 151 
151 155 182 136 137 137 137 137 136 136 136 136 136 135 135 150 121 92 79 64 
57 50 43 39 38 40 40 42 38 20 67 135 123 105 87 74 
65 53 40 34 34 41 48 49 49 48 47 43 38 39 40 41 
30 3 18 25 27 28 30 30 32 31 32 31 31 31 31 31 
33 36 35 38 37 35 21 53 86 99 105 107 109 111 113 114 
113 113 112 124 130 156 154 153 158 179 200 209 201 184 165 153 
143 149 173 138 137 137 137 136 136 136 136 136 136 135 139 146 111 92 83 67 
62 56 44 36 36 38 38 41 42 24 67 148 129 114 95 76 
62 56 56 64 73 76 80 80 77 76 78 82 80 71 56 40 
30 3 15 23 28 33 36 36 36 35 35 35 35 35 36 36 
35 34 35 39 39 38 33 31 89 92 84 79 79 82 89 101 
114 114 118 132 131 146 155 153 164 191 217 232 217 191 166 156 
139 141 164 137 137 137 137 136 136 136 136 136 136 134 155 137 118 98 90 75 
65 56 48 41 43 43 42 39 37 28 61 163 139 120 98 97 
106 96 78 72 74 74 75 76 74 74 75 77 81 84 86 84 
54 5 14 29 33 35 35 37 37 38 36 36 34 36 38 37 
38 40 39 37 38 42 39 29 43 48 54 59 59 61 60 59 
60 77 118 136 133 136 154 154 164 191 216 231 216 189 163 153 
146 134 155 138 137 137 137 137 137 137 136 135 133 135 166 135 122 104 86 77 
63 56 49 45 44 46 44 46 45 30 42 176 144 134 140 131 
114 94 73 68 72 71 73 74 73 75 75 76 78 79 82 84 
83 20 17 29 33 34 36 38 38 39 38 38 36 37 39 39 
40 40 41 41 40 38 41 34 37 50 60 63 64 63 65 65 
67 75 86 97 129 137 147 154 157 178 198 205 197 177 156 153 
152 139 151 137 137 137 137 136 136 136 135 133 146 183 159 136 118 103 81 73 
62 55 49 47 48 48 48 49 47 30 24 175 168 163 142 125 
108 95 74 70 73 72 72 73 75 75 75 75 78 78 79 81 
81 23 18 29 33 35 37 39 40 41 39 38 37 37 40 39 
40 40 40 41 41 42 39 36 35 44 63 65 66 66 68 70 
70 92 94 93 84 121 141 155 154 160 172 177 172 159 153 153 
153 151 148 138 138 138 137 137 136 135 131 155 190 180 151 132 114 104 81 74 
65 57 51 48 51 51 51 50 48 32 13 176 181 160 139 125 
107 96 73 70 73 72 73 74 73 75 75 76 78 78 79 79 
80 26 18 30 34 36 38 40 41 40 39 38 38 39 40 40 
39 40 41 41 41 41 43 34 38 60 65 68 69 68 68 71 
73 96 95 99 97 90 125 148 156 154 153 155 153 153 152 152 
153 154 146 138 138 137 137 137 134 129 169 205 196 167 150 132 115 108 92 79 
68 58 51 50 51 51 50 50 48 34 29 153 181 158 137 124 
106 97 76 70 74 72 71 72 70 69 71 72 73 75 76 77 
78 29 18 29 32 35 36 36 36 35 36 35 35 37 38 40 
41 41 42 42 42 40 42 39 39 60 62 64 67 70 73 73 
72 96 98 99 99 97 94 138 146 154 154 153 154 153 152 152 
153 151 143 138 138 138 137 135 129 186 220 206 174 159 159 137 125 118 102 84 
69 54 53 63 70 76 78 80 76 60 40 121 181 158 136 123 
108 98 77 67 63 67 79 88 91 93 92 93 93 86 75 67 
68 32 17 25 37 45 49 54 58 59 57 52 50 48 44 36 
35 40 41 43 42 44 39 39 14 21 27 27 27 27 32 45 
59 92 99 100 100 102 99 113 147 146 154 154 153 152 152 153 
153 147 142 139 138 138 136 130 183 227 218 184 163 167 169 148 136 125 104 90 
90 94 95 90 89 90 89 88 87 78 42 86 183 160 135 122 
106 89 88 96 113 123 125 125 124 126 126 128 130 133 133 124 
101 44 31 53 61 63 65 66 69 69 66 64 65 68 69 69 
61 48 37 40 43 43 43 39 12 25 31 32 31 31 30 30 
30 54 81 97 108 125 142 138 160 153 149 155 155 153 153 153 
153 143 141 138 137 137 132 172 231 201 171 114 160 184 182 156 140 129 132 131 
116 100 90 89 86 90 88 87 85 79 44 57 176 159 138 136 
148 151 139 122 122 122 122 123 122 123 123 124 127 127 129 133 
137 87 45 55 62 63 62 65 69 70 67 65 65 68 69 71 
70 71 74 58 39 42 44 39 14 29 34 33 32 34 33 33 
33 48 68 105 138 149 150 149 155 158 152 154 158 154 153 153 
153 139 140 138 137 134 150 214 170 156 138 82 175 199 188 157 156 160 143 127 
112 97 87 87 87 90 89 87 85 81 47 50 137 175 187 179 
164 149 140 119 120 122 122 123 122 123 123 123 126 126 128 129 
134 86 42 55 62 62 64 64 66 66 64 65 66 64 67 69 
72 72 75 79 78 57 41 36 16 31 34 33 35 34 34 34 
34 42 84 129 129 134 149 152 148 142 139 103 143 157 155 154 
153 135 139 139 137 134 195 177 164 155 125 73 196 208 187 175 167 157 141 125 
111 95 88 86 87 89 87 87 85 83 53 46 138 218 193 175 
163 148 140 120 121 123 122 124 123 124 124 125 125 126 127 128 
134 91 41 54 60 62 62 63 66 67 66 66 67 67 68 69 
71 71 73 76 80 83 74 35 21 33 34 34 34 34 35 35 
36 36 104 130 130 131 135 153 152 145 146 125 91 144 158 153 
139 134 139 138 134 165 194 170 161 153 116 74 210 208 200 179 165 158 143 124 
110 96 89 86 86 86 85 82 79 77 59 85 142 220 192 175 
162 149 139 120 121 122 121 123 123 122 124 125 124 126 127 129 
134 96 41 52 59 63 64 63 66 66 68 67 68 67 70 69 
69 72 71 76 77 83 87 69 25 29 31 33 35 35 37 36 
36 50 108 114 130 131 131 141 154 145 147 146 96 98 156 139 
131 134 138 137 136 196 185 167 163 150 112 75 220 212 201 180 166 156 145 123 
113 99 87 81 77 81 96 109 117 131 126 95 121 227 195 177 
160 149 140 122 122 121 122 124 124 124 126 127 128 128 129 130 
135 103 40 49 56 59 59 60 62 63 64 64 66 66 68 69 
70 74 75 76 77 82 85 78 33 35 35 34 33 32 33 37 
38 42 108 109 113 129 133 131 152 145 147 143 98 89 102 136 
133 134 138 134 164 195 177 166 140 105 55 37 222 213 199 182 166 154 150 126 
111 96 85 101 123 138 137 136 135 137 136 91 107 218 199 180 
163 151 141 124 122 123 125 123 118 113 111 110 109 108 110 112 
118 97 46 67 80 87 90 92 92 88 82 76 68 62 60 64 
69 71 75 77 78 79 84 72 29 35 36 36 37 38 37 33 
34 36 102 110 109 112 126 126 136 158 157 142 92 67 62 134 
134 134 138 133 191 185 154 124 110 94 55 38 220 211 198 184 168 157 148 126 
129 143 154 138 135 135 134 134 133 135 137 95 105 183 205 183 
166 154 145 123 108 100 92 89 92 94 96 95 95 96 96 97 
98 76 78 100 108 111 113 114 116 118 118 118 121 121 109 96 
79 64 72 74 79 81 84 69 29 36 37 37 37 37 38 38 
40 36 84 108 110 111 112 111 112 154 155 139 122 99 65 101 
136 135 138 146 192 157 136 122 110 97 57 36 210 208 196 184 170 156 163 180 
172 157 146 133 131 132 134 135 134 134 138 105 102 150 211 185 
163 139 116 99 94 95 96 96 95 96 96 96 97 97 98 98 
97 80 75 94 103 107 111 112 113 114 115 115 115 115 117 119 
125 122 99 77 72 77 84 58 28 37 38 38 38 39 39 37 
38 39 46 93 108 111 113 111 108 154 141 118 120 125 113 73 
136 136 138 165 169 153 141 127 117 104 60 33 194 207 195 181 167 194 200 187 
165 154 144 132 133 132 135 135 134 135 139 119 98 112 203 164 
143 130 116 103 95 97 96 97 96 97 96 97 98 98 98 98 
98 82 75 95 103 108 111 113 114 113 114 114 114 115 115 117 
119 124 127 131 120 94 78 44 30 36 38 39 38 39 38 39 
39 39 39 42 86 110 114 113 109 135 115 116 120 124 126 108 
120 136 139 174 169 162 148 139 127 113 72 34 168 207 193 181 213 207 200 189 
167 155 143 132 132 133 135 135 136 137 139 129 69 75 171 168 
148 134 119 106 95 96 97 97 97 97 97 97 98 98 99 98 
98 85 76 97 103 107 110 112 111 112 112 113 113 114 115 118 
119 122 123 126 129 134 128 39 28 36 38 39 40 40 39 40 
38 39 40 39 42 55 51 54 51 118 117 119 121 124 126 128 
115 137 139 180 181 171 156 148 133 116 79 43 136 206 197 220 221 210 202 190 
170 153 141 132 132 134 137 139 129 118 107 100 51 75 138 177 
152 136 120 108 98 96 97 97 97 96 96 97 98 97 98 98 
96 84 77 98 104 108 111 113 112 112 114 114 114 114 114 116 
118 122 123 125 127 132 139 55 61 54 44 35 39 39 40 40 
38 39 39 40 43 44 42 41 42 73 85 103 124 126 127 127 
123 136 139 188 191 178 159 146 128 116 83 47 102 204 226 231 225 215 205 191 
175 155 144 134 135 137 123 108 104 107 108 108 60 71 102 183 
154 140 120 111 96 95 96 96 95 96 97 97 98 97 97 97 
94 84 84 100 106 110 111 113 113 112 113 115 114 114 116 118 
119 120 123 126 127 131 130 47 64 66 69 68 53 38 39 39 
39 39 39 40 42 43 44 39 48 70 73 74 79 111 132 130 
128 135 139 202 198 179 160 146 123 106 86 54 56 214 243 237 230 218 206 192 
179 158 149 128 112 104 106 109 109 110 110 110 73 65 82 168 
159 142 127 111 96 95 93 93 91 93 93 93 92 87 87 91 
96 98 63 77 85 91 92 98 107 111 114 117 116 117 116 119 
120 122 123 125 127 128 115 49 62 63 65 65 65 66 59 44 
37 39 41 42 41 43 44 42 53 70 72 76 78 78 95 133 
132 135 140 209 196 177 157 140 121 107 91 61 36 202 243 238 233 219 208 199 
184 159 126 106 106 107 108 109 109 109 110 110 89 58 80 123 
166 143 126 108 95 89 86 82 94 104 112 120 133 143 153 157 
158 150 55 73 80 84 87 88 83 81 83 89 94 100 112 120 
122 124 126 127 127 129 97 55 63 64 64 64 63 65 68 68 
61 43 39 41 42 44 43 43 60 70 70 75 78 81 82 96 
136 136 140 210 195 174 154 140 122 108 94 70 42 159 243 240 234 223 212 194 
168 144 125 113 105 106 106 107 109 108 108 109 104 51 78 84 
160 142 120 104 101 110 129 146 148 146 146 146 147 148 149 150 
154 151 54 74 80 85 88 91 90 91 91 91 89 90 87 88 
101 114 128 128 129 132 82 58 61 62 63 65 66 66 65 66 
68 70 55 40 43 44 44 43 67 72 72 76 78 80 84 83 
111 138 141 207 193 173 155 142 125 109 97 81 71 114 243 241 235 225 204 179 
164 150 129 113 105 107 106 107 107 106 107 108 108 54 67 88 
150 183 176 167 155 144 142 138 140 142 142 144 146 147 148 149 
152 151 50 73 80 82 88 91 90 90 91 90 89 90 94 94 
94 93 92 98 109 122 67 57 60 62 64 64 65 66 64 65 
66 69 71 65 41 43 44 41 40 58 75 78 81 81 82 83 
84 138 141 207 191 175 159 146 131 116 122 129 94 72 221 241 234 220 199 184 
171 154 135 115 106 107 106 104 106 105 104 101 104 100 130 142 
164 193 180 160 153 144 140 141 142 143 142 143 145 146 147 149 
152 153 50 72 79 85 89 91 91 91 91 88 89 89 92 95 
97 96 97 96 93 83 80 61 54 60 63 64 65 65 64 65 
80 81 71 76 66 41 44 35 30 30 36 64 82 84 82 83 
82 119 142 202 190 168 165 152 141 150 143 133 102 75 161 241 227 217 207 189 
176 155 142 118 107 104 105 103 102 98 105 136 161 141 126 138 
149 198 176 159 155 146 139 142 142 142 143 145 145 144 146 149 
151 153 48 71 81 86 88 88 89 90 89 90 90 90 94 95 
97 97 98 97 94 83 108 115 102 71 57 62 63 64 79 102 
105 106 105 87 80 60 41 31 32 32 34 33 53 83 85 83 
82 110 143 197 196 150 170 158 163 158 143 134 115 79 102 234 218 219 211 194 
179 163 143 124 105 101 102 96 100 134 157 155 156 152 118 137 
141 201 180 164 157 152 139 140 142 143 143 144 146 144 146 148 
151 153 48 70 79 86 88 89 89 88 88 88 89 90 94 96 
97 97 99 97 93 86 109 111 114 119 102 67 58 63 101 104 
105 106 107 106 81 85 44 28 31 34 36 35 35 49 85 84 
82 111 143 193 202 166 168 171 168 163 147 135 123 88 72 192 217 220 215 195 
182 168 146 129 106 95 94 125 155 154 153 153 154 157 120 135 
139 192 182 162 155 156 139 140 142 143 142 143 145 143 145 147 
150 152 45 65 73 82 83 85 87 86 88 87 89 90 93 95 
96 96 98 97 91 89 106 109 112 114 117 120 98 76 100 103 
105 107 108 111 91 83 57 27 31 35 36 37 37 36 54 86 
84 114 144 190 196 176 180 178 173 164 151 137 125 96 85 148 217 218 214 195 
182 169 146 129 113 131 154 154 151 151 152 152 153 156 131 131 
139 180 186 162 153 160 141 141 140 142 143 143 141 139 141 144 
148 149 95 107 108 102 95 85 80 80 82 83 86 88 92 95 
94 95 97 96 86 92 108 109 112 112 113 115 117 131 131 119 
114 108 110 112 85 82 47 29 33 35 36 37 39 38 37 69 
85 122 143 190 192 186 185 181 174 165 155 137 122 133 134 125 210 218 212 197 
180 166 155 172 182 164 151 151 150 150 151 152 153 154 141 125 
139 153 189 165 151 163 143 135 135 137 137 139 142 145 148 149 
153 155 105 124 132 134 137 140 137 127 118 111 102 88 85 90 
92 93 96 95 83 101 108 110 111 111 112 113 132 145 164 160 
133 130 117 111 82 79 26 25 32 37 36 37 39 40 40 42 
84 132 143 191 192 197 190 180 174 167 157 143 160 164 141 123 173 216 210 196 
179 185 212 199 178 162 149 150 150 149 151 151 152 154 154 117 
136 136 187 173 145 161 140 137 141 142 142 142 144 145 145 149 
152 154 101 121 129 132 134 135 137 138 140 142 144 149 140 119 
97 86 89 87 81 106 109 112 111 112 111 120 139 141 145 163 
168 138 125 84 80 63 24 31 31 32 38 39 39 40 41 37 
73 142 142 193 194 201 193 183 174 168 161 187 178 159 149 127 134 214 206 195 
214 221 215 200 187 159 153 150 151 150 150 151 153 154 154 116 
133 136 162 181 150 163 149 139 139 141 142 142 145 144 145 147 
152 155 101 121 128 129 132 135 136 137 137 139 141 144 147 152 
154 152 143 128 85 102 111 113 112 111 112 136 138 139 140 146 
153 155 115 89 79 40 28 31 33 34 32 40 40 40 42 39 
70 144 142 203 194 199 196 186 173 167 200 198 180 160 150 133 122 186 207 232 
232 225 213 211 191 167 149 149 151 150 149 152 150 148 155 136 
132 140 141 180 152 159 155 139 138 139 141 141 143 144 144 146 
151 156 101 122 127 126 132 133 134 136 137 138 139 143 147 149 
151 153 158 161 83 77 90 110 114 112 112 137 139 139 141 145 
147 149 150 95 74 23 30 31 33 34 34 34 42 41 41 38 
84 143 142 215 197 197 198 187 171 198 211 200 186 165 148 140 126 145 235 239 
234 227 214 219 198 174 152 149 150 151 150 145 149 154 155 148 
126 140 138 161 156 157 161 136 138 139 141 141 144 144 145 146 
150 155 99 120 127 126 132 133 134 136 137 138 138 143 146 147 
150 152 157 150 71 82 86 84 99 114 115 132 139 139 142 146 
146 148 152 133 48 26 31 32 33 33 35 34 39 43 42 37 
104 143 142 215 196 192 197 187 203 214 206 202 191 171 157 139 128 90 220 241 
238 229 219 221 205 186 156 148 149 147 145 149 152 153 154 157 
121 138 139 144 157 162 166 136 136 137 139 141 142 142 143 145 
149 154 101 120 124 127 129 131 132 133 135 137 139 142 147 147 
149 150 157 126 73 84 88 78 85 88 108 128 139 139 142 145 
146 148 151 140 30 26 30 32 33 34 36 36 37 43 42 37 
116 142 141 206 195 190 192 204 225 214 206 201 190 178 161 143 105 95 149 241 
240 233 225 217 215 193 166 142 144 149 152 150 152 152 153 157 
127 135 139 139 150 156 172 135 134 137 137 139 141 142 143 145 
148 154 99 120 127 129 129 132 131 134 134 137 139 141 147 146 
148 151 158 103 77 87 87 86 87 86 84 95 129 140 144 146 
146 147 137 113 53 34 29 32 34 34 35 37 38 37 43 40 
117 142 142 209 191 190 186 232 226 217 204 199 192 182 165 138 118 101 92 223 
241 238 226 221 220 199 176 149 149 151 151 151 149 152 153 155 
136 129 139 140 141 145 178 137 133 134 133 137 140 139 138 141 
146 152 103 118 123 124 123 128 131 134 134 137 141 139 146 146 
148 152 157 79 80 87 86 86 86 88 87 86 84 116 140 140 
140 129 132 76 58 66 44 30 33 34 34 35 38 37 43 39 
95 143 142 206 192 186 195 234 227 218 207 199 195 181 162 146 125 105 98 142 
241 239 230 226 223 211 190 162 147 150 149 151 149 151 152 154 
148 121 138 138 138 137 174 140 130 129 132 134 135 142 144 146 
150 157 106 120 125 128 133 133 132 133 132 134 138 137 145 146 
148 153 143 67 81 83 84 86 88 87 86 87 87 87 103 124 
124 128 122 51 59 67 71 43 32 34 34 36 38 38 42 36 
88 144 142 202 195 177 205 229 228 219 208 200 192 176 165 152 133 114 101 89 
220 239 236 230 226 216 192 171 153 148 148 151 152 149 150 153 
156 119 134 136 134 131 157 145 130 133 135 137 140 143 144 146 
150 156 105 122 128 130 136 136 136 138 138 139 143 140 143 142 
145 151 115 66 78 81 83 84 88 86 85 86 88 91 88 107 
127 130 87 53 62 66 68 70 38 33 35 36 36 39 44 36 
91 143 142 197 194 170 194 229 226 221 206 201 187 170 167 160 141 119 105 97 
142 241 241 230 227 217 200 187 157 147 148 149 151 148 150 151 
149 125 133 139 138 135 144 156 133 134 135 137 139 143 144 144 
148 154 106 123 129 133 136 137 138 138 139 137 142 143 145 149 
152 155 119 90 75 78 81 86 86 86 85 86 89 91 90 88 
111 130 55 60 64 66 66 69 66 33 35 36 36 40 41 36 
97 144 142 194 190 173 168 227 224 222 208 195 185 174 167 166 154 131 106 97 
94 222 242 234 226 219 215 181 170 150 144 147 150 150 144 147 
155 142 129 138 138 137 138 164 134 135 134 135 137 142 143 144 
148 153 108 124 129 131 135 136 138 136 140 137 142 145 145 149 
153 157 120 140 124 82 78 84 85 85 85 85 89 91 90 90 
89 85 53 62 64 64 63 66 72 56 34 35 37 43 36 35 
109 143 142 193 188 179 175 194 224 218 208 196 186 177 167 168 162 138 118 97 
144 175 241 240 225 225 215 191 182 154 143 147 148 144 148 151 
153 155 120 137 138 135 136 168 133 133 133 135 137 141 144 144 
147 151 108 124 128 131 135 136 137 135 139 138 139 145 145 148 
152 143 124 135 140 143 108 80 81 84 85 86 89 89 89 90 
87 94 59 61 63 65 66 65 71 74 39 33 39 40 36 31 
127 141 142 188 192 190 182 160 222 218 206 204 191 180 170 163 166 153 127 150 
154 147 222 242 231 225 214 209 177 170 143 139 143 150 149 150 
152 154 126 136 139 137 135 171 131 133 133 133 134 138 143 143 
146 151 107 121 128 131 134 135 137 135 138 139 136 144 145 147 
152 132 130 136 137 139 144 132 89 79 83 86 88 88 89 88 
91 112 110 63 63 65 65 69 69 72 63 32 40 33 36 33 
144 141 142 171 198 193 187 169 179 218 209 212 200 180 175 163 159 155 181 173 
151 148 172 243 238 223 220 214 184 176 149 145 148 148 150 149 
151 153 134 132 138 137 134 171 132 131 132 130 131 137 142 141 
144 148 102 119 127 130 133 133 138 136 137 139 135 143 145 148 
152 123 133 135 136 138 142 142 147 119 81 83 87 88 88 84 
102 112 115 109 61 62 65 68 67 70 76 33 34 33 35 54 
146 139 142 150 201 196 192 181 161 203 212 215 211 190 173 163 151 178 210 185 
161 148 144 217 240 226 224 215 205 174 167 144 146 148 149 149 
150 152 143 126 136 137 132 167 133 131 133 132 130 132 134 131 
134 143 100 108 115 118 124 132 135 136 135 138 136 141 144 147 
149 121 133 135 137 137 139 140 143 147 140 90 83 88 86 87 
108 112 113 118 100 59 66 68 68 69 76 46 55 33 33 86 
142 139 142 134 193 196 194 191 180 158 209 213 211 202 177 166 167 206 208 200 
173 152 146 166 241 236 226 220 206 180 172 156 144 146 148 149 
148 150 153 119 134 135 132 160 142 125 120 119 118 121 140 143 
144 151 108 120 127 130 128 125 124 128 122 128 138 140 144 148 
135 129 133 134 135 138 137 139 141 142 146 150 90 83 83 99 
110 111 112 115 121 82 64 67 69 71 75 68 83 29 30 124 
140 139 142 137 168 195 195 196 187 167 166 210 205 205 189 181 214 202 200 205 
193 166 149 145 206 241 230 221 207 190 174 166 152 144 144 147 
146 148 150 113 121 125 122 140 149 128 133 131 128 128 141 141 
144 151 107 118 127 129 130 136 135 140 131 135 133 131 135 139 
120 129 134 135 135 141 146 154 152 145 144 151 153 99 88 110 
111 111 112 114 118 123 68 64 70 72 76 77 88 41 39 148 
139 139 142 138 147 196 193 198 190 175 150 189 203 200 200 223 212 208 199 198 
201 183 160 144 158 240 235 219 210 193 180 173 166 146 142 145 
146 142 137 134 124 133 131 138 163 128 133 130 128 126 141 142 
144 151 106 118 127 129 130 138 135 138 131 132 141 141 145 149 
119 123 128 142 150 152 155 156 157 157 159 159 156 153 89 113 
112 110 112 114 119 121 107 62 71 74 71 75 85 49 78 143 
137 138 142 140 136 187 190 193 192 177 158 193 200 195 223 235 217 206 203 198 
196 195 172 153 146 202 240 226 214 200 181 175 168 159 142 143 
133 137 148 145 117 133 133 134 169 131 135 132 128 125 139 141 
143 150 106 118 127 117 132 137 136 137 132 130 140 143 147 143 
123 132 135 143 153 153 155 156 154 158 161 163 165 115 74 100 
113 112 112 116 117 117 124 81 69 75 71 74 82 49 119 140 
136 138 141 140 137 162 191 190 192 181 180 206 194 194 236 240 229 210 205 197 
196 197 190 169 155 153 237 233 220 206 183 173 174 168 145 127 
140 144 147 150 121 131 135 131 174 133 134 134 127 124 134 141 
143 151 107 120 126 128 133 137 136 133 134 131 140 145 148 132 
128 133 148 151 145 149 155 154 155 157 162 164 166 87 79 79 
107 114 115 116 115 117 124 102 77 115 70 74 80 65 145 137 
136 138 142 140 139 138 188 189 189 180 207 216 189 194 238 239 239 221 206 202 
195 194 195 178 167 147 191 239 226 210 189 177 168 171 166 146 
141 145 145 149 128 127 133 132 174 133 133 133 129 124 130 143 
143 150 113 122 125 131 135 135 139 132 135 133 138 145 151 127 
130 142 152 154 153 152 146 153 155 158 161 166 136 105 81 81 
84 113 114 114 114 117 123 96 111 135 71 76 77 108 141 136 
136 138 142 141 140 138 161 186 187 179 226 221 208 179 230 239 239 235 214 205 
199 193 193 190 175 161 145 231 232 219 197 174 170 171 175 161 
139 144 145 148 140 121 132 131 167 137 135 135 131 124 127 143 
141 149 114 122 126 130 136 136 140 130 134 135 140 145 150 120 
133 151 151 152 156 155 154 147 152 160 161 162 109 112 95 83 
83 95 115 113 113 118 122 106 123 135 81 73 82 139 139 136 
136 138 142 142 141 140 138 181 181 181 229 224 217 204 199 238 239 238 229 208 
200 196 191 192 185 171 152 186 237 227 209 184 168 168 172 170 
150 141 144 146 148 118 133 133 157 145 134 135 132 123 121 138 
138 143 112 118 125 125 136 137 138 127 131 136 141 146 137 125 
135 151 153 154 156 155 154 155 151 156 164 131 109 112 98 84 
85 83 107 113 116 121 121 116 124 134 86 69 117 140 136 136 
136 138 142 141 141 141 139 152 181 187 226 225 219 211 184 192 239 238 235 222 
205 196 194 190 189 177 163 145 232 231 220 192 162 167 169 177 
165 136 143 146 148 126 130 131 140 157 128 132 126 118 118 139 
139 144 115 121 126 126 137 134 133 123 125 138 141 146 126 131 
135 150 152 156 156 155 153 155 160 156 153 105 111 113 93 83 
84 82 82 113 120 122 113 120 126 132 84 81 142 137 136 135 
136 138 143 141 141 141 141 137 164 187 227 223 221 211 195 169 217 239 236 231 
216 200 193 189 186 185 172 151 185 233 221 202 160 163 168 176 
174 149 142 143 146 131 123 128 127 167 132 135 130 120 117 136 
140 144 112 121 126 130 139 136 134 126 124 135 142 143 121 133 
132 148 152 157 154 154 154 157 160 162 152 108 110 114 86 82 
82 83 79 100 124 101 99 125 128 132 78 124 139 135 135 136 
136 138 142 142 141 142 142 139 138 172 227 221 221 212 205 188 173 230 238 236 
225 211 198 190 184 183 175 170 160 220 221 210 182 150 163 175 
183 169 134 141 140 143 120 130 128 165 132 134 131 121 117 131 
140 141 110 123 125 131 137 137 131 128 125 136 142 140 123 130 
132 143 157 157 155 153 155 160 162 160 153 147 108 110 81 82 
81 80 80 98 115 79 96 127 126 130 95 141 136 135 135 135 
136 138 142 142 141 142 141 141 138 141 213 221 218 212 209 202 183 169 233 238 
233 218 209 197 189 179 181 179 167 178 224 214 193 157 155 169 
188 184 139 137 141 144 123 129 128 162 134 133 131 121 116 125 
138 140 111 124 125 130 136 136 126 127 127 135 141 129 130 132 
132 136 155 156 155 154 157 160 164 152 154 157 133 97 79 80 
80 78 81 104 84 84 92 128 126 119 136 138 137 136 135 136 
137 138 142 141 141 142 142 142 140 136 160 220 217 209 208 208 197 174 179 239 
236 227 214 205 196 187 182 185 175 159 209 215 212 169 138 162 
181 192 168 132 139 143 124 126 129 163 132 132 132 123 116 122 
137 139 110 121 124 131 136 133 122 126 126 135 141 122 130 132 
133 138 142 152 153 154 159 162 158 152 154 157 151 84 76 79 
77 78 81 85 84 85 89 129 127 136 138 137 136 135 135 136 
136 138 143 142 142 142 141 142 142 139 134 182 215 208 207 206 205 193 176 221 
240 231 217 210 208 195 187 183 181 166 170 222 213 186 143 136 
171 196 187 134 137 140 132 123 128 158 139 131 131 123 115 118 
135 139 109 120 121 135 133 131 120 124 126 137 136 116 131 132 
134 140 137 137 148 155 161 164 151 154 155 145 141 133 72 75 
75 79 87 81 85 85 91 129 133 137 137 136 136 135 136 136 
136 139 143 142 142 141 142 142 142 141 138 136 202 208 208 204 201 197 209 218 
226 236 219 209 215 208 187 182 187 177 162 205 215 216 149 132 
157 184 190 162 132 138 140 116 128 146 147 131 130 123 116 116 
136 143 113 125 125 137 134 129 120 119 127 137 127 126 129 129 
136 140 136 135 137 149 157 152 149 150 145 138 140 145 103 69 
74 103 131 79 84 85 96 130 138 137 137 136 136 136 136 136 
136 139 143 143 142 142 142 142 142 141 140 137 143 206 207 206 201 196 220 227 
213 234 230 215 209 210 202 185 182 187 173 171 223 215 175 135 
131 173 198 189 129 135 139 119 126 133 157 132 135 130 124 120 
129 101 63 90 124 142 141 133 125 119 131 135 119 127 129 130 
138 137 135 136 135 144 145 134 139 140 138 139 139 145 134 65 
86 153 147 77 82 82 103 138 138 137 136 136 135 136 136 136 
136 139 143 143 142 142 142 142 142 141 141 140 136 149 208 204 202 192 229 234 
219 214 235 225 207 208 212 196 183 181 184 170 197 213 211 137 
132 150 186 196 156 130 136 127 129 132 168 133 97 66 37 21 
19 21 24 24 22 29 39 56 83 113 141 140 116 128 127 132 
137 135 132 133 139 147 139 135 139 140 140 139 143 141 144 88 
140 154 152 74 81 79 130 139 137 136 136 135 136 135 136 136 
136 139 143 143 143 143 143 142 142 141 142 141 140 136 154 204 203 197 235 237 
233 219 221 240 213 196 205 218 189 186 183 181 170 213 214 163 
133 128 166 207 195 129 140 125 79 75 84 20 23 23 18 18 
26 26 30 30 32 33 30 26 25 20 46 70 86 135 131 137 
137 135 135 132 142 146 134 138 137 140 141 143 141 138 143 129 
148 153 154 74 76 113 141 137 136 136 137 136 136 136 136 136 
136 138 143 142 143 143 142 143 142 141 140 141 141 140 136 157 203 202 235 235 
233 229 221 225 234 198 185 214 222 182 183 186 174 185 213 206 
132 130 144 187 212 158 94 28 26 22 63 26 29 28 21 19 
25 26 29 31 34 34 33 29 31 26 31 26 20 65 137 157 
158 150 145 146 148 136 138 138 138 139 143 143 137 140 144 145 
148 153 148 70 99 142 138 137 136 136 136 136 136 136 136 136 
137 138 143 143 142 142 143 142 141 142 141 141 141 141 140 135 157 205 236 236 
233 232 226 222 231 223 193 184 225 219 181 180 185 168 207 216 
154 133 128 176 201 139 31 26 28 26 62 25 30 28 21 18 
22 24 30 29 34 34 32 28 30 29 34 37 51 70 91 147 
177 173 170 169 161 142 139 139 139 140 144 140 137 146 139 145 
148 155 130 89 140 139 137 137 136 136 136 135 136 137 136 136 
136 139 143 143 143 143 143 143 142 141 141 141 142 141 140 139 134 160 233 237 
235 231 228 231 229 238 205 187 185 233 209 181 178 182 179 217 
203 137 112 68 116 151 69 32 28 25 64 25 29 29 22 17 
20 24 29 29 34 34 30 28 27 44 63 75 77 92 105 112 
144 184 185 186 175 166 153 140 141 142 140 137 144 144 141 147 
150 154 120 136 139 137 137 136 136 136 136 136 136 136 136 136 
137 138 143 144 142 142 142 142 142 141 141 142 141 141 141 141 139 133 180 235 
238 233 226 230 233 238 240 189 181 192 233 190 181 180 173 208 
228 90 23 24 97 146 132 34 22 28 45 41 28 29 23 17 
19 22 30 30 34 33 27 27 33 70 72 75 85 104 119 131 
140 151 193 195 181 175 167 147 144 140 135 144 145 145 141 148 
151 148 134 139 138 137 137 136 136 135 137 136 135 135 136 136 
136 139 143 143 143 143 143 142 142 141 141 142 141 140 140 140 140 138 133 186 
233 235 230 228 233 239 240 235 180 171 200 233 179 179 186 167 
156 122 25 28 50 130 165 64 26 26 29 48 26 27 22 17 
18 23 32 32 35 32 24 26 56 72 74 74 92 111 127 144 
158 166 167 190 191 180 170 163 142 137 139 147 147 146 143 149 
150 138 137 137 137 136 137 137 136 136 137 136 135 136 136 135 
137 138 143 142 144 143 143 143 143 141 141 141 142 141 141 140 140 140 137 140 
200 234 231 233 232 236 237 233 221 176 164 211 229 179 180 100 
119 180 48 28 27 105 147 122 37 23 23 52 25 26 22 19 
19 21 26 30 35 28 26 36 68 71 75 76 96 113 131 150 
168 181 177 162 193 183 174 164 147 138 146 148 147 147 144 148 
138 137 137 137 136 137 136 137 137 136 136 136 135 136 136 136 
136 139 144 143 143 143 143 142 143 142 142 142 142 141 141 140 141 139 139 135 
150 217 231 234 234 233 234 232 200 202 172 169 226 223 100 86 
81 181 121 24 27 67 127 166 58 23 27 54 23 16 8 4 
3 2 8 2 4 6 14 54 66 73 77 76 95 112 130 148 
166 179 178 159 158 187 174 162 152 148 146 148 149 148 146 138 
136 137 136 137 137 137 137 137 137 137 136 136 136 136 137 136 
136 139 142 144 143 143 143 143 142 142 142 141 141 141 141 140 141 140 140 139 
134 169 221 230 235 236 233 233 221 179 179 170 195 209 127 86 
87 121 189 39 25 40 115 144 118 37 23 38 2 1 1 1 
1 1 8 1 2 1 24 46 48 62 68 78 91 107 123 139 
154 165 161 149 129 173 172 157 159 158 147 149 149 146 138 136 
137 137 137 137 137 136 137 137 137 136 136 137 136 135 136 136 
136 139 144 144 143 143 143 143 142 142 142 142 141 141 141 141 141 140 139 140 
139 133 186 216 228 237 235 234 234 158 195 165 172 136 167 111 
94 77 175 112 20 26 103 137 148 29 10 25 1 0 1 1 
1 1 8 2 2 5 44 46 47 55 47 59 84 100 114 126 
138 148 144 135 119 145 167 158 162 163 152 150 147 137 138 137 
137 137 137 137 137 137 137 137 137 136 136 136 136 136 137 137 
137 139 143 144 143 143 143 143 143 142 143 142 141 142 142 142 140 141 141 140 
141 138 135 195 213 227 234 236 235 190 133 208 72 90 157 171 
94 88 116 183 30 23 73 83 103 70 16 29 1 1 1 1 
2 2 9 2 2 8 47 46 46 54 48 48 53 84 103 113 
127 129 127 119 108 97 154 163 161 163 155 149 138 137 137 137 
137 136 137 137 137 137 137 137 137 136 136 137 137 136 137 136 
136 139 143 144 144 143 143 143 143 143 142 142 142 142 142 142 141 141 141 141 
140 140 137 136 193 212 217 229 237 201 133 141 124 28 108 173 
165 88 80 172 90 6 32 65 88 109 18 31 6 1 1 1 
2 2 10 1 1 2 45 46 51 50 48 48 47 51 76 98 
111 109 106 102 94 75 126 164 163 164 152 138 137 138 136 137 
137 137 137 138 137 137 137 137 137 136 137 137 136 136 136 136 
137 139 143 144 144 144 143 143 143 143 143 142 142 142 142 142 141 141 142 141 
141 141 140 138 135 187 212 215 230 221 128 128 133 89 32 132 
179 157 84 96 125 8 28 54 73 104 59 17 24 0 1 1 
1 1 8 1 1 1 37 47 55 47 48 48 48 47 49 77 
89 90 89 85 74 73 148 164 162 164 139 138 137 137 138 137 
138 138 137 136 136 137 137 137 137 137 137 136 136 136 136 136 
137 139 144 144 144 143 143 144 143 143 143 142 142 141 142 142 141 141 142 141 
141 141 140 140 137 133 168 214 221 222 142 159 109 163 51 51 
152 180 138 48 119 54 10 59 63 93 98 14 28 0 1 1 
2 1 8 1 2 2 30 46 54 48 48 48 48 47 50 57 
67 75 76 71 73 76 142 164 164 160 137 138 137 137 136 137 
137 137 136 136 136 137 136 137 137 137 137 137 136 136 137 137 
137 139 143 144 144 143 143 143 143 142 143 142 142 141 142 142 142 141 141 141 
141 140 140 140 139 139 135 152 219 222 228 221 159 155 160 28 
81 173 161 103 60 115 12 44 72 71 99 52 26 1 1 1 
2 2 7 2 2 2 22 47 53 48 48 48 47 48 60 48 
56 76 72 69 79 69 145 167 164 154 138 137 138 137 136 137 
137 137 137 136 136 137 137 137 137 137 137 137 136 135 137 137 
137 139 143 144 143 144 143 143 143 143 142 142 142 142 142 142 142 142 141 141 
142 140 140 140 141 141 140 135 140 206 223 227 166 166 157 140 
24 119 138 143 82 101 44 38 61 71 91 87 30 1 3 14 
76 55 46 116 129 98 25 52 48 48 47 48 47 52 55 51 
49 65 69 76 74 73 162 166 163 150 138 138 138 137 137 137 
137 138 137 137 137 137 137 137 137 137 137 137 137 137 137 137 
137 139 144 144 144 144 144 143 143 143 143 142 142 142 142 142 142 142 142 141 
141 141 140 140 140 141 140 139 136 132 177 218 157 170 166 165 
105 22 127 125 140 68 99 34 58 74 76 90 65 57 92 57 
74 10 16 114 165 164 136 60 48 48 48 48 47 59 50 50 
49 53 78 77 75 152 169 163 162 145 137 137 137 137 137 137 
137 138 137 137 138 137 137 137 137 137 137 137 136 136 136 136 
136 139 144 144 143 144 144 143 143 143 142 143 142 142 142 142 142 141 141 140 
142 141 140 141 140 141 140 141 140 138 134 155 187 162 170 163 
173 51 61 154 107 135 89 44 59 73 77 102 96 23 8 1 
1 2 2 2 29 54 23 36 92 59 49 48 53 53 50 49 
51 50 80 72 126 171 164 163 153 138 138 137 137 137 137 138 
138 137 137 137 137 137 137 137 137 137 137 136 136 136 136 137 
137 139 143 144 144 144 143 144 143 143 143 143 142 142 142 142 142 141 142 141 
141 140 140 142 140 141 141 141 141 140 139 136 144 185 167 173 
142 147 29 129 135 108 122 62 63 90 115 66 76 25 1 2 
1 2 3 2 1 1 1 3 29 106 71 47 58 50 49 51 
49 56 73 97 169 165 162 149 137 137 138 138 138 137 138 137 
137 137 137 137 137 137 136 136 137 137 137 137 137 136 136 137 
137 140 144 144 143 145 144 143 144 143 143 142 142 142 142 142 142 142 142 141 
141 141 141 141 141 141 141 141 141 140 141 139 138 138 171 177 
159 121 128 56 163 112 124 112 72 84 50 33 68 90 2 1 
1 3 4 1 1 0 2 4 3 16 111 101 76 53 49 51 
55 53 101 170 167 163 146 137 138 137 138 138 137 138 137 138 
137 137 137 137 138 137 137 137 137 137 136 136 137 136 137 137 
137 139 144 144 144 144 144 144 143 143 142 143 142 142 142 142 142 142 142 142 
141 141 141 141 141 142 141 140 140 141 141 140 141 139 137 155 
157 140 131 95 116 149 108 96 40 27 46 34 63 133 8 1 
1 3 3 5 2 1 3 3 3 45 106 179 151 116 72 53 
51 100 172 167 161 143 138 137 138 138 138 138 138 137 138 138 
138 137 137 137 137 137 138 137 136 137 137 136 136 136 137 137 
137 140 144 144 144 144 143 143 144 143 143 143 143 143 142 142 142 142 142 141 
142 141 141 141 141 141 140 141 141 141 141 141 141 141 139 139 
144 144 142 135 83 158 137 84 78 19 22 46 56 130 53 1 
2 4 3 2 3 2 4 2 15 97 173 172 177 137 101 38 
89 165 159 154 140 138 138 137 138 138 138 138 138 137 138 138 
138 137 137 137 137 136 137 136 137 136 137 136 137 136 136 136 
137 139 144 144 145 144 144 144 144 143 143 143 143 143 142 141 142 142 142 141 
141 141 142 141 141 142 142 141 141 141 141 141 141 141 141 141 
140 143 143 141 139 147 145 57 96 91 1 37 51 105 99 1 
2 4 3 2 1 4 5 2 51 168 179 162 170 137 94 84 
152 145 141 139 138 138 138 137 138 137 138 138 138 137 137 138 
138 137 137 137 136 137 137 137 136 137 137 137 136 137 137 136 
137 139 144 
