P2
96 96
255
135 135 135 134 134 134 134 134 134 133 133 133 133 133 133 133 133 133 133 133 132 132 132 132 132 132 132 133 134 134 132 128 119 107 94 80 69 62 60 61 66 72 79 86 95 99 100 99 96 90 87 84 81 78 75 74 74 76 79 84 89 97 105 112 119 124 127 129 129 129 128 128 128 128 129 131 135 141 149 159 169 178 185 191 196 199 201 204 206 210 215 220 225 228 232 235 
135 135 135 135 134 134 134 134 134 134 133 133 133 133 133 133 133 133 133 133 133 133 133 132 132 131 132 134 135 133 128 119 105 89 73 59 49 44 43 44 48 52 59 67 77 83 86 87 84 77 74 72 71 70 70 70 69 69 69 71 75 81 90 100 109 118 124 127 129 129 129 129 129 130 131 134 138 144 151 158 166 173 179 183 185 187 190 193 197 202 209 215 219 223 227 230 
135 135 135 135 135 134 134 134 134 134 134 133 133 133 133 133 133 133 133 134 133 132 131 129 127 127 129 131 130 127 118 103 87 70 56 45 39 36 36 38 39 42 45 51 59 64 68 71 72 69 70 70 70 69 67 66 66 66 66 67 68 72 78 86 96 106 114 120 123 124 124 126 128 131 133 136 140 144 150 156 161 166 169 171 173 176 181 185 190 197 203 209 212 217 220 223 
135 135 135 135 135 134 134 134 134 134 134 134 133 133 133 133 134 135 135 134 132 130 127 125 124 126 128 128 125 117 104 87 71 56 45 38 34 32 32 33 35 37 39 41 47 49 54 59 63 64 66 66 64 62 61 60 59 59 60 61 62 65 69 75 84 94 104 111 116 119 120 122 124 127 131 136 140 144 147 150 153 155 157 160 164 169 174 179 184 191 197 202 206 210 212 216 
136 135 135 135 135 135 135 134 134 134 134 134 134 134 134 134 134 132 129 124 120 116 113 113 115 120 123 122 116 106 90 73 58 45 36 30 26 25 26 27 28 30 32 35 38 41 46 51 55 57 60 59 56 54 52 51 50 49 49 50 52 55 60 66 74 83 92 99 104 106 107 106 108 111 116 123 130 136 140 143 144 146 149 153 158 163 168 173 179 185 191 195 199 202 203 209 
136 136 135 135 135 135 135 135 134 134 134 134 134 134 134 133 131 127 121 114 108 103 101 100 105 110 114 112 107 94 78 61 49 38 32 29 28 28 29 29 29 29 29 30 32 33 38 43 47 49 51 51 49 47 46 45 44 44 44 45 46 47 51 56 63 71 81 87 91 92 92 91 92 95 100 106 113 121 128 133 138 141 144 148 153 158 163 168 174 180 185 188 191 193 194 201 
136 136 136 135 135 135 135 135 135 135 134 134 135 135 134 132 128 121 113 105 98 92 90 89 96 103 106 105 100 86 71 57 47 39 34 31 30 30 31 31 31 31 31 30 30 29 31 34 38 41 44 44 43 42 41 40 40 39 40 40 41 42 45 48 53 61 69 75 78 78 77 75 76 79 83 89 97 105 115 124 131 136 141 145 148 153 157 163 169 174 178 181 183 185 186 194 
136 136 136 136 135 135 135 135 135 135 135 135 136 135 132 126 118 106 94 84 77 74 74 78 90 99 103 102 98 83 69 57 48 41 35 32 31 32 32 33 33 33 33 32 31 29 28 29 31 34 37 38 37 37 36 35 35 35 35 35 36 38 40 43 46 52 61 66 69 71 71 68 68 71 76 82 90 99 108 117 124 130 135 140 144 148 152 158 163 168 171 173 175 177 179 186 
136 136 136 136 136 135 135 135 135 135 136 136 134 130 123 113 99 85 73 64 58 57 58 63 78 88 95 99 97 83 70 59 50 42 37 34 33 33 34 34 35 35 35 34 33 30 28 28 28 29 31 33 32 31 31 30 30 30 30 30 31 33 35 37 41 45 52 58 60 62 65 64 65 69 74 79 87 96 104 112 119 125 129 134 140 144 149 155 161 164 166 167 168 169 171 179 
136 136 136 136 136 136 135 135 135 136 136 133 129 122 110 97 83 70 60 54 52 51 52 58 73 84 93 99 98 84 72 61 52 44 39 36 35 35 36 37 37 37 37 36 35 32 29 27 26 25 26 28 28 28 28 29 30 30 30 30 30 30 31 33 35 39 45 51 55 60 65 70 74 79 84 88 92 98 103 108 114 120 126 132 138 144 149 155 160 164 166 166 165 165 166 172 
136 136 136 136 136 136 135 135 136 136 134 130 122 111 97 83 69 58 51 46 45 45 46 52 69 82 93 101 100 87 74 62 53 45 40 37 37 38 39 40 40 40 39 39 37 34 30 26 24 22 22 25 27 28 30 31 31 31 31 31 31 31 31 32 33 35 39 44 49 57 66 74 82 90 95 99 102 104 106 107 110 116 123 131 138 144 151 157 163 168 171 170 167 163 162 166 
137 136 136 136 136 136 136 136 136 136 132 125 115 100 85 70 57 47 40 36 36 37 37 45 64 80 93 104 104 89 76 64 55 49 45 45 45 47 48 48 49 48 48 47 44 40 32 26 22 20 20 25 28 30 31 32 33 33 33 33 33 33 33 33 33 34 36 39 44 54 65 77 87 96 101 103 106 108 109 109 111 115 122 130 139 146 154 162 170 177 180 177 172 165 159 161 
137 137 136 136 136 136 136 136 137 136 131 122 108 91 76 62 51 45 41 38 38 38 35 42 63 80 94 107 108 94 81 70 62 57 53 52 53 54 55 56 56 56 56 55 54 49 39 31 25 21 21 26 30 32 33 34 34 34 34 34 34 34 34 35 35 35 36 37 40 49 59 70 80 88 91 93 96 99 102 104 109 115 122 131 140 148 157 167 178 187 190 187 178 167 158 157 
137 137 137 136 136 136 136 138 139 136 129 119 104 88 73 62 53 47 43 41 40 40 37 42 64 82 97 112 117 103 91 80 71 65 60 59 60 61 62 63 63 63 63 63 62 58 47 37 30 25 22 28 31 33 34 35 35 35 35 35 35 35 36 36 37 37 37 37 38 44 52 61 71 78 82 84 86 88 92 96 102 110 121 131 140 149 158 170 182 192 196 192 182 169 157 154 
137 137 137 136 136 136 138 141 142 138 130 118 102 87 74 64 55 49 46 43 42 42 39 41 65 84 101 118 128 114 102 89 79 72 67 65 67 68 69 70 70 70 70 70 69 66 54 43 35 28 24 28 32 34 35 36 36 36 36 36 36 36 37 37 38 38 39 38 38 41 47 54 62 70 73 76 77 80 83 89 97 104 115 127 136 145 156 169 181 190 194 191 181 168 157 152 
137 137 137 136 136 139 142 146 146 142 132 118 102 88 75 65 57 51 47 45 45 45 41 41 65 87 106 124 138 125 112 98 87 80 75 72 73 74 74 75 76 76 77 77 77 75 62 49 40 32 25 30 34 36 37 38 38 37 37 37 37 38 38 39 39 39 40 40 38 40 44 49 54 61 65 67 69 71 76 83 91 99 109 120 130 139 151 164 176 183 186 183 175 165 156 151 
137 137 136 137 140 145 150 154 153 146 134 119 103 89 77 66 58 53 49 48 47 47 43 41 65 88 109 129 146 134 120 106 94 84 77 73 72 73 73 73 74 75 76 77 79 79 67 55 45 35 27 30 34 36 37 38 38 38 37 37 38 38 39 40 40 40 40 41 39 39 41 45 50 56 62 64 66 67 71 78 85 93 103 112 122 132 144 157 167 173 175 173 167 161 154 151 
137 137 138 142 148 154 160 163 158 149 136 121 105 91 79 68 60 55 53 53 53 54 51 46 67 90 111 131 150 140 125 109 95 84 76 72 72 74 75 76 77 78 79 79 79 79 68 55 46 37 29 31 36 39 41 42 42 41 41 40 40 39 40 40 40 41 41 41 40 38 40 42 46 50 55 58 60 62 69 76 83 90 99 105 114 125 137 148 157 162 164 163 160 157 153 151 
137 138 143 151 158 166 172 171 163 152 140 124 108 95 84 73 67 63 62 62 62 63 60 53 69 92 111 130 148 141 125 108 96 87 82 79 81 83 85 86 87 88 89 89 89 87 75 61 50 41 33 36 41 45 46 47 47 47 46 46 45 45 44 43 42 42 41 41 41 38 38 40 42 44 49 52 54 55 62 70 79 87 96 103 112 123 134 144 152 156 156 156 155 154 152 150 
138 143 151 160 167 174 176 173 165 155 143 130 116 104 93 83 76 72 70 70 70 70 68 60 70 92 110 126 144 143 129 115 105 97 92 90 91 93 95 96 97 98 99 99 99 97 86 71 59 49 40 42 47 50 52 53 53 53 52 52 51 51 50 49 48 46 45 43 42 37 37 37 38 39 44 45 47 48 55 63 74 85 97 106 116 127 136 143 150 153 153 153 153 153 152 149 
142 148 156 166 170 173 174 172 165 160 151 139 125 114 103 93 85 80 78 77 78 78 76 68 71 90 107 123 142 149 138 126 116 108 103 100 101 103 105 106 107 107 108 108 108 107 97 81 68 57 47 47 52 55 57 58 58 58 57 57 57 57 56 56 55 53 51 48 45 39 36 34 33 33 37 39 40 41 47 56 69 84 99 111 121 130 138 143 147 150 150 151 151 153 151 149 
146 153 162 170 166 168 170 168 164 167 160 148 135 124 112 101 93 87 85 85 85 85 84 75 73 88 106 122 143 156 149 137 127 119 114 111 111 113 115 116 117 118 119 119 119 118 107 91 77 65 53 52 57 61 63 64 64 64 64 63 63 63 62 62 61 60 58 56 51 42 37 32 29 28 31 32 33 34 39 50 66 83 101 117 127 136 141 145 146 145 145 146 148 150 150 147 
150 159 167 170 158 160 162 164 166 175 168 156 143 132 120 109 100 94 90 88 87 87 85 77 73 87 107 125 147 163 160 148 138 130 125 122 121 122 123 123 124 124 125 126 127 128 119 101 86 73 60 56 61 64 65 66 66 67 66 67 67 68 68 68 67 66 65 63 58 49 42 36 31 29 32 33 33 34 36 47 63 82 102 121 133 141 145 147 146 143 140 142 142 144 146 146 
156 164 169 165 147 150 155 160 168 183 175 163 149 138 126 113 102 94 89 87 87 88 89 85 81 91 113 131 152 170 172 160 147 138 131 125 122 122 123 123 124 124 125 126 127 129 122 105 90 76 62 56 60 63 64 65 65 66 66 66 67 68 69 71 72 72 72 70 66 56 48 41 34 31 33 34 34 34 36 49 65 84 104 123 133 140 144 146 145 139 135 134 134 136 139 142 
161 165 165 154 132 137 147 157 170 189 180 167 153 140 127 113 102 95 92 93 95 98 100 97 92 98 120 138 157 175 179 164 150 139 131 125 122 122 122 122 122 122 122 123 123 125 120 103 90 77 64 59 64 67 69 69 69 69 68 67 67 67 68 70 72 74 75 76 73 62 53 45 37 32 34 35 35 35 36 50 66 84 102 121 129 135 140 144 143 136 128 124 123 125 131 136 
161 163 159 143 118 129 141 155 172 193 182 169 155 142 129 118 109 104 102 103 105 107 109 108 103 106 127 143 159 175 180 166 151 139 130 123 118 117 116 116 116 116 116 117 117 119 114 101 90 81 71 68 74 77 79 79 79 79 79 77 76 75 73 73 73 74 76 78 77 67 58 49 39 33 35 35 35 36 37 50 66 82 99 117 123 128 135 140 142 136 128 119 116 115 122 130 
160 160 151 131 107 121 136 151 172 195 183 171 158 147 137 129 120 115 113 112 114 116 119 120 115 114 130 146 158 172 178 166 149 136 126 118 113 112 111 111 110 110 111 111 111 113 109 98 90 83 77 76 83 86 88 89 89 89 88 87 86 85 83 82 80 79 78 79 77 68 60 51 41 34 36 36 36 36 37 48 62 78 94 110 117 122 130 136 139 135 128 118 111 110 116 125 
158 155 143 121 98 113 129 147 169 194 184 174 165 156 148 140 131 126 123 122 123 126 129 131 126 122 131 145 153 165 172 163 145 132 121 113 108 106 106 105 105 105 105 105 106 107 103 95 90 86 83 85 92 96 98 98 99 98 98 96 95 94 93 92 91 89 87 85 80 69 59 50 41 35 37 37 37 37 37 45 56 70 85 102 110 116 125 131 133 132 127 116 109 109 114 122 
157 151 136 114 91 104 122 141 165 193 188 180 173 167 159 152 143 136 133 132 132 134 135 136 130 122 125 137 145 155 164 160 143 128 117 109 104 101 101 100 100 99 99 99 100 100 97 91 89 89 90 94 102 106 108 108 108 108 107 106 105 104 103 102 100 99 97 95 87 73 61 50 39 36 38 38 38 38 38 43 51 61 74 87 95 100 111 118 123 125 126 117 111 112 116 122 
157 149 134 114 92 102 120 138 163 193 193 188 184 178 171 163 153 145 139 136 134 134 134 134 128 118 115 126 135 144 155 155 140 124 113 104 99 96 96 96 96 96 97 97 97 97 94 90 90 91 93 99 107 110 112 113 114 114 115 115 115 114 113 112 110 109 107 105 94 80 67 54 41 38 39 39 38 39 39 41 46 54 63 73 80 84 94 101 108 115 122 119 116 117 120 124 
160 150 136 117 95 101 117 136 162 194 201 198 195 189 180 170 158 147 139 135 132 131 130 129 124 114 107 115 125 133 145 149 137 121 110 102 98 96 96 96 96 97 97 97 98 98 95 91 90 92 94 99 106 110 111 112 113 113 114 114 115 116 118 119 119 119 117 115 101 86 72 59 45 44 43 42 40 39 39 39 42 47 53 60 66 71 80 86 93 101 111 114 116 119 124 127 
165 154 140 121 99 97 114 134 160 194 210 209 204 197 185 173 158 146 138 132 128 126 125 123 121 110 101 105 115 122 136 144 138 122 111 103 98 96 96 96 96 96 96 96 96 96 94 90 90 90 92 96 103 107 109 111 112 113 114 114 115 116 118 120 122 123 124 124 108 93 78 63 49 49 48 47 45 43 41 40 40 42 46 50 53 57 66 73 80 90 100 106 112 117 124 129 
170 157 142 124 102 94 110 131 159 194 217 217 211 202 188 174 158 144 134 127 123 121 120 118 116 106 96 96 105 114 128 139 138 124 112 103 97 94 95 96 97 99 101 103 105 106 106 99 95 93 91 92 98 102 104 105 106 108 109 111 113 115 117 120 122 124 126 126 111 97 83 68 54 55 54 52 50 48 45 43 42 41 42 43 43 45 53 61 70 80 91 97 105 112 120 127 
173 159 143 125 104 90 105 129 158 193 221 223 216 204 189 173 156 141 130 122 118 116 114 112 111 103 93 90 98 108 121 133 135 125 113 105 101 100 102 105 107 109 111 113 115 117 117 107 101 95 90 87 94 97 99 101 102 103 104 106 108 110 113 116 120 123 126 124 110 97 84 70 59 60 59 57 55 53 51 49 46 44 43 42 42 45 51 57 64 74 82 88 96 105 115 124 
175 159 142 125 106 89 100 126 156 190 221 227 217 205 189 172 154 139 126 118 112 110 109 108 108 104 94 89 93 103 116 131 138 134 124 116 111 110 111 114 116 118 120 122 125 127 128 115 105 97 89 82 89 93 95 96 98 99 100 101 103 105 108 111 115 118 121 118 105 93 81 68 62 64 63 62 61 58 56 54 51 49 46 45 43 45 50 56 62 70 76 82 88 97 108 119 
175 159 142 126 111 94 100 126 154 185 217 228 218 205 189 171 153 136 123 113 108 107 107 107 108 105 97 93 95 106 119 135 143 143 135 126 121 119 121 123 125 127 130 132 134 137 139 123 110 98 87 77 84 88 90 92 93 94 95 96 98 101 103 107 110 112 115 110 99 88 77 66 61 63 64 65 64 64 63 61 59 56 52 48 45 45 48 52 58 66 72 77 83 90 101 113 
175 159 144 131 119 104 103 124 150 178 208 224 218 204 188 170 152 135 122 113 107 106 106 106 107 109 104 102 104 113 124 139 148 151 145 136 131 130 130 133 135 138 140 143 146 148 150 131 116 102 88 75 83 86 88 89 89 89 90 91 93 96 99 102 105 107 108 105 97 89 80 70 65 64 64 65 67 69 71 72 71 67 61 55 49 46 45 47 52 59 66 72 78 85 96 107 
175 161 148 139 128 116 108 122 145 170 197 218 217 203 188 171 153 136 123 113 107 105 106 108 111 116 115 114 114 120 131 145 154 160 157 148 143 141 141 142 143 144 144 145 146 148 149 130 115 101 88 75 83 87 89 90 90 90 90 90 91 92 94 97 99 101 102 100 96 91 85 78 74 70 67 67 70 74 78 82 82 78 72 63 54 47 44 43 46 52 59 67 73 79 91 104 
176 165 154 146 138 128 116 120 140 160 184 209 214 203 190 173 156 139 125 114 108 106 109 114 119 125 127 125 126 129 141 152 162 168 168 157 149 145 143 141 142 143 144 145 146 147 149 129 114 100 87 74 82 86 88 89 89 89 89 90 91 93 94 95 96 96 96 95 94 92 90 88 84 80 76 75 76 80 84 90 91 88 82 72 60 49 42 38 39 44 51 59 67 74 86 101 
178 169 160 155 148 138 124 119 133 151 173 198 211 204 192 177 159 143 128 119 113 113 117 123 128 134 138 137 138 139 148 156 164 167 168 158 150 146 143 141 142 143 143 144 145 146 148 130 117 104 92 79 85 87 88 88 87 88 88 89 91 92 94 96 96 96 94 95 96 96 97 98 94 90 86 86 88 91 95 99 100 97 90 79 65 52 42 35 34 38 43 51 60 68 81 98 
180 174 167 163 155 145 131 121 129 146 166 189 206 204 194 179 164 149 137 129 125 124 127 132 138 144 148 146 143 142 148 154 161 165 168 159 150 146 143 141 141 142 143 143 144 146 148 133 121 111 100 89 95 97 97 96 95 93 92 91 92 92 93 95 96 95 94 96 99 102 105 107 104 101 98 100 103 107 110 113 111 104 98 84 68 53 43 35 33 36 39 44 52 61 77 95 
183 179 172 167 159 150 138 127 130 144 162 182 199 203 195 184 171 160 150 142 137 135 137 141 146 150 152 149 145 142 146 152 158 163 167 160 151 146 144 140 141 142 142 143 144 146 148 135 125 117 108 99 105 106 106 105 104 103 102 102 101 100 98 97 96 93 93 96 99 102 108 111 111 110 110 113 117 121 122 123 118 109 100 84 67 52 42 34 34 35 37 41 46 55 72 93 
187 183 177 171 164 156 147 138 135 144 159 176 191 200 199 190 181 173 164 155 149 147 146 148 150 152 152 150 145 142 143 149 154 159 164 161 152 146 144 140 140 141 142 143 144 146 148 137 130 123 116 109 114 115 115 115 114 113 113 112 112 110 109 107 105 100 99 99 101 103 108 111 114 116 119 124 129 132 133 130 123 112 99 81 64 50 40 33 34 36 37 39 43 51 69 90 
190 186 180 175 169 164 157 150 144 146 157 171 185 198 203 198 193 186 178 170 162 156 152 151 151 151 152 151 146 143 142 146 151 156 161 160 153 147 145 141 140 141 142 143 144 146 148 139 134 130 125 119 124 125 125 125 124 123 123 122 122 121 120 119 117 109 105 103 102 101 107 110 114 119 124 130 137 141 142 139 129 116 99 78 59 46 37 32 34 36 37 38 40 49 68 89 
193 188 184 180 176 172 169 163 154 150 156 167 181 196 207 208 205 200 192 181 171 161 153 150 150 150 151 151 147 144 141 144 148 152 158 159 154 147 145 141 139 141 142 143 144 146 149 140 135 132 127 123 130 132 134 135 135 134 134 133 133 132 131 130 128 118 111 106 101 98 104 108 113 120 126 133 141 145 146 145 136 120 99 76 56 42 34 32 34 36 37 39 39 49 69 89 
195 190 188 186 184 183 180 173 162 152 150 161 175 192 209 218 216 211 201 188 174 163 154 150 149 150 150 151 149 145 142 142 145 148 154 158 154 148 146 142 140 141 142 143 144 146 148 139 135 131 126 122 128 131 133 135 136 137 139 141 142 143 142 142 139 126 116 107 99 94 100 104 111 119 126 132 140 144 146 146 139 122 98 75 53 38 32 32 34 35 37 39 39 50 71 91 
196 193 192 193 193 192 188 180 168 153 145 152 168 187 208 222 224 218 207 192 178 165 155 150 149 150 150 151 150 146 143 141 143 145 151 156 154 149 147 143 139 140 141 142 143 145 148 139 134 130 126 121 128 130 132 134 135 136 138 140 143 145 148 150 148 134 121 109 97 90 95 99 106 114 122 130 138 142 145 145 140 122 98 74 52 36 32 33 34 35 37 39 39 52 72 93 
198 196 198 200 201 199 193 184 171 155 142 144 160 179 201 221 228 222 211 197 183 169 158 151 149 149 150 151 151 147 144 142 141 142 147 153 153 149 146 143 138 139 140 141 142 144 146 138 134 130 125 120 126 129 131 133 134 136 138 140 142 145 147 150 146 132 119 106 92 86 90 94 99 107 115 124 132 138 142 144 138 120 98 75 53 37 33 33 34 35 37 38 39 53 73 94 
200 200 203 206 208 204 197 186 173 157 141 137 149 168 191 214 227 226 216 203 189 174 162 153 149 149 150 151 152 148 145 142 140 139 143 151 150 148 146 143 136 137 138 140 142 144 146 138 134 130 126 120 126 129 131 132 134 135 137 139 142 144 147 149 141 127 114 101 87 84 87 90 93 100 107 115 124 131 136 139 132 114 95 75 54 40 37 35 34 35 36 38 39 52 73 94 
200 203 207 211 212 207 198 188 175 159 141 132 137 156 178 204 222 228 221 209 194 180 166 155 150 150 150 151 152 149 145 142 140 137 139 147 148 146 144 142 136 136 138 139 141 143 146 139 134 130 126 121 127 129 131 133 134 136 137 139 142 144 146 147 136 122 110 96 84 84 86 87 89 93 99 106 114 122 129 131 124 108 91 73 56 46 42 38 36 35 36 38 39 52 73 93 
200 204 209 214 215 208 199 188 176 161 144 130 129 143 166 191 214 227 225 214 200 185 171 159 152 150 150 151 151 150 145 142 140 137 136 144 145 144 143 141 136 135 137 139 141 143 146 139 134 131 127 122 128 131 132 134 135 136 138 140 142 144 146 146 133 120 107 93 82 84 85 86 87 88 92 97 104 113 120 121 112 100 86 70 59 53 48 43 39 36 36 38 38 51 72 93 
199 204 209 214 216 208 198 187 177 164 148 133 126 133 153 178 203 222 227 219 206 191 176 163 154 150 149 150 150 150 146 142 140 137 135 141 144 143 142 141 137 135 137 138 141 143 146 139 135 131 127 123 129 132 133 135 136 137 138 140 142 144 147 145 134 122 109 94 85 85 85 85 86 86 88 91 96 103 109 108 100 90 80 68 61 59 54 48 42 39 37 38 38 50 71 92 
195 201 206 213 215 208 198 187 177 166 153 139 127 129 145 168 193 217 227 223 211 197 182 168 157 151 149 149 149 150 147 143 141 138 135 138 143 142 141 141 138 134 136 139 141 143 147 140 135 132 128 125 130 133 135 136 136 138 139 140 142 145 147 143 134 125 114 101 93 90 87 85 85 86 87 88 91 96 101 98 91 83 75 65 63 63 59 53 47 42 39 38 37 51 72 92 
191 197 203 209 212 208 198 187 178 169 157 145 132 130 141 162 187 211 225 225 216 202 187 172 160 152 149 147 148 150 148 144 142 139 135 136 142 141 141 141 139 135 136 138 140 143 146 139 135 132 128 125 131 134 135 137 137 138 139 141 143 145 147 142 136 129 120 110 104 99 93 89 87 86 87 88 89 92 97 93 87 81 74 65 64 65 63 58 52 46 41 38 37 53 74 94 
188 193 198 204 208 207 199 189 180 171 161 151 142 137 143 159 182 203 220 225 220 207 193 178 164 154 149 147 148 149 149 145 142 140 137 135 143 142 141 141 140 134 135 137 139 142 145 138 134 131 128 124 130 133 135 136 137 138 139 141 143 146 146 143 139 134 127 120 116 110 104 97 92 89 87 87 88 90 94 92 88 83 77 68 66 66 65 62 56 50 44 39 37 55 76 97 
185 190 194 199 203 205 201 192 183 174 165 159 153 148 150 160 178 196 213 223 222 212 198 183 169 158 151 147 147 149 150 146 143 141 138 135 142 142 141 140 140 133 134 136 137 139 143 136 132 129 125 122 128 131 133 135 137 137 139 140 142 145 145 141 140 137 132 130 127 122 115 109 102 96 92 89 88 90 93 93 92 88 82 74 70 67 67 65 60 54 48 41 39 59 79 100 
183 189 190 194 198 203 201 195 186 177 170 167 164 163 161 165 176 190 205 218 223 216 204 189 174 162 153 149 148 148 150 147 144 141 138 134 141 142 140 139 138 131 131 133 135 138 141 136 131 128 125 121 127 130 132 133 134 135 137 139 142 144 142 140 138 136 134 135 134 131 127 120 113 106 99 94 90 90 94 97 98 97 90 82 75 70 68 68 63 60 53 45 45 65 83 104 
182 188 188 190 194 199 200 197 190 182 177 176 177 177 173 171 174 184 197 211 221 219 209 195 180 166 157 151 148 148 149 148 143 140 137 133 137 140 139 138 138 131 130 132 134 136 140 135 131 128 125 121 126 130 132 133 134 135 136 137 140 141 139 138 136 134 134 137 139 138 136 133 127 118 109 101 96 95 97 102 105 105 100 91 81 74 70 69 66 65 58 51 54 72 88 109 
180 187 188 186 190 193 197 196 194 189 186 186 188 188 183 176 173 178 189 203 216 219 213 200 186 172 161 154 150 148 148 147 143 139 136 132 135 139 138 138 137 132 129 131 133 135 140 135 130 127 124 120 126 129 132 132 133 134 135 137 140 140 138 136 135 133 135 138 141 144 144 143 139 133 124 113 106 102 101 104 109 110 106 99 89 80 74 71 68 69 62 57 64 80 94 115 
177 186 187 184 187 189 193 196 199 197 195 196 197 196 191 182 174 174 183 195 209 217 215 204 191 178 166 157 152 148 146 146 142 138 136 133 133 138 138 138 137 133 128 130 132 135 139 135 130 127 124 120 126 129 131 132 133 134 135 137 140 139 137 135 134 134 137 141 144 146 148 149 148 144 136 123 113 107 103 104 110 113 111 106 97 88 79 74 70 72 67 64 75 89 101 121 
173 184 187 184 186 187 190 196 204 205 205 206 205 202 196 187 178 174 179 190 202 213 215 208 195 183 171 161 154 148 145 144 142 138 136 133 132 137 138 138 138 135 128 130 132 135 140 136 132 129 126 122 127 130 132 133 133 134 135 137 139 138 136 135 135 135 139 143 147 149 150 152 153 152 143 130 119 109 102 104 110 114 114 111 104 95 87 80 75 76 72 72 85 98 109 128 
169 179 185 185 187 188 189 198 208 212 214 215 212 206 199 192 183 176 176 184 195 207 213 210 199 187 175 165 157 151 146 144 142 138 136 133 131 137 138 139 139 138 130 131 133 135 140 136 133 129 126 122 128 132 134 135 135 135 136 138 139 137 136 136 136 137 143 146 150 151 153 155 156 157 148 133 121 110 102 102 108 112 115 115 108 101 97 87 80 81 77 79 93 105 117 132 
164 174 182 186 190 191 192 201 211 216 219 222 217 209 202 195 188 180 176 180 189 200 209 210 203 191 180 169 161 154 149 145 143 140 137 135 133 138 139 140 140 139 130 131 132 134 139 136 133 130 127 123 129 132 134 135 135 135 137 139 140 139 138 138 138 141 146 150 152 153 154 156 158 157 148 134 120 107 100 99 106 110 114 116 112 107 105 96 87 85 83 87 100 112 124 136 
159 168 176 186 194 196 197 206 214 218 222 226 221 213 206 199 192 184 178 178 185 195 204 209 206 195 184 173 165 157 152 148 145 141 138 137 134 138 139 141 141 140 131 130 132 133 137 134 132 129 126 123 129 132 133 135 134 135 137 139 139 138 138 139 140 145 149 151 152 153 154 156 157 153 144 130 114 102 95 96 102 108 113 117 114 111 112 104 94 91 91 95 107 119 129 138 
153 162 171 185 196 201 203 210 213 217 222 226 224 218 209 202 195 189 182 178 181 190 199 206 207 199 187 176 168 161 156 151 148 144 139 137 135 138 138 140 140 140 132 129 130 132 136 133 132 129 127 124 129 132 133 134 134 135 136 139 138 137 138 140 142 147 151 153 153 153 154 155 154 149 139 125 110 98 93 93 98 104 110 115 115 115 118 110 101 99 100 102 113 126 133 138 
149 157 165 182 195 204 208 213 211 214 219 223 224 222 214 206 199 192 185 179 178 185 194 202 206 201 190 179 171 165 160 155 151 146 140 137 135 136 137 139 140 139 133 128 130 131 134 132 132 129 127 125 129 133 133 133 133 134 136 138 137 137 138 140 143 149 153 154 154 154 155 156 152 144 135 122 107 97 92 89 93 100 107 112 114 117 120 113 107 106 108 109 120 130 136 138 
145 151 159 176 192 204 210 215 210 210 214 219 223 223 219 211 203 195 188 181 177 181 190 197 204 202 193 182 173 167 163 159 154 148 141 137 135 135 137 138 139 139 134 128 129 130 132 131 131 129 126 125 130 132 133 133 132 133 135 136 136 136 137 139 144 149 153 154 155 155 156 156 152 142 134 120 105 96 91 87 90 97 102 107 112 116 119 114 112 113 115 116 126 134 137 138 
143 147 153 170 186 200 210 215 210 207 208 213 218 222 221 216 207 199 192 185 178 179 186 194 200 201 194 184 175 169 166 161 157 151 143 137 135 134 137 137 138 138 135 127 127 128 131 129 130 128 126 125 130 132 132 132 131 132 134 134 135 135 135 138 144 149 153 155 155 156 157 157 152 143 133 119 105 95 88 84 87 93 97 102 109 113 117 116 117 119 121 123 130 136 136 137 
141 144 148 162 178 194 205 213 209 205 203 206 212 218 220 218 212 204 195 188 181 179 182 190 196 199 195 185 176 170 167 164 160 154 146 138 135 133 137 136 137 138 136 126 126 127 130 128 129 128 126 125 130 131 131 131 130 132 133 133 134 134 134 137 143 148 152 154 156 157 157 157 153 146 134 119 105 94 86 81 85 89 92 96 105 110 115 117 123 125 127 128 134 136 136 137 
141 142 145 155 169 185 198 208 208 205 201 202 207 214 219 220 217 209 200 192 186 181 181 185 192 196 194 186 177 171 168 166 162 158 150 139 134 132 137 135 137 138 136 127 126 127 129 126 127 127 126 125 130 131 131 130 130 131 132 132 133 132 132 136 141 145 150 153 155 157 157 157 154 148 138 122 107 95 85 80 83 86 88 91 100 107 113 119 128 130 131 132 136 136 136 138 
142 141 142 149 159 174 188 200 206 205 201 200 205 211 217 221 220 214 205 197 191 185 181 183 189 193 194 188 179 172 168 166 164 161 154 142 135 132 136 135 136 137 136 128 125 126 128 125 127 127 126 125 130 130 130 129 129 130 130 131 132 131 132 136 139 143 147 151 153 155 156 156 154 149 141 126 111 97 87 82 84 87 88 90 97 105 113 122 131 133 134 135 136 136 136 138 
142 142 141 144 152 163 177 190 200 204 201 200 204 209 215 222 222 217 211 202 195 190 184 182 186 191 193 189 181 173 168 165 165 163 158 147 136 132 135 135 135 137 136 129 125 126 126 121 121 122 122 122 129 130 130 128 128 128 129 130 131 130 132 135 138 141 144 147 150 152 153 152 151 148 142 130 115 101 93 90 88 90 91 91 96 105 115 125 134 135 136 136 136 136 136 138 
142 142 141 142 146 154 165 178 191 199 200 201 206 210 215 222 224 220 215 208 200 194 187 183 184 189 192 190 182 174 167 165 164 164 161 152 139 132 134 136 135 136 133 124 114 110 107 101 100 101 101 103 109 113 116 119 124 126 128 130 130 129 132 134 136 138 141 144 146 148 149 148 147 145 142 134 119 109 103 101 96 97 96 93 96 107 118 129 135 136 136 136 136 136 136 138 
142 142 142 141 142 147 155 166 179 191 196 203 209 213 218 224 225 222 217 211 205 198 192 186 184 186 191 191 184 175 168 163 163 165 163 157 144 132 128 129 123 120 115 105 93 89 86 81 80 81 82 84 90 93 96 100 105 110 116 122 126 128 132 134 135 137 139 141 143 145 146 145 143 143 142 137 125 118 116 114 106 105 102 99 99 111 122 131 136 136 136 136 136 136 136 138 
142 142 142 142 141 143 148 156 167 180 189 200 210 216 221 226 226 223 219 213 208 202 195 190 187 186 189 191 187 178 169 163 162 164 164 160 145 127 114 111 103 99 94 86 73 69 65 61 60 62 64 66 70 74 76 80 86 89 97 107 116 124 133 137 138 139 139 140 141 141 142 141 141 141 141 139 131 127 127 128 117 114 110 105 103 116 126 134 136 136 136 136 136 136 137 138 
142 142 142 142 141 141 143 149 157 168 179 195 208 217 223 229 228 225 221 215 210 205 199 194 190 188 188 190 188 180 171 164 161 163 163 156 140 117 97 91 83 78 74 67 54 49 44 40 40 42 44 47 51 54 57 61 67 71 81 93 106 119 133 140 145 145 144 143 141 140 139 139 139 140 141 141 135 134 137 138 125 121 117 112 110 122 130 135 136 136 136 136 136 136 137 138 
143 142 142 142 141 141 141 144 149 157 167 186 202 214 223 230 229 227 223 218 213 207 203 198 194 190 188 189 189 183 174 165 158 155 153 145 129 107 83 73 63 58 53 47 33 28 25 23 24 27 29 31 32 34 37 43 50 58 69 84 99 115 132 143 150 153 152 150 146 144 141 140 140 140 141 141 139 140 143 143 132 127 122 119 118 128 134 136 136 136 136 136 136 136 137 138 
143 142 142 142 142 141 141 141 144 149 157 174 192 208 220 229 231 229 226 221 216 210 205 201 197 192 189 188 189 186 176 161 149 141 136 130 117 98 72 56 42 38 36 33 24 23 23 23 25 28 30 31 31 31 32 35 40 47 60 76 93 112 131 146 156 160 161 158 153 148 144 141 140 141 141 141 142 143 146 145 137 132 129 126 126 133 136 137 136 136 136 136 136 136 137 138 
143 142 142 142 142 141 141 141 141 144 149 161 179 197 213 224 229 230 229 225 220 214 208 203 199 195 191 189 189 185 174 156 137 123 117 112 102 88 66 48 35 33 34 33 26 23 22 23 24 28 30 31 31 32 35 39 45 52 63 76 93 113 133 149 162 168 169 167 161 154 148 144 142 141 142 142 143 145 146 144 139 136 133 131 131 136 137 136 136 136 136 136 136 136 137 138 
143 143 142 142 142 141 141 141 141 141 143 152 165 183 201 216 225 230 231 229 225 219 212 205 200 197 193 190 187 181 170 148 124 107 99 95 92 85 70 53 38 33 33 32 27 23 22 22 24 27 30 31 31 33 38 44 52 62 73 85 99 117 136 152 165 173 176 174 168 161 152 147 143 142 143 143 144 145 146 143 140 138 136 134 135 137 137 136 136 136 136 136 136 136 137 138 
143 143 142 142 142 142 141 141 141 140 140 145 154 169 187 204 218 227 232 232 229 222 214 206 199 196 195 189 181 173 161 137 111 93 85 82 86 86 78 62 45 33 32 31 26 20 19 19 20 22 25 26 28 33 40 49 60 70 82 93 106 122 139 153 165 173 178 177 172 165 157 150 145 144 144 144 145 145 145 142 141 139 137 136 137 137 137 136 136 136 136 136 136 136 137 138 
143 143 142 142 142 142 141 141 141 141 140 141 146 156 172 190 207 220 229 233 232 226 216 207 199 194 193 187 175 163 150 127 102 86 78 78 83 88 84 70 52 35 29 26 23 16 14 15 15 18 19 21 24 31 41 52 62 73 84 95 109 125 141 154 163 168 173 174 170 166 161 153 148 146 146 145 145 144 143 141 140 138 137 137 137 137 137 137 136 136 136 136 136 136 137 138 
143 143 143 142 142 142 141 141 141 141 140 140 141 147 159 175 193 210 223 230 233 230 219 208 199 192 187 182 167 151 138 123 102 86 79 79 82 88 87 77 59 37 25 21 18 11 10 11 11 13 14 17 22 31 41 52 61 71 82 93 108 125 140 151 158 161 165 165 165 163 161 156 151 149 147 146 145 143 141 139 138 137 137 137 137 137 137 137 136 136 136 136 136 136 137 138 
143 143 143 142 142 142 142 141 141 141 141 140 140 142 150 162 178 196 213 224 230 231 221 208 198 187 176 169 158 140 130 122 108 91 83 80 80 83 85 78 64 40 23 17 14 7 6 7 7 8 9 14 21 30 41 52 59 66 76 88 102 119 134 145 150 151 152 154 154 157 159 158 154 151 148 146 144 141 139 138 137 137 137 137 137 137 137 137 137 136 136 136 136 136 137 138 
143 143 143 143 142 142 142 142 141 141 141 141 140 140 144 152 165 181 199 213 223 228 221 207 195 180 163 152 145 131 122 122 117 99 85 81 77 77 80 77 66 43 24 13 10 3 2 3 3 3 4 10 18 28 39 50 55 61 69 79 92 108 122 132 137 137 136 138 142 147 155 158 155 152 148 144 142 140 138 137 137 137 137 137 137 137 137 137 137 136 136 136 136 136 137 138 
143 143 143 143 142 142 142 142 142 141 141 141 141 140 141 146 154 166 182 199 212 222 219 206 193 175 151 137 133 125 119 122 123 107 87 80 73 70 73 74 65 47 26 12 7 2 1 3 3 3 3 11 18 28 38 48 51 55 61 69 80 94 107 116 121 120 118 123 130 139 150 157 156 152 147 142 140 138 137 137 137 137 137 137 137 137 137 137 137 136 136 136 136 136 137 138 
143 143 143 143 143 142 142 142 142 142 141 141 141 141 140 142 146 155 166 181 197 210 214 203 192 172 146 127 123 118 117 121 125 114 92 78 70 65 66 69 64 50 31 15 8 3 1 3 3 3 3 11 19 29 38 47 49 51 54 60 69 80 91 100 104 104 102 109 120 132 146 156 155 151 146 141 139 138 137 137 137 137 137 137 137 137 137 137 137 137 136 136 136 136 137 138 
143 143 143 143 143 142 142 142 142 142 142 141 141 141 141 140 142 146 154 165 179 195 204 199 195 177 152 130 122 114 118 120 124 118 100 79 68 60 60 64 63 55 39 21 10 4 1 3 3 3 3 10 18 28 37 46 49 49 50 54 60 68 77 85 90 91 89 98 112 127 142 155 154 149 144 139 138 137 137 137 137 137 137 137 137 137 137 137 137 137 136 136 136 136 137 138 
143 143 143 143 143 142 142 142 142 142 142 142 141 141 141 141 140 142 146 153 163 177 190 192 192 182 164 141 128 117 118 118 120 118 106 82 68 60 59 62 65 59 45 28 14 9 7 10 14 19 20 24 30 36 40 46 49 49 48 50 54 59 66 73 77 80 80 92 108 125 141 154 153 148 142 138 137 137 137 137 137 137 137 137 137 137 137 137 137 137 137 137 136 136 137 139 
144 143 143 143 143 143 142 142 142 142 142 142 142 141 141 141 140 140 141 145 151 161 174 180 186 181 173 155 140 124 121 117 115 115 107 89 72 65 60 63 66 64 53 41 27 22 18 19 25 34 38 45 52 53 51 50 49 49 48 49 51 54 59 64 69 72 78 94 111 129 145 155 152 146 141 137 137 137 137 137 137 137 137 137 137 137 137 137 137 137 137 137 136 136 137 139 
144 143 143 143 143 143 142 142 142 142 142 142 141 141 141 141 141 140 140 141 144 150 159 167 178 178 176 167 153 135 126 118 113 111 109 97 81 71 66 64 68 69 60 49 34 26 19 19 25 35 41 48 54 57 54 51 51 51 49 50 50 52 55 59 63 70 81 100 118 135 148 154 150 145 140 137 137 137 137 137 137 137 137 137 137 137 137 137 137 137 137 137 136 136 137 139 
144 143 143 143 143 143 142 142 142 142 142 142 142 141 141 141 141 140 140 140 140 143 149 157 167 171 174 173 164 147 135 122 115 109 109 103 92 78 72 70 71 74 65 54 39 29 20 19 24 34 41 46 51 53 52 50 51 53 53 51 51 51 53 58 63 74 89 109 126 142 150 152 147 143 139 137 137 137 137 137 137 137 137 137 137 137 137 137 137 137 137 137 136 136 137 139 
144 144 143 143 143 143 142 142 142 142 142 142 142 141 141 141 141 141 141 141 140 140 142 147 154 157 162 165 165 155 141 128 119 111 108 109 101 89 80 75 71 73 68 57 44 35 24 19 24 34 41 45 49 48 46 47 51 56 58 57 54 52 52 57 67 81 100 121 136 147 151 149 145 141 138 137 137 137 137 137 137 137 137 137 137 137 137 137 137 137 137 137 137 137 137 139 
144 144 144 143 143 143 142 142 142 142 142 142 142 142 141 141 141 141 141 141 141 140 140 141 144 147 151 156 160 158 146 133 123 117 110 112 107 97 84 76 67 68 69 60 48 38 24 12 12 18 24 29 33 35 38 44 55 66 72 72 67 60 57 64 76 94 116 134 144 150 150 146 142 139 138 137 137 137 137 137 137 137 137 137 137 137 137 137 137 137 137 136 136 136 137 139 
144 144 144 143 143 143 143 142 142 142 142 142 142 142 141 141 141 141 141 141 141 141 141 140 141 142 145 148 153 155 149 138 130 122 117 116 113 102 90 76 64 62 66 57 45 34 20 5 2 3 5 6 7 13 24 42 63 81 92 92 81 71 68 75 88 109 128 141 147 149 146 142 140 138 138 138 138 138 137 137 137 137 137 137 137 137 137 137 137 137 136 136 136 137 137 139 
144 144 144 143 143 143 143 142 142 142 142 142 142 142 141 141 141 141 141 141 141 141 141 141 140 140 142 144 147 149 149 142 134 128 125 123 117 108 95 78 61 57 62 56 47 39 27 8 2 2 2 2 2 6 23 48 74 99 114 112 97 87 82 88 103 123 137 145 147 145 142 139 138 138 138 138 138 138 137 137 137 137 137 137 137 137 137 137 137 137 137 137 136 137 137 139 
