P2
92 92
255
121 121 121 121 121 121 121 120 120 120 122 120 117 116 114 112 110 110 111 112 118 115 112 110 107 105 97 93 84 81 74 70 65 58 55 51 47 45 43 42 42 45 56 61 69 77 76 75 69 68 65 62 60 60 59 58 58 59 60 62 65 74 91 100 104 104 103 104 105 107 112 118 121 121 121 122 124 128 133 139 145 150 155 161 168 173 177 181 183 186 189 194 
122 121 121 121 121 121 121 121 121 121 119 119 115 111 110 108 105 104 103 104 113 114 110 106 103 99 96 87 83 74 71 64 61 55 49 45 41 37 34 33 34 33 37 49 55 61 67 65 64 59 58 55 51 48 50 51 52 54 57 59 60 62 68 84 92 96 96 95 96 97 100 105 115 123 122 121 122 125 130 135 141 146 152 157 163 167 170 173 175 177 181 188 
122 122 121 121 121 121 121 121 122 120 119 116 115 110 106 104 103 100 98 98 103 110 111 105 100 96 91 87 77 73 64 61 55 51 46 38 33 31 30 31 31 31 30 34 44 47 52 57 54 53 48 47 47 48 47 48 48 48 49 53 58 61 64 68 78 84 88 88 88 89 91 94 99 110 123 124 122 123 126 131 137 142 147 153 156 159 161 164 167 171 175 181 
122 122 122 121 121 121 122 122 122 119 115 111 106 104 99 96 96 95 94 93 96 101 107 106 99 93 88 82 77 68 63 55 52 45 39 35 32 30 29 29 29 28 28 26 31 41 43 46 49 44 44 45 46 44 43 41 42 42 42 44 47 53 59 62 64 76 80 85 86 86 88 89 92 95 104 123 124 122 123 127 132 137 143 145 148 150 154 158 162 165 169 174 
122 122 122 122 121 121 123 121 116 114 111 105 101 96 94 89 86 86 84 89 93 95 97 102 100 92 85 79 73 68 58 54 45 39 37 33 30 28 27 27 27 25 22 23 22 27 37 40 42 41 43 43 41 40 39 37 36 36 37 37 39 42 48 57 60 64 77 79 82 83 85 87 89 91 94 98 122 125 123 124 129 133 136 139 142 145 148 152 156 159 162 168 
122 122 122 122 122 123 119 117 113 108 105 101 95 91 86 84 80 76 75 79 89 91 92 92 96 93 84 76 69 63 58 48 42 36 31 30 30 30 30 30 29 28 24 22 22 21 23 33 37 39 39 38 37 35 34 35 34 34 35 36 35 37 40 47 59 61 64 77 78 79 81 83 86 87 90 92 95 123 127 124 124 127 132 138 142 145 146 147 150 153 156 161 
122 122 122 122 123 120 119 114 110 106 100 96 92 86 82 77 75 71 65 68 79 88 88 87 86 89 85 75 67 61 54 48 39 35 33 32 31 31 31 32 31 30 26 23 22 23 21 23 30 33 36 34 33 33 33 33 33 32 33 33 34 34 35 36 47 63 66 67 77 77 77 79 81 84 86 88 91 94 124 127 123 125 131 138 144 147 147 146 146 147 150 155 
122 122 122 122 123 121 116 114 107 103 98 91 86 82 76 72 67 66 60 58 69 79 86 84 81 80 84 80 71 65 55 48 44 40 37 36 36 36 36 34 33 32 27 24 23 22 23 23 24 29 31 32 32 32 32 31 31 31 30 31 32 32 32 33 34 51 66 68 68 76 76 77 80 82 84 85 88 90 94 125 128 127 131 139 147 151 151 148 146 143 144 149 
123 122 122 124 122 121 117 111 108 100 95 89 81 77 73 67 63 58 55 52 61 68 76 83 83 81 78 79 74 65 57 51 49 45 42 41 41 41 42 41 40 35 29 25 24 23 22 24 24 26 29 31 31 31 30 30 30 29 29 28 29 30 31 30 30 33 50 66 68 68 72 71 72 75 80 85 88 90 90 96 127 132 133 139 148 154 155 152 148 144 140 142 
122 122 122 125 124 121 118 112 106 101 92 87 80 72 68 64 58 54 47 44 57 65 74 84 90 88 84 78 77 67 61 56 52 50 47 46 45 45 47 47 47 45 34 28 25 24 23 23 25 25 29 30 30 30 29 29 29 29 30 30 30 30 30 31 29 29 31 49 66 68 68 69 71 74 77 83 90 97 99 98 99 128 135 139 146 154 158 156 152 147 142 138 
122 123 127 125 125 122 118 112 106 98 93 84 78 72 64 60 55 49 42 38 52 65 74 81 89 94 91 85 79 70 64 59 56 53 51 50 49 50 51 52 52 52 44 33 27 26 25 24 24 26 28 30 29 28 29 30 31 31 31 31 31 31 32 32 32 31 30 33 49 66 68 68 70 73 78 82 88 94 104 107 108 105 130 138 143 150 156 159 156 152 147 140 
125 128 128 128 124 123 119 112 106 99 91 84 75 69 63 55 51 46 39 32 45 60 73 80 85 92 96 91 84 75 67 62 58 56 54 54 54 54 54 55 56 57 51 42 32 27 26 25 25 25 28 29 29 30 30 31 31 32 32 32 32 33 32 33 32 33 34 34 36 51 65 68 68 73 78 82 86 92 97 110 115 116 113 132 140 145 152 158 160 157 153 146 
129 131 131 129 128 122 120 115 107 100 91 82 76 66 61 54 46 41 38 35 43 60 74 84 89 92 96 96 90 80 70 64 60 58 56 56 57 58 58 59 59 60 56 49 41 32 27 26 25 25 26 29 31 31 31 32 32 33 33 33 33 33 34 34 34 33 36 37 37 40 53 65 67 70 75 79 82 86 91 95 112 119 123 121 135 141 147 154 159 161 158 151 
133 133 133 133 129 127 120 117 110 100 92 83 75 69 60 54 50 46 42 37 43 58 72 84 93 97 98 101 95 83 75 68 64 62 61 60 61 62 63 62 61 62 60 54 47 41 32 28 28 28 28 31 33 33 33 33 32 33 33 34 34 34 35 34 34 32 32 36 37 37 40 52 62 66 71 75 78 82 85 89 94 114 121 127 129 138 143 149 155 160 160 155 
135 136 136 136 134 129 126 117 112 105 96 88 78 70 63 58 55 52 48 42 42 58 70 82 93 99 102 105 103 93 84 77 72 70 69 68 69 70 72 72 70 68 63 59 55 49 43 34 31 30 32 35 36 37 37 37 37 35 34 34 34 35 35 36 35 32 31 31 35 36 37 40 52 58 63 69 75 79 84 89 92 98 118 124 131 136 139 144 149 155 158 157 
134 138 140 141 138 135 129 125 117 110 101 91 83 72 67 63 59 57 54 48 43 56 70 80 92 103 111 114 110 101 93 85 81 77 75 76 77 78 80 81 81 79 71 62 60 57 52 46 37 33 34 38 39 40 41 41 41 41 39 38 36 35 36 37 36 33 32 31 31 35 36 36 41 50 54 60 69 78 83 88 92 96 103 122 129 135 138 139 143 149 153 154 
129 138 144 146 143 140 137 129 124 114 106 97 86 77 70 67 63 61 59 54 48 53 70 85 94 104 114 122 119 107 101 93 88 86 83 82 82 83 84 85 86 86 80 68 60 58 55 51 46 40 37 41 43 44 44 44 45 45 44 43 43 41 37 37 37 34 33 32 31 31 34 36 36 41 45 53 64 74 83 90 94 97 98 105 120 130 137 139 139 143 147 148 
128 135 145 149 149 146 142 137 128 122 110 102 90 81 74 69 67 64 62 58 53 58 71 85 98 106 115 125 128 115 106 101 96 91 87 86 87 88 88 89 90 91 88 77 66 58 56 53 49 45 41 43 46 47 47 47 48 48 48 48 47 47 45 41 37 35 34 32 31 30 30 34 35 37 41 50 61 71 81 91 99 103 105 105 106 116 131 139 139 138 140 141 
127 135 142 151 153 152 148 143 136 126 118 106 94 85 78 72 68 67 65 63 62 63 76 85 98 110 117 126 133 123 112 105 99 95 91 90 91 92 93 94 94 96 94 84 74 64 57 54 51 47 43 46 48 50 50 51 50 51 51 51 52 51 52 50 44 35 34 33 31 31 30 30 33 35 38 47 56 67 78 88 98 108 111 113 111 106 113 133 139 136 135 136 
124 135 143 149 155 156 154 149 141 134 121 109 98 88 81 77 75 73 74 72 67 69 81 90 98 109 120 128 136 128 118 108 103 99 97 95 96 97 98 99 100 101 99 90 82 72 62 55 52 49 45 47 50 52 53 54 54 53 54 55 55 56 56 56 54 43 35 33 32 30 30 29 30 33 36 45 51 61 74 85 94 107 115 117 117 112 106 111 132 136 134 133 
123 132 142 149 153 158 158 156 148 137 125 111 104 97 90 84 82 81 80 82 76 73 86 96 103 109 119 131 139 131 122 114 107 102 100 98 98 100 101 102 103 104 103 96 89 82 73 64 56 54 50 51 53 54 55 55 56 57 56 58 59 59 60 60 60 53 43 34 33 32 30 29 28 30 33 40 49 55 65 80 90 101 115 121 121 117 109 104 112 131 134 133 
114 131 140 148 154 156 160 160 151 141 132 124 110 104 99 93 89 88 88 88 86 82 86 101 109 115 120 130 140 134 122 115 110 104 101 100 100 101 102 103 104 105 105 104 99 93 86 77 67 60 58 59 61 62 63 62 61 60 60 60 61 63 64 64 63 59 53 43 34 32 31 30 29 28 30 35 45 54 60 69 83 94 109 121 125 124 117 106 104 112 130 133 
113 122 138 145 153 157 159 158 156 148 139 130 121 110 105 100 96 94 94 96 93 90 90 100 112 117 121 126 136 137 126 116 111 107 102 101 101 103 104 105 105 105 104 103 104 100 94 88 81 72 65 66 69 70 70 70 69 68 67 64 62 63 66 67 66 62 59 52 42 33 32 31 30 29 31 32 42 53 62 68 77 90 104 114 123 127 126 118 103 107 111 129 
109 119 129 144 150 157 158 156 155 154 147 137 127 119 109 106 104 101 98 99 99 94 92 101 107 118 122 125 132 137 129 119 112 109 106 103 102 102 102 102 102 102 101 99 100 102 98 92 86 80 73 72 74 75 75 75 75 74 74 73 70 68 66 67 65 62 60 58 53 42 33 32 31 30 32 32 33 47 61 71 77 85 100 110 117 125 129 126 114 101 104 109 
109 112 126 134 148 154 154 158 158 160 153 143 132 124 119 110 106 104 103 102 103 97 93 100 109 114 123 126 131 136 129 123 115 109 104 101 99 99 99 99 99 100 99 96 97 98 100 96 90 84 77 76 79 80 80 80 81 81 80 79 79 76 75 72 64 61 59 56 54 51 42 33 31 30 32 33 33 34 50 63 73 78 94 107 115 119 124 127 124 111 99 102 
110 109 119 132 141 149 158 159 163 167 158 148 137 129 122 116 109 106 105 104 103 99 95 98 109 116 119 126 132 136 131 121 114 107 102 98 96 97 97 97 97 97 96 94 94 95 96 98 95 89 82 80 83 85 85 85 85 86 86 85 85 85 83 82 71 63 59 56 52 50 47 40 32 31 33 33 33 33 35 51 63 74 82 98 109 114 119 123 125 121 110 99 
110 106 116 129 136 146 154 163 166 173 163 152 142 133 126 119 113 107 106 106 106 101 98 97 107 116 121 122 132 137 132 119 111 106 100 97 94 94 94 94 94 94 93 92 92 92 93 94 97 93 87 84 88 89 90 91 91 91 91 92 91 91 91 89 80 71 62 58 55 50 46 43 37 33 33 33 34 34 34 36 51 65 77 86 95 104 113 119 123 122 119 109 
113 102 114 124 133 142 152 160 171 176 168 157 145 136 127 121 115 112 107 107 108 104 99 97 105 115 122 126 128 133 132 119 109 103 99 95 92 91 91 91 91 92 91 87 87 88 89 90 91 95 91 88 92 94 95 95 96 96 97 97 98 97 97 96 87 79 70 62 58 54 49 44 38 34 34 34 34 34 35 35 37 53 68 79 83 91 99 109 119 122 120 119 
116 103 109 119 129 139 147 157 168 181 170 160 148 137 130 122 117 114 111 108 109 109 102 98 100 111 118 122 124 128 130 118 108 101 97 95 93 93 93 94 94 95 94 85 81 82 83 84 86 87 89 89 93 96 98 100 101 102 103 103 103 104 104 101 95 87 79 69 61 57 53 48 42 37 35 35 35 35 36 36 36 39 56 71 76 80 88 94 105 120 120 120 
117 107 102 113 125 136 148 158 171 181 174 161 151 140 131 125 118 116 114 112 111 110 102 96 93 102 111 116 118 125 128 121 113 104 99 97 95 95 96 96 96 97 98 88 81 78 80 81 83 83 84 89 93 95 97 98 100 102 105 107 107 109 110 106 100 94 86 78 68 60 55 52 46 42 41 37 35 36 36 36 37 40 43 59 68 73 77 85 90 104 120 118 
118 111 99 108 122 136 147 159 171 184 174 165 153 143 134 126 121 116 113 110 108 108 102 95 92 95 107 116 119 124 129 124 115 108 102 98 97 98 99 101 102 103 103 94 86 79 77 79 81 82 83 85 90 92 94 96 96 98 100 102 105 107 109 105 100 97 93 86 77 67 58 54 50 46 46 44 40 35 36 37 36 37 42 47 59 66 70 74 82 87 106 118 
127 113 99 105 119 133 147 157 171 184 178 167 157 145 137 129 120 113 110 108 106 105 105 101 96 95 101 112 118 124 129 128 117 110 106 102 101 101 103 104 106 107 108 99 91 84 78 76 79 80 81 84 87 89 91 92 94 95 96 98 100 102 103 105 99 94 90 87 82 76 66 57 52 52 51 49 48 42 36 37 36 36 36 41 49 58 63 67 71 79 88 105 
132 120 104 100 115 129 143 158 170 186 180 172 159 150 139 128 119 112 107 105 107 108 106 104 102 97 101 105 114 121 128 131 122 115 110 108 105 105 106 108 109 111 113 104 96 90 83 77 75 78 79 82 85 86 88 89 91 92 93 95 97 98 99 103 105 98 89 84 80 76 70 65 59 58 59 58 54 52 45 36 36 36 35 36 41 50 57 61 64 68 80 89 
137 126 111 98 108 123 138 153 170 185 185 174 165 152 139 128 118 110 108 107 106 110 110 104 104 102 104 105 107 117 130 135 128 120 114 111 110 109 110 111 113 115 117 108 101 94 88 82 76 74 77 79 83 84 85 87 88 89 91 92 93 95 95 99 102 105 98 87 78 73 69 67 62 66 66 67 65 58 57 45 35 35 35 35 35 40 50 60 64 67 74 82 
142 131 117 101 101 115 132 148 165 184 188 179 167 154 139 127 120 114 109 108 108 108 112 109 104 104 109 110 111 113 127 136 135 125 119 115 113 114 114 115 116 118 120 112 105 98 93 87 81 75 73 77 80 82 83 84 85 86 87 90 90 91 92 95 98 102 104 97 87 75 68 66 63 67 71 71 73 70 62 58 44 34 35 35 35 35 40 51 65 68 74 81 
146 136 121 107 100 109 124 142 159 178 190 182 170 155 144 133 122 116 112 108 109 110 110 111 110 107 112 117 115 115 123 134 140 131 123 119 117 116 118 118 120 122 124 120 113 106 99 93 86 79 74 73 77 79 80 81 82 83 84 86 88 87 89 91 94 98 101 104 97 86 76 68 65 70 72 75 75 75 73 63 57 43 34 35 35 34 34 39 54 69 76 81 
150 138 129 117 104 107 118 135 153 172 189 185 175 164 149 137 128 118 114 111 109 112 114 114 113 113 112 120 122 119 124 131 139 137 129 123 120 120 121 123 124 126 128 125 123 117 110 104 98 90 82 76 78 79 79 80 81 81 82 83 84 84 86 88 91 93 97 100 103 97 88 79 73 73 77 77 80 77 76 69 60 56 43 33 34 34 34 34 39 58 77 83 
153 145 134 125 113 107 116 128 145 165 186 190 180 169 157 142 132 123 114 113 113 113 116 119 115 116 116 119 126 126 127 133 136 141 134 128 125 124 125 127 130 131 132 128 126 124 117 109 102 96 88 81 84 85 86 85 83 82 82 83 83 83 86 87 88 90 92 95 100 104 99 89 86 84 81 83 79 81 77 72 65 56 53 43 33 34 34 34 33 42 66 85 
159 150 142 132 123 113 116 126 138 160 183 192 186 175 162 150 135 127 121 115 115 117 118 121 120 117 119 121 127 130 131 136 139 142 139 134 131 129 128 129 129 130 132 127 125 124 122 115 108 101 94 87 90 91 92 93 91 89 88 87 86 83 85 88 89 90 91 92 96 101 105 99 96 95 94 86 86 81 79 73 69 62 53 49 41 33 34 34 34 36 49 73 
159 156 147 139 130 121 119 126 139 154 175 192 189 181 168 154 144 133 126 121 117 119 122 123 124 122 121 122 128 131 135 142 144 144 141 135 131 128 128 128 129 130 132 127 125 123 122 121 113 106 99 93 96 96 97 98 99 97 96 95 94 86 82 85 89 91 92 93 96 100 104 107 107 105 104 102 89 87 76 75 70 66 59 49 46 39 33 33 33 38 46 58 
167 157 154 144 138 128 122 131 138 150 167 189 192 185 175 161 149 141 131 126 122 121 124 127 127 126 126 124 128 134 136 141 142 143 141 135 131 129 127 128 129 130 131 128 125 124 122 121 119 112 105 97 102 102 103 103 104 105 103 102 101 92 85 81 84 90 93 94 96 101 105 109 113 116 114 113 109 87 83 73 72 67 61 54 46 42 36 33 33 40 49 58 
169 166 155 153 141 135 123 129 141 148 163 181 195 189 180 169 155 145 138 130 126 125 125 129 132 129 130 130 128 130 134 139 142 142 142 135 132 129 128 127 128 129 131 127 125 123 122 120 119 118 110 103 106 108 108 109 109 110 111 110 106 99 92 85 80 83 89 94 97 101 105 111 113 117 120 122 122 106 84 79 68 65 60 54 47 41 38 35 33 41 51 60 
173 169 164 156 150 136 128 122 139 151 160 177 193 193 186 175 162 150 142 137 130 129 130 130 134 135 132 130 128 127 130 136 141 142 142 136 131 130 128 127 128 129 131 127 125 124 121 120 119 117 116 108 112 113 115 115 115 115 116 118 112 105 99 91 84 79 82 88 94 100 105 111 115 117 120 122 123 120 104 80 72 61 58 53 47 41 36 34 34 42 52 62 
175 173 167 164 153 145 129 121 129 150 163 174 192 196 191 182 169 157 147 140 138 132 134 136 137 135 132 131 129 127 126 132 138 140 142 136 131 129 128 126 127 128 130 127 124 123 121 119 119 117 116 114 117 119 120 121 121 121 122 123 117 111 105 99 91 83 78 81 86 92 102 110 114 118 118 122 118 117 117 101 73 65 54 50 45 40 35 32 32 41 53 63 
179 175 171 165 160 148 138 123 120 140 161 176 188 200 195 189 177 164 154 145 141 140 136 136 136 136 132 131 129 128 125 128 133 137 139 137 130 128 128 126 127 128 130 126 124 122 122 121 119 117 116 114 118 121 122 124 126 127 128 128 122 117 111 104 98 90 82 77 80 85 93 104 112 116 119 119 115 112 112 111 92 65 57 47 43 38 35 31 31 38 52 64 
182 179 174 169 162 156 142 131 116 129 151 171 186 198 200 192 185 172 161 152 145 139 136 135 136 136 133 131 129 128 126 126 129 134 137 138 132 128 128 126 127 128 130 127 125 123 121 121 120 117 116 114 117 120 121 123 125 127 129 127 123 118 114 110 104 98 89 81 76 79 86 91 103 114 118 117 113 110 106 104 102 80 55 48 39 36 34 31 32 38 49 63 
184 181 177 171 166 158 150 136 125 116 137 159 180 196 203 199 190 181 169 157 146 140 136 135 135 136 134 131 130 128 126 125 126 130 133 137 133 128 128 126 126 128 130 127 125 124 122 120 120 119 116 114 117 120 121 123 125 126 128 127 122 116 112 108 105 101 97 89 81 76 80 85 89 103 116 112 112 108 103 98 97 92 66 44 39 34 32 31 33 39 49 60 
186 183 179 173 168 163 154 144 130 116 120 145 168 190 205 203 196 188 174 161 150 141 136 134 134 135 135 132 130 128 127 124 126 128 130 133 134 128 127 126 125 127 129 126 125 124 122 121 119 119 117 114 118 120 121 123 124 127 128 127 127 121 110 105 101 98 94 90 83 77 77 79 83 87 101 110 107 105 100 95 91 89 82 54 36 34 30 31 32 40 50 60 
187 185 181 176 170 166 160 149 134 124 116 129 154 177 200 207 201 191 180 166 155 144 136 134 134 135 136 132 130 129 127 125 126 125 128 130 133 130 127 126 125 126 129 126 125 123 122 121 120 118 117 115 118 120 121 123 125 126 127 127 127 127 121 107 99 94 91 87 83 76 78 78 79 80 85 95 105 100 97 93 88 83 82 71 42 31 30 32 31 42 51 61 
188 185 183 179 173 168 164 152 143 129 120 121 138 163 187 207 205 195 185 171 159 147 139 134 134 135 135 133 131 130 127 125 127 124 126 127 129 130 128 126 124 126 128 125 124 123 122 121 120 120 117 116 119 120 121 123 125 127 126 127 127 126 127 121 105 93 87 84 80 77 78 79 78 80 82 84 90 98 92 90 86 80 76 74 59 33 29 31 32 42 53 62 
188 187 183 181 175 170 164 161 149 138 125 120 130 148 173 200 207 199 189 177 164 151 141 135 133 135 135 134 132 129 128 126 127 124 125 125 126 128 128 126 123 125 127 124 123 123 122 121 120 120 118 115 119 121 122 123 125 127 126 126 127 127 126 127 121 105 90 81 77 76 78 78 78 81 82 84 84 83 90 85 82 78 73 69 62 49 33 30 34 43 53 63 
187 188 186 182 178 170 165 163 158 145 134 121 126 140 160 186 206 203 193 182 169 157 145 137 134 134 135 135 131 131 128 126 127 124 125 125 125 125 126 126 122 123 126 123 121 121 120 120 120 119 118 116 119 121 122 123 125 127 126 126 126 127 127 126 127 120 105 89 74 75 77 78 78 80 83 85 88 85 76 83 77 75 70 65 60 56 47 33 36 45 54 64 
180 187 189 185 180 172 168 164 163 156 141 130 121 136 151 172 198 205 197 186 175 161 149 139 134 134 134 136 131 130 129 126 127 126 123 124 123 123 123 126 122 123 125 123 122 120 120 119 119 118 118 115 119 121 123 124 126 126 127 126 126 126 127 127 125 126 120 105 88 75 75 77 79 81 83 86 88 91 85 71 75 70 68 65 59 61 53 43 41 47 55 65 
171 180 188 190 184 178 169 166 164 162 153 138 128 127 148 164 185 205 200 190 180 168 153 143 135 133 134 134 132 128 127 126 125 126 124 124 123 122 122 124 122 123 125 123 122 121 120 119 119 118 117 115 118 120 122 123 125 124 125 127 126 126 126 127 128 126 126 119 105 97 77 76 79 82 83 85 88 91 95 83 67 70 65 62 60 63 59 50 51 51 58 66 
159 171 180 190 191 182 176 167 165 164 161 151 136 129 138 160 176 197 202 194 184 173 160 146 138 133 132 133 133 129 126 125 125 126 124 125 124 122 121 123 122 122 125 122 121 121 120 118 118 117 117 115 118 120 121 123 125 123 123 124 127 127 127 128 129 129 127 127 123 114 104 77 79 82 84 86 88 92 94 96 80 64 65 59 61 64 61 60 58 58 61 68 
163 159 171 186 194 190 180 174 167 165 165 161 150 134 135 150 172 187 203 196 187 178 166 152 140 133 131 132 132 129 127 125 124 127 124 125 125 123 121 121 122 121 124 122 120 120 119 119 118 117 116 114 117 119 122 123 124 123 122 123 125 129 128 128 129 129 130 128 131 131 118 104 79 81 85 87 89 91 94 97 95 78 60 59 61 63 62 67 67 64 65 72 
169 163 160 177 193 195 189 178 173 167 166 167 162 149 134 146 163 184 199 199 189 181 172 159 143 136 130 130 132 130 127 126 124 127 125 123 125 124 121 121 122 120 122 121 120 119 119 118 118 117 116 114 117 119 121 123 123 123 123 124 124 126 129 129 129 129 130 130 132 134 127 118 104 82 84 88 90 92 94 98 99 94 81 59 61 63 64 70 74 74 71 73 
174 168 164 166 183 197 194 188 178 173 167 168 168 161 147 140 158 176 191 200 192 182 176 166 152 138 132 129 131 130 128 126 124 126 125 122 124 124 122 121 122 119 122 120 120 119 119 118 117 118 115 114 117 118 121 123 123 122 124 125 125 125 127 130 130 129 130 131 134 132 130 121 115 104 85 87 91 92 94 98 98 101 99 79 60 62 67 71 77 81 81 78 
176 176 167 168 171 191 199 194 188 177 173 169 170 169 161 147 150 166 182 196 195 185 176 171 161 145 135 130 130 131 128 126 125 126 124 123 123 124 123 121 122 119 121 120 119 119 119 119 118 117 116 114 117 119 120 123 122 122 123 125 126 127 127 128 130 130 130 133 135 132 130 126 115 111 105 88 90 93 95 98 99 102 105 96 75 62 70 75 78 84 88 88 
175 181 176 168 173 178 197 200 194 186 177 174 170 172 170 161 147 156 173 188 197 188 178 171 166 155 141 132 129 130 128 127 124 125 125 123 123 123 122 121 122 118 120 119 119 119 119 119 118 117 115 115 117 119 121 121 122 122 124 125 127 128 129 128 129 130 131 134 133 132 129 126 120 109 104 104 92 94 97 99 101 103 105 103 91 76 70 77 82 85 91 95 
170 182 182 175 168 179 186 200 201 193 185 177 176 173 174 169 154 152 163 181 193 192 180 172 166 161 148 138 130 130 128 126 125 123 126 123 121 123 122 121 122 119 120 118 118 118 118 119 119 118 116 113 118 120 122 122 121 122 123 125 127 129 130 130 129 130 131 134 131 130 130 125 120 114 103 98 101 95 98 99 102 105 106 102 99 94 79 78 84 89 92 98 
167 179 183 182 172 170 184 194 203 201 192 184 178 178 175 171 163 153 158 170 186 193 184 174 167 162 155 144 135 129 128 126 124 123 125 124 121 123 121 120 121 120 119 118 118 119 119 120 119 118 116 114 116 121 122 122 122 122 124 126 129 130 130 131 131 131 133 133 132 129 128 124 119 115 108 97 93 98 96 99 104 105 107 102 104 102 95 85 85 91 95 99 
163 175 183 184 181 170 175 192 201 204 202 191 184 179 175 172 168 158 155 163 176 190 187 176 168 164 158 149 141 132 128 126 124 122 125 123 123 123 123 121 121 121 119 117 117 118 119 120 120 118 116 114 117 118 122 121 122 122 123 126 128 131 132 133 133 134 135 135 134 129 127 122 118 112 107 102 92 89 91 95 103 105 107 105 105 106 103 96 91 92 98 102 
157 171 182 184 185 180 168 180 200 205 206 202 191 181 175 172 170 165 156 160 169 181 190 178 169 165 161 152 145 137 130 126 125 123 124 124 123 122 123 121 120 121 119 117 117 117 118 120 120 118 116 114 117 119 118 122 121 121 122 124 129 131 132 133 134 135 137 138 138 133 124 119 115 110 104 100 96 84 82 85 99 104 106 110 108 108 107 105 99 99 99 105 
148 165 178 184 186 186 178 168 188 205 208 208 201 187 178 173 170 168 161 158 164 175 184 183 171 165 163 158 148 141 135 127 124 123 125 123 122 122 123 121 120 120 118 117 116 116 117 119 119 118 117 114 117 119 118 120 122 121 121 122 126 131 132 134 135 136 138 139 140 139 127 116 112 107 103 96 92 89 76 80 90 102 107 108 112 110 109 109 106 105 106 106 
132 155 172 182 185 188 186 177 172 192 208 210 205 197 183 175 171 169 165 159 161 168 178 183 173 164 163 161 153 144 138 131 124 124 125 125 122 120 122 121 119 120 117 115 115 115 117 118 119 117 116 114 117 119 118 119 120 122 121 122 123 128 132 134 135 137 138 140 139 139 138 119 108 104 99 96 88 84 80 77 85 96 105 109 111 114 112 111 110 109 111 109 
125 138 162 179 184 187 189 189 178 173 197 211 207 203 194 180 173 169 167 162 160 164 173 178 177 165 160 161 158 148 141 135 126 123 125 125 124 120 120 121 120 120 117 115 114 114 115 118 118 116 115 113 116 117 119 118 118 120 122 122 122 123 129 134 134 137 139 139 139 137 138 133 111 100 99 97 88 80 79 80 82 90 101 107 111 113 116 114 113 114 112 112 
126 125 145 169 184 186 187 193 189 178 176 202 209 204 200 191 177 171 168 165 159 163 168 175 177 167 159 158 160 154 145 138 129 123 122 126 124 122 119 120 120 119 113 110 110 113 115 117 118 116 114 113 116 116 117 119 117 118 119 122 122 122 123 129 132 136 138 137 138 137 136 136 124 105 100 97 88 80 77 78 84 87 96 105 110 113 115 118 115 116 116 113 
127 126 126 151 176 186 187 192 193 188 177 179 204 206 201 197 188 175 169 167 163 160 166 172 173 171 158 155 157 157 150 142 133 125 121 125 125 119 114 111 109 108 106 101 99 99 103 107 111 113 114 114 116 115 116 118 118 117 118 120 122 122 122 123 129 133 136 137 136 136 136 135 129 122 105 100 88 83 77 79 82 89 92 101 108 112 115 117 119 117 117 117 
127 127 125 127 158 181 187 191 193 194 188 178 185 206 202 198 195 184 173 167 166 161 162 169 172 172 161 152 154 157 154 147 137 123 116 116 112 113 107 103 100 98 97 93 91 89 90 94 98 99 101 104 109 112 116 117 118 118 117 119 121 123 123 121 124 130 134 135 136 135 135 135 133 129 122 105 92 85 83 79 84 88 94 98 106 110 113 117 119 121 118 118 
127 127 127 125 129 164 184 192 192 194 195 189 181 191 204 197 196 194 181 171 167 164 161 165 173 171 166 152 148 155 157 147 133 122 108 108 104 101 101 96 93 89 88 83 83 81 79 81 85 87 88 89 95 99 106 117 119 120 120 119 121 122 122 122 123 124 130 133 134 134 133 134 134 132 128 120 97 91 89 86 85 89 93 100 104 110 111 117 120 120 122 119 
127 127 127 127 124 130 171 191 193 193 195 196 191 186 196 201 191 195 194 178 169 166 163 163 169 171 168 157 148 147 151 145 133 118 107 98 97 93 90 88 85 82 79 75 73 73 71 70 72 75 76 77 82 88 94 102 118 123 124 124 124 124 122 122 124 124 125 130 132 132 133 132 133 133 131 125 114 96 94 91 91 90 95 99 105 107 112 117 121 121 121 123 
127 127 127 127 126 123 133 180 193 194 195 197 198 194 191 200 196 186 195 193 175 167 166 163 167 172 168 161 142 138 143 142 133 119 102 95 86 86 82 78 78 75 72 66 64 63 63 62 61 62 66 69 74 77 85 91 100 119 129 130 130 128 126 124 123 125 125 126 129 131 131 132 131 132 132 128 123 112 97 98 97 97 96 100 104 108 113 117 121 122 122 124 
128 127 127 127 127 126 122 137 188 195 196 196 199 201 198 198 201 190 181 195 191 173 166 164 165 171 163 155 143 130 131 139 131 119 104 87 82 76 75 70 67 67 64 58 55 54 53 54 53 52 56 59 65 70 75 83 91 100 122 135 137 135 131 131 126 124 126 124 126 128 130 130 131 130 131 130 127 121 111 102 104 103 103 101 106 109 113 118 122 122 123 123 
128 128 127 127 127 127 126 122 142 193 197 198 199 202 204 202 204 197 183 178 197 187 170 165 162 162 165 149 140 126 121 129 131 120 104 87 73 71 65 63 58 56 57 51 48 46 45 43 45 47 46 49 56 62 69 75 85 93 105 126 142 142 139 137 134 127 125 125 125 127 128 129 129 129 128 129 128 126 121 111 108 110 109 109 106 111 114 119 122 123 123 124 
128 128 128 127 127 127 127 125 122 149 196 199 201 201 205 208 205 204 192 176 178 199 184 167 156 156 162 152 136 123 115 115 126 122 107 88 73 60 61 53 51 49 46 45 40 38 36 35 35 40 41 39 45 53 61 68 76 88 100 111 129 147 148 144 140 136 127 125 127 126 128 127 128 127 128 127 128 128 125 120 115 115 116 112 109 112 116 119 123 123 123 123 
128 128 128 127 127 127 127 126 125 123 156 199 202 204 205 209 209 202 203 185 170 179 200 173 156 146 156 155 137 121 107 106 114 119 111 92 74 56 49 48 40 39 36 33 29 27 25 24 28 30 34 38 41 46 52 60 69 80 94 105 114 132 154 152 147 142 137 128 127 128 128 128 127 128 127 128 127 128 128 125 120 122 120 115 111 115 117 122 123 122 123 124 
128 128 128 128 127 127 127 127 126 124 127 163 201 205 207 209 210 208 198 199 179 167 179 192 160 145 140 157 141 123 106 97 99 112 109 98 78 54 41 36 34 27 27 24 16 16 17 21 25 31 34 39 44 47 54 61 70 79 88 99 106 113 137 158 155 150 144 138 130 128 129 127 128 127 128 127 128 127 127 127 124 125 121 119 113 117 120 123 123 122 123 124 
128 128 128 127 127 127 127 126 126 126 124 132 169 203 209 211 209 209 201 196 194 172 159 176 183 148 133 138 149 125 108 95 89 98 101 97 84 57 35 28 22 22 19 20 16 15 14 19 24 28 33 36 42 49 54 62 71 81 91 100 108 111 118 141 161 158 153 146 140 131 128 128 127 127 127 127 126 127 126 127 127 125 124 120 117 119 123 123 123 123 123 123 
128 128 128 128 127 127 127 127 126 126 126 123 138 175 206 212 211 209 205 191 194 178 158 155 175 171 134 127 138 134 109 97 82 79 91 90 86 66 36 19 19 19 20 18 14 13 13 16 22 27 31 36 38 44 54 61 70 80 91 101 109 116 119 127 143 162 158 153 146 139 130 128 128 127 127 127 127 126 127 126 126 126 124 122 119 123 123 123 123 123 123 123 
128 128 128 128 128 127 127 127 127 126 126 125 123 143 181 207 211 211 205 195 183 185 158 146 153 173 157 121 126 129 116 96 83 69 75 80 80 69 46 22 16 17 17 18 12 11 10 14 19 25 29 33 37 40 46 58 68 79 88 99 108 115 118 124 135 145 160 156 150 143 136 130 128 128 127 127 126 126 126 126 126 126 125 122 123 123 123 123 123 123 123 124 
128 128 128 128 128 127 127 127 127 127 126 126 125 122 149 186 205 210 209 195 185 173 171 137 139 153 170 142 109 120 112 101 83 68 59 67 70 76 57 31 15 13 14 15 12 9 9 11 17 23 28 32 35 39 41 47 63 74 85 93 101 108 114 124 130 140 147 156 152 145 139 134 128 127 127 126 127 126 126 125 126 125 124 123 123 123 123 123 123 123 123 124 
129 128 128 128 128 127 127 127 127 127 127 126 126 125 122 152 189 204 209 200 188 173 166 152 119 135 152 164 124 102 108 95 89 69 55 60 66 71 66 43 18 12 11 12 10 8 7 9 14 20 25 30 34 37 41 43 50 67 78 86 93 101 107 118 128 134 142 145 150 146 141 136 131 127 127 127 126 126 125 125 125 125 123 123 123 123 123 123 123 123 123 124 
128 129 128 128 128 128 127 127 127 127 127 127 126 126 125 121 154 192 203 208 200 181 165 158 131 103 135 151 155 106 96 91 81 80 60 53 62 66 66 53 26 11 10 9 9 6 5 6 11 17 23 28 32 35 38 43 45 53 69 78 85 93 98 111 122 130 133 139 142 145 140 136 132 128 126 127 127 125 125 124 124 123 123 123 123 123 123 123 123 123 123 124 
129 129 128 128 128 128 128 127 127 127 127 127 127 126 126 125 121 154 193 201 208 193 175 157 148 110 93 131 149 142 94 82 77 77 75 51 57 63 63 56 40 22 13 12 18 17 13 5 9 14 20 26 30 34 37 41 46 46 53 69 78 85 91 103 114 123 128 129 135 140 139 136 132 130 127 126 126 125 124 124 123 123 123 123 123 123 123 123 123 123 123 124 
129 129 128 128 128 128 128 128 127 127 127 127 127 127 126 126 125 121 152 189 200 200 186 168 150 135 92 85 126 146 126 81 76 74 77 64 48 61 66 66 49 31 17 12 21 29 31 25 10 14 19 25 30 35 39 41 44 45 45 54 69 78 91 97 106 115 121 124 125 133 138 134 132 130 128 126 125 125 124 123 123 123 123 123 123 123 123 123 123 123 123 124 
129 128 128 128 128 128 128 128 128 127 127 127 127 127 127 126 126 125 122 149 182 196 193 180 161 144 118 80 83 120 140 114 73 73 73 72 56 54 60 62 54 34 19 14 10 20 35 33 29 20 20 23 29 35 40 44 44 45 46 47 54 74 86 96 101 108 114 119 122 124 134 134 131 130 128 126 125 124 124 123 123 123 123 123 123 123 123 123 123 123 123 124 
129 129 128 128 128 128 128 128 128 127 127 127 127 127 127 127 126 126 125 122 144 175 192 186 174 152 136 106 74 80 113 139 104 68 73 76 61 52 55 58 52 41 20 17 13 8 20 35 33 31 30 27 27 34 40 44 45 44 46 47 52 65 82 92 100 102 108 113 118 122 125 133 131 129 128 125 125 124 123 123 123 123 123 123 123 123 123 123 123 123 123 124 
129 129 129 128 128 128 128 128 128 128 127 127 127 127 127 127 127 127 126 125 123 138 168 186 180 166 141 130 98 69 84 117 135 94 67 69 68 50 58 52 51 44 31 13 15 10 8 20 35 33 33 41 36 35 39 44 45 46 45 51 60 64 76 88 96 102 103 109 114 120 125 129 131 129 127 125 123 123 124 123 123 123 123 123 123 123 123 123 123 123 123 124 
129 129 129 129 128 128 128 128 128 127 127 127 127 127 127 127 126 127 127 126 125 123 133 160 180 173 156 134 126 95 72 92 116 121 80 63 64 57 54 58 49 44 36 20 12 12 9 8 20 35 38 43 58 51 46 46 45 45 51 57 62 71 73 85 94 100 105 106 112 117 124 131 131 129 126 124 124 123 123 124 123 123 123 123 123 123 123 123 123 123 123 124 
129 129 129 128 128 128 128 128 128 128 127 127 127 127 127 127 127 126 127 127 126 126 124 128 153 173 164 148 134 121 98 76 97 110 105 66 59 60 58 59 56 44 37 25 14 10 10 10 8 21 45 55 60 75 64 56 46 49 56 62 67 72 80 83 94 100 104 110 111 117 124 131 130 128 126 123 124 123 123 123 123 123 123 123 123 123 123 123 123 123 123 124 
129 129 129 128 128 128 128 128 128 128 128 127 127 127 127 127 127 127 126 127 127 127 126 125 125 146 165 156 148 132 125 96 77 102 104 87 56 59 59 62 58 50 38 28 16 13 8 10 10 13 38 63 70 77 89 74 62 57 58 65 71 76 81 89 91 102 107 111 116 117 124 130 130 128 125 124 123 123 123 123 124 123 123 123 123 123 123 123 123 123 123 124 
