P2
100 100
255
255 255 255 255 255 255 255 255 255 255 255 255 255 255 255 255 255 255 255 255 255 255 255 255 255 255 255 255 255 255 255 255 255 255 255 255 255 255 255 255 255 255 255 255 255 255 255 255 255 255 255 255 255 255 255 255 255 255 255 255 255 255 255 255 255 255 255 255 255 255 255 255 255 255 255 255 255 255 255 255 255 255 255 255 255 255 255 255 255 255 255 255 255 255 255 255 255 255 255 255 
255 255 255 255 255 255 255 255 255 255 255 255 255 255 255 255 255 255 255 255 255 255 255 255 255 255 255 255 255 255 255 255 255 255 255 255 255 255 255 255 255 255 255 255 255 255 255 255 255 255 255 255 255 255 255 255 255 255 255 255 255 255 255 255 255 255 255 255 255 255 255 255 255 255 255 255 255 255 255 255 255 255 255 255 255 255 255 255 255 255 255 255 255 255 255 255 255 255 255 255 
255 255 255 255 255 255 255 255 255 255 255 255 255 255 255 255 255 255 255 255 255 255 255 255 255 255 255 255 255 255 255 255 255 255 255 255 255 255 255 255 255 255 255 255 255 255 255 255 255 255 255 255 255 255 255 255 255 255 255 255 255 255 255 255 255 255 255 255 255 255 255 255 255 255 255 255 255 255 255 255 255 255 255 255 255 255 255 255 255 255 255 255 255 255 255 255 255 255 255 255 
255 255 255 255 255 255 255 255 255 255 255 255 255 255 255 255 255 255 255 255 255 255 255 255 255 255 255 255 255 255 255 255 255 255 255 255 255 255 255 255 255 255 255 255 255 255 255 255 255 255 255 255 255 255 255 255 255 255 255 255 255 255 255 255 255 255 255 255 255 255 255 255 255 255 255 255 255 255 255 255 255 255 255 255 255 255 255 255 255 255 255 255 255 255 255 255 255 255 255 255 
255 255 255 255 255 255 255 255 255 255 255 255 255 255 255 255 255 255 255 255 255 255 255 255 255 255 255 255 255 255 255 255 255 255 255 255 255 255 255 255 255 255 255 255 255 255 255 255 255 255 255 255 255 255 255 255 255 255 255 255 255 255 255 255 255 255 255 255 255 255 255 255 255 255 255 255 255 255 255 255 255 255 255 255 255 255 255 255 255 255 255 255 255 255 255 255 255 255 255 255 
255 255 255 255 255 255 255 255 255 255 255 255 255 255 255 255 255 255 255 255 255 255 255 255 255 255 255 255 255 255 255 255 255 255 255 255 255 255 255 255 255 255 255 255 255 255 255 255 255 255 255 255 255 255 255 255 255 255 255 255 255 255 255 255 255 255 255 255 255 255 255 255 255 255 255 255 255 255 255 255 255 255 255 255 255 255 255 255 255 255 255 255 255 255 255 255 255 255 255 255 
255 255 255 255 255 255 255 255 255 255 255 255 255 255 255 255 255 255 255 255 255 255 255 255 255 255 255 255 255 255 255 255 255 255 255 255 255 255 255 255 255 255 255 255 255 255 255 255 255 255 255 255 255 255 255 255 255 255 255 255 255 255 255 255 255 255 255 255 255 255 255 255 255 255 255 255 255 255 255 255 255 255 255 255 255 255 255 255 255 255 255 255 255 255 255 255 255 255 255 255 
255 255 255 255 255 255 255 255 255 255 255 255 255 255 255 255 255 255 255 255 255 255 255 255 255 255 255 255 255 255 255 255 255 255 255 255 255 255 255 255 255 255 255 255 255 255 255 255 255 255 255 255 255 255 255 255 255 255 248 255 255 255 255 255 255 255 255 255 255 255 255 255 255 255 255 255 255 255 255 255 255 255 255 255 255 255 255 255 255 255 255 255 255 255 255 255 255 255 255 255 
255 255 255 255 255 255 255 255 255 255 255 255 255 255 255 255 255 255 255 255 255 255 255 255 255 255 255 255 255 255 255 255 255 255 255 255 255 255 255 255 255 255 255 255 255 255 255 255 255 230 255 255 255 255 255 255 255 255 218 255 255 255 255 255 255 255 255 255 255 255 255 255 255 255 255 255 255 255 255 255 255 255 255 255 255 255 255 255 255 255 255 255 255 255 255 255 255 255 255 255 
255 255 255 255 255 255 255 255 255 255 255 255 255 255 255 255 255 255 255 255 255 255 255 255 255 255 255 255 255 255 255 255 255 255 255 255 255 255 255 255 255 255 255 255 255 255 255 255 236 255 255 255 255 255 255 255 255 227 201 255 255 255 255 255 255 255 255 255 255 255 255 255 255 255 255 255 255 255 255 255 255 255 255 255 255 255 255 255 255 255 255 255 255 255 255 255 255 255 255 255 
255 255 255 255 255 255 255 255 255 255 255 255 255 255 255 255 255 255 255 255 255 255 255 255 255 255 255 255 255 255 255 255 255 255 255 255 255 255 255 255 255 255 255 255 255 255 255 227 246 255 255 255 255 255 255 255 255 185 195 255 255 255 255 255 255 255 255 255 255 255 255 255 255 255 255 255 255 255 255 255 255 255 255 255 255 255 255 255 255 255 255 255 255 255 255 255 255 255 255 255 
255 255 255 255 255 255 255 255 255 255 255 255 255 255 255 255 255 255 255 255 255 255 255 255 255 255 255 255 255 255 255 255 255 255 255 255 255 255 255 255 255 255 210 204 255 255 242 200 255 255 242 255 255 255 255 248 230 168 194 255 255 255 255 255 255 255 255 255 255 255 255 255 255 255 255 255 255 255 255 255 255 255 255 255 255 255 255 255 255 255 255 255 255 255 255 255 255 255 255 255 
255 255 255 255 255 255 255 255 255 255 255 255 255 255 255 255 255 255 255 255 255 252 245 255 255 255 255 255 255 255 255 255 255 255 255 255 198 222 203 221 210 255 168 155 218 198 212 255 255 255 255 255 255 249 240 251 164 159 231 255 255 255 255 255 255 255 255 255 255 255 255 255 255 255 255 255 255 255 255 255 255 255 255 255 255 255 255 255 255 255 255 255 255 255 255 255 255 255 255 255 
255 255 255 255 255 255 255 255 255 255 255 255 255 255 255 255 255 255 255 255 255 255 255 242 216 255 255 255 255 255 255 248 188 189 255 243 159 159 146 150 183 255 134 140 206 198 255 255 255 255 255 252 252 255 242 203 144 180 255 255 255 255 255 255 255 255 255 255 255 255 255 255 255 255 255 255 255 255 255 255 255 255 255 255 255 255 255 255 255 255 255 255 255 255 255 255 255 255 255 255 
255 255 255 255 255 255 255 255 255 255 255 255 255 255 255 255 255 255 255 255 255 255 255 255 255 216 204 255 255 255 255 243 158 111 213 252 108 129 128 119 107 252 116 111 200 224 255 255 255 255 237 255 255 255 236 153 152 255 246 246 255 255 255 255 255 255 255 255 255 255 255 255 255 255 255 255 255 255 255 255 255 255 255 255 255 255 255 255 255 255 255 255 255 255 255 255 255 255 255 255 
255 255 255 255 255 255 255 255 255 255 255 255 255 255 255 255 255 255 255 255 255 255 255 255 255 255 255 194 173 180 182 189 161 78 134 255 90 95 93 90 54 210 155 84 197 230 255 255 255 251 251 255 255 255 173 150 255 255 245 242 255 255 255 255 255 255 255 255 255 255 255 255 255 255 255 255 255 255 255 255 255 255 255 255 255 255 255 255 255 255 255 255 255 255 255 255 255 255 255 255 
255 255 255 255 255 255 255 255 255 255 255 255 255 255 255 255 255 255 255 255 255 255 255 255 255 255 255 255 255 198 165 134 147 69 83 252 117 51 81 80 48 180 200 57 191 249 255 255 245 252 255 255 255 225 164 255 227 255 248 255 255 255 255 255 255 255 255 255 255 255 255 255 255 255 255 255 255 255 255 255 255 255 255 255 255 255 255 255 255 255 255 255 255 255 255 255 255 255 255 255 
255 255 255 255 255 255 255 255 255 255 255 255 255 255 255 255 255 206 240 255 221 243 255 255 255 255 255 255 255 255 231 156 150 75 68 237 140 32 50 65 50 149 230 72 162 218 249 254 242 255 255 255 255 189 255 255 255 255 246 252 255 255 255 255 255 255 255 255 255 255 255 255 255 255 255 255 255 255 255 255 255 255 255 255 255 255 255 255 255 255 255 255 255 255 255 255 255 255 255 255 
255 255 255 255 255 255 255 255 255 255 255 255 255 255 255 255 255 255 192 147 219 243 164 173 225 255 255 255 248 255 255 198 164 96 66 213 180 47 27 51 50 134 242 113 98 161 221 227 237 255 255 255 227 255 255 255 255 246 201 255 255 255 255 255 255 255 255 255 255 255 255 255 255 255 255 255 255 255 255 255 255 255 255 255 255 255 255 255 255 255 255 255 255 255 255 255 255 255 255 255 
255 255 255 255 255 255 255 255 255 255 255 255 255 255 255 255 255 246 233 234 174 153 207 255 207 167 224 246 234 225 245 210 155 102 83 185 200 47 26 39 50 123 255 131 57 123 189 207 255 255 255 239 249 255 255 255 246 158 255 255 255 255 255 255 255 255 255 255 255 255 255 255 255 255 255 255 255 255 255 255 255 255 255 255 255 255 255 255 255 255 255 255 255 255 255 255 255 255 255 255 
255 255 255 255 255 255 255 255 255 255 255 255 255 255 255 255 255 255 209 150 171 203 198 159 221 255 242 243 255 234 231 198 158 137 77 162 224 66 29 36 44 102 251 122 71 99 162 225 248 255 246 242 255 255 252 200 143 255 255 255 255 255 255 255 255 255 255 255 255 255 255 255 255 255 255 255 255 255 255 255 255 255 255 255 255 255 255 255 255 255 255 255 255 255 255 255 255 255 255 255 
255 255 255 255 255 255 255 255 255 255 255 255 255 255 255 255 255 255 255 246 147 95 92 164 174 176 255 255 255 255 242 219 162 141 107 156 221 110 42 44 44 78 243 129 81 95 191 216 221 234 221 255 255 243 147 150 255 255 255 255 255 249 239 224 240 255 255 255 255 255 255 255 255 255 255 255 255 255 255 255 255 255 255 255 255 255 255 255 255 255 255 255 255 255 255 255 255 255 255 255 
255 255 255 255 255 255 255 255 255 255 255 255 255 255 255 255 255 255 254 201 203 255 255 246 228 213 248 255 255 255 251 242 212 164 123 134 192 198 66 65 51 68 221 122 99 170 191 192 179 206 255 254 194 146 186 243 255 234 225 206 209 171 170 215 255 255 255 255 255 255 255 255 255 255 255 255 255 255 255 255 255 255 255 255 255 255 255 255 255 255 255 255 255 255 255 255 255 255 255 255 
255 255 255 255 255 255 255 255 255 255 255 255 255 255 255 255 255 255 255 236 209 158 180 255 255 255 255 255 255 252 255 230 189 137 93 93 159 221 128 96 60 59 188 152 161 203 152 144 189 234 255 221 179 185 233 254 212 197 167 150 164 141 179 255 255 255 243 254 255 255 255 255 255 255 255 255 255 255 255 255 255 255 255 255 255 255 255 255 255 255 255 255 255 255 255 255 255 255 255 255 
255 255 255 255 255 255 255 255 255 255 255 255 255 255 255 255 255 255 255 255 252 222 201 185 215 255 255 255 249 231 218 215 204 176 143 105 126 159 176 125 62 59 173 177 227 204 126 131 245 255 255 218 203 236 255 255 228 206 189 167 162 191 255 251 218 219 255 255 255 255 255 255 255 255 255 255 255 255 255 255 255 255 255 255 255 255 255 255 255 255 255 255 255 255 255 255 255 255 255 255 
255 255 255 255 255 255 255 255 255 255 255 255 255 255 255 255 255 255 255 255 255 255 255 255 255 255 255 255 255 255 243 239 240 237 227 174 182 164 143 156 92 62 188 177 255 225 96 164 255 255 242 230 239 255 255 255 234 224 213 218 225 255 243 201 221 255 255 255 255 255 255 255 255 255 255 255 255 255 255 255 255 255 255 255 255 255 255 255 255 255 255 255 255 255 255 255 255 255 255 255 
255 255 255 255 255 255 255 255 255 255 255 255 255 255 255 255 255 255 255 255 255 255 255 255 255 255 255 255 255 255 255 252 234 222 219 192 251 246 188 152 125 77 222 207 255 239 107 216 255 255 248 242 255 255 255 252 246 255 255 255 255 255 224 218 228 255 255 255 255 255 255 255 255 255 255 255 255 255 255 255 255 255 255 255 255 255 255 255 255 255 255 255 255 255 255 255 255 255 255 255 
255 255 255 255 255 255 255 255 255 255 255 255 255 255 255 255 255 255 255 255 255 255 255 255 255 255 255 255 255 255 255 255 255 252 209 156 246 255 255 180 168 105 228 234 255 240 126 210 255 242 246 245 255 255 248 254 254 255 255 255 255 227 225 218 254 242 212 200 200 240 255 255 255 255 255 255 255 255 255 255 255 255 255 255 255 255 255 255 255 255 255 255 255 255 255 255 255 255 255 255 
255 255 255 255 255 255 255 255 255 255 255 255 255 255 255 255 255 255 255 255 255 255 255 255 255 255 255 255 248 254 255 255 255 255 255 185 185 255 255 231 192 152 221 255 255 237 144 212 234 150 119 132 183 212 227 216 255 255 255 255 218 206 234 254 233 194 150 162 174 176 209 255 255 255 255 255 255 255 255 255 255 255 255 255 255 255 255 255 255 255 255 255 255 255 255 255 255 255 255 255 
255 255 255 255 255 255 255 255 255 255 255 255 255 255 255 255 255 255 255 254 243 234 233 242 251 255 254 248 228 222 200 213 254 255 255 243 161 255 255 255 212 198 209 251 255 228 177 224 87 39 39 47 75 144 183 215 248 239 192 158 185 231 230 221 188 162 159 167 240 255 255 255 255 255 255 255 255 255 255 255 255 255 255 255 255 255 255 255 255 255 255 255 255 255 255 255 255 255 255 255 
255 255 255 255 255 255 255 255 255 255 255 255 255 255 255 255 255 255 255 237 210 194 197 203 215 227 245 245 242 246 219 215 233 242 255 255 176 245 255 255 230 219 206 231 222 212 219 125 26 83 53 45 86 75 150 170 146 155 144 179 192 168 132 108 98 102 128 173 210 254 255 255 255 255 255 255 255 255 255 255 255 255 255 255 255 255 255 255 255 255 255 255 255 255 255 255 255 255 255 255 
255 255 255 255 255 255 255 255 255 255 255 255 255 255 255 255 255 255 231 207 177 146 129 150 189 225 255 255 255 255 255 255 255 255 255 255 252 218 255 255 231 243 222 209 183 225 225 63 54 176 47 24 89 131 206 237 255 255 245 189 134 84 59 44 53 71 131 168 225 255 255 255 255 255 255 255 255 255 255 255 255 255 255 255 255 255 255 255 255 255 255 255 255 255 255 255 255 255 255 255 
255 255 255 255 255 255 255 255 255 255 255 255 255 255 255 255 255 255 254 201 176 174 195 219 246 254 255 255 255 255 255 255 203 98 65 89 165 240 255 255 236 240 237 195 167 236 230 45 107 81 21 29 93 144 242 255 255 255 237 197 138 81 45 41 59 77 89 120 140 182 252 255 255 255 255 255 255 255 255 255 255 255 255 255 255 255 255 255 255 255 255 255 255 255 255 255 255 255 255 255 
255 255 255 255 255 255 255 255 255 255 255 255 255 255 255 255 255 231 227 243 245 255 255 255 255 255 255 255 255 255 246 200 89 65 48 59 63 101 255 255 252 236 242 204 185 228 225 36 111 156 122 117 138 158 255 255 255 255 245 201 123 98 74 45 45 50 63 63 92 122 183 255 255 255 255 255 255 255 255 255 255 255 255 255 255 255 255 255 255 255 255 255 255 255 255 255 255 255 255 255 
255 255 255 255 255 255 255 255 255 255 255 255 255 255 255 255 255 218 156 116 122 116 126 167 222 255 255 255 255 255 227 137 84 71 233 60 128 122 173 255 255 243 255 221 209 209 236 74 38 98 135 120 93 239 255 245 255 254 213 180 182 177 153 125 111 105 107 135 149 197 255 255 255 255 255 255 255 255 255 255 255 255 255 255 255 255 255 255 255 255 255 255 255 255 255 255 255 255 255 255 
255 255 255 255 255 255 255 255 255 255 255 255 255 255 255 255 245 239 245 236 210 174 171 188 225 255 255 255 255 255 162 120 131 63 35 24 114 144 80 255 255 255 255 245 239 191 216 143 134 75 69 119 219 255 225 242 222 216 212 204 213 207 213 221 219 206 170 155 176 177 186 227 255 255 255 255 255 255 255 255 255 255 255 255 255 255 255 255 255 255 255 255 255 255 255 255 255 255 255 255 
255 255 255 255 255 255 255 255 255 255 255 255 255 255 255 255 255 255 255 255 255 255 255 255 255 255 255 242 182 149 188 180 152 90 53 65 168 108 90 213 243 243 255 249 255 234 189 144 188 218 240 252 240 209 203 204 207 189 164 161 186 237 237 233 204 161 117 74 74 102 167 215 255 255 255 255 255 255 255 255 255 255 255 255 255 255 255 255 255 255 255 255 255 255 255 255 255 255 255 255 
255 255 255 255 255 255 255 255 255 255 255 255 255 255 255 255 255 255 252 218 218 237 237 224 180 132 90 125 216 255 255 249 143 155 170 159 143 120 191 180 200 245 240 236 213 194 197 165 152 206 227 203 167 138 170 182 182 201 228 255 255 255 233 210 159 98 84 95 119 159 216 255 255 255 255 255 255 255 255 255 255 255 255 255 255 255 255 255 255 255 255 255 255 255 255 255 255 255 255 255 
255 255 255 255 255 255 255 255 255 255 255 255 255 255 255 255 255 255 234 221 197 173 140 105 93 89 192 255 255 255 255 255 255 155 110 110 122 194 206 177 189 231 213 242 252 189 138 164 146 159 147 147 165 188 177 213 255 255 255 255 255 237 222 203 203 198 203 216 230 255 255 255 255 255 255 255 255 255 255 255 255 255 255 255 255 255 255 255 255 255 255 255 255 255 255 255 255 255 255 255 
255 255 255 255 255 255 255 255 255 255 255 255 255 255 255 255 255 222 165 152 159 140 105 75 87 156 225 246 255 255 255 239 251 255 255 255 255 255 224 180 183 201 227 254 254 227 177 164 176 167 170 177 159 186 219 246 255 255 255 255 255 255 255 251 228 213 218 227 237 255 255 255 255 255 255 255 255 255 255 255 255 255 255 255 255 255 255 255 255 255 255 255 255 255 255 255 255 255 255 255 
255 255 255 255 255 255 255 255 255 255 255 255 255 255 255 255 198 183 186 159 153 92 77 89 120 173 191 213 233 242 240 219 174 146 146 149 162 177 186 183 207 195 233 233 215 183 162 141 207 210 194 182 207 219 234 248 255 255 255 255 255 249 228 216 203 192 170 149 144 167 210 255 255 255 255 255 255 255 255 255 255 255 255 255 255 255 255 255 255 255 255 255 255 255 255 255 255 255 255 255 
255 255 255 255 255 255 255 255 255 255 255 255 255 255 255 215 207 198 212 210 146 119 114 165 224 255 255 255 255 255 242 215 192 176 161 144 158 167 189 222 237 215 182 171 173 134 123 210 251 242 228 224 219 236 255 255 239 242 246 255 246 218 198 185 159 156 182 204 182 141 125 162 218 255 255 255 255 255 255 255 255 255 255 255 255 255 255 255 255 255 255 255 255 255 255 255 255 255 255 255 
255 255 255 255 255 255 255 255 255 255 255 255 255 255 248 233 231 216 246 219 192 191 201 228 240 252 255 255 255 255 255 255 255 255 245 228 218 210 222 237 255 255 210 165 155 123 177 233 243 242 243 255 248 200 183 210 237 240 206 173 171 206 198 149 162 180 147 122 120 126 116 120 147 183 252 255 255 255 255 255 255 255 255 255 255 255 255 255 255 255 255 255 255 255 255 255 255 255 255 255 
255 255 255 255 255 255 255 255 255 255 255 255 255 255 255 255 222 255 239 212 180 174 179 189 219 248 255 255 255 255 255 255 255 255 255 255 255 255 255 255 255 243 243 231 176 173 245 255 255 254 227 197 209 212 246 255 255 255 255 252 207 165 158 189 159 117 173 173 107 77 66 68 116 170 239 255 255 255 255 255 255 255 255 255 255 255 255 255 255 255 255 255 255 255 255 255 255 255 255 255 
255 255 255 255 255 255 255 255 255 255 255 255 255 255 255 248 255 230 194 168 146 140 183 194 215 251 255 255 255 255 255 255 255 255 255 255 255 255 248 255 255 255 255 245 201 189 221 221 233 245 249 237 222 239 246 254 255 255 234 233 255 252 195 149 177 170 114 104 155 92 35 50 62 123 188 255 255 255 255 255 255 255 255 255 255 255 255 255 255 255 255 255 255 255 255 255 255 255 255 255 
255 255 255 255 255 255 255 255 255 255 255 255 255 255 255 255 246 230 206 168 143 116 105 135 195 230 249 255 255 255 255 255 255 255 255 255 255 255 255 255 255 255 248 195 155 176 159 162 155 176 186 209 219 221 230 224 213 227 230 159 114 159 224 240 161 171 165 98 57 113 111 47 38 89 198 255 255 255 255 255 255 255 255 255 255 255 255 255 255 255 255 255 255 255 255 255 255 255 255 255 
255 255 255 255 255 255 255 255 255 255 255 255 255 255 255 255 255 246 186 119 84 63 104 191 222 221 201 185 237 255 255 255 255 255 255 255 255 255 255 255 255 255 156 137 197 219 248 230 194 171 159 168 207 215 236 248 237 215 200 243 209 126 72 113 209 206 194 168 92 47 59 137 149 143 216 255 255 255 255 255 255 255 255 255 255 255 255 255 255 255 255 255 255 255 255 255 255 255 255 255 
255 255 255 255 255 255 255 255 255 255 255 255 255 255 255 255 255 219 117 77 123 186 225 224 228 201 203 255 255 237 234 237 236 255 255 255 255 255 255 255 246 153 159 243 255 255 255 255 255 255 255 255 255 255 255 255 255 255 239 212 240 255 246 188 122 129 159 192 182 146 84 53 120 164 194 212 255 255 255 255 255 255 255 255 255 255 255 255 255 255 255 255 255 255 255 255 255 255 255 255 
255 255 255 255 255 255 255 255 255 255 255 255 255 255 255 255 255 174 143 198 200 204 233 228 225 240 210 195 191 192 197 195 255 255 255 255 255 255 255 255 188 177 252 255 255 255 255 255 255 255 255 255 255 255 255 255 255 255 254 225 189 185 233 252 237 189 179 170 164 170 186 164 122 162 215 243 255 255 255 255 255 255 255 255 255 255 255 255 255 255 255 255 255 255 255 255 255 255 255 255 
255 255 255 255 255 255 255 255 255 255 255 255 255 255 255 255 240 243 255 234 252 240 255 255 255 207 162 146 167 203 197 254 255 255 255 255 255 255 255 225 230 254 255 255 255 255 255 255 255 255 255 255 255 255 255 255 255 255 234 206 173 132 83 140 203 180 182 189 164 134 144 140 132 104 93 144 174 207 255 255 255 255 255 255 255 255 255 255 255 255 255 255 255 255 255 255 255 255 255 255 
255 255 255 255 255 255 255 255 255 255 255 255 255 255 255 255 255 255 255 255 255 255 255 255 216 147 114 140 228 219 255 255 255 227 224 255 255 255 255 255 255 255 255 255 255 255 255 255 255 255 255 255 255 255 255 251 239 255 255 234 156 144 108 60 62 137 164 149 170 188 150 122 129 84 69 69 104 177 252 255 255 255 255 255 255 255 255 255 255 255 255 255 255 255 255 255 255 255 255 255 
255 255 255 255 255 255 255 255 255 255 255 255 255 255 255 255 255 255 255 255 239 219 222 215 153 102 116 221 248 245 255 206 183 180 255 255 255 255 255 255 255 255 255 255 255 255 255 255 255 255 255 255 255 255 255 255 233 134 143 209 240 158 101 105 87 74 102 158 135 128 134 179 120 107 60 68 104 188 255 255 255 255 255 255 255 255 255 255 255 255 255 255 255 255 255 255 255 255 255 255 
255 255 255 255 255 255 255 255 255 255 255 255 255 255 255 255 255 255 255 234 171 177 197 158 122 125 200 255 245 243 198 144 186 255 255 243 215 255 255 255 255 255 255 255 255 255 255 255 255 255 249 242 234 191 216 236 255 254 137 84 119 182 156 75 57 59 80 87 119 176 128 81 132 123 75 77 87 110 147 246 255 255 255 255 255 255 255 255 255 255 255 255 255 255 255 255 255 255 255 255 
255 255 255 255 255 255 255 255 255 255 255 255 255 255 255 255 255 255 255 152 131 170 125 147 161 204 249 236 207 213 131 152 246 255 222 171 251 255 255 255 255 255 255 255 255 255 255 255 225 230 195 188 194 161 111 141 189 248 255 170 98 81 126 147 78 51 78 83 78 111 180 114 54 83 83 45 69 86 95 140 198 255 255 255 255 255 255 255 255 255 255 255 255 255 255 255 255 255 255 255 
255 255 255 255 255 255 255 255 255 255 255 254 234 255 255 251 255 255 195 141 167 114 164 185 209 227 180 162 185 149 114 188 242 236 141 198 255 255 236 228 255 255 255 255 255 255 255 255 204 209 138 96 143 186 158 81 77 125 189 242 186 113 74 89 119 93 84 66 75 92 90 161 81 41 74 62 68 137 204 246 255 255 255 255 255 255 255 255 255 255 255 255 255 255 255 255 255 255 255 255 
255 255 255 255 255 255 255 255 255 255 198 149 89 123 204 212 198 204 170 177 140 200 212 227 210 111 92 152 152 137 134 177 245 131 114 237 255 243 174 204 222 254 255 255 255 240 227 252 231 200 159 113 83 108 159 129 59 68 99 126 182 186 161 107 95 107 114 101 87 93 66 86 128 50 26 75 47 60 117 221 255 255 255 255 255 255 255 255 255 255 255 255 255 255 255 255 255 255 255 255 
255 255 255 255 255 255 255 255 255 255 155 92 80 68 108 180 198 189 215 216 230 252 231 185 80 65 111 105 152 143 137 174 216 72 155 224 255 188 156 168 192 215 237 234 254 242 203 213 255 222 186 150 137 104 72 108 84 47 84 173 149 80 75 104 102 126 140 132 138 129 66 57 86 104 47 54 92 74 111 186 239 255 255 255 255 255 255 255 255 255 255 255 255 255 255 255 255 255 255 255 
255 255 255 255 255 255 255 255 255 254 141 111 101 95 156 194 203 240 255 255 255 210 159 60 53 80 78 120 155 153 149 224 113 83 161 194 249 134 119 128 165 170 195 255 255 201 197 180 221 245 194 135 119 125 80 47 68 57 39 74 188 215 113 39 57 78 128 167 174 192 165 74 38 53 75 45 57 134 158 200 255 255 255 255 255 255 255 255 255 255 255 255 255 255 255 255 255 255 255 255 
255 255 255 255 255 255 255 255 255 255 131 99 113 149 174 221 245 255 255 230 203 134 56 57 74 72 149 161 171 155 194 168 53 111 159 189 210 108 110 125 140 155 243 255 201 174 177 201 158 219 198 150 113 87 111 39 33 35 51 57 41 138 254 201 72 41 81 167 165 158 186 173 92 33 26 54 51 57 146 234 255 255 255 255 255 255 255 255 255 255 255 255 255 255 255 255 255 255 255 255 
255 255 255 255 255 255 255 255 255 255 212 129 96 89 122 140 198 186 173 153 101 74 50 122 126 174 197 152 134 164 209 86 48 137 159 191 176 96 135 147 198 245 245 185 144 156 167 200 128 147 206 138 132 102 93 81 33 26 12 35 75 30 63 201 255 183 63 65 153 152 132 162 140 107 50 42 63 83 87 125 230 255 255 255 255 255 255 255 255 255 255 255 255 255 255 255 255 255 255 255 
255 255 255 255 255 255 255 255 255 255 255 132 92 98 110 125 68 69 105 98 114 77 162 180 212 216 155 69 143 218 131 93 113 180 143 183 126 143 180 195 206 164 144 111 161 165 158 197 132 128 173 195 122 144 117 68 65 32 35 20 42 116 53 21 75 225 255 174 92 95 113 86 123 141 108 116 134 135 122 141 156 204 255 255 255 255 255 255 255 255 255 255 255 255 255 255 255 255 255 255 
255 255 255 255 255 255 255 255 255 255 255 204 119 137 102 60 53 59 99 161 128 156 201 207 219 162 56 72 168 215 117 131 176 143 120 164 113 99 117 138 128 138 120 125 173 173 177 209 138 111 150 204 183 161 165 122 69 68 47 83 29 80 141 50 36 39 117 255 233 123 111 116 59 68 128 105 92 165 188 225 255 255 255 255 255 255 255 255 255 255 255 255 255 255 255 255 255 255 255 255 
255 255 255 255 255 255 255 255 255 255 255 255 233 141 104 68 62 84 138 189 182 221 207 218 177 44 59 90 233 185 165 179 219 140 129 173 125 137 156 141 152 131 129 182 192 198 198 239 164 123 138 180 234 255 251 213 171 98 102 74 134 57 123 147 74 63 74 74 170 255 167 105 141 101 47 50 63 45 116 204 249 255 255 255 255 255 255 255 255 255 255 255 255 255 255 255 255 255 255 255 
255 255 255 255 255 255 255 255 255 255 255 255 255 237 165 119 132 144 206 221 227 200 224 155 57 71 95 147 252 162 204 237 210 126 200 162 177 215 177 201 188 153 210 224 216 197 230 221 255 114 153 209 204 219 242 255 225 171 141 108 107 183 113 140 147 89 81 81 80 123 237 236 153 177 152 104 72 53 65 120 255 255 255 255 255 255 255 255 255 255 255 255 255 255 255 255 255 255 255 255 
255 255 255 255 255 255 255 255 255 255 255 255 255 255 255 237 192 221 221 251 218 209 137 65 105 146 131 209 230 185 246 237 195 186 216 212 245 230 200 242 203 243 255 255 254 198 198 234 255 227 122 219 245 255 251 245 255 236 177 171 96 125 200 159 95 90 39 62 104 137 158 204 255 255 255 222 185 116 99 135 221 255 255 255 255 255 255 255 255 255 255 255 255 255 255 255 255 255 255 255 
255 255 255 255 255 255 255 255 255 255 255 255 255 255 255 255 255 255 248 237 224 143 92 150 189 173 146 243 206 240 254 222 153 210 216 255 255 207 255 252 230 255 255 255 255 248 248 207 222 255 134 192 248 240 255 228 255 246 218 203 155 78 90 161 156 57 59 24 29 84 155 207 219 255 254 255 255 234 203 200 224 255 255 255 255 255 255 255 255 255 255 255 255 255 255 255 255 255 255 255 
255 255 255 255 255 255 255 255 255 255 255 255 255 255 255 255 255 255 255 254 186 114 191 216 212 195 207 234 240 248 224 183 143 191 255 255 231 224 255 251 246 255 255 255 255 255 255 255 251 234 179 147 254 236 216 195 255 254 185 246 207 125 69 102 149 108 59 45 30 18 48 116 189 215 236 243 192 149 185 234 252 255 255 255 255 255 255 255 255 255 255 255 255 255 255 255 255 255 255 255 
255 255 255 255 255 255 255 255 255 255 255 255 255 255 255 255 255 255 255 246 162 222 254 243 192 179 207 239 227 177 137 110 158 234 237 222 186 249 248 255 255 255 255 255 255 255 255 255 255 255 221 155 221 246 183 137 255 255 182 221 188 203 123 111 159 146 74 57 50 47 47 63 117 140 167 176 174 132 122 177 251 255 255 255 255 255 255 255 255 255 255 255 255 255 255 255 255 255 255 255 
255 255 255 255 255 255 255 255 255 255 255 255 255 255 255 255 255 255 255 225 237 255 255 168 171 150 227 188 129 98 75 126 170 185 141 158 200 215 248 255 246 255 255 255 255 255 255 255 255 255 255 198 221 233 170 107 255 255 165 219 131 159 191 93 87 143 68 51 38 59 66 57 75 120 107 84 104 128 114 171 245 255 255 255 255 255 255 255 255 255 255 255 255 255 255 255 255 255 255 255 
255 255 255 255 255 255 255 255 255 255 255 255 255 255 255 255 255 255 255 255 255 255 221 218 116 191 141 108 78 65 92 116 117 111 131 156 195 185 233 243 227 209 255 255 255 255 255 255 255 255 255 239 240 236 120 72 228 255 144 212 125 84 167 171 108 117 71 60 66 74 77 66 77 93 105 39 51 125 81 152 255 255 255 255 255 255 255 255 255 255 255 255 255 255 255 255 255 255 255 255 
255 255 255 255 255 255 255 255 255 255 255 255 255 255 255 255 255 255 255 255 255 255 243 95 167 143 75 74 62 87 128 138 125 126 167 162 150 158 195 225 218 156 255 255 255 255 255 255 255 255 255 251 255 236 84 57 188 254 117 153 138 69 102 125 126 114 78 86 98 134 153 144 95 72 108 54 38 77 107 146 255 255 255 255 255 255 255 255 255 255 255 255 255 255 255 255 255 255 255 255 
255 255 255 255 255 255 255 255 255 255 255 255 255 255 255 255 255 255 255 255 255 255 153 171 206 72 75 113 177 218 245 221 156 161 167 104 86 170 140 192 219 135 224 255 245 255 255 255 255 255 255 255 255 252 63 54 150 215 137 116 164 68 75 98 66 63 63 44 42 65 126 198 215 134 111 77 74 72 155 213 255 255 255 255 255 255 255 255 255 255 255 255 255 255 255 255 255 255 255 255 
255 255 255 255 255 255 255 255 255 255 255 255 255 255 255 255 255 255 255 255 255 255 200 255 140 122 179 248 255 231 135 92 176 200 113 65 80 149 104 161 212 141 128 255 255 186 255 255 255 255 255 255 255 242 59 50 122 167 147 84 146 93 56 63 56 33 48 50 59 116 126 110 129 207 204 135 131 173 212 255 255 255 255 255 255 255 255 255 255 255 255 255 255 255 255 255 255 255 255 255 
255 255 255 255 255 255 255 255 255 255 255 255 255 255 255 255 255 255 255 255 255 255 255 233 203 228 233 168 92 72 186 255 231 123 45 84 117 123 96 140 182 116 66 174 255 188 233 255 255 255 237 255 243 203 57 71 108 141 153 86 114 81 74 63 74 48 74 93 155 183 152 128 98 98 141 222 243 255 255 255 255 255 255 255 255 255 255 255 255 255 255 255 255 255 255 255 255 255 255 255 
255 255 255 255 255 255 255 255 255 255 255 255 255 255 255 255 255 255 255 255 255 255 255 255 227 156 90 80 158 255 255 206 84 44 71 126 126 117 102 132 174 98 38 123 174 254 153 255 255 255 221 255 218 173 69 110 114 144 158 108 113 107 108 129 120 122 140 176 162 153 110 96 114 102 107 104 210 255 255 255 255 255 255 255 255 255 255 255 255 255 255 255 255 255 255 255 255 255 255 255 
255 255 255 255 255 255 255 255 255 255 255 255 255 255 255 255 255 255 255 255 255 255 255 234 162 131 179 251 255 204 90 39 87 174 224 200 194 173 137 135 137 62 39 89 77 195 180 179 255 249 204 251 183 149 123 153 140 177 179 156 144 116 90 95 144 173 158 200 210 150 59 30 38 101 165 183 161 198 255 255 255 255 255 255 255 255 255 255 255 255 255 255 255 255 255 255 255 255 255 255 
255 255 255 255 255 255 255 255 255 255 255 255 255 255 255 255 255 255 255 255 255 255 255 255 231 234 213 131 77 62 116 174 255 255 255 255 240 224 203 159 123 65 35 57 56 99 216 126 195 224 179 219 159 116 149 177 159 195 186 186 174 149 119 89 77 87 120 180 191 177 123 56 27 33 69 182 255 255 255 255 255 255 255 255 255 255 255 255 255 255 255 255 255 255 255 255 255 255 255 255 
255 255 255 255 255 255 255 255 255 255 255 255 255 255 255 255 255 255 255 255 255 255 255 255 255 176 108 104 128 201 221 255 255 255 255 255 249 243 255 185 149 110 44 39 63 71 207 104 117 216 171 179 129 107 150 188 149 194 165 155 141 120 113 99 69 44 74 167 168 143 113 62 44 29 41 77 189 255 255 255 255 255 255 255 255 255 255 255 255 255 255 255 255 255 255 255 255 255 255 255 
255 255 255 255 255 255 255 255 255 255 255 255 255 255 255 255 255 255 255 255 255 255 255 255 255 188 144 144 201 240 255 255 255 255 243 246 249 255 255 249 179 186 83 29 57 65 176 117 51 138 185 134 116 95 135 194 122 189 144 129 86 95 83 71 83 69 98 168 95 75 92 89 53 38 41 92 150 221 255 255 255 255 255 255 255 255 255 255 255 255 255 255 255 255 255 255 255 255 255 255 
255 255 255 255 255 255 255 255 255 255 255 255 255 255 255 255 255 255 255 255 255 255 255 255 225 150 180 231 255 255 255 255 255 185 198 236 239 255 255 255 216 246 189 101 54 48 137 129 30 63 198 101 95 72 102 174 116 162 146 122 93 59 113 84 108 119 176 75 36 35 30 36 51 65 68 111 156 216 255 255 255 255 255 255 255 255 255 255 255 255 255 255 255 255 255 255 255 255 255 255 
255 255 255 255 255 255 255 255 255 255 255 255 255 255 255 255 255 255 255 255 255 255 255 255 255 252 246 243 255 255 255 254 129 141 228 255 228 255 255 255 248 255 209 155 98 59 110 107 30 32 180 86 81 57 65 132 128 119 147 119 120 42 62 141 164 161 158 56 24 23 23 27 30 65 120 144 182 230 255 255 255 255 255 255 255 255 255 255 255 255 255 255 255 255 255 255 255 255 255 255 
255 255 255 255 255 255 255 255 255 255 255 255 255 255 255 255 255 255 255 255 255 255 255 255 255 255 254 249 255 255 255 114 137 227 255 237 248 255 255 255 255 255 255 203 101 60 104 90 20 20 161 110 66 32 36 87 149 83 132 129 153 80 48 89 179 206 174 114 53 18 21 24 39 75 150 213 230 255 255 255 255 255 255 255 255 255 255 255 255 255 255 255 255 255 255 255 255 255 255 255 
255 255 255 255 255 255 255 255 255 255 255 255 255 255 255 255 255 255 255 255 255 255 255 255 255 255 255 255 255 255 132 155 255 255 255 225 252 255 255 255 255 255 255 255 179 72 96 62 8 24 129 143 63 42 38 63 144 111 104 123 150 174 98 80 144 194 197 129 107 68 33 39 59 117 170 233 255 255 255 255 255 255 255 255 255 255 255 255 255 255 255 255 255 255 255 255 255 255 255 255 
255 255 255 255 255 255 255 255 255 255 255 255 255 255 255 255 255 255 255 255 255 255 255 255 255 255 255 255 255 185 195 255 255 255 255 228 254 255 255 249 255 255 255 255 242 105 83 32 11 29 99 164 89 63 50 54 101 123 138 165 183 209 233 188 168 215 197 165 101 65 68 57 105 158 221 255 255 255 255 255 255 255 255 255 255 255 255 255 255 255 255 255 255 255 255 255 255 255 255 255 
255 255 255 255 255 255 255 255 255 255 255 255 255 255 255 255 255 255 255 255 255 255 255 255 255 255 255 255 255 255 255 255 255 255 255 255 255 255 230 213 249 255 255 255 213 191 107 18 18 29 96 170 123 150 197 227 231 236 215 219 215 212 225 210 239 239 255 237 176 107 77 99 147 186 224 255 255 255 255 255 255 255 255 255 255 255 255 255 255 255 255 255 255 255 255 255 255 255 255 255 
255 255 255 255 255 255 255 255 255 255 255 255 255 255 255 255 255 255 255 255 255 255 255 255 255 255 255 255 255 255 255 255 255 255 251 254 243 195 180 206 242 255 255 255 207 120 146 113 44 53 128 210 219 227 185 132 125 116 108 129 155 161 176 203 213 237 225 225 219 167 128 125 156 182 209 233 255 255 255 255 255 255 255 255 255 255 255 255 255 255 255 255 255 255 255 255 255 255 255 255 
255 255 255 255 255 255 255 255 255 255 255 255 255 255 255 255 255 255 255 255 255 255 255 255 255 255 255 255 255 255 255 255 255 230 173 156 149 167 183 198 222 255 255 255 255 213 99 83 131 152 189 225 249 164 126 137 189 192 167 176 246 216 219 162 192 236 186 159 138 155 143 167 186 201 231 255 255 255 255 255 255 255 255 255 255 255 255 255 255 255 255 255 255 255 255 255 255 255 255 255 
255 255 255 255 255 255 255 255 255 255 255 255 255 255 255 255 255 255 255 255 255 255 255 255 255 255 255 255 255 255 255 206 176 164 176 186 197 180 180 182 210 255 255 255 255 246 173 119 111 150 225 255 225 114 156 224 207 207 186 144 252 239 234 176 134 234 252 188 152 155 215 225 251 255 255 255 255 255 255 255 255 255 255 255 255 255 255 255 255 255 255 255 255 255 255 255 255 255 255 255 
255 255 255 255 255 255 255 255 255 255 255 255 255 255 255 255 255 255 255 255 255 255 255 255 255 255 255 255 255 255 255 255 252 255 255 249 254 248 230 219 206 236 255 255 255 221 182 146 135 155 249 234 180 140 206 233 192 185 213 155 233 255 251 206 117 143 242 245 206 242 255 255 255 255 255 255 255 255 255 255 255 255 255 255 255 255 255 255 255 255 255 255 255 255 255 255 255 255 255 255 
255 255 255 255 255 255 255 255 255 255 255 255 255 255 255 255 255 255 255 255 255 255 255 255 255 255 255 255 255 255 255 249 213 195 167 167 188 210 204 201 188 195 255 255 245 215 171 129 135 176 233 206 122 221 221 230 168 207 231 170 200 239 252 255 200 114 188 254 255 255 255 255 255 255 255 255 255 255 255 255 255 255 255 255 255 255 255 255 255 255 255 255 255 255 255 255 255 255 255 255 
255 255 255 255 255 255 255 255 255 255 255 255 255 255 255 255 255 255 255 255 255 255 255 255 255 255 255 255 255 255 255 251 224 239 224 213 195 180 173 225 216 191 189 251 243 185 179 141 144 222 228 188 155 243 239 231 177 245 230 173 194 228 255 255 252 206 198 255 255 255 255 255 255 255 255 255 255 255 255 255 255 255 255 255 255 255 255 255 255 255 255 255 255 255 255 255 255 255 255 255 
255 255 255 255 255 255 255 255 255 255 255 255 255 255 255 255 255 255 255 255 255 255 255 255 255 255 255 255 255 255 255 209 228 255 255 254 216 189 165 219 237 207 191 209 239 222 155 186 231 255 237 197 224 240 251 216 255 225 248 200 192 231 224 228 255 255 255 255 255 255 255 255 255 255 255 255 255 255 255 255 255 255 255 255 255 255 255 255 255 255 255 255 255 255 255 255 255 255 255 255 
255 255 255 255 255 255 255 255 255 255 255 255 255 255 255 255 255 255 255 255 255 255 255 255 255 255 255 239 255 255 255 179 255 255 255 227 221 207 170 168 219 215 177 197 227 227 207 255 255 255 255 255 255 255 255 255 255 255 255 255 255 255 255 255 255 255 255 255 255 255 255 255 255 255 255 255 255 255 255 255 255 255 255 255 255 255 255 255 255 255 255 255 255 255 255 255 255 255 255 255 
255 255 255 255 255 255 255 255 255 255 255 255 255 255 255 255 255 255 255 255 255 255 255 255 255 255 255 255 255 255 230 210 255 255 234 248 246 215 204 168 165 207 197 195 188 210 255 255 255 255 255 255 255 255 255 255 255 255 255 255 255 255 255 255 255 255 255 255 255 255 255 255 255 255 255 255 255 255 255 255 255 255 255 255 255 255 255 255 255 255 255 255 255 255 255 255 255 255 255 255 
255 255 255 255 255 255 255 255 255 255 255 255 255 255 255 255 255 255 255 255 255 255 255 255 255 255 255 255 255 255 228 255 255 236 209 237 252 246 221 195 192 191 191 168 206 255 255 255 255 255 255 255 255 255 255 255 255 255 255 255 255 255 255 255 255 255 255 255 255 255 255 255 255 255 255 255 255 255 255 255 255 255 255 255 255 255 255 255 255 255 255 255 255 255 255 255 255 255 255 255 
255 255 255 255 255 255 255 255 255 255 255 255 255 255 255 255 255 255 255 255 255 255 255 255 255 255 255 255 255 255 255 255 255 255 242 206 233 245 219 185 185 177 230 255 255 255 255 255 255 255 255 255 255 255 255 255 255 255 255 255 255 255 255 255 255 255 255 255 255 255 255 255 255 255 255 255 255 255 255 255 255 255 255 255 255 255 255 255 255 255 255 255 255 255 255 255 255 255 255 255 
255 255 255 255 255 255 255 255 255 255 255 255 255 255 255 255 255 255 255 255 255 255 255 255 255 255 255 255 255 255 255 255 255 255 255 255 255 255 255 255 255 255 255 255 255 255 255 255 255 255 255 255 255 255 255 255 255 255 255 255 255 255 255 255 255 255 255 255 255 255 255 255 255 255 255 255 255 255 255 255 255 255 255 255 255 255 255 255 255 255 255 255 255 255 255 255 255 255 255 255 
255 255 255 255 255 255 255 255 255 255 255 255 255 255 255 255 255 255 255 255 255 255 255 255 255 255 255 255 255 255 255 255 255 255 255 255 255 255 255 255 255 255 255 255 255 255 255 255 255 255 255 255 255 255 255 255 255 255 255 255 255 255 255 255 255 255 255 255 255 255 255 255 255 255 255 255 255 255 255 255 255 255 255 255 255 255 255 255 255 255 255 255 255 255 255 255 255 255 255 255 
255 255 255 255 255 255 255 255 255 255 255 255 255 255 255 255 255 255 255 255 255 255 255 255 255 255 255 255 255 255 255 255 255 255 255 255 255 255 255 255 255 255 255 255 255 255 255 255 255 255 255 255 255 255 255 255 255 255 255 255 255 255 255 255 255 255 255 255 255 255 255 255 255 255 255 255 255 255 255 255 255 255 255 255 255 255 255 255 255 255 255 255 255 255 255 255 255 255 255 255 
255 255 255 255 255 255 255 255 255 255 255 255 255 255 255 255 255 255 255 255 255 255 255 255 255 255 255 255 255 255 255 255 255 255 255 255 255 255 255 255 255 255 255 255 255 255 255 255 255 255 255 255 255 255 255 255 255 255 255 255 255 255 255 255 255 255 255 255 255 255 255 255 255 255 255 255 255 255 255 255 255 255 255 255 255 255 255 255 255 255 255 255 255 255 255 255 255 255 255 255 
