P2
96 96
255
255 255 255 255 255 255 255 255 255 255 255 255 255 255 255 255 255 255 255 255 255 255 255 255 255 255 255 255 255 255 255 255 255 255 255 255 255 255 255 255 255 255 255 255 254 254 254 253 251 248 243 239 234 231 232 237 242 247 252 254 255 255 255 255 255 255 255 255 255 255 255 255 255 255 255 255 255 255 255 255 255 255 255 255 255 255 255 255 255 255 255 255 255 255 255 255 
255 255 255 255 255 255 255 255 255 255 255 255 255 255 255 255 255 255 255 255 255 255 255 255 255 255 255 255 255 255 255 255 255 255 255 255 255 255 255 255 255 255 254 254 254 254 253 250 246 242 236 231 228 224 225 230 236 242 249 254 255 255 255 255 255 255 255 255 255 255 255 255 255 255 255 255 255 255 255 255 255 255 255 255 255 255 255 255 255 255 255 255 255 255 255 255 
255 255 255 255 255 255 255 255 255 255 255 255 255 255 255 255 255 255 255 255 255 255 255 255 255 255 255 255 255 255 255 255 255 255 255 255 255 255 255 255 255 255 254 254 254 253 249 244 239 233 227 223 221 217 216 221 228 236 245 253 255 255 255 255 255 255 255 255 255 255 255 255 255 255 255 255 255 255 255 255 255 255 255 255 255 255 255 255 255 255 255 255 255 255 255 255 
255 255 255 255 255 255 255 255 255 255 255 255 255 255 255 255 255 255 255 255 255 255 255 255 255 255 255 255 255 255 255 255 255 255 255 255 255 255 254 254 254 254 253 253 253 250 243 237 230 223 218 217 215 211 208 213 220 230 240 251 254 255 255 255 255 255 255 255 255 255 255 255 255 255 255 255 255 255 255 255 255 255 255 255 255 255 255 255 255 255 255 255 255 255 255 255 
255 255 255 255 255 255 255 255 255 255 255 255 255 255 255 255 255 255 255 255 255 255 255 255 255 255 255 255 255 255 255 255 255 255 255 255 254 254 254 253 253 253 252 252 251 244 236 229 220 214 214 214 212 209 203 206 213 223 234 249 254 255 255 255 255 255 255 255 255 255 255 255 255 255 255 255 255 255 255 255 255 255 255 255 255 255 255 255 255 255 255 255 255 255 255 255 
255 255 255 255 255 255 255 255 255 255 255 255 255 255 255 255 255 255 255 254 254 254 254 255 255 255 255 255 254 254 254 254 254 254 254 253 253 253 252 251 251 251 250 250 245 237 228 218 210 208 210 211 210 205 195 195 203 214 228 246 253 254 255 255 255 255 255 255 255 255 255 255 255 255 255 255 255 255 255 255 255 255 255 255 255 255 255 255 255 255 255 255 255 255 255 255 
255 255 255 255 255 255 255 255 255 255 255 255 255 254 254 254 254 254 254 254 254 254 254 254 254 254 254 254 254 254 253 253 252 252 251 250 250 250 247 244 245 245 244 241 235 226 217 207 204 205 206 206 205 197 184 183 192 204 222 242 252 254 255 255 255 255 255 255 255 255 255 255 255 255 255 255 255 255 255 255 255 255 255 255 255 255 255 255 255 255 255 255 255 255 255 255 
255 255 255 255 255 255 255 255 255 255 255 255 254 253 250 248 246 245 246 248 250 252 253 254 254 254 253 253 252 251 251 250 247 246 244 240 238 238 232 227 227 229 226 223 221 213 205 199 200 201 202 201 197 185 172 172 181 196 216 239 250 253 254 255 255 255 255 255 255 255 255 255 255 255 255 255 255 255 255 255 255 255 255 255 255 255 255 255 255 255 255 255 255 255 255 255 
255 255 255 255 255 255 255 255 255 255 255 254 252 250 246 241 237 234 232 234 237 241 246 250 252 252 251 249 246 244 243 240 235 231 227 220 215 217 210 203 204 205 201 202 203 199 196 194 197 197 197 193 186 172 161 162 172 189 213 235 247 252 254 254 255 255 255 255 255 255 255 255 255 255 255 255 255 255 255 255 255 255 255 255 255 255 255 255 255 255 255 255 255 255 255 255 
255 255 255 255 255 255 255 255 255 255 254 253 250 247 241 236 231 228 226 225 225 229 233 237 243 246 246 241 234 227 224 219 212 207 202 192 186 190 183 176 178 180 176 182 189 190 190 190 192 193 189 184 175 160 152 154 164 184 208 229 242 250 252 254 255 255 255 255 255 255 255 255 255 255 255 255 255 255 255 255 255 255 255 255 255 255 255 255 255 255 255 255 255 255 255 255 
255 255 255 255 255 255 255 255 255 255 254 251 246 241 235 228 224 220 218 216 217 217 219 222 226 229 230 226 216 204 200 195 184 179 174 162 151 160 153 146 150 155 152 163 177 183 184 186 189 187 181 176 164 151 146 149 160 181 203 223 237 246 251 254 255 255 255 255 255 255 255 255 255 255 255 255 255 255 255 255 255 255 255 255 255 255 255 255 255 255 255 255 255 255 255 255 
255 255 255 255 255 255 255 255 255 255 254 247 241 233 226 219 215 212 210 208 207 208 208 208 209 208 206 200 190 175 169 167 154 147 143 131 115 127 123 118 124 133 133 150 170 177 181 185 186 181 176 168 155 146 143 148 161 180 200 217 232 244 249 253 254 255 255 255 255 255 255 255 255 255 255 255 255 255 255 255 255 255 255 255 255 255 255 255 255 255 255 255 255 255 255 255 
255 255 255 255 255 255 255 255 255 255 253 244 235 226 217 210 209 209 207 204 202 200 198 198 198 194 188 179 165 145 136 137 125 118 115 105 86 99 102 100 109 122 126 145 168 175 181 184 182 178 172 163 151 145 145 151 163 181 196 211 226 238 246 251 253 254 255 255 255 255 255 255 255 255 255 255 255 255 255 255 255 255 255 255 255 255 255 255 255 255 255 255 255 255 255 255 
255 255 255 255 255 255 255 255 255 255 253 243 231 219 208 200 200 201 204 204 202 200 197 192 189 184 176 165 149 126 112 115 105 96 95 89 67 79 89 88 100 118 125 142 165 174 180 182 180 177 171 163 153 151 152 157 168 181 192 204 219 231 240 247 251 254 255 255 255 255 255 255 255 255 255 255 255 255 255 255 255 255 255 255 255 255 255 255 255 255 255 255 255 255 255 255 
255 255 255 255 255 255 255 255 255 254 253 242 229 215 201 187 184 184 185 187 191 192 189 187 183 175 166 155 141 118 101 104 97 85 84 80 55 63 79 80 92 113 123 134 156 168 176 180 180 178 173 165 159 159 159 163 172 181 188 202 217 228 238 245 250 253 254 255 255 255 255 255 255 255 255 255 255 255 255 255 255 255 255 255 255 255 255 255 255 255 255 255 255 255 255 255 
255 255 255 255 255 255 255 255 255 254 253 243 230 213 196 180 173 169 169 172 175 178 181 181 177 171 163 150 136 115 96 98 93 80 76 73 49 51 73 77 88 107 118 123 144 161 173 179 180 179 175 170 167 164 164 168 175 182 192 203 214 224 233 240 248 252 254 255 255 255 255 255 255 255 255 255 255 255 255 255 255 255 255 255 255 255 255 255 255 255 255 255 255 255 255 255 
255 255 255 255 255 255 255 255 255 254 253 244 232 215 195 174 161 155 152 154 160 166 170 174 176 174 168 157 141 119 97 95 94 80 73 70 49 44 69 76 85 101 112 112 132 152 168 175 178 178 176 172 167 165 166 170 177 185 193 200 207 214 224 234 244 250 253 254 255 255 255 255 255 255 255 255 255 255 255 255 255 255 255 255 255 255 255 255 255 255 255 255 255 255 255 255 
255 255 255 255 255 255 255 255 255 254 253 247 235 218 198 176 157 143 134 132 135 143 153 162 168 171 171 162 148 128 105 98 97 84 74 70 51 41 65 76 82 94 106 103 120 143 161 169 173 174 172 167 164 164 165 170 179 186 191 194 196 202 212 223 236 245 249 252 253 254 255 255 255 255 255 255 255 255 255 255 255 255 255 255 255 255 255 255 255 255 255 255 255 255 255 255 
255 255 255 255 255 255 255 255 255 255 254 248 237 223 203 180 159 144 132 128 130 135 144 153 160 166 169 164 152 134 113 103 102 91 79 73 57 43 63 75 79 90 102 98 112 135 153 162 165 167 164 160 158 158 160 166 174 177 180 181 183 189 199 212 226 236 243 247 250 252 254 254 255 255 255 255 255 255 255 255 255 255 255 255 255 255 255 255 255 255 255 255 255 255 255 255 
255 255 255 255 255 255 255 255 255 255 254 249 239 225 208 186 164 147 135 131 133 140 150 159 164 167 169 165 153 137 116 103 100 94 84 78 65 50 64 74 79 91 103 98 110 130 146 154 159 160 157 153 151 150 153 158 162 164 164 165 168 174 185 199 211 222 230 237 244 248 251 253 254 255 255 255 255 255 255 255 255 255 255 255 255 255 255 255 255 255 255 255 255 255 255 255 
255 255 255 255 255 255 255 255 255 255 254 250 241 229 214 193 172 156 142 134 135 142 152 162 170 172 171 165 155 139 120 106 101 96 88 83 73 58 67 74 81 95 107 102 112 128 141 151 156 156 153 149 147 149 152 152 153 151 149 150 154 161 174 186 199 211 222 231 238 244 248 252 254 254 255 255 255 255 255 255 255 255 255 255 255 255 255 255 255 255 255 255 255 255 255 255 
255 255 255 255 255 255 255 255 255 255 254 251 243 233 220 204 186 171 158 150 147 151 159 167 173 176 175 170 160 147 131 116 109 105 97 91 82 67 71 77 86 102 113 109 118 129 139 150 156 156 153 151 151 154 153 150 146 142 140 142 147 154 166 177 189 202 214 224 233 240 246 250 253 254 254 255 255 255 255 255 255 255 255 255 255 255 255 255 255 255 255 255 255 255 255 255 
255 255 255 255 255 255 255 255 255 255 254 251 245 236 225 211 197 187 179 173 172 174 177 179 181 180 176 171 164 153 139 125 118 116 109 104 95 80 80 83 95 112 122 118 127 133 140 153 159 159 159 159 160 161 158 151 144 141 140 142 147 154 163 173 183 194 205 215 226 235 243 249 252 253 254 255 255 255 255 255 255 255 255 255 255 255 255 255 255 255 255 255 255 255 255 255 
255 255 255 255 255 255 255 255 255 255 254 252 246 238 229 219 209 199 191 186 184 185 188 190 190 187 181 175 168 158 147 133 126 124 121 116 110 94 92 94 108 124 130 127 135 138 142 156 164 165 166 166 167 167 163 156 151 149 148 149 152 156 161 167 173 181 190 202 215 227 238 246 250 253 254 255 255 255 255 255 255 255 255 255 255 255 255 255 255 255 255 255 255 255 255 255 
255 255 255 255 255 255 255 255 255 255 254 251 246 238 230 221 214 208 205 200 196 194 192 190 188 185 180 175 171 167 160 148 141 138 136 130 125 111 107 107 121 134 138 135 142 139 138 151 157 157 160 164 168 171 169 166 164 162 160 156 155 155 156 158 162 167 176 187 201 216 230 241 248 252 254 254 255 255 255 255 255 255 255 255 255 255 255 255 255 255 255 255 255 255 255 255 
255 255 255 255 255 255 255 255 255 255 254 251 246 238 229 220 212 207 204 201 199 197 194 191 187 183 177 173 171 170 168 161 154 154 151 145 141 129 124 122 132 142 144 143 144 133 126 132 133 134 141 149 159 166 167 166 165 164 160 156 154 152 149 148 150 155 164 179 196 213 228 240 247 251 253 254 255 255 255 255 255 255 255 255 255 255 255 255 255 255 255 255 255 255 255 255 
255 255 255 255 255 255 255 255 255 254 254 251 245 236 225 214 204 197 193 190 189 188 187 185 181 178 173 169 168 168 168 164 158 160 162 158 155 148 140 135 141 147 147 145 138 123 111 109 107 109 118 128 140 150 155 156 157 156 151 146 142 137 132 130 132 138 151 170 191 211 228 241 248 252 254 254 255 255 255 255 255 255 255 255 255 255 255 255 255 255 255 255 255 255 255 255 
255 255 255 255 255 255 255 255 255 255 254 251 244 233 220 205 192 180 173 168 167 168 171 174 176 176 173 171 171 172 172 169 163 163 167 166 163 161 154 146 145 148 148 141 128 113 96 85 82 86 94 110 128 143 151 153 151 144 135 126 119 113 109 109 114 125 142 164 188 209 228 240 248 251 253 254 255 255 255 255 255 255 255 255 255 255 255 255 255 255 255 255 255 255 255 255 
255 255 255 255 255 255 255 255 255 255 254 251 244 232 217 199 180 165 155 149 149 153 159 166 171 174 173 172 170 167 163 157 149 150 159 165 166 169 164 154 147 148 146 135 118 102 79 60 56 62 74 97 122 140 151 151 144 133 119 107 97 90 87 89 98 112 133 158 183 206 225 238 246 251 253 254 255 255 255 255 255 255 255 255 255 255 255 255 255 255 255 255 255 255 255 255 
255 255 255 255 255 255 255 255 255 255 254 251 243 230 213 193 173 156 146 141 142 147 156 165 173 177 177 173 164 154 143 134 125 126 141 155 161 170 171 159 147 146 145 128 109 96 74 52 52 59 73 96 122 141 152 148 138 123 105 89 77 68 66 70 82 99 123 151 179 203 224 238 246 251 253 254 255 255 255 255 255 255 255 255 255 255 255 255 255 255 255 255 255 255 255 255 
255 255 255 255 255 255 255 255 255 255 254 250 240 224 204 180 158 141 130 126 130 139 151 164 175 182 182 175 161 143 129 115 107 108 125 142 154 165 171 163 149 146 145 123 104 94 74 53 57 68 83 105 129 148 157 151 140 123 103 84 68 59 56 61 74 91 116 144 173 200 222 237 246 251 253 254 255 255 255 255 255 255 255 255 255 255 255 255 255 255 255 255 255 255 255 255 
255 255 255 255 255 255 255 255 255 254 253 247 235 217 196 174 153 138 128 125 129 138 152 168 181 187 185 175 156 132 111 92 85 86 102 124 144 157 168 167 154 149 147 124 107 96 78 58 66 79 96 119 143 160 166 159 146 129 109 91 78 71 68 71 79 91 110 133 161 189 214 232 244 250 253 254 254 255 255 255 255 255 255 255 255 255 255 255 255 255 255 255 255 255 255 255 
255 255 255 255 255 255 255 255 255 254 251 244 231 214 195 176 160 148 142 141 146 155 167 176 183 183 176 162 142 116 93 71 64 66 80 106 132 147 162 167 158 154 151 128 114 102 89 76 86 97 113 130 147 158 160 152 142 129 117 106 98 91 84 80 79 83 95 115 143 173 201 223 239 247 251 253 254 255 255 255 255 255 255 255 255 255 255 255 255 255 255 255 255 255 255 255 
255 255 255 255 255 255 255 255 255 254 251 242 228 211 192 174 160 151 147 146 148 153 158 162 166 166 163 153 135 113 95 75 68 68 78 98 121 137 155 164 160 155 151 132 117 108 101 94 102 113 123 133 142 149 150 146 141 137 131 125 118 109 97 87 81 81 92 112 141 172 201 224 239 247 251 253 254 255 255 255 255 255 255 255 255 255 255 255 255 255 255 255 255 255 255 255 
255 255 255 255 255 255 255 255 255 253 249 239 226 210 192 174 160 149 139 134 132 133 137 144 152 158 160 155 143 124 107 88 80 78 83 97 117 132 147 159 160 156 150 135 120 109 104 100 105 116 124 131 139 145 146 147 147 147 145 142 138 129 117 107 100 100 110 128 152 180 205 225 239 247 251 253 254 254 255 255 255 255 255 255 255 255 255 255 255 255 255 255 255 255 255 255 
255 255 255 255 255 255 255 255 254 253 247 236 222 207 189 173 162 152 142 134 127 124 126 133 142 152 158 158 151 137 121 107 99 96 98 108 120 130 141 153 158 157 150 138 126 116 111 111 115 120 125 131 138 144 149 155 158 161 161 159 154 144 132 122 114 113 119 134 156 181 204 224 238 246 251 253 254 254 255 255 255 255 255 255 255 255 255 255 255 255 255 255 255 255 255 255 
255 255 255 255 255 255 255 255 254 251 244 232 217 200 182 166 154 143 132 123 116 112 113 120 130 142 153 158 155 145 132 119 110 107 109 114 122 129 137 146 153 153 146 135 126 120 118 121 125 127 128 131 138 147 156 163 169 171 169 164 157 145 132 120 112 111 119 135 157 181 204 224 237 245 250 253 254 254 255 255 255 255 255 255 255 255 255 255 255 255 255 255 255 255 255 255 
255 255 255 255 255 255 255 255 254 250 242 228 211 192 172 155 142 128 115 104 98 96 103 115 133 150 162 168 165 154 141 128 118 115 118 120 126 132 137 141 145 143 135 128 123 119 120 124 126 127 129 134 142 153 163 172 177 178 173 166 154 141 130 123 119 120 127 140 157 178 199 219 234 244 249 252 254 254 255 255 255 255 255 255 255 255 255 255 255 255 255 255 255 255 255 255 
255 255 255 255 255 255 255 255 253 249 238 221 203 182 163 149 137 124 112 102 97 99 111 129 148 164 174 176 173 164 152 140 131 127 127 129 134 139 141 142 143 137 128 124 123 122 126 131 134 134 135 140 148 158 166 172 174 172 166 157 147 139 131 126 124 124 126 132 144 160 179 200 219 234 245 251 253 254 255 255 255 255 255 255 255 255 255 255 255 255 255 255 255 255 255 255 
255 255 255 255 255 255 255 255 253 247 235 217 196 176 159 146 134 123 112 104 103 110 124 142 158 171 177 178 175 169 161 154 148 145 144 145 148 149 149 147 143 135 129 127 129 133 139 143 144 141 142 147 154 163 170 174 173 169 160 151 141 132 125 120 115 112 110 111 118 132 153 179 204 224 239 248 252 253 254 254 255 255 255 255 255 255 255 255 255 255 255 255 255 255 255 255 
255 255 255 255 255 255 255 255 253 246 234 216 195 175 159 146 135 124 115 110 111 121 136 152 166 177 182 184 183 177 169 161 154 149 148 150 155 157 158 155 148 136 128 127 131 138 147 152 153 150 150 153 158 163 168 169 167 161 152 142 133 123 115 109 104 98 90 87 90 101 121 151 182 208 230 244 250 252 253 254 254 255 255 255 255 255 255 255 255 255 255 255 255 255 255 255 
255 255 255 255 255 255 255 255 253 246 236 218 198 180 164 150 138 127 117 112 115 127 143 160 175 184 190 193 193 190 185 179 174 170 168 168 170 170 168 161 149 135 126 124 128 136 145 151 151 150 150 153 156 159 161 159 153 147 140 132 125 120 114 107 99 92 83 74 70 76 94 124 160 193 221 239 248 251 253 253 254 254 255 255 255 255 255 255 255 255 255 255 255 255 255 255 
255 255 255 255 255 255 255 255 253 248 236 219 202 184 167 151 137 122 111 107 113 125 140 154 166 176 183 191 196 197 196 194 190 187 185 185 184 183 176 165 152 138 131 130 133 139 144 144 144 144 146 150 154 157 158 156 150 141 131 123 118 115 112 107 99 87 75 65 61 66 83 112 147 182 213 234 245 249 252 253 254 254 255 255 255 255 255 255 255 255 255 255 255 255 255 255 
255 255 255 255 255 255 255 255 253 248 238 224 208 190 169 147 129 113 102 102 111 124 137 150 161 170 178 185 189 192 193 194 195 196 196 196 193 185 174 164 152 143 141 144 146 149 150 148 147 148 152 158 164 167 167 163 156 147 138 130 123 116 112 108 100 90 79 67 60 63 78 105 139 173 204 226 239 246 250 252 253 254 254 255 255 255 255 255 255 255 255 255 255 255 255 255 
255 255 255 255 255 255 255 255 253 250 242 229 215 194 169 146 126 109 102 105 115 127 138 146 154 160 165 171 177 182 187 192 197 200 200 198 192 181 170 161 154 150 151 155 158 158 159 159 159 161 165 170 174 174 171 164 155 146 139 133 128 124 120 113 106 96 86 76 70 71 83 104 134 167 197 220 235 244 249 251 253 254 254 255 255 255 255 255 255 255 255 255 255 255 255 255 
255 255 255 255 255 255 255 255 254 251 244 234 219 199 175 152 133 118 113 117 126 134 139 143 145 147 150 156 163 171 179 187 194 199 200 197 190 178 167 160 158 159 163 169 172 172 171 172 172 173 176 181 183 182 177 167 154 141 129 123 120 119 119 118 111 102 94 85 79 79 87 102 125 152 180 203 222 235 243 249 252 253 254 255 255 255 255 255 255 255 255 255 255 255 255 255 
255 255 255 255 255 255 255 255 254 252 246 237 225 207 185 165 147 135 131 135 142 144 142 137 135 134 138 147 157 164 172 180 187 193 194 193 187 178 169 167 170 174 182 190 194 193 192 192 190 189 190 191 191 189 182 173 161 146 130 118 110 107 108 111 112 108 102 95 89 86 89 97 112 131 156 182 205 224 238 246 250 252 253 254 255 255 255 255 255 255 255 255 255 255 255 255 
255 255 255 255 255 255 255 254 254 252 248 242 232 218 199 180 164 154 150 151 152 147 138 132 129 129 136 145 152 156 164 173 182 188 193 192 186 178 175 179 185 193 200 205 207 207 207 209 208 205 203 201 197 190 181 169 157 143 130 119 109 102 99 101 103 105 104 101 95 90 86 87 94 110 134 163 192 217 234 245 250 252 253 254 254 255 255 255 255 255 255 255 255 255 255 255 
255 255 255 255 255 255 255 254 253 252 249 245 237 226 212 197 180 167 160 154 148 139 131 125 124 127 135 142 147 152 159 167 175 183 188 187 185 185 187 192 201 208 210 210 209 208 206 207 206 201 196 193 189 183 174 161 147 131 116 105 97 90 88 90 93 97 100 99 96 92 84 80 82 92 111 140 172 201 224 240 248 251 253 254 254 255 255 255 255 255 255 255 255 255 255 255 
255 255 255 255 255 255 254 253 252 250 247 243 236 229 219 203 185 170 156 145 138 131 124 122 123 129 136 141 145 148 153 159 167 175 181 183 187 192 196 201 209 214 213 210 205 201 196 194 191 185 177 172 168 165 160 151 140 125 108 93 82 74 72 74 78 84 91 92 89 85 75 66 64 69 83 110 141 174 202 224 237 245 249 251 253 254 254 255 255 255 255 255 255 255 255 255 
255 255 255 255 255 254 251 247 242 238 234 229 226 223 214 197 179 161 143 132 126 122 119 120 124 129 134 136 139 141 143 149 159 167 174 180 187 193 196 203 210 212 211 206 197 190 181 173 168 161 153 147 143 139 137 134 128 119 107 92 78 67 63 62 65 73 80 84 83 80 71 61 55 60 74 100 132 167 196 220 234 243 248 250 252 253 254 255 255 255 255 255 255 255 255 255 
255 255 255 255 254 251 244 234 221 210 204 200 200 202 196 180 162 145 130 121 118 116 115 118 120 124 126 127 129 130 132 140 151 159 165 173 179 184 188 195 202 204 202 196 187 177 166 155 145 136 127 123 120 117 115 113 111 108 102 94 83 71 64 61 60 65 70 75 75 73 65 58 52 53 65 89 120 156 189 216 233 243 248 250 252 253 254 254 254 254 254 254 255 255 255 255 
255 255 255 255 254 248 235 216 196 177 167 165 168 173 172 162 149 137 127 120 116 113 111 111 112 115 114 114 120 121 122 131 143 148 154 160 166 168 172 180 189 191 189 184 176 166 154 141 129 117 106 100 97 96 97 99 100 98 95 87 78 70 66 63 63 67 69 69 69 67 59 53 49 49 56 76 104 138 173 204 226 240 247 250 252 253 254 254 254 254 254 254 254 255 255 255 
255 255 255 255 253 244 224 199 171 146 134 133 139 149 153 150 143 137 128 120 114 108 101 98 99 102 101 106 114 113 112 122 133 135 141 146 149 146 150 161 173 176 176 172 165 156 146 133 119 107 93 83 78 74 74 80 88 93 93 88 79 70 66 66 68 72 75 74 70 64 55 48 43 46 56 74 101 135 170 200 223 238 246 249 251 253 253 254 254 254 254 254 254 254 255 255 
255 255 255 255 253 240 215 182 148 118 104 107 118 132 143 145 144 138 129 119 108 97 89 85 88 91 96 104 109 104 104 112 121 123 128 131 130 124 131 146 158 162 162 159 152 146 139 128 114 102 88 75 67 60 56 58 67 78 88 90 84 76 71 69 72 78 81 81 76 66 55 48 41 42 55 77 107 143 179 209 230 243 249 251 252 253 253 254 254 254 254 254 254 254 255 255 
255 255 255 255 253 240 211 175 137 102 85 88 100 116 131 138 138 133 123 112 99 87 81 80 83 89 97 103 102 96 96 102 111 113 117 118 115 112 123 137 147 149 148 144 138 135 133 126 113 100 87 72 61 52 46 44 50 60 72 82 85 83 79 78 80 83 86 86 82 72 59 50 43 41 49 68 97 132 170 203 228 243 249 252 253 253 254 254 254 254 254 254 254 254 255 255 
255 255 255 255 253 241 214 178 140 104 83 82 91 103 117 125 126 122 114 103 92 84 83 81 85 93 99 100 98 94 92 97 104 107 110 110 108 106 117 126 133 134 133 131 127 125 126 122 112 103 90 74 61 49 40 37 41 49 59 68 74 78 81 85 89 93 93 90 84 76 65 55 51 51 56 72 95 124 158 191 218 237 248 252 253 253 254 254 254 254 254 254 254 254 255 255 
255 255 255 255 254 245 222 189 152 117 93 84 87 95 103 110 111 108 103 96 90 88 87 86 90 96 98 100 98 95 90 94 98 100 101 100 98 98 108 115 121 122 122 123 119 116 117 116 108 103 96 81 66 54 42 34 35 43 54 63 69 74 77 82 90 96 100 98 88 77 68 59 53 56 64 79 101 131 161 192 217 235 246 251 253 253 254 254 254 254 254 254 254 254 255 255 
255 255 255 255 254 249 232 205 171 137 108 90 83 83 88 93 96 97 98 98 97 96 95 91 93 96 100 101 103 99 93 95 98 97 97 98 96 98 106 111 114 115 116 121 117 113 113 113 106 107 107 98 84 70 57 44 39 40 50 60 67 73 79 81 86 93 98 98 93 84 72 63 57 55 60 76 98 126 159 190 216 235 246 251 253 253 254 254 254 254 254 254 254 254 255 255 
255 255 255 255 255 252 242 221 194 162 129 102 85 76 77 83 89 95 103 107 106 104 100 91 93 97 101 105 112 106 101 102 102 100 101 103 103 106 110 112 114 114 117 122 122 115 113 113 108 110 117 115 105 92 78 63 53 51 53 59 67 72 76 81 85 89 93 96 95 91 84 75 67 64 63 72 92 120 152 186 214 234 246 251 253 254 254 254 254 254 254 254 254 254 255 255 
255 255 255 255 255 253 248 234 214 188 159 130 106 91 86 90 97 106 116 117 113 107 97 88 94 99 105 115 124 117 113 114 111 109 110 113 113 114 116 118 120 122 125 131 132 124 119 120 117 120 128 133 127 117 102 87 74 67 68 68 68 70 71 72 76 84 92 96 99 100 99 94 89 82 78 82 96 121 152 186 214 234 246 251 253 254 254 254 254 254 254 254 254 254 255 255 
255 255 255 255 255 254 252 245 232 214 191 162 138 120 112 113 118 124 126 123 115 105 93 90 98 104 115 129 134 126 123 123 121 119 122 125 123 123 128 134 138 141 143 144 142 135 126 125 125 128 137 147 147 139 127 112 98 85 81 80 77 72 68 63 62 68 81 94 104 110 113 111 106 99 94 95 108 131 162 193 220 238 248 251 253 253 254 254 254 254 254 254 254 254 255 255 
255 255 255 255 255 254 254 251 246 234 218 196 174 156 146 143 142 138 134 126 115 104 97 99 109 116 129 140 140 132 132 132 131 134 139 141 139 141 148 155 160 162 163 161 157 149 138 133 133 134 141 153 159 155 144 133 121 104 93 90 85 77 70 62 54 54 64 79 97 113 122 125 122 112 103 101 110 131 163 195 222 241 250 252 253 253 253 253 253 254 254 254 254 255 255 255 
255 255 255 255 255 255 255 254 252 247 237 223 208 193 181 172 162 151 141 129 117 110 107 112 121 128 136 141 135 130 133 135 138 145 151 153 152 157 166 175 181 183 181 176 171 163 152 145 142 139 140 147 158 158 150 144 136 120 104 98 92 85 74 65 55 47 51 65 83 104 121 131 132 125 115 109 115 134 165 197 224 243 250 252 253 253 253 253 253 253 254 254 254 255 255 255 
255 255 255 255 255 255 255 255 254 253 249 242 232 221 208 194 177 162 147 133 124 119 117 122 127 129 132 131 123 122 125 131 138 146 151 156 157 164 177 187 194 198 195 189 183 177 166 156 152 148 142 142 153 156 148 148 144 127 110 102 91 85 74 63 53 45 43 52 69 89 107 121 128 125 117 114 120 139 168 198 224 243 250 252 252 252 252 252 252 253 253 254 254 255 255 255 
255 255 255 255 255 255 255 255 255 255 253 250 245 237 226 209 191 173 156 144 134 128 125 125 122 121 118 113 106 108 112 120 128 137 146 153 157 164 178 188 198 204 205 200 194 188 179 167 161 154 142 133 143 147 140 144 145 128 109 102 90 84 76 65 53 43 39 43 55 72 87 98 105 108 104 106 118 140 169 200 225 242 250 251 252 252 252 252 252 252 253 253 254 255 255 255 
255 255 255 255 255 255 255 255 255 255 254 253 251 246 236 221 203 186 171 155 142 133 125 116 111 106 100 95 92 95 102 110 118 127 135 143 149 156 170 182 192 201 207 206 203 199 191 179 171 162 144 126 132 136 126 133 139 123 105 99 88 84 76 67 58 50 44 47 53 63 73 79 82 83 82 87 105 134 167 200 226 242 248 250 251 251 251 251 251 252 252 253 254 254 254 255 
255 255 255 255 255 255 255 255 255 255 255 254 253 250 242 229 214 200 182 162 147 131 115 105 99 93 92 91 91 95 100 104 107 113 120 129 139 145 157 171 181 191 202 205 204 204 198 188 180 170 146 122 122 124 112 120 129 115 97 93 83 79 73 63 55 51 48 52 60 67 73 72 69 68 69 76 99 132 165 199 226 241 247 249 250 250 250 250 251 251 252 253 254 254 254 254 
255 255 255 255 255 255 255 255 255 255 255 254 253 251 246 236 225 211 191 170 150 129 111 102 96 94 94 94 94 96 96 95 96 99 103 113 125 130 140 156 166 175 191 199 200 203 201 193 186 176 148 120 113 112 99 106 116 103 87 83 73 67 63 55 49 49 51 58 66 74 79 75 70 70 71 80 107 140 172 203 227 239 245 248 249 249 250 250 251 251 252 253 253 254 254 254 
255 255 255 255 255 255 255 255 255 255 255 255 254 253 249 244 235 221 200 179 156 134 116 106 98 94 95 98 100 102 100 94 89 89 90 99 112 115 120 136 148 155 173 188 192 197 198 193 186 177 145 118 105 99 86 93 104 93 77 73 67 58 57 53 50 54 61 69 77 82 84 81 79 81 88 100 126 156 184 210 229 239 244 247 248 249 250 250 251 251 252 252 253 254 254 254 
255 255 255 255 255 255 255 255 255 255 255 255 255 254 252 249 242 230 211 190 166 141 121 107 100 98 106 113 115 112 104 92 82 81 80 88 100 103 103 116 127 133 151 171 181 189 190 189 183 172 140 115 99 90 80 85 94 87 74 67 65 57 56 57 58 64 71 79 84 87 87 85 86 92 105 123 149 175 199 218 232 239 244 247 248 249 250 250 251 251 252 253 253 254 254 254 
255 255 255 255 255 255 255 255 255 255 255 255 255 254 254 252 247 237 220 201 176 149 129 118 112 114 120 122 119 112 102 92 86 86 83 87 96 94 88 98 105 110 127 150 163 175 177 180 175 164 135 114 97 88 81 86 93 88 76 68 65 59 59 64 68 74 78 80 80 81 82 86 93 104 121 142 167 192 212 227 235 241 245 247 249 250 250 251 251 252 252 253 253 254 254 254 
255 255 255 255 255 255 255 255 255 255 255 255 255 255 254 253 250 243 231 214 190 165 146 130 119 115 114 111 110 109 106 104 103 102 97 97 100 92 79 81 84 87 103 126 143 157 162 166 163 151 127 112 96 90 88 92 96 93 83 73 69 63 63 69 78 87 90 86 79 72 70 77 93 115 140 165 189 209 224 234 240 243 246 248 250 250 251 251 252 252 252 253 253 253 254 254 
255 255 255 255 255 255 255 255 255 255 255 255 255 255 255 254 253 248 241 225 204 179 154 131 114 107 106 110 116 122 125 126 125 123 119 114 110 97 79 71 68 69 84 104 122 138 144 149 147 137 117 109 96 94 96 100 100 97 88 78 72 67 67 75 86 94 97 91 78 64 57 62 81 109 141 172 199 218 231 238 242 245 248 249 251 251 252 252 252 252 252 253 253 253 253 253 
255 255 255 255 255 255 255 255 255 255 255 255 255 255 255 254 254 251 246 234 214 187 158 131 115 110 113 121 130 137 141 143 144 144 141 134 125 111 90 72 61 59 70 85 100 118 125 128 128 121 108 105 95 98 103 106 101 99 88 79 73 68 68 79 88 93 93 86 70 56 49 52 70 97 131 164 193 214 228 237 242 245 248 250 251 252 252 253 253 253 253 253 253 253 253 253 
255 255 255 255 255 255 255 255 255 255 255 255 255 255 255 255 254 253 249 238 218 191 163 139 124 119 123 131 141 149 156 161 163 161 160 155 144 130 109 85 66 57 64 71 80 96 108 107 108 105 99 97 92 98 106 108 101 98 87 77 70 66 68 75 82 85 83 73 58 46 41 47 65 92 124 157 185 207 222 232 239 244 247 250 251 252 252 253 253 253 253 253 253 253 253 253 
255 255 255 255 255 255 255 255 255 255 255 255 255 255 255 255 254 254 252 243 226 202 175 149 132 127 134 145 157 164 168 169 165 167 171 170 160 152 131 104 82 66 65 66 67 76 92 88 88 89 87 85 84 92 101 104 97 92 82 74 68 64 69 73 74 72 70 60 48 41 38 44 62 90 123 156 184 204 218 228 235 240 245 248 250 251 252 253 253 253 253 253 253 253 253 253 
255 255 255 255 255 255 255 255 255 255 255 255 255 255 255 255 254 254 253 246 232 209 183 160 145 144 153 162 167 168 165 161 160 166 175 177 172 169 154 128 103 83 73 66 59 61 77 74 72 75 76 72 74 81 91 95 90 83 74 68 66 66 74 78 75 67 59 47 37 34 38 47 65 92 122 152 178 199 213 222 230 235 240 244 247 249 251 252 252 253 253 253 253 253 253 253 
255 255 255 255 255 255 255 255 255 255 255 255 255 255 255 255 255 254 253 249 237 218 198 179 167 165 168 168 166 161 156 154 156 164 175 180 180 181 172 152 127 104 86 71 55 49 64 62 60 64 67 62 64 70 80 87 86 80 73 68 69 73 82 86 82 70 55 40 31 33 41 57 78 104 132 158 179 196 208 216 223 229 234 239 243 247 249 250 252 252 253 253 253 254 254 254 
255 255 255 255 255 255 255 255 255 255 255 255 255 255 255 255 255 254 254 250 241 228 212 198 187 181 176 170 163 155 153 153 155 165 176 180 182 187 182 168 148 124 101 79 55 41 53 55 54 58 62 55 56 61 72 82 87 85 84 81 84 89 98 98 91 76 57 38 31 35 49 70 96 123 150 171 188 200 208 214 219 223 229 235 240 245 248 249 251 252 252 253 253 254 254 254 
255 255 255 255 255 255 255 255 255 255 255 255 255 255 255 255 255 255 254 252 247 239 229 217 206 195 184 172 163 157 158 158 162 171 176 177 179 184 183 176 162 140 115 87 59 40 45 50 53 60 66 64 66 72 83 93 100 99 98 98 101 106 114 115 108 92 70 51 42 46 62 86 113 141 166 184 196 204 209 212 215 220 226 232 238 243 247 249 251 252 253 253 254 254 254 254 
255 255 255 255 255 255 255 255 255 255 255 255 255 255 255 255 255 255 255 254 252 247 241 232 220 207 193 179 172 169 170 169 172 173 171 168 170 175 178 177 169 149 125 96 65 44 46 53 59 70 80 78 77 80 85 92 100 102 105 107 111 118 123 126 123 109 89 70 60 62 76 100 127 152 174 191 201 207 210 212 215 220 226 232 239 244 247 249 251 252 253 253 254 254 254 254 
255 255 255 255 255 255 255 255 255 255 255 255 255 255 255 255 255 255 255 255 254 251 248 242 232 218 204 192 185 180 177 173 168 162 157 154 158 164 172 176 175 161 137 106 76 54 53 63 74 86 94 93 90 91 93 99 108 113 118 121 124 129 131 131 128 117 99 84 77 80 93 114 139 162 182 197 207 213 216 218 221 225 230 236 241 246 249 250 252 253 253 254 254 254 255 255 
255 255 255 255 255 255 255 255 255 255 255 255 255 255 255 255 255 255 255 255 254 254 252 247 239 226 214 201 190 181 174 165 158 152 146 144 146 154 164 172 176 168 147 118 90 68 65 76 91 101 109 110 106 105 107 110 118 123 128 132 135 138 140 137 133 125 111 99 95 101 116 135 156 176 193 206 215 220 223 225 228 232 236 241 245 248 251 252 253 254 254 254 255 255 255 255 
255 255 255 255 255 255 255 255 255 255 255 255 255 255 255 255 255 255 255 255 255 254 253 249 242 231 220 207 195 185 174 164 158 151 144 141 142 148 159 169 175 171 154 128 103 84 81 92 106 115 124 126 121 120 122 121 125 129 133 135 137 137 139 137 136 134 128 122 123 131 144 160 176 191 204 215 223 228 231 234 237 240 243 246 249 251 253 254 254 255 255 255 255 255 255 255 
255 255 255 255 255 255 255 255 255 255 255 255 255 255 255 255 255 255 255 255 255 254 253 250 243 233 221 207 191 178 165 153 145 140 135 134 135 141 153 163 170 169 156 134 112 96 97 106 117 125 131 129 122 120 121 118 121 128 134 136 139 135 135 133 134 139 144 147 154 163 174 185 197 208 218 226 233 237 241 243 245 247 249 251 252 253 254 254 255 255 255 255 255 255 255 255 
255 255 255 255 255 255 255 255 255 255 255 255 255 255 255 255 255 255 255 255 255 254 253 249 241 230 217 201 184 171 158 146 138 135 131 131 133 138 148 158 166 167 157 138 119 107 108 116 125 131 133 131 126 129 133 130 132 138 143 144 146 141 138 136 138 148 161 172 183 194 203 212 220 227 235 240 245 247 249 250 251 252 253 254 254 254 255 255 255 255 255 255 255 255 255 255 
255 255 255 255 255 255 255 255 255 255 255 255 255 255 255 255 255 255 255 255 255 254 253 247 236 224 212 193 177 168 158 149 145 143 138 137 136 138 143 152 158 159 153 139 125 117 119 126 130 136 138 137 135 140 144 138 136 141 145 146 149 147 148 151 158 172 189 201 212 222 230 235 240 244 247 250 251 252 253 253 254 254 254 254 255 255 255 255 255 255 255 255 255 255 255 255 
255 255 255 255 255 255 255 255 255 255 255 255 255 255 255 255 255 255 255 255 255 254 251 242 229 217 205 188 178 173 165 157 154 150 142 138 137 136 138 145 150 150 146 141 135 134 140 146 149 153 154 152 151 155 156 149 147 152 158 161 168 169 171 176 183 197 214 227 236 243 247 249 251 252 253 254 254 254 255 255 255 255 255 255 255 255 255 255 255 255 255 255 255 255 255 255 
255 255 255 255 255 255 255 255 255 255 255 255 255 255 255 255 255 255 255 255 255 253 247 235 222 211 199 183 176 172 162 155 154 148 139 135 133 132 132 137 142 142 143 145 148 155 165 172 174 178 178 176 176 179 179 174 171 175 179 182 190 194 196 201 209 219 232 243 250 252 253 254 254 254 254 254 255 255 255 255 255 255 255 255 255 255 255 255 255 255 255 255 255 255 255 255 
255 255 255 255 255 255 255 255 255 255 255 255 255 255 255 255 255 255 255 255 254 251 243 229 216 205 193 180 177 174 165 161 161 155 146 140 136 133 130 133 136 139 145 156 168 181 192 199 201 203 202 200 201 202 202 198 196 197 200 203 209 216 220 225 231 238 244 250 253 254 254 255 255 255 255 255 255 255 255 255 255 255 255 255 255 255 255 255 255 255 255 255 255 255 255 255 
255 255 255 255 255 255 255 255 255 255 255 255 255 255 255 255 255 255 255 255 254 251 241 227 214 203 190 178 178 175 167 164 165 159 150 143 138 134 130 132 140 149 160 176 193 209 219 225 227 226 224 223 224 223 223 220 219 219 222 224 229 235 239 244 248 251 253 254 254 255 255 255 255 255 255 255 255 255 255 255 255 255 255 255 255 255 255 255 255 255 255 255 255 255 255 255 
255 255 255 255 255 255 255 255 255 255 255 255 255 255 255 255 255 255 255 255 254 251 242 230 220 210 198 190 189 184 176 172 171 165 159 153 150 148 147 150 158 169 183 200 217 231 241 246 247 246 245 244 243 242 241 240 240 241 244 246 249 252 254 254 255 255 255 255 255 255 255 255 255 255 255 255 255 255 255 255 255 255 255 255 255 255 255 255 255 255 255 255 255 255 255 255 
255 255 255 255 255 255 255 255 255 255 255 255 255 255 255 255 255 255 255 255 254 252 244 236 228 221 211 206 204 200 193 191 189 184 180 177 174 172 172 174 182 192 206 220 233 244 251 253 253 254 254 254 254 254 254 254 254 254 254 254 254 254 255 255 255 255 255 255 255 255 255 255 255 255 255 255 255 255 255 255 255 255 255 255 255 255 255 255 255 255 255 255 255 255 255 255 
255 255 255 255 255 255 255 255 255 255 255 255 255 255 255 255 255 255 255 255 254 253 249 244 239 233 226 222 220 216 212 209 206 203 200 199 198 197 198 200 207 217 228 238 246 252 254 254 254 254 254 254 254 254 254 254 254 254 254 254 254 255 255 255 255 255 255 255 255 255 255 255 255 255 255 255 255 255 255 255 255 255 255 255 255 255 255 255 255 255 255 255 255 255 255 255 
255 255 255 255 255 255 255 255 255 255 255 255 255 255 255 255 255 255 255 255 255 255 253 250 248 244 240 237 235 233 230 227 224 222 220 219 220 220 222 226 232 239 246 250 253 254 255 255 255 255 255 255 255 255 255 255 255 255 255 255 255 255 255 255 255 255 255 255 255 255 255 255 255 255 255 255 255 255 255 255 255 255 255 255 255 255 255 255 255 255 255 255 255 255 255 255 
