P2
99 99
255
179 179 179 179 179 179 179 179 179 179 179 179 179 179 179 179 179 179 179 179 179 179 179 179 179 179 179 179 179 179 179 179 179 179 179 179 179 179 179 179 179 179 179 179 179 179 179 178 178 178 178 178 178 177 176 177 177 177 176 178 177 178 179 179 179 179 179 179 179 179 179 179 179 179 179 179 179 179 179 179 179 179 179 179 179 179 179 179 179 179 179 179 179 179 179 179 179 179 179 
179 179 179 179 179 179 179 179 179 179 179 179 179 179 179 179 179 179 179 179 179 179 179 179 179 179 179 179 179 179 179 179 179 179 179 179 179 179 179 179 179 179 179 179 179 179 179 179 178 178 178 178 178 177 178 176 176 174 174 178 179 179 179 179 179 179 179 179 179 179 179 179 179 179 179 179 179 179 179 179 179 179 179 179 179 179 179 179 179 179 179 179 179 179 179 179 179 179 179 
179 179 179 179 179 179 179 179 179 179 179 179 179 179 179 179 179 179 179 179 179 179 179 179 179 179 179 179 179 179 179 179 179 179 179 179 179 179 179 179 179 179 179 179 179 179 178 178 179 179 178 178 177 175 172 166 157 158 171 178 179 179 179 179 179 179 179 179 179 179 179 179 179 179 179 179 179 179 179 179 179 179 179 179 179 179 179 179 179 179 179 179 179 179 179 179 179 179 179 
179 179 179 179 179 179 179 179 179 179 179 179 179 179 179 179 179 179 179 179 179 179 179 179 179 179 179 179 179 179 179 179 179 179 179 179 179 179 179 179 179 179 179 179 179 179 178 178 177 177 176 175 176 157 141 132 139 148 168 177 178 179 179 179 179 179 179 179 179 179 179 179 179 179 179 179 179 179 179 179 179 179 179 179 179 179 179 179 179 179 179 179 179 179 179 179 179 179 179 
179 179 179 179 179 179 179 179 179 179 179 179 179 179 179 179 179 179 179 179 179 179 179 179 179 179 179 179 179 179 179 179 179 179 179 179 179 179 179 179 179 179 179 179 179 179 177 178 176 177 176 172 147 138 145 151 152 148 157 176 178 179 179 179 179 179 179 179 179 179 179 179 179 179 179 179 179 179 179 179 179 179 179 179 179 179 179 179 179 179 179 179 179 179 179 179 179 179 179 
179 179 179 179 179 179 179 179 179 179 179 179 179 179 179 179 179 179 179 179 179 179 179 179 179 179 179 179 179 179 179 179 179 179 179 179 179 179 179 179 179 179 178 178 178 178 175 178 177 176 169 135 148 156 152 160 156 141 141 172 175 179 179 179 179 179 179 179 179 179 179 179 179 179 179 179 179 179 179 179 179 179 179 179 179 179 179 179 179 179 179 179 179 179 179 179 179 179 179 
179 179 179 179 179 179 179 179 179 179 179 179 179 179 179 179 179 179 179 179 179 179 179 179 179 179 179 179 179 179 179 179 179 179 179 179 179 179 179 179 179 179 177 177 177 177 177 178 176 168 129 140 155 151 159 152 148 139 126 159 176 179 179 179 179 179 179 179 179 179 179 179 179 179 179 179 179 179 179 179 179 179 179 179 179 179 179 179 179 179 179 179 179 179 179 179 179 179 179 
179 179 179 179 179 179 179 179 179 179 179 179 179 179 179 179 179 179 179 179 179 179 179 178 178 178 179 179 179 179 179 179 179 179 179 179 179 179 178 178 176 178 176 176 175 176 177 176 173 134 123 155 145 153 152 155 135 128 115 151 176 176 178 179 179 179 179 179 179 179 179 179 179 179 179 179 179 179 179 179 179 179 179 179 179 179 179 179 179 179 179 179 179 179 179 179 179 179 179 
179 179 179 179 179 179 179 179 179 179 179 179 179 179 179 178 178 178 178 178 178 177 177 178 178 178 179 179 179 178 178 178 178 179 177 176 178 178 177 176 175 178 172 174 175 176 173 172 158 107 155 146 139 151 151 137 130 128 102 148 173 176 177 178 179 179 179 179 179 179 179 179 179 179 179 179 179 179 179 179 179 179 179 179 179 179 179 179 179 179 179 179 179 179 179 179 179 179 179 
179 179 179 179 179 179 179 179 179 179 179 179 179 179 179 178 177 179 179 178 179 178 177 178 178 178 178 179 178 178 177 176 176 176 175 174 177 177 173 172 176 173 167 168 174 174 169 165 110 142 153 128 139 150 151 130 126 106 94 137 167 176 177 178 179 179 179 179 179 179 179 179 179 179 179 179 179 179 179 179 179 179 179 179 179 179 179 179 179 179 179 179 179 179 179 179 179 179 179 
179 179 179 179 179 179 179 179 179 179 179 179 179 179 179 178 177 175 173 173 175 176 178 178 178 178 178 178 178 177 176 175 175 175 176 169 168 171 171 159 164 168 142 141 163 167 160 106 115 156 139 123 153 151 122 124 127 86 91 132 160 176 177 178 179 179 179 179 179 179 179 179 179 179 179 179 179 179 179 179 179 179 179 179 179 179 179 179 179 179 179 179 179 179 179 179 179 179 179 
179 179 179 179 179 179 179 179 179 179 179 179 178 178 179 176 170 159 145 141 147 160 172 176 176 176 176 176 176 176 174 169 170 167 176 158 136 152 144 127 121 141 98 95 131 141 113 93 151 150 113 146 152 124 127 115 107 78 90 134 153 173 177 176 177 179 179 179 179 179 179 179 179 179 179 179 179 179 179 179 179 179 179 179 179 179 179 179 179 179 179 179 179 179 179 179 179 179 179 
179 179 179 179 179 179 179 179 179 179 179 179 177 178 178 170 163 153 146 141 130 118 114 135 167 168 174 174 174 167 166 142 140 141 157 138 92 104 95 103 98 120 78 72 102 92 99 134 148 120 130 144 126 116 112 117 76 74 108 135 144 169 174 174 176 179 179 179 179 179 179 179 179 179 179 179 179 179 179 179 179 179 179 179 179 179 179 179 179 179 179 179 179 179 179 179 179 179 179 
179 179 179 179 179 179 179 179 179 179 179 179 178 179 174 160 160 162 159 156 157 155 150 113 101 144 153 167 167 165 145 115 88 88 121 113 74 74 68 70 85 120 62 65 96 92 122 148 134 125 131 118 118 125 113 95 67 84 134 123 137 154 156 173 178 179 179 179 179 179 179 179 179 179 179 179 179 179 179 179 179 179 179 179 179 179 179 179 179 179 179 179 179 179 179 179 179 179 179 
179 179 179 179 179 179 179 179 179 179 179 179 178 179 172 147 148 156 158 148 146 146 148 153 144 101 95 123 140 127 120 113 74 52 99 118 50 60 59 55 50 118 54 52 93 104 129 143 130 123 111 121 131 120 110 71 71 132 115 115 131 142 160 174 177 179 179 179 179 179 179 179 179 179 179 179 179 179 179 179 179 179 179 179 179 179 179 179 179 179 179 179 179 179 179 179 179 179 179 
179 179 179 179 179 179 179 179 179 179 179 179 179 178 170 132 134 132 148 159 148 142 140 142 146 146 127 90 81 84 85 88 75 36 62 122 42 44 43 42 25 98 72 39 92 107 127 134 125 117 117 138 130 121 81 70 125 120 114 113 130 154 165 172 174 176 177 179 179 179 179 179 179 179 179 179 179 179 179 179 179 179 179 179 179 179 179 179 179 179 179 179 179 179 179 179 179 179 179 
179 179 179 179 179 179 179 179 179 179 179 179 179 176 171 132 125 130 125 127 152 159 146 141 143 140 139 141 125 92 77 62 69 32 39 118 55 24 38 37 22 84 93 27 89 116 130 131 114 118 131 144 137 105 76 124 106 125 115 119 141 141 145 160 164 174 176 179 179 179 179 179 179 179 179 179 179 179 179 179 179 179 179 179 179 179 179 179 179 179 179 179 179 179 179 179 179 179 179 
179 179 179 179 179 179 179 179 179 179 179 179 179 176 174 141 127 96 112 124 103 113 139 157 154 145 133 130 138 130 108 73 70 35 31 111 65 15 23 30 23 69 107 34 76 102 116 118 113 120 144 145 121 88 123 121 124 137 115 118 137 131 150 139 153 174 176 178 179 179 179 179 179 179 179 179 179 179 179 179 179 179 179 179 179 179 179 179 179 179 179 179 179 179 179 179 179 179 179 
179 179 179 179 179 179 179 179 179 179 179 179 177 174 176 151 136 125 90 69 102 113 76 81 105 131 138 125 115 124 121 92 76 45 31 99 84 22 13 24 23 62 113 53 46 75 103 106 111 134 142 130 106 122 130 127 146 115 94 121 139 149 146 148 170 174 175 177 179 179 179 179 179 179 179 179 179 179 179 179 179 179 179 179 179 179 179 179 179 179 179 179 179 179 179 179 179 179 179 
179 179 179 179 179 179 179 179 179 179 179 179 179 178 175 157 141 115 109 109 81 71 97 120 97 78 104 115 109 105 114 98 72 48 39 86 93 22 12 18 23 57 119 61 27 57 88 97 120 134 132 111 116 134 137 130 115 74 119 152 153 152 144 143 151 168 175 175 177 178 178 179 179 179 179 179 179 179 179 179 179 179 179 179 179 179 179 179 179 179 179 179 179 179 179 179 179 179 179 
179 179 179 179 179 179 179 179 179 179 179 179 179 179 174 156 143 138 97 70 80 95 92 74 103 132 113 113 120 109 108 92 74 64 36 76 104 31 13 17 20 48 117 57 33 46 76 105 115 121 115 113 129 129 118 93 67 125 144 148 147 134 122 120 140 154 171 174 177 177 178 179 179 179 179 179 179 179 179 179 179 179 179 179 179 179 179 179 179 179 179 179 179 179 179 179 179 179 179 
179 179 179 179 179 179 179 179 179 179 179 179 179 179 174 169 138 131 126 115 69 44 43 76 81 82 120 133 129 120 113 102 76 66 50 73 103 51 20 20 20 36 113 60 38 44 89 101 103 109 103 120 120 113 69 70 121 137 133 137 125 116 111 104 112 133 153 165 166 172 174 178 179 179 179 179 179 179 179 179 179 179 179 179 179 179 179 179 179 179 179 179 179 179 179 179 179 179 179 
179 179 179 179 179 179 179 179 179 179 179 179 179 179 176 158 146 142 118 94 95 126 134 115 106 99 115 120 124 130 117 113 99 76 57 62 90 92 31 30 24 31 103 57 46 79 89 90 83 96 123 118 90 68 87 113 120 109 105 96 97 80 79 100 119 130 141 145 153 166 172 174 174 178 179 179 179 179 179 179 179 179 179 179 179 179 179 179 179 179 179 179 179 179 179 179 179 179 179 
179 179 179 179 179 179 179 179 179 179 179 179 179 178 176 167 140 135 131 110 97 74 84 132 147 145 129 126 131 118 119 107 88 64 43 43 74 103 59 45 28 27 88 71 75 95 71 67 88 109 127 103 83 86 109 118 99 92 78 70 76 66 83 125 132 122 113 118 134 148 154 166 175 176 177 178 179 179 179 179 179 179 179 179 179 179 179 179 179 179 179 179 179 179 179 179 179 179 179 
179 179 179 179 179 179 179 179 179 179 179 179 179 178 176 172 164 146 145 132 118 104 94 86 100 125 134 125 116 108 102 100 95 82 67 49 59 74 82 58 29 27 81 83 106 95 59 61 114 130 119 102 95 110 131 126 106 96 88 78 76 89 125 117 102 102 129 142 155 153 155 164 174 176 176 178 179 179 179 179 179 179 179 179 179 179 179 179 179 179 179 179 179 179 179 179 179 179 179 
179 179 179 179 179 179 179 179 179 179 179 179 179 178 176 172 164 160 151 150 141 138 130 122 126 127 125 132 136 125 113 111 112 111 106 81 85 76 67 73 43 29 88 83 125 105 45 76 127 133 113 107 111 135 134 124 109 104 99 102 105 127 113 94 103 119 137 146 144 152 155 165 173 175 176 177 178 179 179 179 179 179 179 179 179 179 179 179 179 179 179 179 179 179 179 179 179 179 179 
179 179 179 179 179 179 179 179 179 179 179 179 179 177 176 172 167 151 153 157 150 150 153 152 142 139 137 129 127 127 123 118 109 104 102 90 117 115 88 71 58 36 104 97 129 111 50 101 134 127 115 113 127 144 136 118 115 122 130 123 130 124 104 102 106 125 129 127 129 134 153 167 167 174 177 177 177 179 179 179 179 179 179 179 179 179 179 179 179 179 179 179 179 179 179 179 179 179 179 
179 179 179 179 179 179 179 179 179 179 179 179 179 176 175 167 162 157 155 157 158 158 157 155 151 149 146 139 137 133 130 128 129 118 97 73 115 132 122 84 78 49 106 109 137 112 59 98 131 113 115 114 125 127 115 118 118 135 134 131 131 106 105 102 118 113 99 93 93 112 131 151 163 170 176 178 178 179 179 179 179 179 179 179 179 179 179 179 179 179 179 179 179 179 179 179 179 179 179 
179 179 179 179 179 179 179 179 179 179 179 179 179 176 175 165 139 136 141 141 148 152 151 145 146 139 130 121 115 118 119 132 137 134 127 86 86 140 140 108 90 71 103 119 134 111 67 99 109 70 55 62 85 99 106 101 125 137 137 130 102 96 109 118 109 90 70 76 81 82 97 120 149 165 172 176 177 179 179 179 179 179 179 179 179 179 179 179 179 179 179 179 179 179 179 179 179 179 179 
179 179 179 179 179 179 179 179 179 179 179 179 179 176 175 174 168 144 127 118 113 109 109 113 117 119 118 115 106 104 93 99 118 137 142 113 75 133 144 128 99 92 97 117 120 106 83 104 41 18 18 22 35 67 85 100 115 111 90 74 86 108 107 103 88 76 74 78 112 126 141 160 169 174 176 177 176 179 179 179 179 179 179 179 179 179 179 179 179 179 179 179 179 179 179 179 179 179 179 
179 179 179 179 179 179 179 179 179 179 179 178 179 178 175 169 155 141 125 111 98 90 92 95 100 106 114 114 113 115 102 100 109 113 127 127 82 114 146 137 107 102 96 108 104 99 102 58 12 39 25 21 40 35 70 79 68 72 67 83 90 78 62 50 46 48 59 81 98 118 148 168 174 176 178 178 178 179 179 179 179 179 179 179 179 179 179 179 179 179 179 179 179 179 179 179 179 179 179 
179 179 179 179 179 179 179 179 179 179 179 178 179 179 175 169 147 124 108 97 83 68 60 70 88 105 119 132 133 132 130 129 127 122 119 121 118 102 137 137 108 113 104 97 85 105 105 29 25 82 22 11 41 61 96 111 121 121 114 88 62 39 27 20 25 33 61 78 105 125 146 158 170 174 177 176 176 179 179 179 179 179 179 179 179 179 179 179 179 179 179 179 179 179 179 179 179 179 179 
179 179 179 179 179 179 179 179 179 179 179 178 179 179 175 172 158 142 118 94 82 81 91 102 115 118 126 137 144 144 140 124 95 46 30 41 77 112 142 143 110 112 111 91 78 110 107 21 50 38 10 13 43 67 113 127 137 130 111 92 64 38 21 19 27 36 41 56 65 85 118 138 152 166 173 178 178 179 179 179 179 179 179 179 179 179 179 179 179 179 179 179 179 179 179 179 179 179 179 
179 179 179 179 179 179 179 179 179 179 179 178 179 179 175 160 132 108 106 113 114 119 125 123 130 134 141 141 138 134 115 93 41 30 22 27 29 47 135 146 118 110 113 95 86 106 105 17 52 73 57 55 64 74 131 125 128 120 114 94 57 46 34 21 21 23 29 29 43 57 85 122 150 161 171 176 178 179 179 179 179 179 179 179 179 179 179 179 179 179 179 179 179 179 179 179 179 179 179 
179 179 179 179 179 179 179 179 179 179 179 178 178 176 176 152 130 102 73 54 57 54 59 78 104 120 130 132 134 125 106 64 39 33 109 28 59 57 81 138 123 113 121 103 97 97 110 34 18 46 63 56 43 111 130 114 125 118 99 84 85 83 71 58 52 49 50 63 69 92 122 150 165 175 176 174 177 177 178 179 179 179 179 179 179 179 179 179 179 179 179 179 179 179 179 179 179 179 179 
179 179 179 179 179 179 179 179 179 179 179 176 179 176 162 134 114 111 114 110 98 81 80 88 105 122 136 141 139 120 76 56 61 29 16 11 53 67 37 121 128 120 129 114 111 89 101 67 62 35 32 55 102 125 105 113 104 101 99 95 99 97 99 103 102 96 79 72 82 83 87 106 148 172 175 176 178 177 178 179 179 179 179 179 179 179 179 179 179 179 179 179 179 179 179 179 179 179 179 
179 179 179 179 179 179 179 179 179 179 179 179 178 170 159 143 132 135 137 135 129 132 138 137 138 140 135 113 85 69 88 84 71 42 25 30 78 50 42 99 113 113 125 116 122 109 88 67 88 102 112 118 112 97 95 95 97 88 76 75 87 111 111 109 95 75 55 34 34 48 78 100 121 144 163 173 176 177 178 179 179 179 179 179 179 179 179 179 179 179 179 179 179 179 179 179 179 179 179 
179 179 179 179 179 179 179 179 179 179 179 179 179 174 168 148 144 136 118 102 102 111 111 104 84 62 42 58 101 122 126 116 67 72 79 74 67 56 89 84 93 114 112 110 99 90 92 77 71 96 106 95 78 64 79 85 85 94 106 119 126 122 109 98 74 46 39 44 55 74 101 137 160 170 174 173 175 177 178 179 179 179 179 179 179 179 179 179 179 179 179 179 179 179 179 179 179 179 179 
179 179 179 179 179 179 179 179 179 179 179 178 176 172 158 143 139 129 109 103 92 81 65 49 43 41 90 126 137 138 130 136 122 72 51 51 57 90 96 83 88 108 99 113 118 88 64 76 68 74 69 69 77 88 83 99 120 126 125 122 120 111 104 95 95 92 95 101 107 122 132 141 152 163 173 177 177 177 178 179 179 179 179 179 179 179 179 179 179 179 179 179 179 179 179 179 179 179 179 
179 179 179 179 179 179 179 179 179 179 179 179 174 170 147 131 120 104 77 71 74 65 49 35 41 73 105 115 122 127 124 111 117 129 122 120 122 120 104 84 85 94 106 118 118 106 83 76 82 78 79 83 74 87 102 115 130 144 146 145 144 137 125 117 106 99 102 106 111 124 128 146 156 167 170 174 176 177 178 179 179 179 179 179 179 179 179 179 179 179 179 179 179 179 179 179 179 179 179 
179 179 179 179 179 179 179 179 179 179 179 178 176 157 128 119 92 85 87 74 71 43 36 41 56 81 89 99 109 113 112 102 81 68 68 69 76 83 87 85 97 91 109 109 100 85 76 66 97 98 90 85 97 102 109 115 132 138 142 139 128 116 106 101 95 90 79 69 67 78 98 124 148 162 169 175 177 177 178 179 179 179 179 179 179 179 179 179 179 179 179 179 179 179 179 179 179 179 179 
179 179 179 179 179 179 179 179 179 179 179 176 170 158 148 100 97 92 99 98 68 55 53 77 104 126 138 141 140 127 113 100 90 82 75 67 74 78 88 104 111 100 85 80 81 62 57 98 117 113 106 104 102 110 119 120 111 113 115 119 115 102 92 86 74 73 85 95 85 66 58 76 102 129 153 169 175 176 178 178 179 179 179 179 179 179 179 179 179 179 179 179 179 179 179 179 179 179 179 
179 179 179 179 179 179 179 179 179 179 179 178 171 167 115 109 108 101 115 102 90 89 94 106 112 118 124 126 132 132 133 138 137 128 114 106 102 98 104 111 126 120 98 77 72 57 83 109 113 113 113 122 115 93 85 98 111 112 96 81 80 96 92 69 76 84 69 57 56 59 54 56 69 85 118 152 173 176 178 177 177 178 179 179 179 179 179 179 179 179 179 179 179 179 179 179 179 179 179 
179 179 179 179 179 179 179 179 179 179 179 177 172 134 137 134 104 123 111 99 84 81 83 88 102 115 129 138 140 139 140 145 144 131 124 124 125 136 141 130 120 113 113 108 82 81 114 122 124 118 106 92 97 99 115 130 129 126 127 118 97 77 74 88 74 55 81 81 50 36 31 31 54 79 111 153 168 172 176 176 176 178 178 179 179 179 179 179 179 179 179 179 179 179 179 179 179 179 179 
179 179 179 179 179 179 179 179 179 179 179 177 168 157 153 115 119 107 90 78 68 65 85 90 100 117 120 124 133 145 153 155 150 144 141 139 134 120 115 126 139 135 121 114 94 88 103 103 109 114 116 111 104 111 115 118 125 122 109 109 125 118 91 69 83 79 53 48 72 43 16 23 29 57 88 129 156 167 174 176 176 177 178 178 179 179 179 179 179 179 179 179 179 179 179 179 179 179 179 
179 179 179 179 179 179 179 179 179 179 179 176 176 171 156 120 115 107 96 78 67 54 49 63 91 107 116 129 133 136 142 141 137 137 141 147 152 149 139 133 125 122 115 91 72 82 74 76 72 82 87 97 102 103 107 104 99 106 107 74 53 74 104 112 75 80 77 46 27 53 52 22 18 41 92 132 161 169 173 175 176 176 177 178 179 179 179 179 179 179 179 179 179 179 179 179 179 179 179 
179 179 179 179 179 179 179 179 179 179 179 178 175 170 133 120 136 115 87 55 39 29 48 89 104 103 94 86 111 127 129 129 128 134 140 137 133 138 146 146 142 124 73 64 92 102 115 107 90 80 74 78 97 100 110 115 111 100 93 113 97 59 34 53 97 96 90 78 43 22 27 64 69 67 101 127 150 163 172 176 176 176 176 178 179 179 179 179 179 179 179 179 179 179 179 179 179 179 179 
179 179 179 179 179 179 179 179 179 179 179 178 176 167 149 149 127 102 55 36 57 87 105 104 106 94 95 120 119 111 109 111 110 128 132 146 149 146 139 134 115 71 74 113 130 125 126 138 135 120 123 120 127 134 139 142 136 126 111 99 112 121 115 88 57 60 74 90 85 68 39 25 56 76 90 99 125 151 163 167 173 176 176 178 179 179 179 179 179 179 179 179 179 179 179 179 179 179 179 
179 179 179 179 179 179 179 179 179 179 179 178 173 172 160 158 144 81 67 92 93 95 109 106 105 112 98 91 89 90 92 91 122 130 139 144 148 144 133 120 88 83 118 135 151 137 133 151 155 153 145 140 143 151 151 150 142 130 118 105 88 86 109 118 111 88 83 79 76 79 87 76 57 76 100 113 132 152 168 174 176 176 176 178 179 179 179 179 179 179 179 179 179 179 179 179 179 179 179 
179 179 179 179 179 179 179 179 179 179 179 178 175 172 172 161 112 113 124 109 118 112 121 125 122 97 76 68 78 95 92 118 122 134 139 134 130 132 124 105 107 118 134 150 153 150 139 152 156 160 155 158 149 151 146 145 146 147 109 96 81 62 39 65 95 84 85 88 76 62 67 65 62 48 43 67 81 97 119 147 166 174 176 177 178 178 179 179 179 179 179 179 179 179 179 179 179 179 179 
179 179 179 179 179 179 179 179 179 179 178 177 178 176 172 155 152 161 140 134 127 126 128 121 101 69 53 65 106 102 119 124 125 106 104 125 137 140 122 128 132 139 148 156 158 154 146 150 155 155 153 159 148 142 137 117 111 122 134 109 73 67 50 28 29 64 76 69 79 88 70 57 60 39 32 32 48 83 118 153 165 168 172 175 177 177 178 179 179 179 179 179 179 179 179 179 179 179 179 
179 179 179 179 179 179 179 179 179 178 177 176 176 175 170 168 171 167 153 124 111 102 104 100 71 48 54 103 115 114 126 96 85 84 132 144 126 121 141 146 140 154 156 160 159 152 141 135 149 150 143 143 136 126 134 136 109 62 67 97 112 74 47 49 41 34 48 74 63 59 62 83 56 50 28 31 48 88 130 164 174 176 178 176 176 177 178 179 179 179 179 179 179 179 179 179 179 179 179 
179 179 179 179 179 179 179 179 178 177 176 176 174 169 170 171 169 162 144 109 80 83 92 74 57 58 93 120 114 113 92 67 87 125 130 113 100 135 148 139 146 153 154 158 158 151 134 120 126 132 116 113 109 89 101 110 134 118 64 39 55 85 73 35 27 27 37 41 55 82 59 38 62 57 35 36 41 51 69 115 148 167 171 176 177 177 178 179 179 179 179 179 179 179 179 179 179 179 179 
179 179 179 179 179 179 179 179 176 176 172 167 166 165 156 160 151 144 122 71 61 79 58 69 75 95 116 110 97 99 61 71 115 125 104 80 117 144 141 126 137 140 144 153 151 144 134 120 105 107 91 88 90 75 52 66 88 115 130 79 46 38 59 69 36 24 36 39 36 52 84 53 25 39 39 21 32 40 44 65 92 129 151 161 168 171 174 178 178 178 178 178 178 178 178 178 179 179 179 
179 179 179 179 179 179 179 179 174 165 153 118 109 128 132 117 125 123 91 66 78 53 76 86 97 106 84 76 86 69 53 88 113 110 66 92 132 134 110 106 123 123 137 146 144 126 125 123 95 97 64 45 67 87 74 38 36 58 88 113 87 53 34 41 55 43 39 31 35 43 42 75 38 19 34 29 31 64 95 115 140 163 175 174 172 173 175 176 178 178 178 178 178 178 178 178 179 179 179 
179 179 179 179 179 179 179 179 173 144 92 69 41 57 95 99 92 95 79 83 65 93 99 106 98 52 43 71 71 64 62 83 114 61 53 111 125 113 81 95 104 118 127 127 131 112 106 118 108 93 74 53 39 50 74 60 27 31 46 59 85 87 75 50 44 50 53 47 41 43 31 40 59 23 12 35 22 28 55 103 143 165 174 176 178 178 178 177 178 178 178 178 178 178 178 178 179 179 179 
179 179 179 179 179 179 179 178 167 126 72 43 37 31 50 84 92 88 100 101 107 118 108 86 37 30 52 49 71 67 64 81 101 34 72 104 121 88 73 78 90 100 111 109 118 113 95 99 125 104 87 70 64 48 34 50 39 22 39 81 69 37 35 48 48 59 65 62 64 60 31 27 40 48 22 25 43 34 52 87 111 139 162 171 176 177 178 178 178 178 178 178 178 178 178 178 179 179 179 
179 179 179 179 179 179 179 177 167 118 66 52 47 44 73 90 95 112 119 120 123 98 74 28 25 37 36 56 72 71 69 104 53 39 75 90 116 62 55 59 77 79 91 120 125 94 92 84 103 114 90 63 55 58 37 22 31 27 18 34 88 100 53 18 27 36 59 78 81 90 77 34 18 25 35 21 27 62 74 93 124 151 167 172 176 176 176 177 178 178 178 178 178 178 178 178 179 179 179 
179 179 179 179 179 179 179 179 172 124 61 46 53 69 81 103 114 122 123 107 95 62 26 27 34 34 69 75 80 72 90 78 25 52 74 88 98 50 51 58 65 72 113 126 94 81 83 94 74 102 92 70 53 41 52 18 15 16 24 27 19 64 118 94 34 19 38 78 77 74 87 81 43 15 12 25 24 27 68 109 137 158 172 174 176 176 176 177 178 178 178 178 178 178 178 178 179 179 179 
179 179 179 179 179 179 179 178 177 151 99 60 45 41 57 65 92 87 81 71 47 34 23 57 59 81 92 71 62 76 97 40 22 64 74 89 82 45 63 69 92 114 114 86 67 73 78 93 59 69 96 64 62 48 43 38 15 12 6 16 35 14 29 94 127 85 29 30 71 71 62 76 65 50 23 20 29 39 41 58 107 154 172 175 176 177 177 178 178 178 178 178 178 178 178 178 179 179 179 
179 179 179 179 179 179 179 179 177 171 119 62 43 46 51 58 31 32 49 46 53 36 76 84 99 101 72 32 67 102 61 43 53 84 67 85 59 67 84 91 96 76 67 52 75 77 74 92 62 59 81 91 57 67 55 31 30 15 16 9 20 54 25 10 35 105 132 81 43 44 53 40 57 66 50 54 62 63 57 66 73 95 146 173 177 177 178 179 178 178 178 178 178 178 178 178 179 179 179 
179 179 179 179 179 179 179 178 178 174 150 95 55 64 48 28 25 27 46 75 59 73 94 97 102 76 26 34 78 100 55 61 82 67 56 76 53 46 55 64 59 64 56 58 81 81 83 97 64 52 70 95 85 75 77 57 32 31 22 39 13 37 66 23 17 18 55 120 109 57 52 54 27 31 59 49 43 77 88 105 124 139 145 165 175 176 177 178 178 178 178 178 178 178 178 178 179 179 179 
179 179 179 179 179 179 179 179 178 174 174 146 109 66 48 31 29 39 64 88 85 103 97 102 83 20 27 42 109 86 77 83 102 65 60 81 58 64 73 66 71 61 60 85 90 92 92 111 76 57 64 84 109 121 117 99 80 46 48 34 62 27 57 69 34 29 34 34 79 120 78 49 66 47 22 23 29 21 54 95 116 139 163 171 176 176 177 178 178 178 178 178 178 178 178 178 179 179 179 
179 179 179 179 179 179 179 178 178 177 177 169 152 111 77 55 62 67 96 103 106 93 104 72 27 33 44 69 118 76 95 111 98 59 93 76 83 100 83 94 88 71 98 104 101 92 107 103 121 53 71 97 95 102 113 127 105 80 66 50 50 85 53 65 69 41 38 38 37 57 111 110 71 83 71 48 34 25 30 56 119 152 170 173 176 176 177 178 178 178 178 178 178 178 178 178 179 179 179 
179 179 179 179 179 179 179 178 178 176 179 177 174 158 135 111 90 103 103 117 102 97 64 30 49 68 61 97 107 86 115 111 91 87 101 99 114 107 93 113 95 113 132 134 118 92 92 109 120 106 57 102 114 126 117 114 124 110 83 80 45 58 93 74 44 42 18 29 48 64 74 95 130 122 120 104 86 54 46 63 103 151 172 177 176 176 177 178 178 178 178 178 178 178 178 178 179 179 179 
179 179 179 179 179 179 179 179 179 179 179 179 179 174 162 139 134 120 115 111 104 67 43 70 88 81 68 113 96 112 118 104 71 98 101 127 125 97 122 118 107 136 149 146 132 115 115 97 104 124 62 90 115 112 121 106 125 115 102 95 72 36 42 75 73 27 27 11 13 39 72 97 102 122 118 119 121 109 95 93 104 137 171 174 177 178 178 178 177 177 177 177 177 178 179 179 179 179 179 
179 179 179 179 179 179 179 179 179 179 179 178 179 178 173 168 158 148 134 118 87 53 89 101 99 91 97 109 112 115 104 85 67 89 121 130 108 104 120 117 115 141 153 152 151 125 126 141 117 109 83 69 118 110 101 91 127 118 86 115 97 58 32 48 69 50 27 21 14 8 22 54 88 100 110 113 90 69 86 109 118 149 169 174 177 177 177 177 176 176 176 176 177 178 179 179 179 179 179 
179 179 179 179 179 179 179 179 179 179 179 178 179 179 178 173 169 160 144 115 76 104 118 113 90 83 97 111 106 83 64 51 74 109 111 104 87 116 115 120 120 137 154 157 159 139 126 139 151 129 103 72 103 115 85 64 128 128 85 103 88 95 57 52 74 68 34 27 23 22 22 29 55 65 78 82 81 62 57 83 117 159 174 176 176 176 176 176 176 176 176 176 177 178 179 179 179 179 179 
179 179 179 179 179 179 179 179 179 179 179 179 178 177 177 176 171 163 144 105 111 137 119 78 80 70 106 88 60 46 35 59 79 86 66 74 93 100 115 120 115 120 149 158 157 150 134 143 148 141 127 92 103 109 79 50 123 135 77 102 61 74 89 43 41 67 31 24 18 27 31 27 35 56 50 39 48 59 53 80 114 157 172 172 175 176 176 176 176 176 176 176 177 178 178 179 179 179 179 
179 179 179 179 179 179 179 179 179 179 179 179 179 179 179 177 174 172 143 127 143 124 103 102 54 89 66 50 36 30 43 54 55 52 61 73 91 86 109 113 106 97 141 155 153 151 137 144 146 146 133 111 112 110 56 34 106 133 67 99 58 39 78 80 50 55 33 28 31 34 36 31 36 43 49 18 24 58 38 71 127 153 168 173 174 174 175 175 175 175 175 175 176 177 177 178 178 178 178 
179 179 179 179 179 179 179 179 179 179 179 179 179 179 179 178 175 171 156 156 139 132 113 44 78 67 35 34 29 41 59 64 58 59 78 76 70 74 91 105 102 73 121 139 139 148 145 143 148 151 128 117 127 110 39 27 88 118 55 71 64 32 48 58 59 53 36 40 46 62 71 67 44 34 50 25 18 36 50 68 127 153 165 171 174 174 174 175 175 175 175 175 176 177 177 178 178 178 178 
179 179 179 179 179 179 179 179 179 179 179 179 179 179 179 177 177 174 173 164 149 120 71 80 96 34 35 53 83 102 114 103 73 75 78 48 40 79 65 90 102 63 104 135 114 132 147 140 147 148 127 122 125 118 29 25 70 100 64 54 76 31 35 46 31 29 29 20 20 30 59 92 100 62 52 36 34 34 72 99 130 149 162 168 172 173 174 174 175 175 175 175 176 177 177 178 178 178 178 
179 179 179 179 179 179 179 179 179 179 179 179 179 179 179 179 179 177 176 170 146 125 93 120 65 57 83 115 126 108 63 43 82 93 53 30 37 69 48 75 99 66 59 125 121 87 144 139 143 146 122 127 120 113 27 23 57 78 69 39 68 43 26 29 26 15 22 23 27 54 59 51 60 97 95 63 61 81 99 134 152 158 162 168 172 173 173 174 175 175 175 175 176 177 177 178 178 178 178 
179 179 179 179 179 179 179 179 179 179 179 179 179 179 179 179 179 178 178 176 168 134 129 109 95 106 109 78 43 34 87 122 108 57 21 39 55 57 45 65 85 54 31 81 129 88 109 143 133 141 111 120 113 95 27 33 50 66 71 40 53 38 34 29 34 22 34 43 72 85 71 59 46 46 66 104 113 125 142 153 161 164 167 169 172 172 174 174 176 176 176 176 176 177 177 178 178 178 178 
179 179 179 179 179 179 179 179 179 179 179 179 179 179 179 178 179 178 178 177 172 153 148 129 106 73 42 37 74 125 140 96 39 20 33 59 59 55 48 62 81 46 18 57 81 118 71 125 134 131 103 120 102 81 32 51 53 67 74 50 53 50 50 60 56 57 65 82 76 71 51 45 53 48 50 48 98 134 155 165 166 166 169 172 173 174 174 176 176 176 176 176 176 177 177 178 178 178 178 
179 179 179 179 179 179 179 179 179 179 179 179 179 179 179 178 178 178 178 175 173 171 151 109 76 61 83 117 120 95 42 18 41 81 104 93 90 81 64 63 64 29 18 41 36 91 84 83 122 116 95 117 85 69 57 71 65 83 83 73 67 54 42 44 67 81 74 93 98 70 27 14 18 47 77 85 75 92 134 155 165 169 172 174 174 175 176 177 176 176 176 176 176 177 177 178 178 178 178 
179 179 179 179 179 179 179 179 179 179 179 179 179 179 179 179 179 179 179 179 178 176 162 127 108 109 99 61 36 29 54 81 121 131 132 120 112 104 95 74 57 30 16 27 26 46 101 59 91 104 83 102 74 54 69 83 74 91 87 87 81 69 55 41 36 41 56 84 89 83 57 26 13 15 32 85 131 145 152 158 166 170 172 174 175 176 177 178 177 177 177 177 176 176 176 177 177 177 177 
179 179 179 179 179 179 179 179 179 179 179 179 179 179 179 179 179 179 179 179 177 177 168 149 123 82 50 48 59 94 103 132 144 149 136 127 116 113 122 86 69 51 20 18 29 33 97 48 55 101 80 83 60 50 70 88 69 90 77 72 66 56 53 46 32 20 34 78 78 67 53 29 20 13 19 36 88 131 155 158 165 169 173 176 175 176 176 178 177 177 177 177 176 176 176 176 176 176 176 
179 179 179 179 179 179 179 179 179 179 179 179 179 179 179 179 179 179 179 179 177 178 171 155 125 88 67 67 94 112 135 142 145 132 113 115 116 124 137 116 83 87 39 13 27 30 82 55 24 64 86 62 54 44 63 90 57 88 67 60 40 44 39 33 39 32 46 78 44 35 43 41 25 18 19 43 70 103 127 141 153 158 166 172 174 174 176 176 177 177 177 177 177 177 177 177 177 177 177 
179 179 179 179 179 179 179 179 179 179 179 179 179 179 179 179 179 179 179 177 176 179 174 155 105 70 84 108 123 133 141 148 127 86 92 110 111 137 144 135 101 115 88 47 25 22 64 60 14 29 92 47 44 34 48 81 54 76 68 57 43 27 53 39 50 55 82 35 17 16 14 17 24 30 31 52 73 101 120 134 148 153 160 165 172 173 174 175 177 177 177 177 178 178 178 178 178 178 178 
179 179 179 179 179 179 179 179 179 179 179 179 179 179 179 179 179 179 179 178 177 177 175 155 125 118 115 113 124 142 146 118 60 66 106 120 106 144 143 139 115 131 97 72 46 27 51 50 14 15 84 40 38 27 30 62 59 55 69 55 56 20 29 66 76 75 74 26 11 11 11 13 14 30 56 67 85 107 127 135 146 152 158 162 164 169 174 174 175 176 176 177 177 177 177 178 178 178 178 
179 179 179 179 179 179 179 179 179 179 179 179 179 179 179 179 179 179 179 178 178 177 176 171 157 135 118 116 130 137 122 53 64 106 123 111 115 134 139 140 123 133 133 95 47 28 48 42 9 9 75 51 31 15 17 41 69 39 62 60 71 37 22 41 83 96 81 53 25 8 10 11 18 35 70 99 107 121 136 142 148 149 151 153 158 164 169 170 174 175 176 176 176 177 177 178 178 178 178 
179 179 179 179 179 179 179 179 179 179 179 179 179 179 179 179 179 179 179 179 179 178 177 177 169 153 144 142 134 122 62 72 120 123 132 105 118 126 138 131 127 134 136 124 83 34 45 29 4 11 60 67 29 20 18 29 67 52 48 57 70 81 46 37 67 90 92 60 50 31 15 18 27 55 79 109 127 139 149 150 151 147 144 147 153 161 167 167 173 174 175 176 176 177 177 178 178 178 178 
179 179 179 179 179 179 179 179 179 179 179 179 179 179 179 179 179 179 179 179 179 179 178 178 176 170 164 151 133 86 91 130 130 130 133 106 118 133 133 116 120 141 131 121 113 49 39 15 5 13 46 76 41 29 23 25 47 57 64 77 85 97 109 88 78 100 92 77 47 30 31 27 49 74 103 123 138 150 155 153 151 145 143 149 155 162 167 169 172 174 175 176 176 177 177 178 178 178 178 
179 179 179 179 179 179 179 179 179 179 179 179 179 179 179 179 179 179 179 179 179 179 179 178 177 176 172 155 134 122 139 135 139 139 122 122 128 122 107 99 116 137 134 126 99 89 50 8 8 13 45 79 57 70 92 106 108 110 100 102 100 99 105 98 111 111 121 111 82 50 36 46 69 87 104 121 137 144 148 148 143 142 146 151 158 163 168 172 176 176 177 177 179 179 179 179 179 179 179 
179 179 179 179 179 179 179 179 179 179 179 179 179 179 179 179 179 179 179 179 179 179 179 178 178 176 175 166 154 151 155 149 146 138 117 118 113 91 84 96 113 125 133 120 97 56 68 53 20 25 59 98 102 106 86 62 58 54 50 60 72 75 82 95 99 111 105 105 102 78 59 58 73 85 97 109 120 129 139 144 149 153 158 160 166 169 173 176 176 177 178 178 179 179 179 179 179 179 179 
179 179 179 179 179 179 179 179 179 179 179 179 179 179 179 179 179 179 179 179 179 179 179 178 178 177 175 169 163 157 148 137 120 107 81 73 69 78 85 92 104 127 141 135 128 99 46 39 61 71 88 105 116 76 59 64 88 90 78 82 115 101 102 76 90 110 87 74 64 72 67 78 87 94 108 122 137 146 158 163 166 167 169 172 174 176 177 179 177 178 179 179 179 179 179 179 179 179 179 
179 179 179 179 179 179 179 179 179 179 179 179 179 179 179 179 179 179 179 179 179 179 179 178 178 178 176 169 164 149 124 96 82 76 82 87 92 84 84 85 98 126 140 134 124 115 81 55 52 70 105 124 105 53 73 104 97 97 87 67 118 111 109 82 62 109 118 88 71 72 100 105 117 130 141 151 162 167 172 173 173 174 176 176 176 176 178 179 178 179 179 179 179 179 179 179 179 179 179 
179 179 179 179 179 179 179 179 179 179 179 179 179 179 179 179 179 179 179 179 179 179 179 179 178 177 176 162 147 130 123 125 118 130 124 116 118 115 107 102 96 110 133 129 131 103 85 68 63 72 116 109 84 65 96 109 90 86 99 72 109 122 117 96 55 67 113 114 96 113 138 155 159 165 167 171 175 177 177 177 178 178 178 178 179 179 179 179 179 179 179 179 179 179 179 179 179 179 179 
179 179 179 179 179 179 179 179 179 179 179 179 179 179 179 179 179 179 179 179 179 179 179 179 178 177 175 167 142 125 132 116 99 91 78 78 88 98 95 94 88 91 121 125 114 100 80 60 63 82 109 96 57 103 103 107 78 97 108 79 93 111 118 122 93 53 88 118 148 165 169 174 175 174 176 178 178 178 178 178 179 179 179 178 179 179 179 179 179 179 179 179 179 179 179 179 179 179 179 
179 179 179 179 179 179 179 179 179 179 179 179 179 179 179 179 179 179 179 179 179 179 179 179 178 177 174 155 120 140 144 117 104 111 104 99 91 84 81 105 101 89 88 117 113 86 83 66 67 104 106 88 72 113 111 108 83 114 107 81 90 106 120 124 118 96 92 130 168 175 175 178 178 177 177 177 177 178 178 178 179 179 179 179 179 179 179 179 179 179 179 179 179 179 179 179 179 179 179 
179 179 179 179 179 179 179 179 179 179 179 179 179 179 179 179 179 179 179 179 179 179 179 179 178 176 172 132 125 144 137 97 106 129 122 118 101 88 77 102 111 97 89 97 111 104 72 87 108 126 111 92 104 112 117 101 124 105 115 93 90 108 104 106 124 146 162 169 172 177 178 179 177 179 179 179 178 178 178 179 179 179 179 179 179 179 179 179 179 179 179 179 179 179 179 179 179 179 179 
179 179 179 179 179 179 179 179 179 179 179 179 179 179 179 179 179 179 179 179 179 179 179 178 177 174 146 111 133 142 134 83 125 123 120 106 103 97 79 78 102 100 83 92 106 106 97 130 158 172 160 146 145 141 146 139 132 127 133 127 134 154 168 176 176 178 178 178 178 179 179 179 179 179 179 179 179 179 179 179 179 179 179 179 179 179 179 179 179 179 179 179 179 179 179 179 179 179 179 
179 179 179 179 179 179 179 179 179 179 179 179 179 179 179 179 179 179 179 179 179 179 179 176 177 158 119 127 133 144 107 98 134 119 109 115 115 100 95 78 77 97 92 91 88 98 144 170 175 178 178 175 174 176 176 177 176 176 177 177 176 178 178 177 177 179 179 179 179 179 179 179 179 179 179 179 179 179 179 179 179 179 179 179 179 179 179 179 179 179 179 179 179 179 179 179 179 179 179 
179 179 179 179 179 179 179 179 179 179 179 179 179 179 179 179 179 179 179 179 179 179 179 177 173 160 132 131 137 131 106 120 134 110 97 111 118 115 103 91 90 89 89 78 96 145 172 177 175 177 176 177 177 178 177 177 178 177 178 178 175 174 176 178 178 179 179 179 179 179 179 179 179 179 179 179 179 179 179 179 179 179 179 179 179 179 179 179 179 179 179 179 179 179 179 179 179 179 179 
179 179 179 179 179 179 179 179 179 179 179 179 179 179 179 179 179 179 179 179 179 179 179 177 177 173 155 137 135 130 122 127 129 128 113 96 109 114 102 86 86 83 107 134 160 173 177 177 177 177 177 178 178 178 178 178 177 177 178 177 178 179 179 179 179 179 179 179 179 179 179 179 179 179 179 179 179 179 179 179 179 179 179 179 179 179 179 179 179 179 179 179 179 179 179 179 179 179 179 
179 179 179 179 179 179 179 179 179 179 179 179 179 179 179 179 179 179 179 179 179 179 179 179 179 179 178 176 172 166 162 158 149 141 137 130 126 131 137 142 151 160 169 176 178 177 179 179 179 179 179 179 179 179 179 179 179 179 179 179 179 179 179 179 179 179 179 179 179 179 179 179 179 179 179 179 179 179 179 179 179 179 179 179 179 179 179 179 179 179 179 179 179 179 179 179 179 179 179 
179 179 179 179 179 179 179 179 179 179 179 179 179 179 179 179 179 179 179 179 179 179 179 179 179 179 179 179 178 177 176 175 177 177 176 176 177 178 178 178 178 178 178 178 177 179 179 179 179 179 179 179 179 179 179 179 179 179 179 179 179 179 179 179 179 179 179 179 179 179 179 179 179 179 179 179 179 179 179 179 179 179 179 179 179 179 179 179 179 179 179 179 179 179 179 179 179 179 179 
179 179 179 179 179 179 179 179 179 179 179 179 179 179 179 179 179 179 179 179 179 179 179 179 179 179 179 179 179 178 177 177 179 178 178 179 177 175 176 177 177 178 178 178 177 178 179 179 179 179 179 179 179 179 179 179 179 179 179 179 179 179 179 179 179 179 179 179 179 179 179 179 179 179 179 179 179 179 179 179 179 179 179 179 179 179 179 179 179 179 179 179 179 179 179 179 179 179 179 
