P2
100 100
255
255 255 255 255 255 255 255 255 255 255 255 255 255 255 255 255 255 
255 255 255 255 255 255 255 255 255 255 255 255 255 255 255 255 
255 255 255 255 255 255 255 255 255 255 255 255 255 255 254 254 
254 254 254 254 253 252 253 253 253 251 254 253 254 255 255 255 
255 255 255 255 255 255 255 255 255 255 255 255 255 255 255 255 
255 255 255 255 255 255 255 255 255 255 255 255 255 255 255 255 
255 255 255 255 255 255 255 255 255 255 255 255 255 255 255 255 255 255 255 255 
255 255 255 255 255 255 255 255 255 255 255 255 255 255 255 255 
255 255 255 255 255 255 255 255 255 255 255 255 255 255 255 254 
254 254 254 254 253 254 252 252 249 249 254 255 255 255 255 255 
255 255 255 255 255 255 255 255 255 255 255 255 255 255 255 255 
255 255 255 255 255 255 255 255 255 255 255 255 255 255 255 255 
255 255 255 255 255 255 255 255 255 255 255 255 255 255 255 255 255 255 255 255 
255 255 255 255 255 255 255 255 255 255 255 255 255 255 255 255 
255 255 255 255 255 255 255 255 255 255 255 255 255 254 254 255 
255 254 254 253 250 246 237 224 226 244 254 255 255 255 255 255 
255 255 255 255 255 255 255 255 255 255 255 255 255 255 255 255 
255 255 255 255 255 255 255 255 255 255 255 255 255 255 255 255 
255 255 255 255 255 255 255 255 255 255 255 255 255 255 255 255 255 255 255 255 
255 255 255 255 255 255 255 255 255 255 255 255 255 255 255 255 
255 255 255 255 255 255 255 255 255 255 255 255 255 254 254 253 
253 251 250 251 224 202 189 198 212 240 253 254 255 255 255 255 
255 255 255 255 255 255 255 255 255 255 255 255 255 255 255 255 
255 255 255 255 255 255 255 255 255 255 255 255 255 255 255 255 
255 255 255 255 255 255 255 255 255 255 255 255 255 255 255 255 255 255 255 255 
255 255 255 255 255 255 255 255 255 255 255 255 255 255 255 255 
255 255 255 255 255 255 255 255 255 255 255 255 255 253 254 251 
253 251 245 210 197 207 216 217 211 224 251 254 255 255 255 255 
255 255 255 255 255 255 255 255 255 255 255 255 255 255 255 255 
255 255 255 255 255 255 255 255 255 255 255 255 255 255 255 255 
255 255 255 255 255 255 255 255 255 255 255 255 255 255 255 255 255 255 255 255 
255 255 255 255 255 255 255 255 255 255 255 255 255 255 255 255 
255 255 255 255 255 255 255 255 255 254 254 254 254 250 254 253 
251 241 193 211 223 217 229 223 201 202 246 250 255 255 255 255 
255 255 255 255 255 255 255 255 255 255 255 255 255 255 255 255 
255 255 255 255 255 255 255 255 255 255 255 255 255 255 255 255 
255 255 255 255 255 255 255 255 255 255 255 255 255 255 255 255 255 255 255 255 
255 255 255 255 255 255 255 255 255 255 255 255 255 255 255 255 
255 255 255 255 255 255 255 255 255 253 253 253 253 253 254 252 
240 184 200 222 215 227 217 211 198 180 227 252 255 255 255 255 
255 255 255 255 255 255 255 255 255 255 255 255 255 255 255 255 
255 255 255 255 255 255 255 255 255 255 255 255 255 255 255 255 
255 255 255 255 255 255 255 255 255 255 255 255 255 255 255 255 255 255 255 255 
255 255 255 255 255 255 254 254 254 255 255 255 255 255 255 255 
255 255 255 255 255 254 254 252 254 251 251 250 252 253 252 247 
192 176 221 207 218 217 222 193 183 165 215 252 252 254 255 255 
255 255 255 255 255 255 255 255 255 255 255 255 255 255 255 255 
255 255 255 255 255 255 255 255 255 255 255 255 255 255 255 255 
255 255 255 255 255 255 255 255 255 255 255 255 255 255 255 255 255 255 254 254 
254 254 254 254 253 253 254 254 254 255 255 255 254 254 254 254 
255 253 252 254 254 253 252 250 254 246 249 250 252 247 245 225 
153 222 209 198 215 216 196 185 183 145 211 247 252 253 254 255 
255 255 255 255 255 255 255 255 255 255 255 255 255 255 255 255 
255 255 255 255 255 255 255 255 255 255 255 255 255 255 255 255 
255 255 255 255 255 255 255 255 255 255 255 255 255 255 255 255 255 255 254 253 
255 255 254 255 254 253 254 254 254 254 255 254 254 253 252 252 
252 250 248 253 253 247 246 251 247 238 240 249 248 242 235 157 
203 218 183 199 214 215 185 180 151 134 196 239 252 253 254 255 
255 255 255 255 255 255 255 255 255 255 255 255 255 255 255 255 
255 255 255 255 255 255 255 255 255 255 255 255 255 255 255 255 
255 255 255 255 255 255 255 255 255 255 255 255 255 255 255 255 255 255 254 253 
250 247 247 250 252 254 254 254 254 254 254 254 253 251 250 250 
250 252 241 240 244 244 227 234 240 203 202 233 239 228 151 164 
223 199 176 218 216 174 177 182 123 130 188 229 251 253 254 255 
255 255 255 255 255 255 255 255 255 255 255 255 255 255 255 255 
255 255 255 255 255 255 255 255 255 255 255 255 255 255 255 255 
255 255 255 255 255 255 255 255 255 255 255 255 255 255 255 254 254 255 251 243 
227 207 201 210 228 245 251 252 251 252 251 251 251 248 242 243 
239 251 226 194 217 206 181 173 202 140 136 187 202 161 133 215 
214 161 208 217 177 182 165 153 112 129 192 218 247 253 252 253 
255 255 255 255 255 255 255 255 255 255 255 255 255 255 255 255 
255 255 255 255 255 255 255 255 255 255 255 255 255 255 255 255 
255 255 255 255 255 255 255 255 255 255 255 255 255 255 255 253 254 254 243 233 
219 208 202 185 168 163 193 239 240 248 249 248 239 237 203 200 
202 224 197 132 148 135 147 140 172 112 103 145 132 141 192 212 
171 186 205 180 166 160 167 109 106 154 193 205 241 248 249 252 
255 255 255 255 255 255 255 255 255 255 255 255 255 255 255 255 
255 255 255 255 255 255 255 255 255 255 255 255 255 255 255 255 
255 255 255 255 255 255 255 255 255 255 255 255 255 255 255 254 255 249 229 228 
231 227 223 224 222 214 161 144 205 219 238 238 235 207 165 125 
126 173 162 106 106 97 100 122 171 89 93 137 132 174 212 192 
179 187 168 168 178 161 135 96 120 191 176 195 220 223 247 254 
255 255 255 255 255 255 255 255 255 255 255 255 255 255 255 255 
255 255 255 255 255 255 255 255 255 255 255 255 255 255 255 255 
255 255 255 255 255 255 255 255 255 255 255 255 255 255 255 254 255 245 210 211 
223 226 212 208 209 212 218 206 144 136 176 200 182 172 162 105 
74 142 168 72 86 85 79 71 168 77 74 133 149 184 204 185 
176 158 173 187 172 157 102 101 189 164 164 187 203 228 249 253 
255 255 255 255 255 255 255 255 255 255 255 255 255 255 255 255 
255 255 255 255 255 255 255 255 255 255 255 255 255 255 255 255 
255 255 255 255 255 255 255 255 255 255 255 255 255 255 255 255 254 243 189 192 
189 212 227 212 203 200 203 209 208 182 129 115 120 121 126 107 
52 89 175 60 63 62 60 36 140 103 56 131 153 182 192 179 
167 167 197 186 173 115 100 179 172 163 161 185 220 236 245 249 
251 253 255 255 255 255 255 255 255 255 255 255 255 255 255 255 
255 255 255 255 255 255 255 255 255 255 255 255 255 255 255 255 
255 255 255 255 255 255 255 255 255 255 255 255 255 255 255 255 252 244 189 178 
186 179 182 217 227 209 201 204 200 198 202 179 132 110 89 98 
46 55 168 78 34 54 53 32 120 133 38 127 166 185 187 163 
168 187 205 195 150 109 177 151 179 165 170 201 202 207 229 234 
249 252 255 255 255 255 255 255 255 255 255 255 255 255 255 255 
255 255 255 255 255 255 255 255 255 255 255 255 255 255 255 255 
255 255 255 255 255 255 255 255 255 255 255 255 255 255 255 255 251 248 202 182 
137 160 177 147 162 199 224 220 207 190 186 197 186 154 104 100 
50 45 158 93 21 33 43 33 99 153 48 108 145 166 169 161 
171 206 207 173 126 176 173 177 195 164 168 195 187 214 199 218 
249 251 254 255 255 255 255 255 255 255 255 255 255 255 255 255 
255 255 255 255 255 255 255 255 255 255 255 255 255 255 255 255 
255 255 255 255 255 255 255 255 255 255 255 255 255 255 255 253 249 252 216 194 
178 128 98 146 162 109 115 150 187 197 179 165 177 173 132 109 
64 44 142 120 31 18 34 33 89 161 75 65 107 147 151 158 
191 203 186 151 175 185 182 208 164 134 173 199 213 208 212 243 
249 250 253 255 255 255 255 255 255 255 255 255 255 255 255 255 
255 255 255 255 255 255 255 255 255 255 255 255 255 255 255 255 
255 255 255 255 255 255 255 255 255 255 255 255 255 255 255 255 254 250 224 202 
164 155 156 116 102 138 171 138 111 149 164 156 150 163 140 103 
68 55 123 133 31 17 26 33 82 170 87 38 82 126 138 172 
191 188 159 166 192 196 186 164 105 170 217 219 217 205 204 216 
240 250 250 253 254 254 255 255 255 255 255 255 255 255 255 255 
255 255 255 255 255 255 255 255 255 255 255 255 255 255 255 255 
255 255 255 255 255 255 255 255 255 255 255 255 255 255 255 255 255 249 223 204 
197 139 100 114 135 132 106 147 188 161 162 172 156 154 132 105 
91 51 108 149 44 19 24 29 68 167 81 47 66 108 150 165 
173 164 161 184 184 168 133 95 179 205 212 210 192 175 172 200 
220 244 248 253 253 254 255 255 255 255 255 255 255 255 255 255 
255 255 255 255 255 255 255 255 255 255 255 255 255 255 255 255 
255 255 255 255 255 255 255 255 255 255 255 255 255 255 255 255 255 249 242 197 
187 180 164 98 63 61 109 116 117 171 190 184 171 161 146 108 
94 71 104 147 73 28 29 29 52 162 86 54 63 127 144 147 
156 147 171 172 162 98 100 173 195 190 195 179 166 159 149 160 
190 218 236 237 246 249 254 255 255 255 255 255 255 255 255 255 
255 255 255 255 255 255 255 255 255 255 255 255 255 255 255 255 
255 255 255 255 255 255 255 255 255 255 255 255 255 255 255 255 255 251 226 208 
203 169 134 135 180 192 164 152 142 165 171 177 186 167 161 141 
109 82 89 128 132 44 43 34 45 147 81 66 113 127 128 119 
137 176 169 129 97 124 162 172 156 150 137 139 114 113 143 170 
185 201 207 219 237 245 248 249 254 255 255 255 255 255 255 255 
255 255 255 255 255 255 255 255 255 255 255 255 255 255 255 255 
255 255 255 255 255 255 255 255 255 255 255 255 255 255 255 255 254 252 238 200 
193 187 157 139 105 120 188 210 207 184 180 187 168 170 153 126 
91 62 62 106 147 85 64 40 39 125 101 107 135 101 96 126 
156 182 147 119 123 155 169 141 131 111 100 109 94 119 179 188 
175 162 169 191 211 220 237 250 252 253 254 255 255 255 255 255 
255 255 255 255 255 255 255 255 255 255 255 255 255 255 255 255 
255 255 255 255 255 255 255 255 255 255 255 255 255 255 255 255 254 252 246 234 
209 207 188 168 148 134 123 143 178 191 178 166 154 145 143 136 
117 95 70 84 106 117 83 41 39 115 118 151 136 84 87 163 
185 170 145 135 157 187 180 152 137 126 111 108 127 178 167 145 
146 184 203 221 218 221 234 248 251 252 254 255 255 255 255 255 
255 255 255 255 255 255 255 255 255 255 255 255 255 255 255 255 
255 255 255 255 255 255 255 255 255 255 255 255 255 255 255 255 254 252 245 234 
229 216 214 201 197 186 175 180 182 179 189 194 179 162 159 160 
158 151 116 121 109 95 104 61 41 125 118 178 150 64 109 181 
190 161 153 159 193 192 177 156 149 142 145 150 182 162 134 147 
170 195 209 205 217 222 235 247 250 251 253 254 255 255 255 255 
255 255 255 255 255 255 255 255 255 255 255 255 255 255 255 255 
255 255 255 255 255 255 255 255 255 255 255 255 255 255 255 255 253 251 246 238 
216 218 224 214 214 219 217 203 199 196 184 181 182 176 168 156 
148 146 128 167 164 125 101 83 51 148 138 184 159 71 144 191 
182 165 161 182 206 194 168 164 175 186 176 185 177 149 145 152 
178 184 182 184 191 218 239 239 249 253 253 253 255 255 255 255 
255 255 255 255 255 255 255 255 255 255 255 255 255 255 255 255 
255 255 255 255 255 255 255 255 255 255 255 255 255 255 255 255 252 250 239 232 
224 221 224 226 226 224 221 216 213 209 199 196 190 185 183 184 
168 139 104 164 189 174 120 112 70 152 156 196 160 84 140 187 
161 164 163 178 182 165 169 169 193 191 187 187 151 150 145 169 
161 141 133 133 160 187 215 233 243 252 254 254 255 255 255 255 
255 255 255 255 255 255 255 255 255 255 255 255 255 255 255 255 
255 255 255 255 255 255 255 255 255 255 255 255 255 255 255 255 252 250 235 199 
194 202 202 211 217 215 207 208 199 186 173 165 169 170 189 195 
191 181 123 123 200 200 154 128 101 147 170 191 158 96 141 156 
100 79 88 122 141 151 144 178 195 195 186 145 137 156 169 155 
129 100 108 116 117 139 172 213 235 246 252 253 255 255 255 255 
255 255 255 255 255 255 255 255 255 255 255 255 255 255 255 255 
255 255 255 255 255 255 255 255 255 255 255 255 255 255 255 255 252 250 248 240 
206 181 169 162 156 155 161 167 170 169 165 152 148 133 142 169 
195 203 162 107 190 206 183 141 132 139 167 172 152 118 149 58 
26 26 31 50 96 122 143 165 159 128 105 123 154 153 147 125 
108 106 111 160 180 202 229 241 248 252 253 252 255 255 255 255 
255 255 255 255 255 255 255 255 255 255 255 255 255 255 255 255 
255 255 255 255 255 255 255 255 255 255 255 255 255 255 254 255 254 250 241 222 
201 179 158 140 129 131 135 143 151 163 163 161 164 146 143 155 
161 182 182 117 163 208 196 153 146 137 154 148 141 146 83 17 
55 35 30 57 50 100 113 97 103 96 119 128 112 88 72 65 
68 85 115 140 169 211 240 248 251 254 254 254 255 255 255 255 
255 255 255 255 255 255 255 255 255 255 255 255 255 255 255 255 
255 255 255 255 255 255 255 255 255 255 255 255 255 255 254 255 255 250 241 210 
177 154 138 118 97 86 100 126 150 170 188 190 189 186 184 181 
174 170 173 168 145 195 195 154 162 148 139 122 150 150 42 36 
117 31 16 59 87 137 158 173 173 163 126 89 56 39 29 35 
47 87 112 150 178 208 226 243 249 253 251 251 255 255 255 255 
255 255 255 255 255 255 255 255 255 255 255 255 255 255 255 255 
255 255 255 255 255 255 255 255 255 255 255 255 255 255 254 255 255 250 246 225 
203 169 134 117 116 130 146 164 169 180 195 205 205 200 177 135 
65 43 59 110 160 203 204 157 160 158 130 111 157 153 30 71 
54 14 19 62 96 161 181 195 186 158 131 92 54 30 27 39 
51 59 80 93 121 168 197 217 237 247 254 254 255 255 255 255 
255 255 255 255 255 255 255 255 255 255 255 255 255 255 255 255 
255 255 255 255 255 255 255 255 255 255 255 255 255 255 254 255 255 250 229 188 
154 151 162 163 170 179 176 185 192 202 201 197 191 164 133 59 
43 32 39 42 67 193 209 168 157 161 136 123 152 150 24 74 
104 81 78 92 105 187 178 183 172 163 134 82 65 49 30 30 
33 42 42 61 81 122 175 214 230 244 252 254 255 255 255 255 
255 255 255 255 255 255 255 255 255 255 255 255 255 255 255 255 
255 255 255 255 255 255 255 255 255 255 255 255 255 255 254 254 251 251 217 185 
145 104 77 81 77 84 111 148 171 186 189 191 179 151 91 56 
47 155 40 85 81 115 197 176 162 173 147 139 139 157 49 25 
65 90 80 62 159 185 163 178 169 142 120 121 118 102 83 74 
70 71 90 99 131 175 214 235 250 252 249 253 253 254 255 255 
255 255 255 255 255 255 255 255 255 255 255 255 255 255 255 255 
255 255 255 255 255 255 255 255 255 255 255 255 255 255 252 255 251 232 191 163 
159 163 157 140 116 114 125 150 174 194 201 199 172 108 80 87 
42 23 16 76 96 53 173 183 171 184 163 159 127 144 95 89 
50 46 79 146 178 150 161 148 144 141 136 142 138 142 147 146 
137 113 103 117 118 124 151 212 245 250 251 254 253 254 255 255 
255 255 255 255 255 255 255 255 255 255 255 255 255 255 255 255 
255 255 255 255 255 255 255 255 255 255 255 255 255 255 255 254 243 227 204 189 
193 195 193 184 189 197 196 197 200 193 161 121 99 125 120 101 
60 35 43 112 72 60 142 162 162 178 166 175 156 126 96 125 
145 160 168 160 139 135 136 138 126 109 107 124 158 158 155 136 
107 78 49 49 68 111 143 173 205 233 247 252 253 254 255 255 
255 255 255 255 255 255 255 255 255 255 255 255 255 255 255 255 
255 255 255 255 255 255 255 255 255 255 255 255 255 255 255 255 249 240 211 205 
194 168 145 145 158 158 149 120 88 60 83 144 174 180 166 95 
103 113 106 95 80 127 120 133 163 160 157 142 129 131 110 101 
137 151 135 111 92 113 121 121 134 152 170 180 175 155 140 106 
65 56 63 79 106 144 196 229 243 249 247 250 253 254 255 255 
255 255 255 255 255 255 255 255 255 255 255 255 255 255 255 255 
255 255 255 255 255 255 255 255 255 255 255 255 255 255 254 251 245 225 204 199 
184 156 147 131 115 93 70 62 59 128 180 196 197 186 194 175 
103 73 73 81 129 137 118 126 154 142 161 168 126 92 109 97 
106 98 98 110 125 118 142 172 180 179 175 171 158 148 135 135 
132 135 144 153 174 189 202 217 233 247 253 253 253 254 255 255 
255 255 255 255 255 255 255 255 255 255 255 255 255 255 255 255 
255 255 255 255 255 255 255 255 255 255 255 255 255 255 255 249 243 210 187 171 
148 110 101 106 93 70 50 58 104 150 164 174 181 177 159 167 
184 174 172 174 172 149 120 122 134 151 169 169 151 118 109 117 
111 113 118 106 124 146 164 186 205 209 207 206 196 178 167 152 
142 145 151 158 177 183 209 223 238 243 249 252 253 254 255 255 
255 255 255 255 255 255 255 255 255 255 255 255 255 255 255 255 
255 255 255 255 255 255 255 255 255 255 255 255 255 255 254 251 224 183 170 132 
122 124 106 102 61 51 59 80 115 127 142 155 161 160 146 116 
97 97 99 108 118 124 122 138 130 155 155 143 122 108 94 138 
140 129 121 138 146 156 165 188 197 203 198 183 166 152 144 135 
128 113 99 96 111 140 177 212 231 241 250 253 253 254 255 255 
255 255 255 255 255 255 255 255 255 255 255 255 255 255 255 255 
255 255 255 255 255 255 255 255 255 255 255 255 255 255 251 243 226 212 143 138 
132 141 140 97 79 76 110 149 180 197 201 200 182 161 143 128 
117 107 96 105 111 126 148 158 143 121 114 115 89 82 140 167 
161 152 149 146 157 170 172 159 161 164 170 164 145 132 123 106 
104 121 136 121 94 83 108 145 184 219 242 250 252 254 254 255 
255 255 255 255 255 255 255 255 255 255 255 255 255 255 255 255 
255 255 255 255 255 255 255 255 255 255 255 255 255 255 254 244 239 165 155 154 
144 164 146 128 127 134 152 160 168 177 180 188 189 190 197 195 
183 163 152 145 140 148 158 180 171 140 110 103 82 118 155 162 
161 162 174 165 133 122 140 158 160 137 115 114 137 132 99 108 
120 98 81 80 84 77 80 98 122 168 217 247 252 254 253 253 
254 255 255 255 255 255 255 255 255 255 255 255 255 255 255 255 
255 255 255 255 255 255 255 255 255 255 255 255 255 255 253 246 191 195 191 148 
176 159 141 120 116 119 126 146 165 184 197 200 199 200 207 205 
187 177 177 179 194 202 185 171 162 162 154 117 115 163 174 177 
169 151 131 139 141 164 186 184 180 182 168 138 110 105 126 106 
78 115 115 71 51 44 45 77 113 159 218 240 245 252 251 252 
254 254 255 255 255 255 255 255 255 255 255 255 255 255 255 255 
255 255 255 255 255 255 255 255 255 255 255 255 255 255 253 240 224 219 165 170 
153 129 112 97 93 122 129 143 167 171 177 190 207 218 221 214 
205 201 198 192 171 165 180 199 193 173 163 134 126 147 147 155 
163 166 158 148 159 164 169 179 174 156 155 178 168 130 99 118 
113 76 69 103 61 23 33 41 82 125 184 223 239 248 251 251 
253 254 254 255 255 255 255 255 255 255 255 255 255 255 255 255 
255 255 255 255 255 255 255 255 255 255 255 255 255 255 252 252 244 223 171 164 
153 137 112 95 77 70 90 130 153 166 184 190 194 203 202 195 
196 202 210 217 213 199 190 178 175 165 130 103 117 106 108 103 
117 124 139 146 147 153 149 142 151 153 106 76 106 149 160 107 
114 110 65 38 75 74 31 25 59 132 189 230 241 247 250 251 
252 253 254 255 255 255 255 255 255 255 255 255 255 255 255 255 
255 255 255 255 255 255 255 255 255 255 255 255 255 255 254 250 243 190 172 194 
164 124 79 56 42 69 127 148 147 134 123 158 181 184 184 183 
191 200 196 190 197 208 208 203 177 104 91 131 146 165 153 129 
114 106 112 138 143 157 165 158 143 133 162 139 84 48 75 139 
137 129 112 61 31 39 91 99 95 144 182 214 233 246 252 252 
251 252 254 255 255 255 255 255 255 255 255 255 255 255 255 255 
255 255 255 255 255 255 255 255 255 255 255 255 255 255 254 252 238 213 213 181 
146 78 51 82 124 150 149 152 134 135 171 170 158 156 158 157 
183 189 208 213 208 199 192 164 102 106 162 186 179 180 197 193 
172 176 172 182 191 199 203 194 180 159 141 160 173 164 125 81 
86 106 128 121 97 56 35 80 109 129 141 179 216 233 238 247 
251 252 254 255 255 255 255 255 255 255 255 255 255 255 255 255 
255 255 255 255 255 255 255 255 255 255 255 255 255 255 254 247 246 228 226 205 
116 95 132 133 136 155 152 150 160 140 130 127 128 131 130 175 
186 199 206 212 206 190 172 125 118 168 193 216 196 190 215 222 
219 207 200 204 215 216 214 203 186 169 150 126 123 155 168 158 
126 119 113 109 113 124 109 81 108 143 162 188 217 240 248 251 
251 252 254 255 255 255 255 255 255 255 255 255 255 255 255 255 
255 255 255 255 255 255 255 255 255 255 255 255 255 255 254 250 246 246 230 160 
162 177 156 168 160 173 178 175 138 108 97 111 135 131 169 175 
192 199 191 186 188 177 150 153 169 191 214 219 214 198 217 223 
229 222 226 213 215 209 207 209 210 156 137 115 88 55 93 135 
120 121 126 109 89 96 93 88 69 62 96 116 138 170 210 237 
249 251 253 254 254 255 255 255 255 255 255 255 255 255 255 255 
255 255 255 255 255 255 255 255 255 255 255 255 255 254 253 254 252 246 221 217 
230 200 192 181 180 183 173 144 98 76 93 152 146 170 177 179 
151 149 179 196 200 174 183 189 199 212 223 226 220 208 214 222 
221 219 227 211 203 196 167 159 174 191 156 104 96 72 40 41 
91 109 99 113 125 100 81 86 56 46 46 69 118 168 219 235 
240 246 250 253 253 254 255 255 255 255 255 255 255 255 255 255 
255 255 255 255 255 255 255 255 255 255 255 255 254 253 251 252 250 243 240 244 
239 218 177 159 146 148 143 102 68 77 147 165 163 180 137 122 
120 188 206 180 173 201 208 200 220 223 229 227 217 201 193 213 
214 204 204 194 180 192 194 155 89 95 139 160 105 67 70 58 
49 68 105 90 85 89 119 80 71 40 45 69 125 185 234 249 
252 254 252 252 253 254 255 255 255 255 255 255 255 255 255 255 
255 255 255 255 255 255 255 255 255 255 255 254 253 252 252 249 242 243 244 242 
232 205 156 114 118 131 105 81 83 133 171 163 162 132 96 124 
178 186 162 143 193 212 199 209 219 220 226 225 215 191 171 180 
188 166 161 156 127 144 157 191 169 91 56 79 121 104 50 38 
39 53 58 79 117 85 54 88 82 50 51 58 73 98 164 211 
239 244 251 253 253 254 255 255 255 255 255 255 255 255 255 255 
255 255 255 255 255 255 255 255 255 255 255 252 251 245 238 237 235 223 228 216 
206 175 101 87 113 83 98 107 136 166 157 138 142 87 101 164 
179 148 114 167 205 202 180 195 200 205 219 216 206 192 172 150 
153 130 125 129 107 74 94 126 165 186 113 65 54 84 98 52 
34 52 55 52 74 120 76 36 55 55 30 46 57 63 93 132 
184 216 230 240 244 249 254 254 254 254 254 254 254 254 254 255 
255 255 255 255 255 255 255 255 255 255 255 249 236 219 169 156 183 189 167 178 
176 130 94 111 76 109 123 139 151 120 108 123 99 76 125 161 
157 94 132 189 191 157 152 176 176 195 208 205 180 179 176 136 
139 92 64 95 124 105 54 51 83 126 161 124 75 49 59 79 
62 56 44 50 61 60 107 54 27 49 41 45 91 136 164 200 
233 250 249 245 247 250 252 254 254 254 254 254 254 254 254 255 
255 255 255 255 255 255 255 255 255 255 255 247 205 132 99 59 82 136 141 132 
136 113 118 93 133 141 151 140 74 61 101 101 91 89 118 163 
87 76 158 179 162 116 136 148 169 181 182 187 160 151 168 154 
133 106 75 55 72 106 86 39 45 66 84 121 124 107 71 63 
71 76 67 58 62 44 57 85 33 17 50 31 40 78 147 204 
236 249 251 254 254 254 253 254 254 254 254 254 254 254 254 255 
255 255 255 255 255 255 255 255 255 255 254 239 180 103 61 53 45 72 120 132 
126 143 144 153 168 154 123 53 43 74 70 101 95 91 116 144 
48 103 149 173 125 104 112 128 143 158 156 169 161 135 142 178 
148 124 100 91 69 48 72 56 31 56 115 99 53 50 69 68 
84 93 88 92 86 44 38 57 69 31 36 61 49 74 124 159 
198 231 244 251 253 254 254 254 254 254 254 254 254 254 254 255 
255 255 255 255 255 255 255 255 255 255 253 238 169 94 74 67 63 104 129 135 
160 170 171 176 140 106 40 35 53 52 80 103 102 99 149 75 
55 107 129 166 89 79 85 110 113 130 171 178 134 131 120 147 
163 129 90 79 83 53 31 45 38 26 49 125 143 75 26 38 
52 85 111 116 128 110 49 25 35 50 30 38 89 105 133 177 
216 239 245 251 251 252 253 254 254 254 254 254 254 254 254 255 
255 255 255 255 255 255 255 255 255 255 255 246 177 87 66 75 99 116 147 163 
174 176 153 135 89 37 38 49 48 99 107 114 103 129 112 35 
74 106 126 140 72 73 83 93 103 162 180 134 116 118 134 105 
146 132 100 75 58 74 26 22 23 34 38 27 92 169 134 48 
27 54 111 110 105 124 115 61 22 17 36 34 38 97 156 196 
225 245 249 252 252 252 253 254 254 254 254 254 254 254 254 255 
255 255 255 255 255 255 255 255 255 255 254 253 216 141 86 64 59 81 93 132 
124 115 102 67 49 33 81 84 116 131 101 89 109 139 57 32 
91 106 127 117 64 90 98 132 163 163 123 96 104 111 133 85 
98 137 92 88 68 62 54 22 17 8 23 50 20 42 134 181 
122 42 43 102 101 88 108 93 71 33 28 42 55 58 83 153 
220 245 250 252 253 253 254 254 254 254 254 254 254 254 254 255 
255 255 255 255 255 255 255 255 255 255 255 253 244 170 88 61 65 73 83 45 
46 70 65 76 51 108 120 141 144 103 46 95 145 87 62 75 
120 95 122 84 95 120 130 137 109 96 74 107 110 105 131 88 
85 115 130 81 96 78 45 43 21 23 13 28 77 35 14 50 
150 188 116 61 63 75 57 82 94 72 77 89 90 81 94 104 
136 209 247 253 253 254 255 254 254 254 254 254 254 254 254 255 
255 255 255 255 255 255 255 255 255 255 254 254 248 214 136 79 91 68 40 35 
39 66 107 85 104 134 138 146 108 37 48 112 143 78 87 117 
95 80 109 75 66 78 92 85 92 80 83 115 115 118 139 92 
74 100 136 122 107 110 81 46 45 31 55 19 53 94 33 24 
26 78 172 155 82 74 77 39 45 85 70 61 110 125 150 177 
199 207 235 250 252 253 254 254 254 254 254 254 254 254 254 255 
255 255 255 255 255 255 255 255 255 255 255 254 249 249 209 155 94 69 45 41 
56 92 126 121 147 138 145 118 29 39 60 155 123 110 119 146 
93 86 115 83 91 104 94 101 87 86 121 128 132 132 159 109 
82 92 120 156 173 167 142 114 65 68 49 89 38 82 98 49 
42 49 49 113 172 111 70 94 67 31 33 42 30 77 136 166 
199 233 244 252 252 253 254 254 254 254 254 254 254 254 254 255 
255 255 255 255 255 255 255 255 255 255 254 254 253 253 241 217 158 110 79 88 
96 137 147 151 133 149 103 38 47 63 98 168 108 136 158 140 
84 133 108 118 143 118 134 125 102 140 149 144 131 153 147 173 
76 102 139 136 146 161 181 150 114 94 72 71 122 75 93 98 
59 54 54 53 82 158 157 102 118 101 69 48 35 43 80 170 
217 243 247 252 252 253 254 254 254 254 254 254 254 254 254 255 
255 255 255 255 255 255 255 255 255 255 254 254 251 255 253 249 225 193 158 128 
147 147 167 145 139 91 43 70 97 87 139 153 123 164 158 130 
124 144 141 163 153 133 161 135 162 188 191 169 132 132 156 172 
151 81 146 163 180 167 163 177 157 118 114 64 83 133 106 63 
60 26 41 69 91 105 136 186 175 172 148 123 77 66 90 147 
215 246 253 252 252 253 254 254 254 254 254 254 254 254 254 255 
255 255 255 255 255 255 255 255 255 255 255 255 255 255 255 255 249 231 199 192 
171 165 158 149 95 61 100 126 115 97 162 137 160 169 148 102 
140 144 181 178 138 174 168 153 194 213 208 188 165 165 138 148 
177 89 128 165 160 173 152 179 164 145 135 103 52 60 107 104 
38 39 16 19 56 103 138 146 175 169 170 173 156 135 133 149 
196 244 249 253 254 254 254 253 253 253 253 253 254 255 255 255 
255 255 255 255 255 255 255 255 255 255 255 255 255 255 254 255 254 247 240 226 
211 192 169 124 76 127 144 141 130 138 156 160 165 149 122 95 
127 173 185 154 149 172 167 164 202 218 217 215 178 180 202 167 
156 119 98 169 157 144 130 181 169 123 164 138 83 46 68 99 
72 39 30 20 12 32 77 126 143 157 162 128 99 123 156 168 
213 242 248 253 253 253 253 252 252 252 252 253 254 255 255 255 
255 255 255 255 255 255 255 255 255 255 255 255 255 255 254 255 255 254 247 241 
228 206 164 108 148 169 162 128 119 138 159 151 118 91 73 105 
156 158 148 124 166 165 172 171 195 220 224 227 199 180 199 215 
184 147 103 147 164 122 91 183 183 121 147 125 135 82 74 106 
97 49 38 33 31 31 42 78 93 111 117 116 88 81 118 167 
227 249 251 252 252 252 252 251 251 251 251 253 254 255 255 255 
255 255 255 255 255 255 255 255 255 255 255 255 255 255 255 254 253 253 251 244 
233 206 150 158 196 170 112 114 100 151 125 86 65 50 84 113 
123 94 105 133 143 165 172 164 172 213 225 224 214 191 204 212 
202 182 132 147 155 113 71 176 193 110 146 87 106 127 62 58 
95 45 34 25 39 44 38 50 80 71 56 69 85 76 114 163 
224 246 246 250 251 251 251 251 251 251 251 253 254 254 255 255 
255 255 255 255 255 255 255 255 255 255 255 255 255 255 255 255 255 255 253 248 
246 204 182 204 177 147 145 77 127 94 72 52 43 61 77 78 
74 87 104 130 123 155 162 151 139 202 221 218 215 195 205 209 
209 190 159 160 157 80 48 152 190 96 141 83 56 111 114 72 
78 47 40 44 49 51 44 51 62 70 26 34 83 54 101 181 
219 240 247 249 249 250 250 250 250 250 250 252 253 253 254 254 
254 254 254 255 255 255 255 255 255 255 255 255 255 255 255 255 255 255 254 250 
244 223 223 199 188 162 63 111 95 50 49 41 58 85 92 83 
84 111 108 100 105 130 150 145 104 173 198 198 212 207 204 211 
215 183 167 182 157 56 38 125 169 78 102 92 46 68 83 84 
76 52 57 65 89 102 96 63 48 72 36 25 51 71 97 182 
218 235 244 248 248 249 250 250 250 250 250 252 253 253 254 254 
254 254 254 255 255 255 255 255 255 255 255 255 255 255 255 255 255 255 253 253 
248 247 234 213 172 102 114 137 48 50 75 118 145 163 147 104 
107 111 69 57 113 93 128 146 90 149 193 163 188 210 200 210 
212 181 175 178 168 42 36 100 143 91 77 109 45 50 65 44 
42 42 29 28 43 84 132 143 89 74 51 49 48 103 142 185 
213 231 240 246 247 248 249 250 250 250 250 252 253 253 254 254 
254 254 254 255 255 255 255 255 255 255 255 255 255 255 255 255 255 255 255 255 
253 251 243 209 178 133 171 93 81 119 165 180 154 90 61 117 
133 75 43 53 99 69 107 141 94 85 179 173 124 205 199 204 
208 174 181 171 161 39 33 81 111 98 56 97 62 37 42 37 
22 32 33 39 77 84 73 86 138 136 90 87 115 141 191 217 
225 231 240 246 247 247 248 250 250 250 250 252 253 253 254 254 
254 254 254 255 255 255 255 255 255 255 255 255 255 255 255 255 255 255 255 255 
254 254 251 240 192 184 155 135 152 155 112 61 48 124 174 154 
82 30 56 78 82 64 93 121 77 44 116 184 125 155 204 190 
202 158 171 162 135 38 47 72 94 102 57 76 54 49 42 49 
32 49 62 103 122 101 85 65 65 94 148 162 179 203 219 230 
234 238 241 245 246 248 249 251 251 251 251 252 253 253 254 254 
254 254 254 255 255 255 255 255 255 255 255 255 255 255 255 255 255 255 254 255 
254 254 253 246 218 212 184 151 104 60 53 105 179 200 137 56 
29 47 84 84 78 68 88 116 65 25 82 116 169 102 179 191 
187 147 171 145 115 46 73 76 96 105 72 75 71 72 86 80 
81 93 117 108 102 73 64 76 68 71 69 140 191 221 235 237 
237 241 245 247 248 249 251 252 252 252 252 252 253 253 254 254 
254 254 254 255 255 255 255 255 255 255 255 255 255 255 255 255 255 255 254 254 
254 254 250 247 244 215 156 108 87 119 167 172 136 60 26 58 
116 149 133 129 115 91 90 91 41 26 59 51 130 120 119 174 
166 136 167 122 99 82 102 93 118 119 104 96 77 60 63 96 
115 105 133 140 100 39 20 25 67 110 122 107 132 192 222 235 
241 245 248 249 250 251 253 252 252 252 252 252 253 253 254 254 
254 254 254 255 255 255 255 255 255 255 255 255 255 255 255 255 255 255 255 255 
255 255 255 254 251 232 182 154 156 142 87 51 41 77 116 173 
187 188 171 160 149 135 106 82 43 23 38 37 66 144 84 130 
149 119 146 106 77 99 118 106 130 124 124 116 99 79 59 51 
58 80 120 127 118 82 37 18 22 46 121 187 207 217 225 237 
243 245 248 250 252 253 254 253 253 253 253 252 252 252 253 253 
253 253 253 255 255 255 255 255 255 255 255 255 255 255 255 255 255 255 255 255 
255 255 255 253 253 240 213 176 117 72 69 85 134 147 189 206 
213 194 182 166 162 174 123 99 73 29 26 42 47 138 69 78 
144 114 119 86 71 100 125 99 129 110 103 94 80 75 66 46 
29 49 111 112 95 75 41 29 19 27 51 126 187 222 226 236 
241 247 251 250 251 252 254 253 253 253 253 252 252 252 252 252 
252 252 253 255 255 255 255 255 255 255 255 255 255 255 255 255 255 255 255 255 
255 255 255 253 254 244 221 178 125 96 96 134 160 193 203 207 
188 162 164 166 177 195 166 119 124 55 19 38 43 117 78 34 
92 123 89 77 63 90 129 81 126 96 86 57 63 55 47 55 
46 65 112 63 50 61 59 35 25 27 61 100 147 182 201 219 
226 237 245 248 249 251 252 253 253 253 253 253 253 253 253 253 
253 253 253 255 255 255 255 255 255 255 255 255 255 255 255 255 255 255 255 255 
255 255 253 252 255 248 222 150 100 120 154 176 190 202 211 181 
123 132 157 159 195 206 193 144 164 126 67 36 32 91 86 20 
42 132 67 63 48 68 116 77 108 97 81 62 39 75 56 72 
79 117 50 24 23 20 24 34 43 45 74 104 144 172 191 212 
219 228 236 245 247 249 250 253 253 253 253 254 254 254 254 254 
254 254 254 255 255 255 255 255 255 255 255 255 255 255 255 255 255 255 255 255 
255 255 254 253 253 250 221 179 168 164 162 177 203 209 169 86 
94 152 172 152 205 204 199 165 187 139 103 65 39 73 71 20 
21 120 57 54 38 43 88 85 79 98 79 80 28 41 94 109 
107 105 37 16 15 15 18 20 43 80 96 121 153 181 193 209 
217 226 232 234 242 248 249 250 251 252 253 253 253 253 254 254 
254 254 254 255 255 255 255 255 255 255 255 255 255 255 255 255 255 255 255 255 
255 255 254 254 253 252 244 224 193 169 166 186 196 174 76 91 
151 176 158 165 191 199 200 176 190 190 135 67 40 69 60 13 
13 107 73 44 21 24 58 99 55 88 86 102 53 32 59 119 
137 116 76 35 12 14 16 26 50 100 142 153 173 194 203 211 
213 216 219 225 234 242 243 248 250 251 252 252 253 253 254 254 
254 254 254 255 255 255 255 255 255 255 255 255 255 255 255 255 255 255 255 255 
255 255 255 255 254 253 253 241 219 205 203 192 174 88 103 172 
176 188 150 168 180 197 187 182 192 194 177 119 48 64 41 5 
16 86 95 42 28 25 42 96 74 69 82 100 116 65 53 96 
129 131 86 71 45 22 26 39 78 113 155 182 198 213 214 215 
210 206 210 219 230 238 239 247 249 250 251 252 253 253 254 254 
254 254 254 255 255 255 255 255 255 255 255 255 255 255 255 255 255 255 255 255 
255 255 255 255 255 254 254 252 243 234 215 190 123 130 185 186 
186 190 152 169 190 190 166 172 201 187 173 161 70 55 21 7 
19 66 109 59 42 33 36 67 82 92 110 122 139 155 125 112 
143 131 110 67 43 45 38 70 105 147 176 197 214 222 218 216 
207 204 213 222 231 239 241 246 248 250 251 252 253 253 254 254 
254 254 254 255 255 255 255 255 255 255 255 255 255 255 255 255 255 255 255 255 
255 255 255 255 255 255 254 253 251 246 222 191 175 199 193 198 
198 174 174 183 175 153 142 166 195 191 180 142 127 71 12 12 
19 64 113 82 100 131 151 154 157 143 146 143 141 150 140 159 
159 173 158 117 71 51 66 98 124 149 173 195 205 211 211 204 
203 209 216 226 233 240 245 251 252 253 253 255 255 255 255 255 
255 255 255 255 255 255 255 255 255 255 255 255 255 255 255 255 255 255 255 255 
255 255 255 255 255 255 254 254 252 250 237 220 215 221 213 209 
197 167 169 162 130 120 137 161 179 190 171 138 80 97 75 29 
35 85 140 146 151 123 88 83 77 72 86 103 107 117 135 142 
158 150 150 146 111 85 83 104 121 139 155 172 184 198 206 213 
219 225 229 237 242 247 251 252 253 254 254 255 255 255 255 255 
255 255 255 255 255 255 255 255 255 255 255 255 255 255 255 255 255 255 255 255 
255 255 255 255 255 255 254 254 253 250 241 233 224 211 196 172 
153 115 104 99 111 122 132 148 182 202 193 183 142 66 55 87 
101 126 150 166 109 84 91 126 128 111 117 164 144 146 108 128 
157 124 106 92 103 95 111 124 134 154 174 195 209 225 233 237 
239 242 245 248 251 253 255 253 254 255 255 255 255 255 255 255 
255 255 255 255 255 255 255 255 255 255 255 255 255 255 255 255 255 255 255 255 
255 255 255 255 255 255 254 254 254 251 242 234 213 177 137 117 
109 117 124 131 120 120 121 140 180 200 192 177 164 115 79 74 
100 150 177 150 76 104 149 138 138 124 96 168 159 156 117 89 
156 168 125 101 103 143 150 167 185 201 215 231 239 246 247 247 
249 251 251 252 252 254 255 254 255 255 255 255 255 255 255 255 
255 255 255 255 255 255 255 255 255 255 255 255 255 255 255 255 255 255 255 255 
255 255 255 255 255 255 255 254 253 251 232 210 185 176 179 168 
186 177 166 169 165 153 146 137 157 190 184 187 147 121 97 90 
103 166 156 120 93 137 155 128 123 142 103 155 175 167 137 78 
95 161 163 137 161 197 221 227 235 239 244 250 253 253 253 254 
254 254 254 255 255 255 255 255 255 255 255 255 255 255 255 255 
255 255 255 255 255 255 255 255 255 255 255 255 255 255 255 255 255 255 255 255 
255 255 255 255 255 255 255 254 253 250 238 203 178 188 166 142 
130 111 111 125 140 136 134 125 130 173 178 163 143 114 86 90 
117 155 137 81 147 147 153 112 138 154 113 133 159 168 175 133 
76 125 169 211 235 241 248 250 249 252 254 254 254 254 254 255 
255 255 254 255 255 255 255 255 255 255 255 255 255 255 255 255 
255 255 255 255 255 255 255 255 255 255 255 255 255 255 255 255 255 255 255 255 
255 255 255 255 255 255 255 254 253 249 221 172 200 205 167 149 
159 149 142 130 120 115 150 144 127 126 167 162 123 119 94 96 
148 152 125 103 162 159 154 118 163 153 115 129 152 171 177 168 
137 132 185 240 250 250 254 254 253 253 253 253 254 254 254 255 
255 255 255 255 255 255 255 255 255 255 255 255 255 255 255 255 
255 255 255 255 255 255 255 255 255 255 255 255 255 255 255 255 255 255 255 255 
255 255 255 255 255 255 255 254 252 245 189 178 206 196 139 152 
184 174 169 144 126 110 146 158 138 127 139 159 148 103 124 154 
180 158 131 149 160 167 144 177 150 165 133 128 154 149 152 177 
209 232 242 245 253 254 255 253 255 255 255 254 254 254 255 255 
255 255 255 255 255 255 255 255 255 255 255 255 255 255 255 255 
255 255 255 255 255 255 255 255 255 255 255 255 255 255 255 255 255 255 255 255 
255 255 255 255 255 255 254 253 249 209 159 190 203 192 119 179 
176 171 151 147 138 113 112 146 143 118 131 151 151 138 185 225 
245 228 208 207 201 208 198 188 182 190 181 192 220 240 252 251 
254 254 254 254 255 255 255 255 255 255 255 255 255 255 255 255 
255 255 255 255 255 255 255 255 255 255 255 255 255 255 255 255 
255 255 255 255 255 255 255 255 255 255 255 255 255 255 255 255 255 255 255 255 
255 255 255 255 255 255 251 253 226 170 182 190 205 153 140 192 
170 156 165 164 143 136 112 110 138 131 130 125 140 206 243 250 
254 254 250 249 252 252 253 251 251 253 253 252 254 254 253 253 
255 255 255 255 255 255 255 255 255 255 255 255 255 255 255 255 
255 255 255 255 255 255 255 255 255 255 255 255 255 255 255 255 
255 255 255 255 255 255 255 255 255 255 255 255 255 255 255 255 255 255 255 255 
255 255 255 255 255 255 253 247 228 188 187 195 187 152 171 192 
157 139 158 168 164 147 130 128 127 127 112 137 207 246 253 250 
253 252 253 253 254 253 253 254 253 254 254 250 249 251 254 254 
255 255 255 255 255 255 255 255 255 255 255 255 255 255 255 255 
255 255 255 255 255 255 255 255 255 255 255 255 255 255 255 255 
255 255 255 255 255 255 255 255 255 255 255 255 255 255 255 255 255 255 255 255 
255 255 255 255 255 255 253 253 247 222 195 193 185 174 181 184 
183 161 137 155 163 146 123 123 118 153 191 229 247 253 253 253 
253 253 254 254 254 254 254 253 253 254 253 254 255 255 255 255 
255 255 255 255 255 255 255 255 255 255 255 255 255 255 255 255 
255 255 255 255 255 255 255 255 255 255 255 255 255 255 255 255 
255 255 255 255 255 255 255 255 255 255 255 255 255 255 255 255 255 255 255 255 
255 255 255 255 255 255 255 255 255 254 251 246 237 232 225 213 
202 196 186 180 187 196 203 215 228 242 251 254 253 255 255 255 
255 255 255 255 255 255 255 255 255 255 255 255 255 255 255 255 
255 255 255 255 255 255 255 255 255 255 255 255 255 255 255 255 
255 255 255 255 255 255 255 255 255 255 255 255 255 255 255 255 
255 255 255 255 255 255 255 255 255 255 255 255 255 255 255 255 255 255 255 255 
255 255 255 255 255 255 255 255 255 255 255 254 253 251 250 253 
253 252 252 253 254 254 254 254 254 254 254 253 255 255 255 255 
255 255 255 255 255 255 255 255 255 255 255 255 255 255 255 255 
255 255 255 255 255 255 255 255 255 255 255 255 255 255 255 255 
255 255 255 255 255 255 255 255 255 255 255 255 255 255 255 255 
255 255 255 255 255 255 255 255 255 255 255 255 255 255 255 255 255 255 255 255 
255 255 255 255 255 255 255 255 255 255 255 255 254 253 253 255 
254 254 255 253 250 252 253 253 254 254 254 253 254 255 255 255 
255 255 255 255 255 255 255 255 255 255 255 255 255 255 255 255 
255 255 255 255 255 255 255 255 255 255 255 255 255 255 255 255 
255 255 255 255 255 255 255 255 255 255 255 255 255 255 255 255 
255 255 255 255 255 255 255 255 255 255 255 255 255 255 255 255 255 255 255 255 
255 255 255 255 255 255 255 255 255 254 253 254 255 254 253 255 
254 254 254 253 255 255 254 254 254 254 254 253 254 255 255 255 
255 255 255 255 255 255 255 255 255 255 255 255 255 255 255 255 
255 255 255 255 255 255 255 255 255 255 255 255 255 255 255 255 
255 255 255 255 255 255 255 255 255 255 255 255 255 255 255 255 
255 255 255 
