P2
92 92
255
230 230 230 230 230 230 230 229 229 229 229 229 229 229 229 229 229 229 229 230 230 229 229 229 229 230 229 229 229 229 229 229 229 229 229 229 228 228 228 228 226 218 219 215 212 213 212 210 208 202 196 197 200 209 217 224 227 229 229 229 229 229 230 230 230 230 230 230 230 230 230 230 230 230 230 230 230 230 230 230 230 230 230 230 230 230 230 230 230 230 230 230 
230 230 230 230 230 230 230 229 229 229 229 229 229 229 229 229 229 229 229 229 229 229 229 229 229 229 229 229 229 229 229 228 229 228 227 227 228 228 227 226 218 221 214 212 210 208 209 205 202 198 190 190 196 200 209 217 224 228 229 229 230 230 230 230 230 230 230 230 230 230 230 230 230 230 230 230 230 230 230 230 230 230 230 230 230 230 230 230 230 230 230 230 
230 230 230 230 230 230 230 229 229 229 229 229 229 229 229 229 229 229 229 229 229 229 229 229 229 229 229 228 227 228 228 226 226 227 223 222 225 226 225 217 217 215 215 206 208 206 200 202 198 189 185 183 188 196 200 209 217 224 228 229 230 230 230 230 230 230 230 230 230 230 230 230 230 230 230 230 230 230 230 230 230 230 230 230 230 230 230 230 230 230 230 230 
230 230 230 230 229 229 230 229 228 226 224 223 224 226 228 229 229 229 229 229 229 229 229 228 228 227 228 226 222 223 223 221 218 221 216 211 215 220 217 213 213 213 206 210 203 201 198 191 191 183 177 179 180 187 196 201 210 220 227 229 229 230 230 230 230 230 230 230 230 230 230 230 230 230 230 230 230 230 230 230 230 230 230 230 230 230 230 230 230 230 230 230 
230 230 230 230 229 229 229 228 227 225 222 219 216 215 217 222 227 227 228 228 228 227 227 223 222 222 224 222 214 211 211 212 209 209 207 201 200 203 208 211 209 204 206 201 203 194 191 190 177 177 173 171 175 179 190 201 207 216 225 228 229 230 230 230 230 230 230 230 230 230 230 230 230 230 230 230 230 230 230 230 230 230 230 230 230 230 230 230 230 230 230 230 
230 230 230 230 229 229 229 227 226 225 222 219 215 213 211 208 211 222 224 226 227 226 222 218 210 209 214 215 208 199 195 196 199 201 193 191 189 188 195 204 204 201 198 197 192 195 184 179 174 164 171 166 166 176 181 194 204 211 220 228 229 230 230 230 230 230 230 230 230 230 230 230 230 230 230 230 230 230 230 230 230 230 230 230 230 230 230 230 230 230 230 230 
230 230 230 230 229 229 228 224 222 222 222 218 214 211 209 208 203 200 210 216 221 219 218 213 203 192 198 205 196 191 182 177 177 190 183 175 178 178 181 190 197 196 191 189 191 184 186 169 164 167 155 163 165 165 176 185 196 208 216 226 229 229 230 230 230 230 230 230 230 230 230 230 230 230 230 230 230 230 230 230 230 230 230 230 230 230 230 230 230 230 230 230 
230 230 230 230 230 229 228 222 218 216 218 219 213 209 205 203 203 198 192 198 202 207 206 205 198 183 176 190 186 177 171 162 156 166 175 163 162 168 171 174 182 188 188 186 183 183 170 170 162 156 160 153 161 165 167 178 188 200 213 224 228 229 229 230 230 230 230 230 230 230 230 230 230 230 230 230 230 230 230 230 230 230 230 230 230 230 230 230 230 230 230 230 
230 230 230 230 230 229 228 222 214 211 208 211 215 210 204 200 198 198 192 187 190 189 193 189 189 177 163 167 172 164 157 151 140 142 154 153 150 153 161 164 165 174 181 183 180 173 168 162 160 155 153 159 151 161 164 168 179 193 207 222 228 229 229 229 230 230 230 230 230 230 230 230 230 230 230 230 230 230 230 230 230 230 230 230 230 230 230 230 230 230 230 230 
230 230 230 230 230 229 229 223 214 202 202 200 200 206 205 201 197 194 191 185 181 183 180 178 174 169 157 153 151 149 142 136 129 124 132 133 139 139 145 153 155 157 169 177 175 168 165 161 155 157 156 148 158 150 161 162 171 185 200 218 226 228 229 229 230 230 230 230 230 230 230 230 230 230 230 230 230 230 230 230 230 230 230 230 230 230 230 230 230 230 230 230 
230 230 230 230 229 229 229 225 217 207 190 186 189 191 191 191 191 190 188 184 176 174 175 167 163 155 148 145 140 128 125 120 114 113 115 114 115 124 129 135 144 149 153 164 169 168 161 159 158 156 150 152 150 159 149 160 168 178 195 212 224 228 229 229 230 230 230 230 230 230 230 230 230 230 230 230 230 230 230 230 230 230 230 230 230 230 230 230 230 230 230 230 
230 230 230 230 230 229 228 226 219 208 197 180 172 174 179 183 179 176 180 180 174 167 165 164 152 145 135 135 133 117 105 103 98 97 105 99 94 99 113 118 129 140 144 149 160 164 164 157 160 152 151 152 156 149 158 152 164 174 190 207 219 226 228 229 229 230 230 230 230 230 230 230 230 230 230 230 230 230 230 230 230 230 230 230 230 230 230 230 230 230 230 230 
230 230 230 230 230 230 229 225 221 214 196 181 166 160 162 164 172 174 170 175 177 169 159 153 149 136 125 121 125 113 94 82 82 81 90 88 81 81 88 107 117 129 136 146 153 160 161 161 153 157 151 156 152 154 149 157 155 171 187 202 213 222 227 229 229 230 230 230 230 230 230 230 230 230 230 230 230 230 230 230 230 230 230 230 230 230 230 230 230 230 230 230 
230 230 230 230 230 230 229 227 219 214 206 187 165 147 141 147 151 161 169 168 174 175 168 157 145 135 119 110 110 107 91 73 65 67 77 76 73 74 79 89 107 118 127 142 153 155 157 157 159 152 159 152 153 151 153 148 156 164 182 195 207 218 223 227 229 230 230 230 230 230 230 230 230 230 230 230 230 230 230 230 230 230 230 230 230 230 230 230 230 230 230 230 
230 230 230 230 230 230 229 226 223 214 205 194 175 158 140 132 140 143 154 163 163 170 170 163 155 141 122 106 99 100 88 75 60 57 69 67 67 74 76 82 91 108 119 135 145 149 154 155 153 155 149 154 149 148 144 151 152 165 172 184 200 211 220 225 228 229 230 230 230 230 230 230 230 230 230 230 230 230 230 230 230 230 230 230 230 230 230 230 230 230 230 230 
230 230 230 230 230 229 229 227 221 216 207 195 182 160 145 135 132 139 139 150 161 159 166 164 154 144 133 115 99 94 90 77 63 54 62 65 61 73 76 77 87 100 110 126 139 144 149 153 149 148 149 143 147 140 143 147 160 159 163 172 187 202 212 221 226 228 229 229 230 230 230 230 230 230 230 230 230 230 230 230 230 230 230 230 230 230 230 230 230 230 230 230 
230 230 230 230 230 229 229 228 225 216 212 201 187 172 148 133 130 131 140 136 143 155 154 160 157 145 133 122 111 98 94 86 69 56 60 65 62 69 75 78 88 102 103 114 134 142 148 149 149 145 143 143 134 141 141 148 151 156 160 167 178 190 202 212 221 226 228 229 229 230 230 230 230 230 230 230 230 230 230 230 230 230 230 230 230 230 230 230 230 230 230 230 
230 230 230 230 230 229 229 228 226 223 212 208 195 181 165 141 132 130 130 141 137 140 148 149 156 153 140 124 114 104 95 93 84 63 64 66 66 70 72 81 91 103 106 105 126 140 145 147 146 147 142 139 138 133 143 143 145 153 158 165 170 180 192 205 214 223 226 228 229 229 230 230 230 230 230 230 230 230 230 230 230 230 230 230 230 230 230 230 230 230 230 230 
230 230 230 230 230 229 229 228 226 222 219 209 203 191 178 162 141 133 136 133 141 140 141 145 142 149 146 134 122 111 97 89 91 79 73 73 69 73 75 83 95 106 110 107 118 136 145 145 146 148 149 139 137 138 135 140 141 145 152 160 166 170 183 194 209 217 223 226 228 229 229 230 230 230 230 230 230 230 230 230 230 230 230 230 230 230 230 230 230 230 230 230 
230 230 230 230 230 229 229 227 226 223 219 216 206 201 189 175 162 143 136 143 142 145 143 148 152 144 144 137 132 125 110 92 87 87 87 84 79 73 78 87 98 108 113 110 117 130 142 147 147 150 148 147 139 137 136 131 138 136 143 152 156 162 167 184 196 209 217 224 226 228 229 229 230 230 230 230 230 230 230 230 230 230 230 230 230 230 230 230 230 230 230 230 
230 230 230 230 230 229 229 227 222 220 218 214 212 202 197 184 173 162 145 138 144 148 152 148 151 158 151 142 133 136 130 109 91 87 95 99 91 81 79 90 100 105 108 105 114 127 137 144 151 149 150 147 146 136 133 133 128 135 136 137 142 146 155 164 184 198 209 218 224 226 228 229 229 230 230 230 230 230 230 230 230 230 230 230 230 230 230 230 230 230 230 230 
230 230 230 230 230 229 229 228 225 217 212 209 204 202 192 188 179 170 159 148 143 148 147 153 154 156 159 151 136 135 141 133 110 94 92 107 105 91 89 92 94 99 101 94 102 119 133 140 145 151 144 144 144 143 133 131 132 129 127 126 131 139 147 160 171 189 202 210 218 224 227 228 229 229 230 230 230 230 230 230 230 230 230 230 230 230 230 230 230 230 230 230 
230 230 230 229 230 229 229 227 225 220 209 203 198 192 189 181 178 174 167 157 148 150 156 156 158 158 162 160 143 134 139 145 134 114 98 100 111 105 98 94 91 96 98 88 91 102 122 132 135 141 145 142 140 138 135 131 128 122 118 120 121 130 143 155 170 180 196 205 212 220 225 227 228 229 229 230 230 230 230 230 230 230 230 230 230 230 230 230 230 230 230 230 
230 230 230 229 229 230 229 227 223 217 210 198 189 182 175 174 171 172 171 169 163 153 151 155 157 160 161 163 160 140 135 141 144 136 118 104 104 113 107 98 93 100 95 85 85 93 104 125 136 141 143 140 134 133 132 126 118 115 115 114 121 125 140 154 165 178 187 201 210 216 222 226 228 229 229 229 230 230 230 230 230 230 230 230 230 230 230 230 230 230 230 230 
230 230 230 229 229 229 229 228 224 218 208 198 184 175 170 164 167 168 171 172 174 169 163 156 150 143 144 149 156 157 144 138 142 148 142 125 109 109 114 101 99 95 97 84 81 84 96 112 135 142 141 138 134 127 123 119 113 109 108 112 114 122 132 148 158 170 185 196 209 216 220 225 228 228 229 229 230 230 230 230 230 230 230 230 230 230 230 230 230 230 230 230 
230 230 230 229 229 229 229 226 221 214 207 199 189 175 168 162 158 163 167 170 173 176 171 163 150 140 128 128 135 146 161 150 141 144 152 146 130 115 113 105 100 105 99 93 82 76 89 105 122 136 140 137 132 127 116 108 104 101 100 100 107 111 122 132 152 167 179 192 201 213 220 224 227 229 229 229 229 230 230 230 230 230 230 230 230 230 230 230 230 230 230 230 
230 230 230 229 229 229 229 225 219 210 199 189 182 171 158 154 152 152 158 164 168 170 172 161 151 137 137 114 118 124 140 165 152 141 145 152 149 132 120 109 97 101 110 94 88 80 80 99 112 120 131 136 134 128 118 105 98 95 93 94 95 105 110 127 142 163 175 185 196 206 216 223 226 228 229 229 229 230 230 230 230 230 230 230 230 230 230 230 230 230 230 230 
230 230 230 229 229 229 227 223 216 210 201 189 178 168 157 146 144 146 150 157 162 164 160 158 148 135 119 119 103 109 111 139 166 153 145 147 155 145 130 117 107 93 100 103 95 87 79 89 100 108 116 128 134 130 121 113 103 95 89 85 88 88 100 111 134 151 170 182 192 203 212 220 225 227 229 229 229 230 230 230 230 230 230 230 230 230 230 230 230 230 230 230 
230 230 230 230 229 228 226 222 216 210 204 195 182 171 162 151 142 141 143 144 146 149 154 149 146 133 117 102 110 91 96 107 137 164 154 147 154 154 138 122 118 111 102 102 104 90 85 84 88 94 102 111 125 132 127 120 110 97 83 75 71 77 84 99 113 137 159 180 194 204 212 219 224 227 228 229 229 230 230 230 230 230 230 230 230 230 230 230 230 230 230 230 
230 230 230 230 230 229 227 222 217 210 201 193 184 173 162 152 140 130 127 131 138 143 145 149 138 135 124 109 95 102 87 91 101 134 161 152 149 155 147 129 117 119 116 101 96 94 85 87 82 86 99 112 120 130 133 126 117 99 83 70 64 67 77 88 105 122 149 173 195 207 218 224 227 228 229 229 229 230 230 230 230 230 230 230 230 230 230 230 230 230 230 230 
230 230 230 229 229 229 226 222 216 210 200 190 180 170 157 144 134 122 123 127 134 141 146 149 150 132 126 115 100 92 101 85 90 100 129 157 152 151 145 137 121 113 115 112 96 91 90 87 89 94 102 114 126 131 135 135 125 113 96 85 75 69 71 82 95 116 136 164 187 204 215 223 227 228 229 229 229 230 230 230 230 230 230 230 230 230 230 230 230 230 230 230 
230 230 230 230 229 228 224 219 213 205 195 185 175 164 152 137 126 122 117 121 129 138 146 148 153 154 134 126 116 101 91 98 83 88 99 127 155 156 147 135 129 117 110 113 107 93 92 92 98 108 110 119 131 139 143 142 138 130 117 102 89 80 76 83 97 113 133 152 178 199 212 219 224 227 229 229 229 230 230 230 230 230 230 230 230 230 230 230 230 230 230 230 
230 230 230 229 229 226 221 216 206 200 192 180 169 156 144 132 121 116 117 116 123 133 144 152 150 150 149 127 118 109 95 84 94 78 86 97 124 151 152 136 129 128 113 107 113 109 94 93 107 114 117 126 135 142 146 144 139 134 124 111 99 91 88 90 101 117 132 149 167 188 206 217 222 226 228 229 229 230 230 230 230 230 230 230 230 230 230 230 230 230 230 230 
230 230 230 229 228 226 221 210 204 194 188 181 164 152 138 130 123 116 116 120 122 129 138 145 150 145 143 141 118 109 101 90 83 94 84 93 103 122 143 146 133 130 127 112 109 118 110 96 106 116 125 132 141 144 145 142 137 130 127 122 110 99 94 96 102 116 134 150 166 182 201 215 223 226 227 229 229 229 230 230 230 230 230 230 230 230 230 230 230 230 230 230 
230 230 230 229 228 227 217 211 199 193 185 178 168 152 140 128 123 121 118 118 123 125 131 139 147 150 142 138 135 112 105 100 94 94 104 92 99 107 127 139 141 132 130 129 115 110 115 109 109 115 119 128 136 145 146 137 135 130 123 119 116 110 100 97 103 111 129 151 171 186 200 215 223 227 228 229 229 229 229 230 230 230 230 230 230 230 230 230 230 230 230 230 
230 230 230 229 229 222 221 211 201 192 183 174 164 154 138 127 121 121 125 128 131 134 137 144 149 151 151 141 137 135 115 108 108 105 105 104 99 102 115 133 137 140 131 126 128 116 112 118 123 125 126 127 134 141 140 141 131 125 125 120 114 109 103 95 96 107 120 144 166 186 198 207 218 225 227 229 229 229 229 230 230 230 230 230 230 230 230 230 230 230 230 230 
230 230 230 229 228 225 218 212 202 191 179 169 158 148 142 128 122 122 122 126 131 137 145 148 153 154 154 151 141 135 135 122 120 119 118 119 116 104 107 124 132 135 140 128 125 128 119 115 126 131 135 137 137 136 136 135 136 128 118 118 117 106 98 92 84 90 106 127 156 178 199 210 217 222 226 228 229 229 229 230 230 230 230 230 230 230 230 230 230 230 230 230 
230 230 230 229 229 227 222 210 203 192 179 165 153 140 131 128 121 119 119 121 126 132 139 145 148 152 155 156 157 150 145 141 128 127 129 128 125 116 108 112 120 127 131 136 126 122 127 122 120 129 132 130 128 131 137 139 132 134 126 114 111 112 98 85 79 76 92 117 145 175 196 212 221 225 227 228 228 229 229 230 230 230 230 230 230 230 230 230 230 230 230 230 
230 230 230 229 229 228 220 214 204 193 179 161 145 132 122 119 122 115 113 114 122 129 135 141 148 155 164 168 166 162 153 147 145 136 128 127 130 130 125 110 113 118 121 127 134 126 125 131 126 124 128 133 130 125 127 133 140 134 133 122 103 96 98 91 81 78 84 105 132 161 189 207 218 223 226 228 228 229 229 230 230 230 230 230 230 230 230 230 230 230 230 230 
230 230 230 229 229 227 224 216 207 193 176 159 144 132 122 115 114 115 110 114 117 125 133 141 150 161 168 172 171 168 162 154 144 138 136 136 138 140 135 131 118 118 121 124 129 136 134 136 139 135 129 133 140 136 129 127 127 132 126 128 117 96 86 87 86 78 78 85 108 138 167 194 212 221 225 227 228 229 229 230 230 230 230 230 230 230 230 230 230 230 230 230 
230 230 230 229 229 228 224 221 211 193 177 163 146 133 123 116 111 113 114 112 117 119 129 139 154 163 170 173 176 175 168 162 150 140 136 138 141 140 142 142 141 128 125 126 128 133 143 143 145 146 140 133 133 141 140 131 127 121 123 117 118 107 88 79 79 82 79 79 88 114 144 173 198 214 223 226 227 228 229 229 230 230 230 230 230 230 230 230 230 230 230 230 
230 230 230 229 229 228 227 222 211 202 185 167 155 137 128 123 117 112 112 112 113 120 126 141 151 165 171 176 178 180 176 167 162 156 149 148 150 151 148 151 152 150 137 132 131 135 142 153 155 152 148 141 132 128 132 133 128 120 114 115 108 109 100 83 73 72 75 77 81 93 120 151 179 202 216 224 227 228 228 229 229 230 230 230 230 230 230 230 230 230 230 230 
230 230 229 229 229 229 227 224 218 209 196 179 160 149 133 124 123 113 106 107 113 117 129 136 148 151 162 170 176 178 179 178 172 170 165 161 161 162 161 157 158 158 158 147 142 140 146 150 155 156 155 148 137 127 120 119 120 122 115 107 110 104 105 95 79 68 66 67 70 81 100 134 164 189 208 219 225 227 228 229 229 229 230 230 230 230 230 230 230 230 230 230 
230 229 229 229 229 229 227 225 223 216 205 188 169 150 139 131 118 114 106 104 109 116 123 130 133 144 153 165 170 174 179 181 179 175 174 172 168 168 168 166 163 162 162 164 156 150 151 153 150 147 149 153 147 131 121 115 111 109 112 112 105 107 99 103 93 75 60 61 66 75 91 116 151 179 202 216 223 226 227 228 229 229 229 230 230 230 230 230 230 230 230 230 
229 229 229 229 228 228 228 226 224 221 211 195 175 156 144 130 120 112 110 107 107 113 118 120 129 136 146 151 159 169 176 179 181 180 178 178 177 172 168 165 165 164 162 162 164 157 152 151 155 150 140 139 148 145 127 109 100 96 97 100 103 103 104 94 99 91 72 54 55 66 79 103 132 167 193 211 220 224 227 228 228 229 229 229 230 230 230 230 230 230 230 230 
229 229 228 227 227 226 225 225 222 219 213 196 179 162 142 132 125 116 113 113 110 111 112 116 124 133 134 140 150 161 168 172 176 180 180 180 180 178 174 168 162 161 158 157 158 162 152 147 148 156 152 134 130 138 138 120 97 85 84 86 90 92 98 99 88 93 85 68 52 51 67 86 113 147 180 203 217 222 225 227 228 229 229 229 229 229 229 229 230 230 230 230 
229 227 225 220 218 220 220 216 217 215 207 196 182 161 148 132 129 123 113 110 114 110 111 118 123 127 127 131 140 150 157 163 169 174 179 181 179 177 175 171 163 158 152 148 154 160 160 146 141 146 157 156 133 123 129 128 113 89 76 73 81 88 88 94 88 80 87 78 66 57 57 76 103 133 166 192 209 218 223 226 228 228 229 229 229 229 229 229 229 230 230 230 
229 224 215 210 200 200 208 208 203 205 200 193 180 170 151 144 129 117 113 111 112 117 115 116 122 117 120 130 137 141 144 152 160 168 173 178 180 176 172 171 166 156 151 149 144 148 156 153 135 133 142 155 157 131 119 120 118 105 83 69 63 73 84 89 95 78 68 79 70 64 62 67 87 117 149 177 199 213 220 224 226 228 228 229 229 229 229 229 229 229 230 230 
228 221 209 196 190 179 182 195 196 190 194 189 183 172 162 142 128 115 109 112 116 114 114 112 115 111 114 121 130 132 135 139 149 158 165 170 174 175 169 166 169 164 158 150 142 133 135 146 138 119 121 136 147 144 117 106 106 107 96 76 64 56 60 72 82 93 72 61 72 63 61 68 80 99 129 160 188 207 216 223 225 227 228 229 229 229 229 229 229 229 229 230 
228 219 205 191 177 170 164 169 183 187 182 186 181 172 158 143 123 113 109 108 109 113 110 113 104 106 106 113 125 126 127 131 137 143 153 163 167 166 167 162 164 173 166 150 139 129 118 119 129 120 99 106 128 141 130 98 89 91 97 90 72 65 54 50 57 70 86 63 53 70 62 62 75 93 112 139 169 194 210 218 223 226 227 228 229 229 229 229 229 229 229 229 
228 220 203 186 173 161 157 153 160 175 179 172 174 165 151 137 125 111 107 102 104 103 110 104 99 94 103 108 117 121 120 122 123 130 140 151 157 160 159 163 157 163 169 156 136 122 115 101 100 109 101 81 86 116 137 122 82 71 76 92 88 71 68 60 46 46 59 77 54 46 71 68 73 89 111 131 155 183 205 218 222 225 226 227 228 229 229 229 229 229 229 229 
229 225 209 186 167 153 144 140 141 147 161 163 153 153 143 135 123 115 102 97 91 97 99 97 90 94 95 108 110 108 115 113 118 122 131 137 142 148 151 155 153 148 157 157 143 121 107 100 82 79 87 81 63 67 100 131 124 79 57 61 87 87 70 72 66 49 40 51 72 48 39 69 75 86 108 131 151 173 196 214 222 224 226 227 228 229 229 229 229 229 229 229 
229 228 216 192 166 148 135 127 119 120 129 142 146 133 139 131 125 113 101 84 89 90 91 90 90 92 97 99 102 103 104 110 113 117 119 120 127 135 141 144 143 142 138 148 142 130 107 91 85 63 60 68 63 52 52 82 116 123 89 60 53 77 84 69 73 69 52 41 50 72 48 40 68 81 100 128 152 170 186 203 216 222 224 226 227 228 229 229 229 229 229 229 
229 229 224 204 174 150 129 113 105 98 101 114 125 132 122 129 121 111 94 86 80 92 86 86 91 92 91 94 89 92 95 100 109 109 107 109 115 125 128 134 134 129 130 129 137 131 119 96 79 71 47 49 54 53 48 41 69 100 114 97 69 53 73 82 68 74 74 53 41 53 72 54 52 79 93 118 148 172 188 202 212 220 224 225 227 227 228 229 229 229 229 229 
229 229 228 220 194 158 131 108 92 85 82 89 102 116 122 115 118 103 95 82 91 84 91 90 91 90 87 86 87 85 88 95 100 101 100 104 110 112 117 124 127 122 119 121 123 133 127 114 90 70 63 39 45 45 51 51 37 60 88 100 97 80 59 71 81 70 73 72 52 39 53 74 63 68 97 112 140 169 191 207 218 225 227 228 228 228 228 228 229 229 229 229 
229 229 229 227 216 184 144 114 92 77 75 75 88 100 113 113 102 105 91 92 90 91 90 96 91 86 88 85 87 89 87 94 95 94 100 106 105 105 108 116 126 117 115 113 114 117 131 127 112 88 66 61 40 48 40 49 55 37 57 81 89 93 88 70 75 85 74 75 72 51 37 55 80 80 90 116 133 161 185 203 216 223 227 228 228 229 229 229 229 229 229 229 
229 229 229 228 226 213 178 134 101 82 71 79 79 96 101 103 106 98 100 94 95 93 94 91 94 90 93 96 92 92 93 94 96 95 104 111 107 101 102 112 120 126 108 111 111 113 118 132 128 112 86 66 59 43 54 40 47 57 35 55 79 86 91 91 81 87 95 81 80 74 51 42 64 93 101 114 137 155 182 203 214 221 225 227 228 228 229 229 229 229 229 229 
229 229 229 229 228 225 210 173 128 94 80 76 87 84 97 104 104 104 95 102 93 96 93 93 89 103 100 103 107 95 100 101 98 101 112 114 115 106 105 105 115 125 121 105 112 110 114 120 136 126 112 87 67 56 42 60 43 45 58 31 45 75 91 99 99 92 95 103 89 87 79 60 53 78 111 123 135 156 176 200 216 223 226 227 228 228 228 229 229 229 229 229 
230 229 229 229 229 228 225 209 170 125 96 88 81 88 90 101 105 103 102 94 100 92 97 95 99 98 115 113 111 112 102 107 102 110 117 123 123 116 115 117 113 120 125 117 104 110 111 114 126 138 122 115 92 67 52 43 67 46 45 58 29 34 64 92 109 109 103 103 105 88 86 84 72 72 99 131 145 157 172 191 212 223 227 227 228 228 229 229 229 229 229 229 
230 230 229 229 229 229 228 224 207 168 128 104 92 89 95 95 99 101 100 101 94 99 92 100 101 109 109 120 115 116 118 107 113 118 125 129 133 129 127 128 130 122 124 120 114 108 111 108 119 133 136 124 118 98 69 52 51 74 48 46 58 29 28 51 86 114 118 109 103 102 85 86 89 88 95 122 152 167 178 188 200 218 226 227 228 228 229 229 229 229 229 229 
230 230 230 229 229 229 229 228 223 205 167 129 111 105 100 98 97 96 103 101 99 93 99 97 103 105 107 107 123 120 121 121 117 127 130 137 138 143 142 138 139 137 124 121 122 120 108 107 113 130 135 136 123 120 104 69 52 58 77 51 46 57 31 28 43 76 109 119 112 102 100 88 91 102 106 116 144 173 187 197 205 210 221 226 228 228 228 229 229 229 229 229 
230 230 230 230 229 229 229 229 227 222 201 168 140 123 113 107 98 105 101 104 100 96 94 96 93 97 99 107 115 126 121 129 130 124 135 143 146 151 153 150 146 146 145 130 130 127 117 103 109 123 131 137 132 121 121 108 72 56 61 79 54 48 54 32 31 44 68 93 111 114 101 102 100 105 117 123 133 160 189 203 213 219 221 225 227 228 228 228 229 229 229 229 
230 230 230 230 230 229 229 229 228 226 220 202 175 151 130 113 114 104 106 99 97 97 94 90 90 87 97 107 112 114 124 128 135 129 132 147 152 160 166 165 162 159 155 154 140 134 121 109 101 117 123 131 133 124 117 118 108 75 56 64 80 61 53 54 35 34 49 64 78 101 113 103 113 118 124 132 141 152 174 202 213 220 224 226 227 227 228 228 228 229 229 229 
230 230 230 230 230 230 229 229 228 228 226 218 203 176 152 135 122 115 103 104 98 99 98 95 86 89 95 100 106 108 111 126 131 129 134 142 152 162 172 175 177 173 169 164 160 144 125 111 103 105 118 122 130 122 112 107 109 101 73 53 62 75 66 58 59 39 37 49 64 71 94 116 115 125 135 145 154 162 174 191 213 222 226 226 227 227 227 228 228 228 229 229 
230 230 230 230 230 230 230 229 229 228 228 225 215 199 174 158 136 121 117 106 108 99 95 90 96 96 92 93 96 99 104 109 125 127 129 139 149 152 169 180 182 185 180 173 166 161 135 113 105 97 107 113 118 123 111 100 92 96 93 67 49 62 71 66 57 63 47 40 52 70 77 97 122 127 136 149 162 174 183 194 208 221 225 226 226 227 227 227 228 228 228 229 
230 230 230 230 230 230 230 230 230 229 229 227 224 209 195 170 156 138 122 114 95 98 97 103 101 97 89 89 87 88 93 97 105 119 119 126 143 145 153 176 183 189 185 179 170 163 152 127 105 97 92 105 106 107 110 98 89 78 85 87 66 55 64 67 61 57 66 59 53 63 81 89 107 127 133 143 158 175 191 201 210 219 225 226 226 227 227 227 227 228 228 228 
230 230 230 230 230 230 230 229 230 229 229 228 226 220 205 190 165 147 127 111 108 98 108 105 99 91 90 88 81 81 79 85 94 101 108 112 120 142 141 153 178 186 184 180 172 163 151 143 120 100 90 90 99 96 98 101 91 79 71 82 84 66 57 64 63 58 61 69 72 70 80 94 99 116 133 141 151 166 184 202 213 220 224 225 226 226 226 227 227 227 228 228 
230 230 230 230 230 230 230 229 229 229 229 228 228 225 216 196 177 151 138 125 111 109 97 98 96 96 93 90 85 77 74 73 82 89 91 96 99 118 139 136 154 178 180 179 171 161 153 143 132 116 96 88 90 90 87 90 98 85 72 72 80 80 61 55 60 60 62 69 77 83 88 99 110 110 126 142 149 163 181 197 212 222 224 225 226 226 226 227 227 227 228 228 
230 230 230 230 230 230 230 230 229 229 229 229 228 227 223 209 187 168 143 126 113 105 102 92 99 102 103 96 90 85 78 75 74 76 75 79 85 93 115 131 132 152 171 172 167 156 151 147 134 123 110 94 90 85 82 81 86 85 74 72 70 79 75 57 49 52 55 69 84 94 101 107 118 127 125 140 156 163 179 198 210 221 224 225 225 226 226 226 227 227 227 228 
230 230 230 230 230 230 230 230 230 229 229 229 229 228 226 219 201 174 152 129 120 111 100 104 101 109 112 106 100 98 96 86 77 70 67 69 73 77 93 106 122 130 146 161 158 152 145 144 136 126 114 102 90 83 77 77 78 71 71 74 69 71 76 67 53 45 45 56 78 100 113 120 127 137 143 143 159 174 180 197 212 219 223 225 225 226 226 226 226 227 227 228 
230 230 230 230 230 230 230 230 230 230 229 229 229 229 227 223 211 189 159 141 124 115 113 105 110 112 113 119 116 113 113 106 90 81 68 60 62 64 76 85 93 116 128 135 147 143 139 138 132 128 114 104 91 80 73 74 78 67 59 72 67 66 71 71 59 49 40 46 62 88 113 128 137 144 155 161 166 180 191 200 212 219 223 225 225 226 226 226 226 227 227 227 
230 230 230 230 230 230 230 230 230 230 230 229 229 229 228 224 212 196 177 152 137 123 117 118 117 112 116 123 130 131 128 124 111 98 86 64 53 55 63 72 72 83 119 118 121 132 129 130 125 121 116 104 93 77 72 73 77 73 62 56 65 60 63 67 66 55 46 42 51 70 97 122 139 153 162 171 182 188 200 208 215 220 223 225 226 226 226 227 227 227 227 227 
230 230 230 230 230 230 230 230 230 230 230 229 229 229 229 225 217 204 188 168 147 136 127 123 115 113 122 128 131 138 137 131 125 120 101 85 64 51 51 60 61 59 86 110 104 109 117 116 119 112 110 106 95 78 64 77 80 78 69 57 50 55 57 60 62 66 58 51 51 63 83 108 130 147 166 178 189 201 208 215 219 222 223 225 226 226 227 227 227 227 227 227 
230 230 230 230 230 230 230 230 230 230 230 229 229 229 229 228 222 210 195 179 162 145 135 121 115 121 122 126 128 132 143 148 143 133 125 107 87 62 48 50 51 48 61 84 96 89 99 103 106 104 100 101 98 83 65 66 86 86 79 67 55 41 50 54 58 64 74 69 63 65 75 95 121 143 155 175 192 204 214 218 221 223 224 226 226 227 227 227 228 227 227 228 
230 230 230 230 230 230 230 230 230 230 230 230 229 229 229 228 226 218 205 190 174 156 135 127 123 119 124 122 132 140 147 149 149 147 144 140 113 84 60 46 41 41 49 66 77 80 79 87 92 95 91 93 94 93 76 67 71 91 89 77 68 52 38 48 54 61 72 84 81 72 74 86 108 136 157 166 182 199 210 217 221 222 224 226 227 227 227 228 228 228 228 228 
230 230 230 230 230 230 230 230 230 230 230 230 230 229 229 229 228 225 216 202 184 161 147 132 127 127 128 133 133 140 141 144 153 163 162 157 148 112 82 56 37 32 41 57 64 70 67 72 76 81 85 87 88 94 97 84 71 78 95 90 77 65 49 35 46 57 68 80 92 92 84 88 102 121 149 171 181 191 203 212 218 222 224 225 226 227 228 228 228 228 228 228 
230 230 230 230 230 230 230 230 230 230 230 230 230 230 229 229 228 228 224 213 196 177 157 145 137 136 135 133 135 134 142 149 158 166 171 165 157 148 108 74 48 30 34 49 60 68 70 70 75 74 78 86 85 90 99 103 89 77 84 99 91 74 63 50 38 49 60 74 86 99 103 102 107 119 136 160 181 194 202 209 215 220 223 225 226 227 228 228 228 228 228 228 
230 230 230 230 230 230 230 230 230 230 230 230 230 230 230 229 229 228 227 222 210 192 174 155 148 141 138 138 141 143 142 148 154 158 167 169 162 149 142 102 66 43 34 46 60 71 74 64 70 70 67 75 82 85 94 102 106 95 79 86 101 91 73 63 54 45 57 68 80 92 107 115 119 127 140 154 172 187 198 205 211 217 221 224 225 226 227 228 228 228 228 229 
230 230 230 230 230 230 230 230 230 230 230 230 230 230 230 229 229 229 228 226 220 207 188 169 151 145 141 141 141 144 142 140 144 151 157 166 169 160 140 130 98 67 49 47 60 67 75 69 70 75 67 67 80 88 92 94 102 111 94 79 85 102 92 76 69 63 58 70 76 89 105 122 135 140 149 162 174 184 194 201 208 213 218 222 224 226 227 228 228 228 228 229 
230 230 230 230 230 230 230 230 230 230 230 230 230 230 230 229 229 229 228 226 224 216 199 177 159 144 144 143 144 140 140 134 134 141 152 160 168 169 154 128 121 96 69 61 60 64 73 78 75 80 78 64 75 88 97 95 90 110 116 97 80 90 110 102 88 82 78 73 82 94 109 123 141 156 163 172 181 189 195 201 207 211 216 220 223 225 226 227 228 228 228 229 
230 230 230 230 230 230 230 230 230 230 230 230 230 230 230 230 229 229 229 226 222 217 208 192 171 162 152 149 145 143 136 134 127 131 148 158 163 167 162 143 118 117 96 72 66 65 74 79 82 86 90 75 73 86 100 104 91 92 115 122 103 90 105 124 119 105 98 91 93 105 117 132 146 163 178 184 190 196 200 203 207 211 215 219 222 224 226 227 228 228 228 229 
230 230 230 230 230 230 230 230 230 230 230 230 230 230 230 230 229 229 229 227 221 215 211 200 184 167 157 146 145 141 136 128 130 131 139 150 157 162 157 150 132 113 114 96 70 74 76 82 83 94 99 90 83 83 99 113 108 90 97 122 135 118 112 126 140 133 119 113 113 116 129 141 156 170 184 195 200 203 206 207 209 212 215 218 221 224 225 227 228 228 228 229 
230 230 230 230 230 230 230 230 230 230 230 230 230 230 230 230 229 229 229 225 219 216 210 202 190 178 162 154 143 139 133 134 135 133 129 138 151 153 155 147 140 129 109 107 93 79 86 85 88 98 108 100 95 94 98 114 124 112 98 106 138 150 138 134 146 153 144 133 130 135 141 153 164 179 190 200 206 210 211 212 213 214 216 219 221 224 226 227 228 228 229 229 
230 230 230 230 230 230 230 230 230 230 230 230 230 230 230 230 229 229 228 222 218 214 210 198 192 185 173 159 148 136 132 139 140 132 128 124 139 149 145 148 144 139 126 103 105 97 91 94 98 102 113 113 103 106 106 111 128 135 128 115 123 153 164 157 154 162 166 157 150 149 156 164 175 186 197 205 210 214 216 215 216 217 218 221 223 225 227 228 228 229 229 229 
230 230 230 230 230 230 230 230 230 230 230 230 230 230 230 229 229 229 225 219 215 212 208 196 191 184 178 165 152 143 135 131 135 135 125 122 124 137 143 144 154 151 142 128 106 109 111 106 111 116 119 125 121 119 126 128 133 147 153 144 130 136 165 174 170 168 173 178 171 168 170 177 186 194 201 207 213 216 218 219 219 220 221 223 225 226 227 228 229 229 229 229 
230 230 230 230 230 230 230 230 230 230 230 230 230 230 230 229 229 226 220 217 212 210 202 196 190 183 175 169 159 147 139 126 122 129 129 121 117 120 141 152 155 163 157 148 135 117 121 129 130 135 139 138 139 138 135 138 138 143 156 164 155 141 147 175 186 179 178 181 188 185 187 190 196 201 207 212 216 219 221 222 223 224 225 226 227 228 229 229 229 229 229 229 
230 230 230 230 230 230 230 230 230 230 230 230 230 230 230 229 228 227 220 214 211 205 200 194 190 180 171 166 163 153 140 130 118 114 122 123 117 122 131 154 164 164 170 163 156 146 135 137 147 152 157 156 149 149 148 148 155 155 161 175 181 170 156 161 187 197 189 188 191 199 199 204 207 211 215 219 222 224 226 226 227 227 228 228 229 229 229 229 229 229 230 230 
230 230 230 230 230 230 230 230 230 230 230 230 230 230 230 229 229 228 223 214 207 204 197 193 187 183 171 160 157 156 146 131 123 112 114 130 136 132 136 144 166 174 171 175 169 163 157 154 157 163 167 169 166 158 164 165 164 168 168 175 188 190 181 166 176 200 207 202 203 208 214 215 218 221 223 225 227 228 228 229 229 229 229 229 229 229 229 230 229 230 230 230 
230 230 230 230 230 230 230 230 230 230 230 230 230 230 230 230 229 229 227 223 213 206 202 194 189 182 177 165 154 152 154 148 139 134 126 127 143 148 146 150 158 177 182 177 181 177 172 171 171 175 179 178 177 177 176 179 176 176 180 181 191 197 199 191 180 193 210 215 215 218 223 225 226 227 228 228 229 229 229 229 229 229 229 229 230 230 230 230 230 230 230 230 
230 230 230 230 230 230 230 230 230 230 230 230 230 230 230 230 230 229 229 227 223 213 205 201 194 189 181 177 167 158 159 162 156 148 141 133 136 151 157 156 161 170 187 188 184 188 188 186 187 188 190 188 188 191 193 188 189 189 189 191 196 201 205 208 203 198 209 219 225 227 228 229 229 229 229 229 229 229 229 229 230 230 230 229 230 230 230 230 230 230 230 230 
230 230 230 230 230 230 230 230 230 230 230 230 230 230 230 230 230 230 229 229 227 223 212 205 201 194 189 182 179 171 166 166 170 167 160 155 148 149 163 169 168 174 182 195 196 193 199 202 203 204 201 200 200 205 201 204 198 203 200 199 205 208 210 214 216 215 216 222 228 229 229 229 229 229 229 229 229 229 229 229 230 230 230 230 230 230 230 230 230 230 230 230 
230 230 230 230 230 230 230 230 230 230 230 230 230 230 230 230 230 230 229 229 229 227 223 212 205 201 194 189 185 187 177 170 175 181 176 171 166 160 163 177 179 179 186 195 204 205 206 213 218 219 214 212 213 215 214 211 214 212 212 211 213 218 218 219 222 225 227 228 229 229 229 230 229 230 230 230 229 229 229 230 230 230 230 230 230 230 230 230 230 230 230 230 
