P2
100 100
255
255 255 255 255 255 255 255 255 255 255 255 255 255 255 255 255 255 255 255 255 255 255 255 255 255 255 255 255 255 255 255 255 255 255 255 255 255 255 255 255 255 255 255 255 255 255 255 255 255 255 255 255 255 255 255 255 255 255 255 255 255 255 255 255 255 255 255 255 255 255 255 255 255 255 255 255 255 255 255 255 255 255 255 255 255 255 255 255 255 255 255 255 255 255 255 255 255 255 255 255 
255 255 255 255 255 255 255 255 255 255 255 255 255 255 255 255 255 255 255 255 255 255 255 255 255 255 255 255 255 255 255 255 255 255 255 255 255 255 255 255 255 255 255 255 255 255 255 255 255 255 255 255 255 255 255 255 255 255 255 255 255 255 255 255 255 255 255 255 255 255 255 255 255 255 255 255 255 255 255 255 255 255 255 255 255 255 255 255 255 255 255 255 255 255 255 255 255 255 255 255 
255 255 255 255 255 255 255 255 255 255 255 255 255 255 255 255 255 255 255 255 255 255 255 255 255 255 255 255 255 255 255 255 255 255 255 255 255 255 255 255 255 255 255 255 255 255 255 255 255 255 255 255 255 255 255 255 255 255 255 255 255 255 255 255 255 255 255 255 255 255 255 255 255 255 255 255 255 255 255 255 255 255 255 255 255 255 255 255 255 255 255 255 255 255 255 255 255 255 255 255 
255 255 255 255 255 255 255 255 255 255 255 255 255 255 255 255 255 255 255 255 255 255 255 255 255 255 255 255 255 255 255 255 255 255 255 255 255 255 255 255 255 255 255 255 255 255 255 255 255 255 255 255 255 255 255 255 255 255 255 255 255 255 255 255 255 255 255 255 255 255 255 255 255 255 255 255 255 255 255 255 255 255 255 255 255 255 255 255 255 255 255 255 255 255 255 255 255 255 255 255 
255 255 255 255 255 255 255 255 255 255 255 255 255 255 255 255 255 255 255 255 255 255 255 255 255 255 255 255 255 255 255 255 255 255 255 255 255 255 255 255 255 255 255 255 255 255 255 255 255 255 255 255 255 255 255 255 255 255 255 255 255 255 255 255 255 255 255 255 255 255 255 255 255 255 255 255 255 255 255 255 255 255 255 255 255 255 255 255 255 255 255 255 255 255 255 255 255 255 255 255 
255 255 255 255 255 255 255 255 255 255 255 255 255 255 255 255 255 255 255 255 255 255 255 255 255 255 255 255 255 255 255 255 255 255 255 255 255 255 255 255 255 255 255 255 255 255 255 255 255 255 255 255 255 255 255 255 255 255 255 255 255 255 255 255 255 255 255 255 255 255 255 255 255 255 255 255 255 255 255 255 255 255 255 255 255 255 255 255 255 255 255 255 255 255 255 255 255 255 255 255 
255 255 255 255 255 255 255 255 255 255 255 255 255 255 255 255 255 255 255 255 255 255 255 255 255 255 255 255 255 255 255 255 255 255 255 255 255 255 255 255 255 255 255 255 255 255 255 255 255 255 255 255 255 255 255 255 255 255 255 255 255 255 255 255 255 255 255 255 255 255 255 255 255 255 255 255 255 255 255 255 255 255 255 255 255 255 255 255 255 255 255 255 255 255 255 255 255 255 255 255 
255 255 255 255 255 255 255 255 255 255 255 255 255 255 255 255 255 255 255 255 255 255 255 255 255 255 255 255 255 255 255 255 255 255 255 255 255 255 255 255 255 255 255 255 255 255 255 255 255 255 255 255 255 255 255 255 255 255 247 255 255 255 255 255 255 255 255 255 255 255 255 255 255 255 255 255 255 255 255 255 255 255 255 255 255 255 255 255 255 255 255 255 255 255 255 255 255 255 255 255 
255 255 255 255 255 255 255 255 255 255 255 255 255 255 255 255 255 255 255 255 255 255 255 255 255 255 255 255 255 255 255 255 255 255 255 255 255 255 255 255 255 255 255 255 255 255 255 255 255 229 255 255 255 255 255 255 255 255 217 255 255 255 255 255 255 255 255 255 255 255 255 255 255 255 255 255 255 255 255 255 255 255 255 255 255 255 255 255 255 255 255 255 255 255 255 255 255 255 255 255 
255 255 255 255 255 255 255 255 255 255 255 255 255 255 255 255 255 255 255 255 255 255 255 255 255 255 255 255 255 255 255 255 255 255 255 255 255 255 255 255 255 255 255 255 255 255 255 255 235 255 255 255 255 255 255 255 255 226 201 255 255 255 255 255 255 255 255 255 255 255 255 255 255 255 255 255 255 255 255 255 255 255 255 255 255 255 255 255 255 255 255 255 255 255 255 255 255 255 255 255 
255 255 255 255 255 255 255 255 255 255 255 255 255 255 255 255 255 255 255 255 255 255 255 255 255 255 255 255 255 255 255 255 255 255 255 255 255 255 255 255 255 255 255 255 255 255 255 226 246 255 255 255 255 255 255 255 255 184 195 255 255 255 255 255 255 255 255 255 255 255 255 255 255 255 255 255 255 255 255 255 255 255 255 255 255 255 255 255 255 255 255 255 255 255 255 255 255 255 255 255 
255 255 255 255 255 255 255 255 255 255 255 255 255 255 255 255 255 255 255 255 255 255 255 255 255 255 255 255 255 255 255 255 255 255 255 255 255 255 255 255 255 255 210 204 255 255 241 199 255 255 241 255 255 255 255 247 229 168 193 255 255 255 255 255 255 255 255 255 255 255 255 255 255 255 255 255 255 255 255 255 255 255 255 255 255 255 255 255 255 255 255 255 255 255 255 255 255 255 255 255 
255 255 255 255 255 255 255 255 255 255 255 255 255 255 255 255 255 255 255 255 255 252 244 255 255 255 255 255 255 255 255 255 255 255 255 255 198 222 202 220 210 255 168 154 217 198 211 255 255 255 255 255 255 249 240 250 163 159 231 255 255 255 255 255 255 255 255 255 255 255 255 255 255 255 255 255 255 255 255 255 255 255 255 255 255 255 255 255 255 255 255 255 255 255 255 255 255 255 255 255 
255 255 255 255 255 255 255 255 255 255 255 255 255 255 255 255 255 255 255 255 255 255 255 241 216 255 255 255 255 255 255 247 187 189 255 243 159 159 145 150 183 255 133 139 205 198 255 255 255 255 255 252 252 255 241 202 144 180 255 255 255 255 255 255 255 255 255 255 255 255 255 255 255 255 255 255 255 255 255 255 255 255 255 255 255 255 255 255 255 255 255 255 255 255 255 255 255 255 255 255 
255 255 255 255 255 255 255 255 255 255 255 255 255 255 255 255 255 255 255 255 255 255 255 255 255 216 204 255 255 255 255 243 157 111 213 252 108 129 127 118 106 252 115 111 199 223 255 255 255 255 237 255 255 255 235 153 151 255 246 246 255 255 255 255 255 255 255 255 255 255 255 255 255 255 255 255 255 255 255 255 255 255 255 255 255 255 255 255 255 255 255 255 255 255 255 255 255 255 255 255 
255 255 255 255 255 255 255 255 255 255 255 255 255 255 255 255 255 255 255 255 255 255 255 255 255 255 255 193 172 180 181 189 160 78 133 255 90 94 93 90 54 210 154 84 196 229 255 255 255 250 250 255 255 255 172 150 255 255 244 241 255 255 255 255 255 255 255 255 255 255 255 255 255 255 255 255 255 255 255 255 255 255 255 255 255 255 255 255 255 255 255 255 255 255 255 255 255 255 255 255 
255 255 255 255 255 255 255 255 255 255 255 255 255 255 255 255 255 255 255 255 255 255 255 255 255 255 255 255 255 198 165 133 147 69 82 252 117 51 81 79 48 180 199 57 190 249 255 255 244 252 255 255 255 225 163 255 226 255 247 255 255 255 255 255 255 255 255 255 255 255 255 255 255 255 255 255 255 255 255 255 255 255 255 255 255 255 255 255 255 255 255 255 255 255 255 255 255 255 255 255 
255 255 255 255 255 255 255 255 255 255 255 255 255 255 255 255 255 205 240 255 220 243 255 255 255 255 255 255 255 255 231 156 150 75 67 237 139 31 49 64 49 148 229 72 162 217 249 253 241 255 255 255 255 189 255 255 255 255 246 252 255 255 255 255 255 255 255 255 255 255 255 255 255 255 255 255 255 255 255 255 255 255 255 255 255 255 255 255 255 255 255 255 255 255 255 255 255 255 255 255 
255 255 255 255 255 255 255 255 255 255 255 255 255 255 255 255 255 255 192 147 219 243 163 172 225 255 255 255 247 255 255 198 163 96 66 213 180 46 27 51 49 133 241 112 97 160 220 226 237 255 255 255 226 255 255 255 255 246 201 255 255 255 255 255 255 255 255 255 255 255 255 255 255 255 255 255 255 255 255 255 255 255 255 255 255 255 255 255 255 255 255 255 255 255 255 255 255 255 255 255 
255 255 255 255 255 255 255 255 255 255 255 255 255 255 255 255 255 246 232 234 174 153 207 255 207 166 223 246 234 225 244 210 154 102 82 184 199 46 25 39 49 123 255 130 57 123 189 207 255 255 255 238 249 255 255 255 246 157 255 255 255 255 255 255 255 255 255 255 255 255 255 255 255 255 255 255 255 255 255 255 255 255 255 255 255 255 255 255 255 255 255 255 255 255 255 255 255 255 255 255 
255 255 255 255 255 255 255 255 255 255 255 255 255 255 255 255 255 255 208 150 171 202 198 159 220 255 241 243 255 234 231 198 157 136 76 162 223 66 28 36 43 102 250 121 70 99 162 225 247 255 246 241 255 255 252 199 142 255 255 255 255 255 255 255 255 255 255 255 255 255 255 255 255 255 255 255 255 255 255 255 255 255 255 255 255 255 255 255 255 255 255 255 255 255 255 255 255 255 255 255 
255 255 255 255 255 255 255 255 255 255 255 255 255 255 255 255 255 255 255 246 147 94 91 163 174 175 255 255 255 255 241 219 162 141 106 156 220 109 42 43 43 78 243 129 81 94 190 216 220 234 220 255 255 243 147 150 255 255 255 255 255 249 238 223 240 255 255 255 255 255 255 255 255 255 255 255 255 255 255 255 255 255 255 255 255 255 255 255 255 255 255 255 255 255 255 255 255 255 255 255 
255 255 255 255 255 255 255 255 255 255 255 255 255 255 255 255 255 255 253 201 202 255 255 246 228 213 247 255 255 255 250 241 211 163 123 133 192 198 66 64 51 67 220 121 99 169 190 192 178 205 255 253 193 145 186 243 255 234 225 205 208 171 169 214 255 255 255 255 255 255 255 255 255 255 255 255 255 255 255 255 255 255 255 255 255 255 255 255 255 255 255 255 255 255 255 255 255 255 255 255 
255 255 255 255 255 255 255 255 255 255 255 255 255 255 255 255 255 255 255 235 208 157 180 255 255 255 255 255 255 252 255 229 189 136 93 93 159 220 127 96 60 58 187 151 160 202 151 144 189 234 255 220 178 184 232 253 211 196 166 150 163 141 178 255 255 255 243 253 255 255 255 255 255 255 255 255 255 255 255 255 255 255 255 255 255 255 255 255 255 255 255 255 255 255 255 255 255 255 255 255 
255 255 255 255 255 255 255 255 255 255 255 255 255 255 255 255 255 255 255 255 252 222 201 184 214 255 255 255 249 231 217 214 204 175 142 105 126 159 175 124 61 58 172 177 226 204 126 130 244 255 255 217 202 235 255 255 228 205 189 166 162 190 255 250 217 219 255 255 255 255 255 255 255 255 255 255 255 255 255 255 255 255 255 255 255 255 255 255 255 255 255 255 255 255 255 255 255 255 255 255 
255 255 255 255 255 255 255 255 255 255 255 255 255 255 255 255 255 255 255 255 255 255 255 255 255 255 255 255 255 255 243 238 240 237 226 174 181 163 142 156 91 61 187 177 255 225 96 163 255 255 241 229 238 255 255 255 234 223 213 217 225 255 243 201 220 255 255 255 255 255 255 255 255 255 255 255 255 255 255 255 255 255 255 255 255 255 255 255 255 255 255 255 255 255 255 255 255 255 255 255 
255 255 255 255 255 255 255 255 255 255 255 255 255 255 255 255 255 255 255 255 255 255 255 255 255 255 255 255 255 255 255 252 234 222 219 192 250 246 187 151 124 76 222 207 255 238 106 216 255 255 247 241 255 255 255 252 246 255 255 255 255 255 223 217 228 255 255 255 255 255 255 255 255 255 255 255 255 255 255 255 255 255 255 255 255 255 255 255 255 255 255 255 255 255 255 255 255 255 255 255 
255 255 255 255 255 255 255 255 255 255 255 255 255 255 255 255 255 255 255 255 255 255 255 255 255 255 255 255 255 255 255 255 255 252 208 156 246 255 255 180 168 105 228 234 255 240 126 210 255 241 246 244 255 255 247 253 253 255 255 255 255 226 225 217 253 241 211 199 199 240 255 255 255 255 255 255 255 255 255 255 255 255 255 255 255 255 255 255 255 255 255 255 255 255 255 255 255 255 255 255 
255 255 255 255 255 255 255 255 255 255 255 255 255 255 255 255 255 255 255 255 255 255 255 255 255 255 255 255 247 253 255 255 255 255 255 184 184 255 255 231 192 151 220 255 255 237 144 211 234 150 118 132 183 211 226 216 255 255 255 255 217 205 234 253 232 193 150 162 174 175 208 255 255 255 255 255 255 255 255 255 255 255 255 255 255 255 255 255 255 255 255 255 255 255 255 255 255 255 255 255 
255 255 255 255 255 255 255 255 255 255 255 255 255 255 255 255 255 255 255 253 243 234 232 241 250 255 253 247 228 222 199 213 253 255 255 243 160 255 255 255 211 198 208 250 255 228 177 223 87 39 39 46 75 144 183 214 247 238 192 157 184 231 229 220 187 162 159 166 240 255 255 255 255 255 255 255 255 255 255 255 255 255 255 255 255 255 255 255 255 255 255 255 255 255 255 255 255 255 255 255 
255 255 255 255 255 255 255 255 255 255 255 255 255 255 255 255 255 255 255 237 210 193 196 202 214 226 244 244 241 246 219 214 232 241 255 255 175 244 255 255 229 219 205 231 222 211 219 124 25 82 52 45 85 75 150 169 145 154 144 178 192 168 132 108 97 102 127 172 210 253 255 255 255 255 255 255 255 255 255 255 255 255 255 255 255 255 255 255 255 255 255 255 255 255 255 255 255 255 255 255 
255 255 255 255 255 255 255 255 255 255 255 255 255 255 255 255 255 255 231 207 177 145 129 150 189 225 255 255 255 255 255 255 255 255 255 255 252 217 255 255 231 243 222 208 183 225 225 63 54 175 46 24 88 130 205 237 255 255 244 189 133 84 58 43 52 70 130 168 225 255 255 255 255 255 255 255 255 255 255 255 255 255 255 255 255 255 255 255 255 255 255 255 255 255 255 255 255 255 255 255 
255 255 255 255 255 255 255 255 255 255 255 255 255 255 255 255 255 255 253 201 175 174 195 219 246 253 255 255 255 255 255 255 202 97 64 88 165 240 255 255 235 240 237 195 166 235 229 45 106 81 21 28 93 144 241 255 255 255 237 196 138 81 45 40 58 76 88 120 139 181 252 255 255 255 255 255 255 255 255 255 255 255 255 255 255 255 255 255 255 255 255 255 255 255 255 255 255 255 255 255 
255 255 255 255 255 255 255 255 255 255 255 255 255 255 255 255 255 231 226 243 244 255 255 255 255 255 255 255 255 255 246 199 88 64 48 58 63 100 255 255 252 235 241 204 184 228 225 36 111 156 121 117 138 157 255 255 255 255 244 201 123 97 73 45 45 49 63 63 91 121 183 255 255 255 255 255 255 255 255 255 255 255 255 255 255 255 255 255 255 255 255 255 255 255 255 255 255 255 255 255 
255 255 255 255 255 255 255 255 255 255 255 255 255 255 255 255 255 217 156 115 121 115 126 166 222 255 255 255 255 255 226 136 84 70 232 60 127 121 172 255 255 243 255 220 208 208 235 73 37 97 135 120 93 238 255 244 255 253 213 180 181 177 153 124 111 105 106 135 148 196 255 255 255 255 255 255 255 255 255 255 255 255 255 255 255 255 255 255 255 255 255 255 255 255 255 255 255 255 255 255 
255 255 255 255 255 255 255 255 255 255 255 255 255 255 255 255 244 238 244 235 210 174 171 187 225 255 255 255 255 255 162 120 130 63 34 24 114 144 79 255 255 255 255 244 238 190 216 142 133 75 69 118 219 255 225 241 222 216 211 204 213 207 213 220 219 205 169 154 175 177 186 226 255 255 255 255 255 255 255 255 255 255 255 255 255 255 255 255 255 255 255 255 255 255 255 255 255 255 255 255 
255 255 255 255 255 255 255 255 255 255 255 255 255 255 255 255 255 255 255 255 255 255 255 255 255 255 255 241 181 148 187 180 151 90 52 64 168 108 90 213 243 243 255 249 255 234 189 144 187 217 240 252 240 208 202 204 207 189 163 160 186 237 237 232 204 160 117 73 73 102 166 214 255 255 255 255 255 255 255 255 255 255 255 255 255 255 255 255 255 255 255 255 255 255 255 255 255 255 255 255 
255 255 255 255 255 255 255 255 255 255 255 255 255 255 255 255 255 255 252 217 217 237 237 223 180 132 90 124 216 255 255 249 142 154 169 159 142 120 190 180 199 244 240 235 213 193 196 165 151 205 226 202 166 138 169 181 181 201 228 255 255 255 232 210 159 97 84 94 118 159 216 255 255 255 255 255 255 255 255 255 255 255 255 255 255 255 255 255 255 255 255 255 255 255 255 255 255 255 255 255 
255 255 255 255 255 255 255 255 255 255 255 255 255 255 255 255 255 255 234 220 196 172 139 105 93 88 192 255 255 255 255 255 255 154 109 109 121 193 205 177 189 231 213 241 252 189 138 163 145 159 147 147 165 187 177 213 255 255 255 255 255 237 222 202 202 198 202 216 229 255 255 255 255 255 255 255 255 255 255 255 255 255 255 255 255 255 255 255 255 255 255 255 255 255 255 255 255 255 255 255 
255 255 255 255 255 255 255 255 255 255 255 255 255 255 255 255 255 222 165 151 159 139 105 75 87 156 225 246 255 255 255 238 250 255 255 255 255 255 223 180 183 201 226 253 253 226 177 163 175 166 169 177 159 186 219 246 255 255 255 255 255 255 255 250 228 213 217 226 237 255 255 255 255 255 255 255 255 255 255 255 255 255 255 255 255 255 255 255 255 255 255 255 255 255 255 255 255 255 255 255 
255 255 255 255 255 255 255 255 255 255 255 255 255 255 255 255 198 183 186 159 153 91 76 88 120 172 190 213 232 241 240 219 174 145 145 148 162 177 186 183 207 195 232 232 214 183 162 141 207 210 193 181 207 219 234 247 255 255 255 255 255 249 228 216 202 192 169 148 144 166 210 255 255 255 255 255 255 255 255 255 255 255 255 255 255 255 255 255 255 255 255 255 255 255 255 255 255 255 255 255 
255 255 255 255 255 255 255 255 255 255 255 255 255 255 255 214 207 198 211 210 145 118 114 165 223 255 255 255 255 255 241 214 192 175 160 144 157 166 189 222 237 214 181 171 172 133 123 210 250 241 228 223 219 235 255 255 238 241 246 255 246 217 198 184 159 156 181 204 181 141 124 162 217 255 255 255 255 255 255 255 255 255 255 255 255 255 255 255 255 255 255 255 255 255 255 255 255 255 255 255 
255 255 255 255 255 255 255 255 255 255 255 255 255 255 247 232 231 216 246 219 192 190 201 228 240 252 255 255 255 255 255 255 255 255 244 228 217 210 222 237 255 255 210 165 154 123 177 232 243 241 243 255 247 199 183 210 237 240 205 172 171 205 198 148 162 180 147 121 120 126 115 120 147 183 252 255 255 255 255 255 255 255 255 255 255 255 255 255 255 255 255 255 255 255 255 255 255 255 255 255 
255 255 255 255 255 255 255 255 255 255 255 255 255 255 255 255 222 255 238 211 180 174 178 189 219 247 255 255 255 255 255 255 255 255 255 255 255 255 255 255 255 243 243 231 175 172 244 255 255 253 226 196 208 211 246 255 255 255 255 252 207 165 157 189 159 117 172 172 106 76 66 67 115 169 238 255 255 255 255 255 255 255 255 255 255 255 255 255 255 255 255 255 255 255 255 255 255 255 255 255 
255 255 255 255 255 255 255 255 255 255 255 255 255 255 255 247 255 229 193 168 145 139 183 193 214 250 255 255 255 255 255 255 255 255 255 255 255 255 247 255 255 255 255 244 201 189 220 220 232 244 249 237 222 238 246 253 255 255 234 232 255 252 195 148 177 169 114 103 154 91 34 49 61 123 187 255 255 255 255 255 255 255 255 255 255 255 255 255 255 255 255 255 255 255 255 255 255 255 255 255 
255 255 255 255 255 255 255 255 255 255 255 255 255 255 255 255 246 229 205 168 142 115 105 135 195 229 249 255 255 255 255 255 255 255 255 255 255 255 255 255 255 255 247 195 154 175 159 162 154 175 186 208 219 220 229 223 213 226 229 159 114 159 223 240 160 171 165 97 57 112 111 46 37 88 198 255 255 255 255 255 255 255 255 255 255 255 255 255 255 255 255 255 255 255 255 255 255 255 255 255 
255 255 255 255 255 255 255 255 255 255 255 255 255 255 255 255 255 246 186 118 84 63 103 190 222 220 201 184 237 255 255 255 255 255 255 255 255 255 255 255 255 255 156 136 196 219 247 229 193 171 159 168 207 214 235 247 237 214 199 243 208 126 72 112 208 205 193 168 91 46 58 136 148 142 216 255 255 255 255 255 255 255 255 255 255 255 255 255 255 255 255 255 255 255 255 255 255 255 255 255 
255 255 255 255 255 255 255 255 255 255 255 255 255 255 255 255 255 219 117 76 123 186 225 223 228 201 202 255 255 237 234 237 235 255 255 255 255 255 255 255 246 153 159 243 255 255 255 255 255 255 255 255 255 255 255 255 255 255 238 211 240 255 246 187 121 129 159 192 181 145 84 52 120 163 193 211 255 255 255 255 255 255 255 255 255 255 255 255 255 255 255 255 255 255 255 255 255 255 255 255 
255 255 255 255 255 255 255 255 255 255 255 255 255 255 255 255 255 174 142 198 199 204 232 228 225 240 210 195 190 192 196 195 255 255 255 255 255 255 255 255 187 177 252 255 255 255 255 255 255 255 255 255 255 255 255 255 255 255 253 225 189 184 232 252 237 189 178 169 163 169 186 163 121 162 214 243 255 255 255 255 255 255 255 255 255 255 255 255 255 255 255 255 255 255 255 255 255 255 255 255 
255 255 255 255 255 255 255 255 255 255 255 255 255 255 255 255 240 243 255 234 252 240 255 255 255 207 162 145 166 202 196 253 255 255 255 255 255 255 255 225 229 253 255 255 255 255 255 255 255 255 255 255 255 255 255 255 255 255 234 205 172 132 82 139 202 180 181 189 163 133 144 139 132 103 93 144 174 207 255 255 255 255 255 255 255 255 255 255 255 255 255 255 255 255 255 255 255 255 255 255 
255 255 255 255 255 255 255 255 255 255 255 255 255 255 255 255 255 255 255 255 255 255 255 255 216 147 114 139 228 219 255 255 255 226 223 255 255 255 255 255 255 255 255 255 255 255 255 255 255 255 255 255 255 255 255 250 238 255 255 234 156 144 108 60 61 136 163 148 169 187 150 121 129 84 69 69 103 177 252 255 255 255 255 255 255 255 255 255 255 255 255 255 255 255 255 255 255 255 255 255 
255 255 255 255 255 255 255 255 255 255 255 255 255 255 255 255 255 255 255 255 238 219 222 214 153 102 115 220 247 244 255 205 183 180 255 255 255 255 255 255 255 255 255 255 255 255 255 255 255 255 255 255 255 255 255 255 232 133 142 208 240 157 100 105 87 73 102 157 135 127 133 178 120 106 60 67 103 187 255 255 255 255 255 255 255 255 255 255 255 255 255 255 255 255 255 255 255 255 255 255 
255 255 255 255 255 255 255 255 255 255 255 255 255 255 255 255 255 255 255 234 171 177 196 157 121 124 199 255 244 243 198 144 186 255 255 243 214 255 255 255 255 255 255 255 255 255 255 255 255 255 249 241 234 190 216 235 255 253 136 84 118 181 156 75 57 58 79 87 118 175 127 81 132 123 75 76 87 109 147 246 255 255 255 255 255 255 255 255 255 255 255 255 255 255 255 255 255 255 255 255 
255 255 255 255 255 255 255 255 255 255 255 255 255 255 255 255 255 255 255 151 130 169 124 147 160 204 249 235 207 213 130 151 246 255 222 171 250 255 255 255 255 255 255 255 255 255 255 255 225 229 195 187 193 160 111 141 189 247 255 169 97 81 126 147 78 51 78 82 78 111 180 114 54 82 82 45 69 85 94 139 198 255 255 255 255 255 255 255 255 255 255 255 255 255 255 255 255 255 255 255 
255 255 255 255 255 255 255 255 255 255 255 253 234 255 255 250 255 255 195 141 166 114 163 184 208 226 180 162 184 148 114 187 241 235 141 198 255 255 235 228 255 255 255 255 255 255 255 255 204 208 138 96 142 186 157 81 76 124 189 241 186 112 73 88 118 93 84 66 75 91 90 160 81 40 73 61 67 136 204 246 255 255 255 255 255 255 255 255 255 255 255 255 255 255 255 255 255 255 255 255 
255 255 255 255 255 255 255 255 255 255 198 148 88 123 204 211 198 204 169 177 139 199 211 226 210 111 91 151 151 136 133 177 244 130 114 237 255 243 174 204 222 253 255 255 255 240 226 252 231 199 159 112 82 108 159 129 58 67 99 126 181 186 160 106 94 106 114 100 87 93 66 85 127 49 25 75 46 60 117 220 255 255 255 255 255 255 255 255 255 255 255 255 255 255 255 255 255 255 255 255 
255 255 255 255 255 255 255 255 255 255 154 91 79 67 108 180 198 189 214 216 229 252 231 184 79 64 111 105 151 142 136 174 216 72 154 223 255 187 156 168 192 214 237 234 253 241 202 213 255 222 186 150 136 103 72 108 84 46 84 172 148 79 75 103 102 126 139 132 138 129 66 57 85 103 46 54 91 73 111 186 238 255 255 255 255 255 255 255 255 255 255 255 255 255 255 255 255 255 255 255 
255 255 255 255 255 255 255 255 255 253 141 111 100 94 156 193 202 240 255 255 255 210 159 60 52 79 78 120 154 153 148 223 112 82 160 193 249 133 118 127 165 169 195 255 255 201 196 180 220 244 193 135 118 124 79 46 67 57 39 73 187 214 112 39 57 78 127 166 174 192 165 73 37 52 75 45 57 133 157 199 255 255 255 255 255 255 255 255 255 255 255 255 255 255 255 255 255 255 255 255 
255 255 255 255 255 255 255 255 255 255 130 99 112 148 174 220 244 255 255 229 202 133 55 57 73 72 148 160 171 154 193 168 52 111 159 189 210 108 109 124 139 154 243 255 201 174 177 201 157 219 198 150 112 87 111 39 33 34 51 57 40 138 253 201 72 40 81 166 165 157 186 172 91 33 25 54 51 57 145 234 255 255 255 255 255 255 255 255 255 255 255 255 255 255 255 255 255 255 255 255 
255 255 255 255 255 255 255 255 255 255 211 129 96 88 121 139 198 186 172 153 100 73 49 121 126 174 196 151 133 163 208 85 48 136 159 190 175 96 135 147 198 244 244 184 144 156 166 199 127 147 205 138 132 102 93 81 33 25 12 34 75 30 63 201 255 183 63 64 153 151 132 162 139 106 49 42 63 82 87 124 229 255 255 255 255 255 255 255 255 255 255 255 255 255 255 255 255 255 255 255 
255 255 255 255 255 255 255 255 255 255 255 132 91 97 109 124 67 69 105 97 114 76 162 180 211 216 154 69 142 217 130 93 112 180 142 183 126 142 180 195 205 163 144 111 160 165 157 196 132 127 172 195 121 144 117 67 64 31 34 19 42 115 52 21 75 225 255 174 91 94 112 85 123 141 108 115 133 135 121 141 156 204 255 255 255 255 255 255 255 255 255 255 255 255 255 255 255 255 255 255 
255 255 255 255 255 255 255 255 255 255 255 204 118 136 102 60 52 58 99 160 127 156 201 207 219 162 55 72 168 214 117 130 175 142 120 163 112 99 117 138 127 138 120 124 172 172 177 208 138 111 150 204 183 160 165 121 69 67 46 82 28 79 141 49 36 39 117 255 232 123 111 115 58 67 127 105 91 165 187 225 255 255 255 255 255 255 255 255 255 255 255 255 255 255 255 255 255 255 255 255 
255 255 255 255 255 255 255 255 255 255 255 255 232 141 103 67 61 84 138 189 181 220 207 217 177 43 58 90 232 184 165 178 219 139 129 172 124 136 156 141 151 130 129 181 192 198 198 238 163 123 138 180 234 255 250 213 171 97 102 73 133 57 123 147 73 63 73 73 169 255 166 105 141 100 46 49 63 45 115 204 249 255 255 255 255 255 255 255 255 255 255 255 255 255 255 255 255 255 255 255 
255 255 255 255 255 255 255 255 255 255 255 255 255 237 165 118 132 144 205 220 226 199 223 154 57 70 94 147 252 162 204 237 210 126 199 162 177 214 177 201 187 153 210 223 216 196 229 220 255 114 153 208 204 219 241 255 225 171 141 108 106 183 112 139 147 88 81 81 79 123 237 235 153 177 151 103 72 52 64 120 255 255 255 255 255 255 255 255 255 255 255 255 255 255 255 255 255 255 255 255 
255 255 255 255 255 255 255 255 255 255 255 255 255 255 255 237 192 220 220 250 217 208 136 64 105 145 130 208 229 184 246 237 195 186 216 211 244 229 199 241 202 243 255 255 253 198 198 234 255 226 121 219 244 255 250 244 255 235 177 171 96 124 199 159 94 90 39 61 103 136 157 204 255 255 255 222 184 115 99 135 220 255 255 255 255 255 255 255 255 255 255 255 255 255 255 255 255 255 255 255 
255 255 255 255 255 255 255 255 255 255 255 255 255 255 255 255 255 255 247 237 223 142 91 150 189 172 145 243 205 240 253 222 153 210 216 255 255 207 255 252 229 255 255 255 255 247 247 207 222 255 133 192 247 240 255 228 255 246 217 202 154 78 90 160 156 57 58 24 28 84 154 207 219 255 253 255 255 234 202 199 223 255 255 255 255 255 255 255 255 255 255 255 255 255 255 255 255 255 255 255 
255 255 255 255 255 255 255 255 255 255 255 255 255 255 255 255 255 255 255 253 186 114 190 216 211 195 207 234 240 247 223 183 142 190 255 255 231 223 255 250 246 255 255 255 255 255 255 255 250 234 178 147 253 235 216 195 255 253 184 246 207 124 69 102 148 108 58 45 30 18 48 115 189 214 235 243 192 148 184 234 252 255 255 255 255 255 255 255 255 255 255 255 255 255 255 255 255 255 255 255 
255 255 255 255 255 255 255 255 255 255 255 255 255 255 255 255 255 255 255 246 162 222 253 243 192 178 207 238 226 177 136 109 157 234 237 222 186 249 247 255 255 255 255 255 255 255 255 255 255 255 220 154 220 246 183 136 255 255 181 220 187 202 123 111 159 145 73 57 49 46 46 63 117 139 166 175 174 132 121 177 250 255 255 255 255 255 255 255 255 255 255 255 255 255 255 255 255 255 255 255 
255 255 255 255 255 255 255 255 255 255 255 255 255 255 255 255 255 255 255 225 237 255 255 168 171 150 226 187 129 97 75 126 169 184 141 157 199 214 247 255 246 255 255 255 255 255 255 255 255 255 255 198 220 232 169 106 255 255 165 219 130 159 190 93 87 142 67 51 37 58 66 57 75 120 106 84 103 127 114 171 244 255 255 255 255 255 255 255 255 255 255 255 255 255 255 255 255 255 255 255 
255 255 255 255 255 255 255 255 255 255 255 255 255 255 255 255 255 255 255 255 255 255 220 217 115 190 141 108 78 64 91 115 117 111 130 156 195 184 232 243 226 208 255 255 255 255 255 255 255 255 255 238 240 235 120 72 228 255 144 211 124 84 166 171 108 117 70 60 66 73 76 66 76 93 105 39 51 124 81 151 255 255 255 255 255 255 255 255 255 255 255 255 255 255 255 255 255 255 255 255 
255 255 255 255 255 255 255 255 255 255 255 255 255 255 255 255 255 255 255 255 255 255 243 94 166 142 75 73 61 87 127 138 124 126 166 162 150 157 195 225 217 156 255 255 255 255 255 255 255 255 255 250 255 235 84 57 187 253 117 153 138 69 102 124 126 114 78 85 97 133 153 144 94 72 108 54 37 76 106 145 255 255 255 255 255 255 255 255 255 255 255 255 255 255 255 255 255 255 255 255 
255 255 255 255 255 255 255 255 255 255 255 255 255 255 255 255 255 255 255 255 255 255 153 171 205 72 75 112 177 217 244 220 156 160 166 103 85 169 139 192 219 135 223 255 244 255 255 255 255 255 255 255 255 252 63 54 150 214 136 115 163 67 75 97 66 63 63 43 42 64 126 198 214 133 111 76 73 72 154 213 255 255 255 255 255 255 255 255 255 255 255 255 255 255 255 255 255 255 255 255 
255 255 255 255 255 255 255 255 255 255 255 255 255 255 255 255 255 255 255 255 255 255 199 255 139 121 178 247 255 231 135 91 175 199 112 64 79 148 103 160 211 141 127 255 255 186 255 255 255 255 255 255 255 241 58 49 121 166 147 84 145 93 55 63 55 33 48 49 58 115 126 109 129 207 204 135 130 172 211 255 255 255 255 255 255 255 255 255 255 255 255 255 255 255 255 255 255 255 255 255 
255 255 255 255 255 255 255 255 255 255 255 255 255 255 255 255 255 255 255 255 255 255 255 232 202 228 232 168 91 72 186 255 231 123 45 84 117 123 96 139 181 115 66 174 255 187 232 255 255 255 237 255 243 202 57 70 108 141 153 85 114 81 73 63 73 48 73 93 154 183 151 127 97 97 141 222 243 255 255 255 255 255 255 255 255 255 255 255 255 255 255 255 255 255 255 255 255 255 255 255 
255 255 255 255 255 255 255 255 255 255 255 255 255 255 255 255 255 255 255 255 255 255 255 255 226 156 90 79 157 255 255 205 84 43 70 126 126 117 102 132 174 97 37 123 174 253 153 255 255 255 220 255 217 172 69 109 114 144 157 108 112 106 108 129 120 121 139 175 162 153 109 96 114 102 106 103 210 255 255 255 255 255 255 255 255 255 255 255 255 255 255 255 255 255 255 255 255 255 255 255 
255 255 255 255 255 255 255 255 255 255 255 255 255 255 255 255 255 255 255 255 255 255 255 234 162 130 178 250 255 204 90 39 87 174 223 199 193 172 136 135 136 61 39 88 76 195 180 178 255 249 204 250 183 148 123 153 139 177 178 156 144 115 90 94 144 172 157 199 210 150 58 30 37 100 165 183 160 198 255 255 255 255 255 255 255 255 255 255 255 255 255 255 255 255 255 255 255 255 255 255 
255 255 255 255 255 255 255 255 255 255 255 255 255 255 255 255 255 255 255 255 255 255 255 255 231 234 213 130 76 61 115 174 255 255 255 255 240 223 202 159 123 64 34 57 55 99 216 126 195 223 178 219 159 115 148 177 159 195 186 186 174 148 118 88 76 87 120 180 190 177 123 55 27 33 69 181 255 255 255 255 255 255 255 255 255 255 255 255 255 255 255 255 255 255 255 255 255 255 255 255 
255 255 255 255 255 255 255 255 255 255 255 255 255 255 255 255 255 255 255 255 255 255 255 255 255 175 108 103 127 201 220 255 255 255 255 255 249 243 255 184 148 109 43 39 63 70 207 103 117 216 171 178 129 106 150 187 148 193 165 154 141 120 112 99 69 43 73 166 168 142 112 61 43 28 40 76 189 255 255 255 255 255 255 255 255 255 255 255 255 255 255 255 255 255 255 255 255 255 255 255 
255 255 255 255 255 255 255 255 255 255 255 255 255 255 255 255 255 255 255 255 255 255 255 255 255 187 144 144 201 240 255 255 255 255 243 246 249 255 255 249 178 186 82 28 57 64 175 117 51 138 184 133 115 94 135 193 121 189 144 129 85 94 82 70 82 69 97 168 94 75 91 88 52 37 40 91 150 220 255 255 255 255 255 255 255 255 255 255 255 255 255 255 255 255 255 255 255 255 255 255 
255 255 255 255 255 255 255 255 255 255 255 255 255 255 255 255 255 255 255 255 255 255 255 255 225 150 180 231 255 255 255 255 255 184 198 235 238 255 255 255 216 246 189 100 54 48 136 129 30 63 198 100 94 72 102 174 115 162 145 121 93 58 112 84 108 118 175 75 36 34 30 36 51 64 67 111 156 216 255 255 255 255 255 255 255 255 255 255 255 255 255 255 255 255 255 255 255 255 255 255 
255 255 255 255 255 255 255 255 255 255 255 255 255 255 255 255 255 255 255 255 255 255 255 255 255 252 246 243 255 255 255 253 129 141 228 255 228 255 255 255 247 255 208 154 97 58 109 106 30 31 180 85 81 57 64 132 127 118 147 118 120 42 61 141 163 160 157 55 24 22 22 27 30 64 120 144 181 229 255 255 255 255 255 255 255 255 255 255 255 255 255 255 255 255 255 255 255 255 255 255 
255 255 255 255 255 255 255 255 255 255 255 255 255 255 255 255 255 255 255 255 255 255 255 255 255 255 253 249 255 255 255 114 136 226 255 237 247 255 255 255 255 255 255 202 100 60 103 90 19 19 160 109 66 31 36 87 148 82 132 129 153 79 48 88 178 205 174 114 52 18 21 24 39 75 150 213 229 255 255 255 255 255 255 255 255 255 255 255 255 255 255 255 255 255 255 255 255 255 255 255 
255 255 255 255 255 255 255 255 255 255 255 255 255 255 255 255 255 255 255 255 255 255 255 255 255 255 255 255 255 255 132 154 255 255 255 225 252 255 255 255 255 255 255 255 178 72 96 61 7 24 129 142 63 42 37 63 144 111 103 123 150 174 97 79 144 193 196 129 106 67 33 39 58 117 169 232 255 255 255 255 255 255 255 255 255 255 255 255 255 255 255 255 255 255 255 255 255 255 255 255 
255 255 255 255 255 255 255 255 255 255 255 255 255 255 255 255 255 255 255 255 255 255 255 255 255 255 255 255 255 184 195 255 255 255 255 228 253 255 255 249 255 255 255 255 241 105 82 31 10 28 99 163 88 63 49 54 100 123 138 165 183 208 232 187 168 214 196 165 100 64 67 57 105 157 220 255 255 255 255 255 255 255 255 255 255 255 255 255 255 255 255 255 255 255 255 255 255 255 255 255 
255 255 255 255 255 255 255 255 255 255 255 255 255 255 255 255 255 255 255 255 255 255 255 255 255 255 255 255 255 255 255 255 255 255 255 255 255 255 229 213 249 255 255 255 213 190 106 18 18 28 96 169 123 150 196 226 231 235 214 219 214 211 225 210 238 238 255 237 175 106 76 99 147 186 223 255 255 255 255 255 255 255 255 255 255 255 255 255 255 255 255 255 255 255 255 255 255 255 255 255 
255 255 255 255 255 255 255 255 255 255 255 255 255 255 255 255 255 255 255 255 255 255 255 255 255 255 255 255 255 255 255 255 255 255 250 253 243 195 180 205 241 255 255 255 207 120 145 112 43 52 127 210 219 226 184 132 124 115 108 129 154 160 175 202 213 237 225 225 219 166 127 124 156 181 208 232 255 255 255 255 255 255 255 255 255 255 255 255 255 255 255 255 255 255 255 255 255 255 255 255 
255 255 255 255 255 255 255 255 255 255 255 255 255 255 255 255 255 255 255 255 255 255 255 255 255 255 255 255 255 255 255 255 255 229 172 156 148 166 183 198 222 255 255 255 255 213 99 82 130 151 189 225 249 163 126 136 189 192 166 175 246 216 219 162 192 235 186 159 138 154 142 166 186 201 231 255 255 255 255 255 255 255 255 255 255 255 255 255 255 255 255 255 255 255 255 255 255 255 255 255 
255 255 255 255 255 255 255 255 255 255 255 255 255 255 255 255 255 255 255 255 255 255 255 255 255 255 255 255 255 255 255 205 175 163 175 186 196 180 180 181 210 255 255 255 255 246 172 118 111 150 225 255 225 114 156 223 207 207 186 144 252 238 234 175 133 234 252 187 151 154 214 225 250 255 255 255 255 255 255 255 255 255 255 255 255 255 255 255 255 255 255 255 255 255 255 255 255 255 255 255 
255 255 255 255 255 255 255 255 255 255 255 255 255 255 255 255 255 255 255 255 255 255 255 255 255 255 255 255 255 255 255 255 252 255 255 249 253 247 229 219 205 235 255 255 255 220 181 145 135 154 249 234 180 139 205 232 192 184 213 154 232 255 250 205 117 142 241 244 205 241 255 255 255 255 255 255 255 255 255 255 255 255 255 255 255 255 255 255 255 255 255 255 255 255 255 255 255 255 255 255 
255 255 255 255 255 255 255 255 255 255 255 255 255 255 255 255 255 255 255 255 255 255 255 255 255 255 255 255 255 255 255 249 213 195 166 166 187 210 204 201 187 195 255 255 244 214 171 129 135 175 232 205 121 220 220 229 168 207 231 169 199 238 252 255 199 114 187 253 255 255 255 255 255 255 255 255 255 255 255 255 255 255 255 255 255 255 255 255 255 255 255 255 255 255 255 255 255 255 255 255 
255 255 255 255 255 255 255 255 255 255 255 255 255 255 255 255 255 255 255 255 255 255 255 255 255 255 255 255 255 255 255 250 223 238 223 213 195 180 172 225 216 190 189 250 243 184 178 141 144 222 228 187 154 243 238 231 177 244 229 172 193 228 255 255 252 205 198 255 255 255 255 255 255 255 255 255 255 255 255 255 255 255 255 255 255 255 255 255 255 255 255 255 255 255 255 255 255 255 255 255 
255 255 255 255 255 255 255 255 255 255 255 255 255 255 255 255 255 255 255 255 255 255 255 255 255 255 255 255 255 255 255 208 228 255 255 253 216 189 165 219 237 207 190 208 238 222 154 186 231 255 237 196 223 240 250 216 255 225 247 199 192 231 223 228 255 255 255 255 255 255 255 255 255 255 255 255 255 255 255 255 255 255 255 255 255 255 255 255 255 255 255 255 255 255 255 255 255 255 255 255 
255 255 255 255 255 255 255 255 255 255 255 255 255 255 255 255 255 255 255 255 255 255 255 255 255 255 255 238 255 255 255 178 255 255 255 226 220 207 169 168 219 214 177 196 226 226 207 255 255 255 255 255 255 255 255 255 255 255 255 255 255 255 255 255 255 255 255 255 255 255 255 255 255 255 255 255 255 255 255 255 255 255 255 255 255 255 255 255 255 255 255 255 255 255 255 255 255 255 255 255 
255 255 255 255 255 255 255 255 255 255 255 255 255 255 255 255 255 255 255 255 255 255 255 255 255 255 255 255 255 255 229 210 255 255 234 247 246 214 204 168 165 207 196 195 187 210 255 255 255 255 255 255 255 255 255 255 255 255 255 255 255 255 255 255 255 255 255 255 255 255 255 255 255 255 255 255 255 255 255 255 255 255 255 255 255 255 255 255 255 255 255 255 255 255 255 255 255 255 255 255 
255 255 255 255 255 255 255 255 255 255 255 255 255 255 255 255 255 255 255 255 255 255 255 255 255 255 255 255 255 255 228 255 255 235 208 237 252 246 220 195 192 190 190 168 205 255 255 255 255 255 255 255 255 255 255 255 255 255 255 255 255 255 255 255 255 255 255 255 255 255 255 255 255 255 255 255 255 255 255 255 255 255 255 255 255 255 255 255 255 255 255 255 255 255 255 255 255 255 255 255 
255 255 255 255 255 255 255 255 255 255 255 255 255 255 255 255 255 255 255 255 255 255 255 255 255 255 255 255 255 255 255 255 255 255 241 205 232 244 219 184 184 177 229 255 255 255 255 255 255 255 255 255 255 255 255 255 255 255 255 255 255 255 255 255 255 255 255 255 255 255 255 255 255 255 255 255 255 255 255 255 255 255 255 255 255 255 255 255 255 255 255 255 255 255 255 255 255 255 255 255 
255 255 255 255 255 255 255 255 255 255 255 255 255 255 255 255 255 255 255 255 255 255 255 255 255 255 255 255 255 255 255 255 255 255 255 255 255 255 255 255 255 255 255 255 255 255 255 255 255 255 255 255 255 255 255 255 255 255 255 255 255 255 255 255 255 255 255 255 255 255 255 255 255 255 255 255 255 255 255 255 255 255 255 255 255 255 255 255 255 255 255 255 255 255 255 255 255 255 255 255 
255 255 255 255 255 255 255 255 255 255 255 255 255 255 255 255 255 255 255 255 255 255 255 255 255 255 255 255 255 255 255 255 255 255 255 255 255 255 255 255 255 255 255 255 255 255 255 255 255 255 255 255 255 255 255 255 255 255 255 255 255 255 255 255 255 255 255 255 255 255 255 255 255 255 255 255 255 255 255 255 255 255 255 255 255 255 255 255 255 255 255 255 255 255 255 255 255 255 255 255 
255 255 255 255 255 255 255 255 255 255 255 255 255 255 255 255 255 255 255 255 255 255 255 255 255 255 255 255 255 255 255 255 255 255 255 255 255 255 255 255 255 255 255 255 255 255 255 255 255 255 255 255 255 255 255 255 255 255 255 255 255 255 255 255 255 255 255 255 255 255 255 255 255 255 255 255 255 255 255 255 255 255 255 255 255 255 255 255 255 255 255 255 255 255 255 255 255 255 255 255 
255 255 255 255 255 255 255 255 255 255 255 255 255 255 255 255 255 255 255 255 255 255 255 255 255 255 255 255 255 255 255 255 255 255 255 255 255 255 255 255 255 255 255 255 255 255 255 255 255 255 255 255 255 255 255 255 255 255 255 255 255 255 255 255 255 255 255 255 255 255 255 255 255 255 255 255 255 255 255 255 255 255 255 255 255 255 255 255 255 255 255 255 255 255 255 255 255 255 255 255 
